<?xml version="1.0" encoding="utf-8"?>
<!-- Generator: Adobe Illustrator 28.2.0, SVG Export Plug-In . SVG Version: 6.00 Build 0)  -->
<svg version="1.1" id="レイヤー_1" xmlns="http://www.w3.org/2000/svg" xmlns:xlink="http://www.w3.org/1999/xlink" x="0px"
	 y="0px" viewBox="0 0 45 45" style="enable-background:new 0 0 45 45;" xml:space="preserve">
<style type="text/css">
	.st0{fill:#FFDC00;}
	.st1{fill:#231815;}
	.st2{fill:#FFFFFF;}
	.st3{fill:url(#SVGID_1_);}
</style>
<g>
	<g id="_レイヤー_1-2_00000155112396243269408100000008886410353495192717_">
		<path class="st0" d="M33.65,19.42c0.32,0,0.6,0.17,0.72,0.44c0.27,0.6,0.4,1.24,0.37,1.9c-0.09,2.36-2.14,4.22-4.6,4.31
			c0.01-0.13,0.03-0.27,0.03-0.4l0.04-0.78c1.49-0.04,2.9-1.14,3.2-2.51c0.12-0.55,0.05-1.09-0.19-1.56
			c-0.07-0.13-0.2-0.21-0.35-0.21h-2.46l0.05-1.19L33.65,19.42L33.65,19.42z"/>
		<path class="st0" d="M19.66,30.29c-2.27-0.41-3.98-2.36-4.05-4.66l-0.37-7.87h14.52l-0.37,7.88c-0.07,2.29-1.78,4.25-4.05,4.65
			c-0.97,0.17-1.92,0.26-2.84,0.26S20.63,30.46,19.66,30.29z"/>
		<path class="st0" d="M33.8,32.09c-0.65,0.64-1.52,0.99-2.43,0.99H13.63c-0.91,0-1.78-0.35-2.43-0.99l-0.76-0.74h24.13L33.8,32.09
			L33.8,32.09z"/>
		<path class="st1" d="M35.89,30.8c-0.06-0.15-0.2-0.25-0.37-0.25h-8.51c1.47-0.74,2.57-2.09,2.98-3.68
			c2.97-0.01,5.43-2.25,5.54-5.08c0.03-0.78-0.12-1.54-0.44-2.26c-0.25-0.55-0.82-0.91-1.44-0.91h-3.15l0.06-1.24
			c0-0.11-0.03-0.21-0.11-0.29c-0.08-0.08-0.18-0.12-0.29-0.12H14.83c-0.11,0-0.21,0.04-0.29,0.12c-0.08,0.08-0.11,0.18-0.11,0.29
			l0.39,8.28c0.07,2.11,1.33,3.97,3.16,4.89H9.47c-0.16,0-0.3,0.1-0.37,0.25c-0.06,0.15-0.03,0.32,0.09,0.43l1.45,1.42
			c0.8,0.79,1.86,1.22,2.99,1.22h17.74c1.12,0,2.18-0.43,2.99-1.22l1.45-1.42C35.92,31.12,35.96,30.95,35.89,30.8L35.89,30.8z
			 M30.37,21.39h2.24c0.08,0.25,0.09,0.53,0.03,0.82c-0.22,1.02-1.27,1.83-2.39,1.89L30.37,21.39z M33.65,19.42
			c0.32,0,0.6,0.17,0.72,0.44c0.27,0.6,0.4,1.24,0.37,1.9c-0.09,2.36-2.14,4.22-4.6,4.31c0.01-0.13,0.03-0.27,0.03-0.4l0.04-0.78
			c1.49-0.04,2.9-1.14,3.2-2.51c0.12-0.55,0.05-1.09-0.19-1.56c-0.07-0.13-0.2-0.21-0.35-0.21h-2.46l0.05-1.19L33.65,19.42
			L33.65,19.42z M19.66,30.29c-2.27-0.41-3.98-2.36-4.05-4.66l-0.37-7.87h14.52l-0.37,7.88c-0.07,2.29-1.78,4.25-4.05,4.65
			c-0.97,0.17-1.92,0.26-2.84,0.26S20.63,30.46,19.66,30.29z M33.8,32.09c-0.65,0.64-1.52,0.99-2.43,0.99H13.63
			c-0.91,0-1.78-0.35-2.43-0.99l-0.76-0.74h24.13L33.8,32.09L33.8,32.09z"/>
		<path class="st0" d="M24.03,8.88c-0.26,0.47-0.53,1.27-0.15,1.92c0.38,0.65,0.72,0.95,0.55,2.1c-0.15,0.99-0.78,1.14-0.78,1.14
			s1.43-0.38,1.66-1.66s-0.25-1.74-0.22-2.31c0.04-0.94,1.06-1.41,0.48-1.96C25.15,7.72,24.29,8.41,24.03,8.88L24.03,8.88z"/>
		<path class="st0" d="M20.25,8.44c-0.21,0.7-0.32,1.86,0.38,2.62c0.7,0.76,1.26,1.05,1.38,2.64c0.11,1.36-0.69,1.77-0.69,1.77
			s1.8-0.94,1.71-2.72c-0.09-1.78-0.87-2.25-1.01-3.03c-0.23-1.27,0.98-2.21,0.04-2.77C21.39,6.55,20.46,7.74,20.25,8.44L20.25,8.44
			z"/>
		<path class="st2" d="M28.24,25.58l0.21-4.56c0.01-0.22-0.16-0.4-0.38-0.41c-0.22-0.01-0.4,0.16-0.41,0.38l-0.21,4.57
			c-0.05,1.42-1.06,2.59-2.46,2.84c-0.21,0.04-0.36,0.24-0.32,0.46c0.03,0.19,0.2,0.33,0.39,0.33c0.02,0,0.05,0,0.07-0.01
			C26.9,28.85,28.18,27.37,28.24,25.58L28.24,25.58z"/>
	</g>
	<g>
		<g>
			<g>
				<g>
					<g>
						<g>
							<g>
								
									<linearGradient id="SVGID_1_" gradientUnits="userSpaceOnUse" x1="0" y1="21.61" x2="45" y2="21.61" gradientTransform="matrix(1 0 0 -1 0 44.11)">
									<stop  offset="0" style="stop-color:#FFB400"/>
									<stop  offset="0.5" style="stop-color:#FFDC00"/>
								</linearGradient>
								<path class="st3" d="M22.5,3C33.25,3,42,11.75,42,22.5S33.25,42,22.5,42S3,33.25,3,22.5S11.75,3,22.5,3 M22.5,0
									C10.12,0,0,10.12,0,22.5S10.12,45,22.5,45S45,34.88,45,22.5S34.88,0,22.5,0L22.5,0z"/>
							</g>
						</g>
					</g>
				</g>
			</g>
		</g>
	</g>
</g>
</svg>
