<?xml version="1.0" encoding="utf-8"?>
<!-- Generator: Adobe Illustrator 28.2.0, SVG Export Plug-In . SVG Version: 6.00 Build 0)  -->
<svg version="1.1" id="レイヤー_1" xmlns="http://www.w3.org/2000/svg" xmlns:xlink="http://www.w3.org/1999/xlink" x="0px"
	 y="0px" viewBox="0 0 45 45" style="enable-background:new 0 0 45 45;" xml:space="preserve">
<style type="text/css">
	.st0{fill:#FFDC00;}
	.st1{fill:#231815;}
	.st2{fill:url(#SVGID_1_);}
</style>
<g>
	<g id="_レイヤー_1-2_00000072273954978477570230000015629459879044530344_">
		<path class="st0" d="M11.61,26.81c-0.23-0.55-0.44-1.08-0.63-1.6h0.63V26.81z"/>
		<polygon class="st0" points="26.33,36.39 18.67,36.39 18.67,35.14 22.5,35.14 26.33,35.14 		"/>
		<path class="st0" d="M33.4,26.81v-1.6h0.63C33.84,25.72,33.63,26.26,33.4,26.81z"/>
		<path class="st0" d="M34.29,24.4h-1.7v1.86h-2v-1.06h0.59v0.66H32V24.4h-2.2v2.67h3.49c-0.19,0.42-0.39,0.84-0.61,1.26
			c-1.71,3.27-5.43,5.62-6.05,6h-8.24c-0.62-0.38-4.34-2.72-6.05-6c-0.22-0.42-0.42-0.84-0.61-1.26h3.49V24.4H13v1.47h0.81v-0.66
			h0.59v1.06h-1.99V24.4h-1.7c-0.44-1.36-0.69-2.49-0.81-3.09h25.22C34.99,21.92,34.73,23.05,34.29,24.4z"/>
		<path class="st1" d="M35.9,20.65c-0.08-0.09-0.19-0.14-0.31-0.14H22.59c-0.1-0.12-0.15-0.26-0.15-0.4c0-0.19,0.09-0.36,0.24-0.5
			c0.34-0.29,0.53-0.69,0.53-1.11c0-0.42-0.19-0.82-0.53-1.11c-0.16-0.13-0.24-0.31-0.24-0.5s0.09-0.36,0.24-0.5
			c0.14-0.12,0.26-0.27,0.34-0.42l8.96,0.44c0,0,0.01,0,0.03,0c0.26,0,0.47-0.2,0.48-0.46c0.01-0.27-0.19-0.49-0.46-0.51L23.18,15
			c-0.06-0.32-0.23-0.61-0.5-0.84c-0.11-0.09-0.18-0.21-0.22-0.33H32c0.27,0,0.48-0.22,0.48-0.48c0-0.27-0.22-0.48-0.48-0.48h-9.19
			c0-0.09-0.03-0.19-0.09-0.27c-0.15-0.17-0.4-0.19-0.57-0.04c-0.11,0.09-0.19,0.2-0.27,0.31h-1.4c0-0.09-0.03-0.19-0.09-0.27
			c-0.15-0.17-0.4-0.19-0.57-0.04c-0.11,0.09-0.19,0.2-0.27,0.31h-1.4c0-0.09-0.03-0.19-0.09-0.27c-0.15-0.17-0.4-0.19-0.57-0.04
			c-0.11,0.09-0.19,0.2-0.27,0.31h-1.4c0-0.09-0.03-0.19-0.09-0.27c-0.15-0.17-0.4-0.19-0.57-0.04c-0.11,0.09-0.19,0.2-0.27,0.31
			h-1.9c-0.27,0-0.48,0.22-0.48,0.48c0,0.27,0.22,0.48,0.48,0.48h1.67c0.03,0.28,0.15,0.54,0.34,0.77l-1.98-0.1
			c-0.27-0.01-0.49,0.19-0.51,0.46c-0.01,0.27,0.19,0.49,0.46,0.51l2.36,0.12c-0.04,0.07-0.09,0.13-0.16,0.19
			c-0.34,0.29-0.53,0.69-0.53,1.11c0,0.42,0.19,0.82,0.53,1.11c0.16,0.13,0.24,0.31,0.24,0.5s-0.09,0.36-0.24,0.5
			c-0.34,0.29-0.53,0.69-0.53,1.11c0,0.14,0.03,0.27,0.07,0.4H9.41c-0.12,0-0.23,0.05-0.31,0.14s-0.11,0.21-0.09,0.32
			c0.03,0.16,0.66,4.01,2.6,7.74c1.76,3.36,5.35,5.71,6.25,6.26v1.83c0,0.22,0.18,0.4,0.4,0.4h8.46c0.22,0,0.4-0.18,0.4-0.4v-1.83
			c0.9-0.55,4.49-2.9,6.25-6.26c1.95-3.72,2.58-7.58,2.61-7.74C36.01,20.86,35.98,20.74,35.9,20.65L35.9,20.65z M22.16,18
			c0.16,0.13,0.24,0.31,0.24,0.5s-0.09,0.36-0.24,0.5c-0.34,0.29-0.53,0.69-0.53,1.11c0,0.14,0.03,0.27,0.07,0.4h-1.44
			c-0.1-0.12-0.15-0.26-0.15-0.4c0-0.19,0.09-0.36,0.24-0.5c0.34-0.29,0.53-0.69,0.53-1.11s-0.19-0.82-0.53-1.11
			c-0.16-0.13-0.24-0.31-0.24-0.5s0.09-0.36,0.24-0.5c0.18-0.15,0.31-0.34,0.4-0.54l1.27,0.06c-0.25,0.27-0.39,0.61-0.39,0.97
			C21.63,17.31,21.82,17.7,22.16,18L22.16,18z M17.93,20.51c-0.1-0.12-0.15-0.26-0.15-0.4c0-0.19,0.09-0.36,0.24-0.5
			c0.34-0.29,0.53-0.69,0.53-1.11c0-0.42-0.19-0.82-0.53-1.11c-0.16-0.13-0.24-0.31-0.24-0.5s0.09-0.36,0.24-0.5
			c0.21-0.18,0.35-0.4,0.44-0.65l1.34,0.07c-0.32,0.29-0.5,0.67-0.5,1.08c0,0.42,0.19,0.82,0.53,1.11c0.16,0.13,0.24,0.31,0.24,0.5
			s-0.09,0.36-0.24,0.5c-0.34,0.29-0.53,0.69-0.53,1.11c0,0.14,0.03,0.27,0.07,0.4L17.93,20.51L17.93,20.51z M18.03,14.17
			c-0.11-0.09-0.18-0.21-0.22-0.33h1.52c0.04,0.36,0.22,0.69,0.51,0.94c0.02,0.02,0.04,0.04,0.06,0.06l-1.44-0.07
			C18.37,14.55,18.23,14.34,18.03,14.17L18.03,14.17z M22.16,14.78c0.06,0.05,0.11,0.12,0.15,0.18l-1.49-0.07
			c-0.08-0.27-0.23-0.52-0.46-0.72c-0.11-0.09-0.18-0.21-0.22-0.33h1.52C21.7,14.19,21.87,14.53,22.16,14.78z M15.7,14.17
			c-0.11-0.09-0.18-0.21-0.22-0.33h1.52c0.04,0.33,0.19,0.64,0.45,0.88l-1.37-0.07C15.99,14.48,15.86,14.31,15.7,14.17z M15.45,20.1
			c0-0.19,0.09-0.36,0.24-0.5c0.34-0.29,0.53-0.69,0.53-1.11c0-0.42-0.19-0.82-0.53-1.11c-0.16-0.13-0.24-0.31-0.24-0.5
			s0.09-0.36,0.24-0.5c0.24-0.21,0.4-0.47,0.48-0.76l1.4,0.07c-0.03,0.03-0.05,0.05-0.08,0.08c-0.34,0.29-0.53,0.69-0.53,1.11
			c0,0.42,0.19,0.82,0.53,1.11c0.16,0.13,0.24,0.31,0.24,0.5s-0.09,0.36-0.24,0.5c-0.34,0.29-0.53,0.69-0.53,1.11
			c0,0.14,0.03,0.27,0.07,0.4H15.6C15.51,20.38,15.45,20.25,15.45,20.1z M11.61,26.8c-0.23-0.55-0.44-1.08-0.63-1.6h0.63V26.8z
			 M26.33,36.39h-7.66v-1.25h7.66V36.39z M33.4,26.8v-1.6h0.63C33.85,25.72,33.64,26.26,33.4,26.8z M34.3,24.4h-1.7v1.86h-2V25.2
			h0.59v0.66H32V24.4h-2.2v2.67h3.49c-0.19,0.42-0.39,0.84-0.61,1.26c-1.71,3.27-5.43,5.62-6.05,6h-8.24
			c-0.62-0.38-4.34-2.72-6.05-6c-0.22-0.42-0.42-0.84-0.61-1.26h3.49V24.4H13v1.47h0.81V25.2h0.59v1.06h-1.99V24.4h-1.7
			c-0.44-1.36-0.69-2.49-0.81-3.09h25.22C34.99,21.91,34.73,23.04,34.3,24.4z"/>
		<polygon class="st1" points="18.6,26.27 16.61,26.27 16.61,25.21 17.2,25.21 17.2,25.87 18.01,25.87 18.01,24.4 15.8,24.4 
			15.8,27.07 19.41,27.07 19.41,25.21 21.4,25.21 21.4,26.27 20.81,26.27 20.81,25.6 20,25.6 20,27.07 22.21,27.07 22.21,24.4 
			18.6,24.4 		"/>
		<polygon class="st1" points="25,25.6 24.2,25.6 24.2,26.27 23.6,26.27 23.6,25.21 25.6,25.21 25.6,27.07 29.2,27.07 29.2,24.4 
			27,24.4 27,25.87 27.8,25.87 27.8,25.21 28.4,25.21 28.4,26.27 26.4,26.27 26.4,24.4 22.8,24.4 22.8,27.07 25,27.07 		"/>
	</g>
	<g>
		<g>
			<g>
				<g>
					
						<linearGradient id="SVGID_1_" gradientUnits="userSpaceOnUse" x1="0" y1="21.61" x2="45" y2="21.61" gradientTransform="matrix(1 0 0 -1 0 44.11)">
						<stop  offset="0" style="stop-color:#FFB400"/>
						<stop  offset="0.5" style="stop-color:#FFDC00"/>
					</linearGradient>
					<path class="st2" d="M22.5,3C33.25,3,42,11.75,42,22.5S33.25,42,22.5,42S3,33.25,3,22.5S11.75,3,22.5,3 M22.5,0
						C10.12,0,0,10.12,0,22.5S10.12,45,22.5,45S45,34.88,45,22.5S34.88,0,22.5,0L22.5,0z"/>
				</g>
			</g>
		</g>
	</g>
</g>
</svg>
