<?xml version="1.0" encoding="utf-8"?>
<!-- Generator: Adobe Illustrator 28.2.0, SVG Export Plug-In . SVG Version: 6.00 Build 0)  -->
<svg version="1.1" id="レイヤー_1" xmlns="http://www.w3.org/2000/svg" xmlns:xlink="http://www.w3.org/1999/xlink" x="0px"
	 y="0px" viewBox="0 0 45 45" style="enable-background:new 0 0 45 45;" xml:space="preserve">
<style type="text/css">
	.st0{fill:#FFDC00;}
	.st1{fill:#DBDCDC;}
	.st2{fill:#231815;}
	.st3{fill:url(#SVGID_1_);}
</style>
<g>
	<g id="_レイヤー_1-2_00000047755561151881303390000004042547099476113057_">
		<path class="st0" d="M36.06,26.31c-0.2,0-0.36-0.16-0.36-0.36v-2.99c0-0.18-0.11-0.34-0.28-0.41c-0.01,0-0.02-0.01-0.03-0.01
			l-1.98-1.03c-0.09-0.05-0.15-0.12-0.18-0.22l-2.33-8.1c-0.06-0.17-0.22-0.3-0.42-0.3H12c-0.24,0-0.44,0.2-0.44,0.44v12.62
			c0,0.2-0.16,0.36-0.36,0.36c-0.13,0-0.24,0.11-0.24,0.24v2.4c0,0.13,0.11,0.24,0.24,0.24c0.2,0,0.36,0.16,0.36,0.36v0.4
			c0,0.13,0.11,0.24,0.24,0.24h0.79c0-0.05-0.01-0.09-0.01-0.14c0-1.75,1.42-3.17,3.17-3.17s3.17,1.42,3.17,3.17
			c0,0.05-0.01,0.1-0.01,0.14h9.13c0-0.05-0.01-0.09-0.01-0.14c0-1.75,1.42-3.17,3.17-3.17c1.75,0,3.17,1.42,3.17,3.17
			c0,0.05-0.01,0.1-0.01,0.14h1.1c0.13,0,0.24-0.11,0.24-0.24v-0.4c0-0.2,0.16-0.36,0.36-0.36c0.13,0,0.24-0.11,0.24-0.24v-2.4
			C36.31,26.43,36.2,26.32,36.06,26.31L36.06,26.31z M26.53,20.77c0,0.42-0.34,0.76-0.76,0.76h-3.58c-0.42,0-0.76-0.34-0.76-0.76
			v-6.33c0-0.42,0.34-0.76,0.76-0.76h3.58c0.42,0,0.76,0.34,0.76,0.76V20.77z M31.85,21.22c-0.14,0.19-0.37,0.3-0.61,0.3h-2.92
			c-0.42,0-0.76-0.34-0.76-0.76v-6.33c0-0.42,0.34-0.76,0.76-0.76h1.28c0.33,0,0.63,0.22,0.73,0.54l1.64,6.34
			C32.03,20.78,31.99,21.03,31.85,21.22L31.85,21.22z"/>
		<path class="st1" d="M15.75,32.52c-1.35,0-2.45-1.1-2.45-2.45s1.1-2.45,2.45-2.45s2.45,1.1,2.45,2.45S17.09,32.52,15.75,32.52z"/>
		<path class="st1" d="M31.2,32.52c-1.35,0-2.45-1.1-2.45-2.45s1.1-2.45,2.45-2.45c1.35,0,2.45,1.1,2.45,2.45
			S32.55,32.52,31.2,32.52z"/>
		<path class="st2" d="M36.42,25.66v-2.7c0-0.47-0.28-0.89-0.71-1.07l-1.83-0.95l-2.29-7.96c-0.15-0.48-0.6-0.81-1.11-0.81H12
			c-0.64,0-1.16,0.53-1.16,1.17v12.33c-0.36,0.14-0.61,0.49-0.61,0.89v2.4c0,0.41,0.25,0.75,0.61,0.89v0.11
			c0,0.53,0.43,0.96,0.96,0.96h0.9c0.38,1.33,1.6,2.3,3.04,2.3s2.67-0.98,3.04-2.3h9.36c0.38,1.33,1.6,2.3,3.04,2.3
			c1.45,0,2.67-0.98,3.04-2.3h1.22c0.53,0,0.96-0.43,0.96-0.96v-0.11c0.36-0.14,0.61-0.49,0.61-0.89v-2.4
			C37.03,26.15,36.78,25.81,36.42,25.66L36.42,25.66z M15.75,32.52c-1.35,0-2.45-1.1-2.45-2.45s1.1-2.45,2.45-2.45
			s2.45,1.1,2.45,2.45S17.09,32.52,15.75,32.52z M31.2,32.52c-1.35,0-2.45-1.1-2.45-2.45s1.1-2.45,2.45-2.45s2.45,1.1,2.45,2.45
			S32.55,32.52,31.2,32.52z M36.31,28.96c0,0.13-0.11,0.24-0.24,0.24c-0.2,0-0.36,0.16-0.36,0.36v0.4c0,0.13-0.11,0.24-0.24,0.24
			h-1.1c0-0.05,0.01-0.09,0.01-0.14c0-1.75-1.42-3.17-3.17-3.17c-1.75,0-3.17,1.42-3.17,3.17c0,0.05,0.01,0.1,0.01,0.14h-9.13
			c0-0.05,0.01-0.09,0.01-0.14c0-1.75-1.42-3.17-3.17-3.17s-3.17,1.42-3.17,3.17c0,0.05,0.01,0.1,0.01,0.14H11.8
			c-0.13,0-0.24-0.11-0.24-0.24v-0.4c0-0.2-0.16-0.36-0.36-0.36c-0.13,0-0.24-0.11-0.24-0.24v-2.4c0-0.13,0.11-0.24,0.24-0.24
			c0.2,0,0.36-0.16,0.36-0.36V13.33c0-0.24,0.2-0.44,0.44-0.44h18.48c0.19,0,0.36,0.12,0.42,0.3l2.33,8.1
			c0.03,0.09,0.09,0.17,0.18,0.22l1.98,1.03c0,0,0.02,0.01,0.03,0.01c0.17,0.07,0.28,0.23,0.28,0.41v2.99c0,0.2,0.16,0.36,0.36,0.36
			c0.13,0,0.24,0.11,0.24,0.24L36.31,28.96L36.31,28.96z"/>
		<path class="st2" d="M30.33,14.22c-0.09-0.32-0.4-0.54-0.73-0.54h-1.28c-0.42,0-0.76,0.34-0.76,0.76v6.33
			c0,0.42,0.34,0.76,0.76,0.76h2.92c0.24,0,0.47-0.11,0.61-0.3c0.14-0.19,0.19-0.44,0.12-0.66L30.33,14.22L30.33,14.22z
			 M31.27,20.79c-0.01,0.02-0.03,0.02-0.03,0.02h-2.92c-0.02,0-0.04-0.02-0.04-0.04v-6.33c0-0.02,0.02-0.04,0.04-0.04h1.28
			c0.02,0,0.04,0.01,0.04,0.02l1.64,6.34C31.28,20.75,31.28,20.77,31.27,20.79L31.27,20.79z"/>
		<path class="st2" d="M25.77,13.68h-3.58c-0.42,0-0.76,0.34-0.76,0.76v6.33c0,0.42,0.34,0.76,0.76,0.76h3.58
			c0.42,0,0.76-0.34,0.76-0.76v-6.33C26.53,14.02,26.19,13.68,25.77,13.68z M25.82,20.77c0,0.02-0.02,0.04-0.04,0.04h-3.58
			c-0.02,0-0.04-0.02-0.04-0.04v-6.33c0-0.02,0.02-0.04,0.04-0.04h3.58c0.02,0,0.04,0.02,0.04,0.04V20.77z"/>
		<path class="st2" d="M33.98,23.88l-0.28,0.07c-0.18,0.04-0.31,0.2-0.31,0.39v1.05c0,0.19,0.13,0.35,0.31,0.39l0.28,0.07
			c0.25,0.06,0.49-0.13,0.49-0.39v-1.18C34.47,24.01,34.23,23.82,33.98,23.88z"/>
	</g>
	<g>
		<g>
			<g>
				<g>
					<g>
						
							<linearGradient id="SVGID_1_" gradientUnits="userSpaceOnUse" x1="0" y1="21.61" x2="45" y2="21.61" gradientTransform="matrix(1 0 0 -1 0 44.11)">
							<stop  offset="0" style="stop-color:#FFB400"/>
							<stop  offset="0.5" style="stop-color:#FFDC00"/>
						</linearGradient>
						<path class="st3" d="M22.5,3C33.25,3,42,11.75,42,22.5S33.25,42,22.5,42S3,33.25,3,22.5S11.75,3,22.5,3 M22.5,0
							C10.12,0,0,10.12,0,22.5S10.12,45,22.5,45S45,34.88,45,22.5S34.88,0,22.5,0L22.5,0z"/>
					</g>
				</g>
			</g>
		</g>
	</g>
</g>
</svg>
