<?xml version="1.0" encoding="utf-8"?>
<!-- Generator: Adobe Illustrator 28.2.0, SVG Export Plug-In . SVG Version: 6.00 Build 0)  -->
<svg version="1.1" id="レイヤー_1" xmlns="http://www.w3.org/2000/svg" xmlns:xlink="http://www.w3.org/1999/xlink" x="0px"
	 y="0px" viewBox="0 0 45 45" style="enable-background:new 0 0 45 45;" xml:space="preserve">
<style type="text/css">
	.st0{fill:#FFDC00;}
	.st1{fill:#DBDCDC;}
	.st2{fill:#231815;}
	.st3{fill:url(#SVGID_1_);}
</style>
<g>
	<g id="_レイヤー_1-2_00000122722022651353347690000011151027845641515949_">
		<path class="st0" d="M30.77,17.28c0.26-0.01,0.51,0.06,0.74,0.21l4.1,2.6c0.35,0.22,0.56,0.59,0.56,0.99v0.05
			c0,0.61-0.48,1.12-1.12,1.19c-0.94,0.1-1.91,0.32-2.9,0.64c-0.01,0-0.01,0.01-0.03,0.01c-0.16-0.94-0.7-1.79-1.53-2.35l-3.8-2.55
			C28.67,17.42,30.11,17.3,30.77,17.28z"/>
		<path class="st0" d="M18.44,27.13c-0.35-0.22-0.56-0.6-0.56-0.99v-0.65c0-0.53,0.19-1.06,0.54-1.48c0.81-0.98,2.44-2.73,4.78-4.2
			c0.03,0.04,0.05,0.07,0.09,0.09l4.09,2.75c0.67,0.45,1.11,1.14,1.21,1.9c-2.42,1.41-4.19,3.14-5.25,4.37
			c-0.42,0.49-1.16,0.59-1.72,0.23L18.44,27.13L18.44,27.13z"/>
		<path class="st1" d="M27.81,22l-3.91-2.62c0.09-0.05,0.18-0.1,0.27-0.15c0.62-0.34,1.21-0.61,1.77-0.84
			c0.03,0.05,0.06,0.09,0.12,0.12l4.09,2.75c0.78,0.52,1.24,1.37,1.24,2.27v5.93l-2,1.44v-5.98C29.4,23.75,28.81,22.67,27.81,22
			L27.81,22z"/>
		<path class="st0" d="M20.42,19.08c-0.28-0.68-1.04-1.88-3.03-2.59C16.86,16.3,16.5,16,16.31,15.6c-0.35-0.76,0-1.68,0-1.69
			c0.03-0.09,0.03-0.18,0-0.26c1.28-0.58,2.43-0.92,3.36-1.11c-0.08,0.45-0.1,1.08,0.17,1.68c0.28,0.61,0.79,1.04,1.52,1.3
			c1.77,0.62,2.39,1.67,2.59,2.18C22.93,17.98,21.73,18.4,20.42,19.08L20.42,19.08z"/>
		<path class="st0" d="M21.73,12.29c0,0,0.02,0,0.03,0c0.25,0,0.49,0.07,0.71,0.21l4.1,2.6c0.35,0.22,0.56,0.6,0.56,0.99v0.05
			c0,0.61-0.49,1.12-1.14,1.19c-0.37,0.04-0.79,0.11-1.27,0.21c-0.23-0.64-0.95-1.98-3.09-2.73c-0.53-0.19-0.89-0.49-1.08-0.89
			c-0.26-0.56-0.14-1.2-0.05-1.51C21.02,12.32,21.44,12.3,21.73,12.29L21.73,12.29z"/>
		<path class="st0" d="M15.13,14.24c0.11-0.06,0.22-0.12,0.33-0.17c-0.1,0.45-0.17,1.17,0.14,1.85c0.28,0.61,0.79,1.04,1.52,1.3
			c1.83,0.65,2.43,1.74,2.61,2.23c-1.31,0.74-2.43,1.58-3.36,2.39c-0.3-0.84-1.09-2.29-3.06-2.98c-0.53-0.19-0.89-0.49-1.08-0.89
			c-0.35-0.76,0-1.68,0-1.69c0.01-0.04,0.02-0.08,0.02-0.12C13.09,15.5,14.04,14.83,15.13,14.24z"/>
		<path class="st0" d="M8.83,20.49c0-0.53,0.19-1.06,0.54-1.48c0.43-0.52,1.08-1.24,1.95-2.03c-0.03,0.4,0.01,0.86,0.22,1.31
			c0.28,0.61,0.79,1.04,1.52,1.3c1.99,0.7,2.55,2.28,2.68,2.83c-0.57,0.54-1.05,1.05-1.44,1.51c-0.42,0.48-1.16,0.58-1.72,0.23l0,0
			l-3.19-2.02c-0.35-0.22-0.56-0.59-0.56-0.99L8.83,20.49L8.83,20.49z"/>
		<path class="st2" d="M36.02,19.44l-4.1-2.6c-0.35-0.22-0.76-0.33-1.17-0.33c-0.67,0.01-1.73,0.11-3.05,0.46
			c0.12-0.25,0.19-0.54,0.19-0.83v-0.05c0-0.66-0.35-1.28-0.92-1.65l-4.1-2.6c-0.35-0.22-0.75-0.33-1.17-0.33
			c-1.25,0.03-3.8,0.32-6.95,2.04c-2.98,1.62-5.03,3.8-5.99,4.96c-0.47,0.56-0.72,1.26-0.72,1.98v0.65c0,0.55,0.24,1.06,0.65,1.43
			v1.33c0,1.26,0.71,2.44,1.86,3.08l3.29,1.82c0.58,0.32,1.23,0.48,1.88,0.48c0.7,0,1.4-0.19,2.02-0.57v0.17
			c0,1.26,0.71,2.44,1.86,3.08l3.29,1.82c0.58,0.32,1.23,0.48,1.88,0.48c0.79,0,1.59-0.24,2.25-0.72l7.79-5.62
			c0.93-0.67,1.48-1.73,1.48-2.84v-2.54c0.4-0.36,0.65-0.87,0.65-1.44v-0.05C36.95,20.41,36.6,19.8,36.02,19.44L36.02,19.44z
			 M30.77,17.28c0.26-0.01,0.51,0.06,0.74,0.21l4.1,2.6c0.35,0.22,0.56,0.59,0.56,0.99v0.05c0,0.61-0.48,1.12-1.12,1.19
			c-0.94,0.1-1.91,0.32-2.9,0.64c-0.01,0-0.01,0.01-0.03,0.01c-0.16-0.94-0.7-1.79-1.53-2.35l-3.8-2.55
			C28.67,17.42,30.11,17.3,30.77,17.28z M18.44,27.13c-0.35-0.22-0.56-0.6-0.56-0.99v-0.65c0-0.53,0.19-1.06,0.54-1.48
			c0.81-0.98,2.44-2.73,4.78-4.2c0.03,0.04,0.05,0.07,0.09,0.09l4.09,2.75c0.67,0.45,1.11,1.14,1.21,1.9
			c-2.42,1.41-4.19,3.14-5.25,4.37c-0.42,0.49-1.16,0.59-1.72,0.23L18.44,27.13L18.44,27.13z M27.81,22l-3.91-2.62
			c0.09-0.05,0.18-0.1,0.27-0.15c0.62-0.34,1.21-0.61,1.77-0.84c0.03,0.05,0.06,0.09,0.12,0.12l4.09,2.75
			c0.78,0.52,1.24,1.37,1.24,2.27v5.93l-2,1.44v-5.98C29.4,23.75,28.81,22.67,27.81,22L27.81,22z M20.42,19.08
			c-0.28-0.68-1.04-1.88-3.03-2.59C16.86,16.3,16.5,16,16.31,15.6c-0.35-0.76,0-1.68,0-1.69c0.03-0.09,0.03-0.18,0-0.26
			c1.28-0.58,2.43-0.92,3.36-1.11c-0.08,0.45-0.1,1.08,0.17,1.68c0.28,0.61,0.79,1.04,1.52,1.3c1.77,0.62,2.39,1.67,2.59,2.18
			C22.93,17.98,21.73,18.4,20.42,19.08L20.42,19.08z M21.73,12.29c0,0,0.02,0,0.03,0c0.25,0,0.49,0.07,0.71,0.21l4.1,2.6
			c0.35,0.22,0.56,0.6,0.56,0.99v0.05c0,0.61-0.49,1.12-1.14,1.19c-0.37,0.04-0.79,0.11-1.27,0.21c-0.23-0.64-0.95-1.98-3.09-2.73
			c-0.53-0.19-0.89-0.49-1.08-0.89c-0.26-0.56-0.14-1.2-0.05-1.51C21.02,12.32,21.44,12.3,21.73,12.29L21.73,12.29z M15.13,14.24
			c0.11-0.06,0.22-0.12,0.33-0.17c-0.1,0.45-0.17,1.17,0.14,1.85c0.28,0.61,0.79,1.04,1.52,1.3c1.83,0.65,2.43,1.74,2.61,2.23
			c-1.31,0.74-2.43,1.58-3.36,2.39c-0.3-0.84-1.09-2.29-3.06-2.98c-0.53-0.19-0.89-0.49-1.08-0.89c-0.35-0.76,0-1.68,0-1.69
			c0.01-0.04,0.02-0.08,0.02-0.12C13.09,15.5,14.04,14.83,15.13,14.24z M8.83,20.49c0-0.53,0.19-1.06,0.54-1.48
			c0.43-0.52,1.08-1.24,1.95-2.03c-0.03,0.4,0.01,0.86,0.22,1.31c0.28,0.61,0.79,1.04,1.52,1.3c1.99,0.7,2.55,2.28,2.68,2.83
			c-0.57,0.54-1.05,1.05-1.44,1.51c-0.42,0.48-1.16,0.58-1.72,0.23l0,0l-3.19-2.02c-0.35-0.22-0.56-0.59-0.56-0.99L8.83,20.49
			L8.83,20.49z M17.52,27.94c-0.96,0.69-2.26,0.77-3.3,0.19l-3.29-1.82c-0.9-0.5-1.46-1.42-1.46-2.4v-0.8l2.69,1.71
			c0.35,0.22,0.75,0.33,1.14,0.33c0.59,0,1.17-0.24,1.58-0.71c1.1-1.27,2.95-3.07,5.49-4.46c1.25-0.68,2.39-1.12,3.39-1.42
			c-2.96,1.62-5,3.79-5.95,4.94c-0.47,0.56-0.72,1.26-0.72,1.98v0.65c0,0.55,0.24,1.06,0.65,1.43v0.31
			C17.67,27.88,17.59,27.9,17.52,27.94L17.52,27.94z M26.56,32.93c-0.96,0.69-2.26,0.77-3.3,0.19l-3.29-1.82
			c-0.9-0.5-1.46-1.42-1.46-2.4v-0.8l2.69,1.71c0.35,0.22,0.75,0.33,1.14,0.33c0.59,0,1.18-0.25,1.58-0.71
			c0.97-1.12,2.55-2.67,4.69-3.98v5.88c0,0.04,0.01,0.08,0.02,0.11L26.56,32.93L26.56,32.93z M35.52,25.1
			c0,0.86-0.43,1.69-1.16,2.21l-2.19,1.57v-5.2c0.07,0.02,0.14,0.02,0.21,0c0.94-0.3,1.86-0.51,2.75-0.6
			c0.13-0.01,0.26-0.04,0.39-0.08L35.52,25.1L35.52,25.1z"/>
	</g>
	<g>
		<g>
			<g>
				<g>
					<g>
						<g>
							<g>
								<g>
									
										<linearGradient id="SVGID_1_" gradientUnits="userSpaceOnUse" x1="0" y1="21.61" x2="45" y2="21.61" gradientTransform="matrix(1 0 0 -1 0 44.11)">
										<stop  offset="0" style="stop-color:#FFB400"/>
										<stop  offset="0.5" style="stop-color:#FFDC00"/>
									</linearGradient>
									<path class="st3" d="M22.5,3C33.25,3,42,11.75,42,22.5S33.25,42,22.5,42S3,33.25,3,22.5S11.75,3,22.5,3 M22.5,0
										C10.12,0,0,10.12,0,22.5S10.12,45,22.5,45S45,34.88,45,22.5S34.88,0,22.5,0L22.5,0z"/>
								</g>
							</g>
						</g>
					</g>
				</g>
			</g>
		</g>
	</g>
</g>
</svg>
