<?xml version="1.0" encoding="utf-8"?>
<!-- Generator: Adobe Illustrator 28.2.0, SVG Export Plug-In . SVG Version: 6.00 Build 0)  -->
<svg version="1.1" id="レイヤー_1" xmlns="http://www.w3.org/2000/svg" xmlns:xlink="http://www.w3.org/1999/xlink" x="0px"
	 y="0px" viewBox="0 0 45 45" style="enable-background:new 0 0 45 45;" xml:space="preserve">
<style type="text/css">
	.st0{clip-path:url(#SVGID_00000124843499240579969090000001600932102500316575_);}
	.st1{fill:#231815;}
	.st2{fill:#FFDC00;}
	.st3{fill:url(#SVGID_00000118390640272368349400000006823313292491869347_);}
</style>
<g>
	<g id="_レイヤー_1-2_00000129170967208740320990000016776924207050458507_">
		<g>
			<g>
				<defs>
					<ellipse id="SVGID_1_" cx="22.5" cy="22.5" rx="12.81" ry="12.93"/>
				</defs>
				<clipPath id="SVGID_00000085219976018159495330000001216047920493849020_">
					<use xlink:href="#SVGID_1_"  style="overflow:visible;"/>
				</clipPath>
				<g style="clip-path:url(#SVGID_00000085219976018159495330000001216047920493849020_);">
					
						<rect x="-18.14" y="22.23" transform="matrix(0.7032 -0.7109 0.7109 0.7032 -15.3425 8.2381)" class="st1" width="40.67" height="0.53"/>
					
						<rect x="-15.01" y="22.23" transform="matrix(0.7032 -0.7109 0.7109 0.7032 -14.4159 10.4585)" class="st1" width="40.67" height="0.53"/>
					
						<rect x="-11.89" y="22.23" transform="matrix(0.7032 -0.7109 0.7109 0.7032 -13.4892 12.6789)" class="st1" width="40.67" height="0.53"/>
					
						<rect x="-8.77" y="22.23" transform="matrix(0.7032 -0.7109 0.7109 0.7032 -12.5624 14.8993)" class="st1" width="40.67" height="0.53"/>
					
						<rect x="-5.65" y="22.23" transform="matrix(0.7032 -0.7109 0.7109 0.7032 -11.6357 17.1198)" class="st1" width="40.67" height="0.53"/>
					
						<rect x="-2.52" y="22.23" transform="matrix(0.7032 -0.7109 0.7109 0.7032 -10.709 19.3402)" class="st1" width="40.67" height="0.53"/>
					
						<rect x="0.6" y="22.23" transform="matrix(0.7032 -0.7109 0.7109 0.7032 -9.7817 21.5618)" class="st1" width="40.67" height="0.53"/>
					
						<rect x="3.72" y="22.23" transform="matrix(0.7032 -0.7109 0.7109 0.7032 -8.855 23.7822)" class="st1" width="40.67" height="0.53"/>
					
						<rect x="6.85" y="22.23" transform="matrix(0.7032 -0.7109 0.7109 0.7032 -7.9284 26.0025)" class="st1" width="40.67" height="0.53"/>
					
						<rect x="9.97" y="22.23" transform="matrix(0.7032 -0.7109 0.7109 0.7032 -7.0018 28.2229)" class="st1" width="40.67" height="0.53"/>
					
						<rect x="13.09" y="22.23" transform="matrix(0.7032 -0.7109 0.7109 0.7032 -6.0749 30.4434)" class="st1" width="40.67" height="0.53"/>
					
						<rect x="16.22" y="22.23" transform="matrix(0.7032 -0.7109 0.7109 0.7032 -5.1482 32.6638)" class="st1" width="40.67" height="0.53"/>
					
						<rect x="19.34" y="22.23" transform="matrix(0.7035 -0.7107 0.7107 0.7035 -4.2234 34.8688)" class="st1" width="40.67" height="0.53"/>
					
						<rect x="22.46" y="22.23" transform="matrix(0.7035 -0.7107 0.7107 0.7035 -3.2973 37.0883)" class="st1" width="40.67" height="0.53"/>
					
						<rect x="42.54" y="2.16" transform="matrix(0.7106 -0.7036 0.7036 0.7106 -3.4444 36.6273)" class="st1" width="0.53" height="40.67"/>
					
						<rect x="39.41" y="2.16" transform="matrix(0.7106 -0.7036 0.7036 0.7106 -4.3482 34.4297)" class="st1" width="0.53" height="40.67"/>
					
						<rect x="36.29" y="2.16" transform="matrix(0.7106 -0.7036 0.7036 0.7106 -5.252 32.2323)" class="st1" width="0.53" height="40.67"/>
					
						<rect x="33.17" y="2.16" transform="matrix(0.7106 -0.7036 0.7036 0.7106 -6.1558 30.0346)" class="st1" width="0.53" height="40.67"/>
					
						<rect x="30.04" y="2.16" transform="matrix(0.7106 -0.7036 0.7036 0.7106 -7.0597 27.8369)" class="st1" width="0.53" height="40.67"/>
					
						<rect x="26.92" y="2.16" transform="matrix(0.7106 -0.7036 0.7036 0.7106 -7.9634 25.6391)" class="st1" width="0.53" height="40.67"/>
					
						<rect x="23.79" y="2.16" transform="matrix(0.7105 -0.7036 0.7036 0.7105 -8.8667 23.4421)" class="st1" width="0.53" height="40.67"/>
					
						<rect x="20.67" y="2.16" transform="matrix(0.7105 -0.7036 0.7036 0.7105 -9.7705 21.2445)" class="st1" width="0.53" height="40.67"/>
					
						<rect x="17.55" y="2.16" transform="matrix(0.7106 -0.7036 0.7036 0.7106 -10.6747 19.0448)" class="st1" width="0.53" height="40.67"/>
					
						<rect x="14.42" y="2.16" transform="matrix(0.7106 -0.7036 0.7036 0.7106 -11.5785 16.8473)" class="st1" width="0.53" height="40.67"/>
					
						<rect x="11.3" y="2.16" transform="matrix(0.7106 -0.7036 0.7036 0.7106 -12.4824 14.6497)" class="st1" width="0.53" height="40.67"/>
					
						<rect x="8.18" y="2.16" transform="matrix(0.7106 -0.7036 0.7036 0.7106 -13.3862 12.4521)" class="st1" width="0.53" height="40.67"/>
					
						<rect x="5.05" y="2.16" transform="matrix(0.7106 -0.7036 0.7036 0.7106 -14.29 10.2545)" class="st1" width="0.53" height="40.67"/>
					
						<rect x="1.93" y="2.16" transform="matrix(0.7106 -0.7036 0.7036 0.7106 -15.194 8.0571)" class="st1" width="0.53" height="40.67"/>
				</g>
			</g>
		</g>
		<path class="st1" d="M22.5,36.23c-7.5,0-13.61-6.16-13.61-13.73S15,8.77,22.5,8.77s13.61,6.16,13.61,13.73
			C36.11,30.07,30,36.23,22.5,36.23z M22.5,10.37c-6.62,0-12.01,5.44-12.01,12.13s5.39,12.13,12.01,12.13s12.01-5.44,12.01-12.13
			C34.51,15.81,29.12,10.37,22.5,10.37z"/>
		<g>
			<path class="st2" d="M28.35,13.45l-6.07-2.09c-0.59-0.2-1.24,0.12-1.44,0.71l-0.16,0.47L20.4,13.4l-0.37,1.09l-0.37,1.09
				l-0.01,0.04c-0.2,0.6,0.12,1.25,0.71,1.45l6.07,2.09c0.59,0.2,1.24-0.12,1.44-0.71l0.01-0.04l0.37-1.09l0.37-1.09l0.29-0.85
				l0.16-0.47C29.26,14.31,28.94,13.66,28.35,13.45z"/>
			<path class="st1" d="M26.79,19.6c-0.17,0-0.33-0.03-0.49-0.08l-6.07-2.09c-0.79-0.27-1.22-1.14-0.95-1.94l1.2-3.53
				c0.13-0.39,0.41-0.7,0.78-0.88c0.36-0.18,0.78-0.2,1.16-0.07l6.07,2.09c0.79,0.27,1.22,1.14,0.95,1.94l-1.19,3.53
				c-0.13,0.39-0.41,0.71-0.78,0.89C27.24,19.55,27.02,19.6,26.79,19.6z M21.92,11.69c-0.11,0-0.22,0.03-0.33,0.08
				c-0.18,0.09-0.32,0.24-0.38,0.44l-1.2,3.53c-0.13,0.4,0.08,0.83,0.47,0.97l6.07,2.09c0.19,0.06,0.39,0.05,0.57-0.04
				c0.18-0.09,0.32-0.24,0.38-0.44l0.01-0.03l1.18-3.5c0.13-0.4-0.08-0.83-0.47-0.97l-6.07-2.09C22.08,11.7,22,11.69,21.92,11.69z"
				/>
		</g>
		<g>
			<path class="st2" d="M20.92,20.85l-0.02-0.04l-0.63-0.95l-0.63-0.95l-0.5-0.75l-0.27-0.41c-0.35-0.52-1.06-0.67-1.57-0.31
				l-5.32,3.6c-0.52,0.35-0.66,1.07-0.31,1.59l0.27,0.41l0.5,0.75l0.63,0.95l0.63,0.95l0.02,0.04c0.35,0.52,1.06,0.67,1.57,0.31
				l5.32-3.6C21.13,22.09,21.27,21.38,20.92,20.85z"/>
			<path class="st1" d="M14.66,26.63c-0.1,0-0.2-0.01-0.29-0.03c-0.4-0.08-0.75-0.31-0.98-0.65l-0.03-0.04l-2.03-3.06
				c-0.47-0.7-0.28-1.65,0.41-2.12l5.32-3.6c0.33-0.23,0.74-0.31,1.14-0.23c0.4,0.08,0.75,0.31,0.98,0.65l2.06,3.1
				c0.46,0.7,0.28,1.65-0.42,2.12l-5.32,3.6C15.25,26.54,14.96,26.63,14.66,26.63z M17.92,17.63c-0.15,0-0.29,0.04-0.41,0.13
				l-5.32,3.6c-0.34,0.23-0.44,0.71-0.21,1.06l2.06,3.11c0.11,0.16,0.28,0.28,0.48,0.31c0.2,0.04,0.39,0,0.55-0.11l5.32-3.6
				c0.34-0.23,0.44-0.71,0.21-1.06l-2.06-3.1c-0.11-0.17-0.28-0.28-0.48-0.32C18.01,17.64,17.96,17.63,17.92,17.63z"/>
		</g>
		<g>
			<path class="st2" d="M24.04,27.29l-6.21-1.6c-0.6-0.16-1.23,0.22-1.38,0.83l-0.01,0.04l-0.28,1.11l-0.28,1.11l-0.22,0.87
				l-0.12,0.48c-0.16,0.61,0.21,1.24,0.82,1.4l6.21,1.6c0.6,0.16,1.23-0.22,1.38-0.83l0.12-0.48l0.22-0.87l0.28-1.11l0.28-1.11
				l0.01-0.04C25.02,28.08,24.65,27.45,24.04,27.29z"/>
			<path class="st1" d="M22.85,33.55c-0.13,0-0.25-0.02-0.38-0.05l-6.21-1.6c-0.81-0.21-1.3-1.05-1.1-1.87l0.91-3.61
				c0.1-0.4,0.35-0.73,0.7-0.94c0.35-0.21,0.76-0.27,1.15-0.17l6.21,1.6c0.81,0.21,1.3,1.05,1.09,1.87l-0.91,3.61
				c-0.1,0.4-0.35,0.73-0.7,0.94C23.38,33.48,23.12,33.55,22.85,33.55z M17.56,26.04c-0.13,0-0.26,0.04-0.38,0.1
				c-0.17,0.1-0.3,0.27-0.35,0.47l-0.91,3.61c-0.1,0.41,0.14,0.82,0.54,0.93l6.21,1.6c0.19,0.05,0.39,0.02,0.56-0.08
				c0.17-0.1,0.3-0.27,0.35-0.47l0.91-3.61c0.1-0.41-0.14-0.82-0.54-0.93l-6.21-1.6C17.68,26.05,17.62,26.04,17.56,26.04z"/>
		</g>
		<g>
			<path class="st2" d="M33.97,23.65l-0.3-0.38l-0.55-0.71l-0.7-0.9l-0.7-0.9l-0.03-0.03c-0.39-0.49-1.11-0.58-1.59-0.19l-5.02,4.02
				c-0.49,0.39-0.57,1.12-0.19,1.61l0.03,0.03l0.7,0.9l0.7,0.9l0.55,0.71l0.3,0.38c0.39,0.49,1.11,0.58,1.59,0.19l5.02-4.02
				C34.27,24.87,34.35,24.15,33.97,23.65L33.97,23.65z"/>
			<path class="st1" d="M28.06,29.91c-0.06,0-0.12,0-0.18-0.01c-0.41-0.05-0.77-0.25-1.02-0.57l-2.29-2.92
				c-0.52-0.67-0.41-1.63,0.25-2.15l5.02-4.01c0.32-0.25,0.71-0.37,1.12-0.32c0.41,0.05,0.77,0.25,1.02,0.57l2.29,2.92
				c0.52,0.66,0.4,1.63-0.25,2.15L29,29.58C28.73,29.8,28.4,29.91,28.06,29.91z M30.79,20.68c-0.17,0-0.33,0.06-0.46,0.16
				l-5.02,4.02c-0.33,0.26-0.38,0.74-0.12,1.07l2.29,2.92c0.12,0.16,0.3,0.26,0.5,0.28c0.2,0.02,0.39-0.03,0.55-0.16l5.02-4.02
				c0.33-0.26,0.38-0.74,0.12-1.07l-2.29-2.92c-0.13-0.16-0.3-0.26-0.5-0.28C30.84,20.68,30.81,20.68,30.79,20.68z"/>
		</g>
	</g>
	<g>
		
			<linearGradient id="SVGID_00000085240306119240321060000010291980225689002129_" gradientUnits="userSpaceOnUse" x1="0" y1="21.61" x2="45" y2="21.61" gradientTransform="matrix(1 0 0 -1 0 44.11)">
			<stop  offset="0" style="stop-color:#FFB400"/>
			<stop  offset="0.5" style="stop-color:#FFDC00"/>
		</linearGradient>
		<path style="fill:url(#SVGID_00000085240306119240321060000010291980225689002129_);" d="M22.5,3C33.25,3,42,11.75,42,22.5
			S33.25,42,22.5,42S3,33.25,3,22.5S11.75,3,22.5,3 M22.5,0C10.12,0,0,10.12,0,22.5S10.12,45,22.5,45S45,34.88,45,22.5
			S34.88,0,22.5,0L22.5,0z"/>
	</g>
</g>
</svg>
