<?xml version="1.0" encoding="utf-8"?>
<!-- Generator: Adobe Illustrator 28.2.0, SVG Export Plug-In . SVG Version: 6.00 Build 0)  -->
<svg version="1.1" id="レイヤー_1" xmlns="http://www.w3.org/2000/svg" xmlns:xlink="http://www.w3.org/1999/xlink" x="0px"
	 y="0px" viewBox="0 0 45 45" style="enable-background:new 0 0 45 45;" xml:space="preserve">
<style type="text/css">
	.st0{fill:#231815;}
	.st1{fill:#FFDC00;}
	.st2{fill:url(#SVGID_1_);}
</style>
<g>
	<g id="_レイヤー_1-2_00000044881452943066966000000014540527207877111727_">
		<path class="st0" d="M22.5,8C14.51,8,8,14.51,8,22.5S14.51,37,22.5,37S37,30.49,37,22.5S30.49,8,22.5,8z M22.5,36.22
			c-7.57,0-13.72-6.15-13.72-13.72S14.93,8.78,22.5,8.78s13.72,6.15,13.72,13.72S30.07,36.22,22.5,36.22z"/>
		<path class="st0" d="M22.5,33.57c-2.97,0-5.73-1.17-7.81-3.25s-3.25-4.88-3.25-7.81c0-2.97,1.17-5.73,3.25-7.81
			s4.84-3.25,7.81-3.25s5.73,1.17,7.81,3.25l0,0c2.09,2.09,3.25,4.88,3.25,7.81c0,2.97-1.17,5.73-3.25,7.81S25.43,33.57,22.5,33.57z
			 M22.5,12.39c-2.69,0-5.23,1.06-7.14,2.97s-2.97,4.46-2.97,7.14s1.06,5.23,2.97,7.14s4.46,2.97,7.14,2.97s5.23-1.06,7.14-2.97
			s2.97-4.46,2.97-7.14c0-2.69-1.06-5.23-2.97-7.14C27.73,13.45,25.19,12.39,22.5,12.39z"/>
		<g>
			<path class="st1" d="M30,15c-2.02-1.98-4.67-3.11-7.5-3.11S17.02,12.99,15,15c-1.59,1.59-2.62,3.64-2.97,5.83
				c0.5,1.38,1.52,3.36,3.47,4c3.15,1.06,3.96,2.97,4.88,4.14c0.92,1.17,1.41,3.04,4.28,1.31c2.02-1.2,4.74-1.34,6.19-1.31
				c1.45-1.84,2.26-4.1,2.26-6.47C33.11,19.67,31.98,17.02,30,15z"/>
			<path class="st0" d="M22.68,31.48c-1.2,0-1.8-0.92-2.3-1.63c-0.14-0.21-0.25-0.39-0.39-0.57c-0.18-0.21-0.32-0.42-0.5-0.67
				c-0.78-1.1-1.7-2.44-4.17-3.29c-2.12-0.71-3.22-2.72-3.78-4.31v-0.14l0.04-0.11c0.35-2.33,1.45-4.42,3.11-6.08
				c2.09-2.09,4.84-3.25,7.81-3.25s5.73,1.17,7.81,3.25l0,0c2.09,2.09,3.25,4.88,3.25,7.81c0,2.48-0.81,4.84-2.33,6.79l-0.14,0.18
				h-0.25c-1.38-0.04-4,0.07-5.94,1.24C23.99,31.27,23.28,31.48,22.68,31.48z M12.53,20.8c0.5,1.34,1.45,3.04,3.15,3.61
				c2.76,0.92,3.82,2.51,4.63,3.64c0.14,0.21,0.32,0.42,0.46,0.64c0.14,0.21,0.28,0.42,0.42,0.64c0.71,1.06,1.2,1.8,3.25,0.6
				c1.98-1.24,4.63-1.41,6.19-1.41c1.31-1.77,1.98-3.82,1.98-6.01c0-2.69-1.06-5.23-2.97-7.14s-4.46-2.97-7.14-2.97
				c-2.69,0-5.23,1.06-7.14,2.97C13.84,16.84,12.88,18.72,12.53,20.8z"/>
		</g>
		<path class="st0" d="M27.2,17.83h-1.63v-1.56c0-0.21-0.18-0.39-0.39-0.39c-0.21,0-0.39,0.18-0.39,0.39v1.56h-1.34v-1.56
			c0-0.21-0.18-0.39-0.39-0.39c-0.21,0-0.39,0.18-0.39,0.39v1.56h-1.45v-0.95c0-0.21-0.18-0.39-0.39-0.39
			c-0.21,0-0.39,0.18-0.39,0.39v0.95h-0.81c-0.21,0-0.39,0.18-0.39,0.39s0.18,0.39,0.39,0.39h0.81v1.45h-1.49
			c-0.21,0-0.39,0.18-0.39,0.39c0,0.21,0.18,0.39,0.39,0.39h1.45v1.41h-1.45c-0.21,0-0.39,0.18-0.39,0.39s0.18,0.39,0.39,0.39h1.45
			v1.87c0,0.21,0.18,0.39,0.39,0.39c0.21,0,0.39-0.18,0.39-0.39v-1.87h1.45v1.27c0,0.21,0.18,0.39,0.39,0.39
			c0.21,0,0.39-0.18,0.39-0.39v-1.27h1.34v1.27c0,0.21,0.18,0.39,0.39,0.39c0.21,0,0.39-0.18,0.39-0.39v-1.27h1.24
			c0.21,0,0.39-0.18,0.39-0.39s-0.18-0.39-0.39-0.39h-1.24v-1.41h1.24c0.21,0,0.39-0.18,0.39-0.39c0-0.21-0.18-0.39-0.39-0.39h-1.24
			v-1.45h1.63c0.21,0,0.39-0.18,0.39-0.39S27.42,17.83,27.2,17.83z M21.19,18.61h1.45v1.45h-1.45V18.61z M21.19,22.29v-1.41h1.45
			v1.41H21.19z M24.8,22.29h-1.34v-1.41h1.34V22.29z M24.8,20.1h-1.34v-1.49h1.34V20.1z"/>
	</g>
	<g>
		<g>
			<g>
				<g>
					<g>
						<g>
							
								<linearGradient id="SVGID_1_" gradientUnits="userSpaceOnUse" x1="0" y1="21.61" x2="45" y2="21.61" gradientTransform="matrix(1 0 0 -1 0 44.11)">
								<stop  offset="0" style="stop-color:#FFB400"/>
								<stop  offset="0.5" style="stop-color:#FFDC00"/>
							</linearGradient>
							<path class="st2" d="M22.5,3C33.25,3,42,11.75,42,22.5S33.25,42,22.5,42S3,33.25,3,22.5S11.75,3,22.5,3 M22.5,0
								C10.12,0,0,10.12,0,22.5S10.12,45,22.5,45S45,34.88,45,22.5S34.88,0,22.5,0L22.5,0z"/>
						</g>
					</g>
				</g>
			</g>
		</g>
	</g>
</g>
</svg>
