<?xml version="1.0" encoding="UTF-8"?><svg id="_レイヤー_2" xmlns="http://www.w3.org/2000/svg" viewBox="0 0 80 63.05"><defs><style>.cls-1{fill:#ffdc00;}.cls-2{fill:#dbdcdc;}.cls-3{fill:#231815;}</style></defs><g id="_レイヤー_1-2"><path class="cls-1" d="m62.9,15.97c.73-.04,1.42.18,2.04.57l11.35,7.2c.98.62,1.56,1.64,1.56,2.75v.13c0,1.68-1.34,3.09-3.11,3.29-2.59.29-5.3.88-8.03,1.76-.03,0-.04.03-.07.04-.44-2.6-1.95-4.96-4.24-6.51l-10.51-7.06c5.19-1.8,9.18-2.13,11.01-2.17Z"/><path class="cls-1" d="m28.75,43.23c-.98-.62-1.56-1.65-1.56-2.75v-1.81c0-1.48.53-2.94,1.5-4.11,2.25-2.71,6.77-7.55,13.24-11.62.07.1.15.19.26.26l11.34,7.61c1.86,1.25,3.07,3.17,3.36,5.27-6.7,3.9-11.6,8.7-14.54,12.09-1.17,1.35-3.22,1.63-4.76.65l-8.84-5.6Z"/><path class="cls-2" d="m54.72,29.04l-10.82-7.26c.25-.14.49-.28.74-.42,1.71-.93,3.35-1.7,4.91-2.34.08.13.18.25.32.34l11.34,7.61c2.15,1.45,3.44,3.79,3.44,6.28v16.41l-5.53,3.99v-16.55c0-3.21-1.64-6.22-4.39-8.06Z"/><path class="cls-1" d="m34.24,20.95c-.78-1.88-2.88-5.22-8.4-7.17-1.46-.52-2.46-1.35-2.98-2.47-.97-2.1-.01-4.64,0-4.68.09-.24.08-.5,0-.73,3.55-1.61,6.73-2.54,9.31-3.07-.21,1.24-.28,3,.48,4.66.77,1.68,2.19,2.89,4.22,3.61,4.9,1.73,6.61,4.62,7.17,6.04-2.85.75-6.18,1.93-9.81,3.8Z"/><path class="cls-1" d="m37.86,2.15s.05,0,.07,0c.69,0,1.37.2,1.97.57l11.35,7.2c.98.62,1.56,1.65,1.56,2.75v.13c0,1.68-1.35,3.09-3.15,3.29-1.02.11-2.2.3-3.52.57-.63-1.76-2.63-5.47-8.56-7.57-1.46-.52-2.46-1.35-2.98-2.47-.71-1.55-.38-3.33-.15-4.18,1.47-.21,2.63-.28,3.4-.29Z"/><path class="cls-1" d="m19.6,7.54c.31-.17.61-.32.92-.48-.27,1.24-.47,3.25.39,5.13.77,1.68,2.19,2.89,4.22,3.61,5.07,1.79,6.72,4.82,7.22,6.18-3.62,2.05-6.72,4.37-9.3,6.63-.84-2.34-3.02-6.33-8.47-8.26-1.46-.52-2.46-1.35-2.98-2.47-.97-2.1-.01-4.64,0-4.68.04-.11.05-.22.06-.33,2.28-1.84,4.93-3.69,7.94-5.33Z"/><path class="cls-1" d="m2.15,24.86c0-1.48.53-2.94,1.5-4.11,1.18-1.43,3-3.44,5.39-5.62-.07,1.1.03,2.39.6,3.64.77,1.68,2.19,2.89,4.22,3.61,5.5,1.94,7.05,6.32,7.43,7.83-1.58,1.5-2.92,2.92-4,4.17-1.17,1.34-3.21,1.62-4.75.64h0l-8.84-5.6c-.98-.62-1.56-1.64-1.56-2.75v-1.81Z"/><path class="cls-3" d="m77.44,21.93l-11.35-7.2c-.97-.62-2.1-.92-3.23-.91-1.86.04-4.78.3-8.44,1.28.34-.7.54-1.49.54-2.31v-.13c0-1.84-.96-3.54-2.56-4.56L41.05.91C40.08.29,38.97-.01,37.82,0c-3.45.07-10.53.9-19.25,5.65C10.33,10.15,4.65,16.18,1.99,19.38c-1.29,1.55-1.99,3.49-1.99,5.48v1.81c0,1.52.66,2.94,1.79,3.96v3.69c0,3.5,1.97,6.77,5.15,8.53l9.11,5.04c1.62.9,3.41,1.34,5.2,1.34,1.95,0,3.89-.53,5.59-1.57v.48c0,3.5,1.97,6.77,5.15,8.53l9.11,5.04c1.62.9,3.41,1.34,5.2,1.34,2.2,0,4.39-.67,6.23-2l21.58-15.55c2.57-1.85,4.11-4.79,4.11-7.87v-7.04c1.11-1,1.79-2.42,1.79-3.98v-.13c0-1.84-.96-3.54-2.56-4.56Zm-14.54-5.96c.73-.04,1.42.18,2.04.57l11.35,7.2c.98.62,1.56,1.64,1.56,2.75v.13c0,1.68-1.34,3.09-3.11,3.29-2.59.29-5.3.88-8.03,1.76-.03,0-.04.03-.07.04-.44-2.6-1.95-4.96-4.24-6.51l-10.51-7.06c5.19-1.8,9.18-2.13,11.01-2.17Zm-34.15,27.26c-.98-.62-1.56-1.65-1.56-2.75v-1.81c0-1.48.53-2.94,1.5-4.11,2.25-2.71,6.77-7.55,13.24-11.62.07.1.15.19.26.26l11.34,7.61c1.86,1.25,3.07,3.17,3.36,5.27-6.7,3.9-11.6,8.7-14.54,12.09-1.17,1.35-3.22,1.63-4.76.65l-8.84-5.6Zm25.97-14.19l-10.82-7.26c.25-.14.49-.28.74-.42,1.71-.93,3.35-1.7,4.91-2.34.08.13.18.25.32.34l11.34,7.61c2.15,1.45,3.44,3.79,3.44,6.28v16.41l-5.53,3.99v-16.55c0-3.21-1.64-6.22-4.39-8.06Zm-20.48-8.09c-.78-1.88-2.88-5.22-8.4-7.17-1.46-.52-2.46-1.35-2.98-2.47-.97-2.1-.01-4.64,0-4.68.09-.24.08-.5,0-.73,3.55-1.61,6.73-2.54,9.31-3.07-.21,1.24-.28,3,.48,4.66.77,1.68,2.19,2.89,4.22,3.61,4.9,1.73,6.61,4.62,7.17,6.04-2.85.75-6.18,1.93-9.81,3.8Zm3.62-18.8s.05,0,.07,0c.69,0,1.37.2,1.97.57l11.35,7.2c.98.62,1.56,1.65,1.56,2.75v.13c0,1.68-1.35,3.09-3.15,3.29-1.02.11-2.2.3-3.52.57-.63-1.76-2.63-5.47-8.56-7.57-1.46-.52-2.46-1.35-2.98-2.47-.71-1.55-.38-3.33-.15-4.18,1.47-.21,2.63-.28,3.4-.29Zm-18.26,5.39c.31-.17.61-.32.92-.48-.27,1.24-.47,3.25.39,5.13.77,1.68,2.19,2.89,4.22,3.61,5.07,1.79,6.72,4.82,7.22,6.18-3.62,2.05-6.72,4.37-9.3,6.63-.84-2.34-3.02-6.33-8.47-8.26-1.46-.52-2.46-1.35-2.98-2.47-.97-2.1-.01-4.64,0-4.68.04-.11.05-.22.06-.33,2.28-1.84,4.93-3.69,7.94-5.33ZM2.15,24.86c0-1.48.53-2.94,1.5-4.11,1.18-1.43,3-3.44,5.39-5.62-.07,1.1.03,2.39.6,3.64.77,1.68,2.19,2.89,4.22,3.61,5.5,1.94,7.05,6.32,7.43,7.83-1.58,1.5-2.92,2.92-4,4.17-1.17,1.34-3.21,1.62-4.75.64h0l-8.84-5.6c-.98-.62-1.56-1.64-1.56-2.75v-1.81Zm24.07,20.63c-2.66,1.92-6.25,2.12-9.13.52l-9.11-5.04c-2.49-1.38-4.04-3.93-4.04-6.65v-2.22l7.46,4.73c.97.62,2.07.91,3.16.91,1.64,0,3.25-.67,4.37-1.96,3.05-3.51,8.16-8.49,15.21-12.34,3.45-1.88,6.63-3.11,9.4-3.92-8.19,4.49-13.85,10.49-16.49,13.68-1.29,1.55-1.99,3.49-1.99,5.48v1.81c0,1.52.66,2.94,1.79,3.96v.86c-.21,0-.43.05-.61.18Zm25.04,13.82c-2.66,1.92-6.25,2.12-9.13.52l-9.11-5.04c-2.49-1.38-4.04-3.93-4.04-6.65v-2.22l7.46,4.73c.97.61,2.07.91,3.15.91,1.64,0,3.26-.68,4.38-1.97,2.68-3.09,7.06-7.39,12.99-11.03v16.28c0,.11.03.21.06.31l-5.76,4.15Zm24.8-21.68c0,2.39-1.2,4.68-3.22,6.13l-6.06,4.36v-14.41c.19.05.38.06.58,0,2.6-.84,5.16-1.4,7.61-1.67.37-.04.73-.12,1.08-.22v5.82Z"/></g></svg>