<?xml version="1.0" encoding="UTF-8"?><svg id="_レイヤー_2" xmlns="http://www.w3.org/2000/svg" viewBox="0 0 74 67.8"><defs><style>.cls-1{fill:#ffdc00;}.cls-2{fill:#231815;}</style></defs><g id="_レイヤー_1-2"><path class="cls-1" d="m7.13,39.32c-.64-1.5-1.21-2.97-1.72-4.39h1.72v4.39Z"/><polygon class="cls-1" points="47.5 65.59 26.5 65.59 26.5 62.16 37 62.16 47.5 62.16 47.5 65.59"/><path class="cls-1" d="m66.87,39.32v-4.38h1.72c-.5,1.41-1.07,2.89-1.72,4.38Z"/><path class="cls-1" d="m69.33,32.73h-4.67v5.11h-5.47v-2.91h1.63v1.82h2.21v-4.03h-6.04v7.32h9.56c-.51,1.15-1.06,2.31-1.67,3.46-4.69,8.97-14.88,15.41-16.59,16.44h-22.6c-1.71-1.04-11.89-7.47-16.59-16.44-.6-1.15-1.15-2.31-1.67-3.46h9.56v-7.32h-6.04v4.03h2.21v-1.82h1.63v2.91h-5.46v-5.11h-4.67c-1.2-3.72-1.9-6.82-2.23-8.47h69.13c-.33,1.65-1.04,4.75-2.23,8.47Z"/><path class="cls-2" d="m73.74,22.43c-.21-.25-.52-.39-.84-.39h-35.66c-.27-.33-.42-.71-.42-1.1,0-.51.24-.99.67-1.37.93-.8,1.44-1.88,1.44-3.04,0-1.16-.51-2.24-1.44-3.04-.43-.37-.67-.86-.67-1.37,0-.51.24-.99.67-1.37.39-.34.7-.74.93-1.16l24.57,1.21s.04,0,.07,0c.7,0,1.29-.55,1.32-1.26.04-.73-.53-1.35-1.26-1.39l-24.27-1.19c-.17-.87-.63-1.67-1.36-2.29-.3-.26-.5-.57-.6-.91h26.16c.73,0,1.32-.59,1.32-1.32s-.59-1.32-1.32-1.32h-25.19c0-.26-.07-.53-.26-.74-.4-.46-1.09-.51-1.56-.12-.3.26-.53.55-.74.86h-3.83c0-.26-.07-.53-.26-.74-.4-.46-1.09-.51-1.56-.12-.3.26-.53.55-.74.86h-3.83c0-.26-.07-.53-.26-.74-.4-.46-1.09-.51-1.56-.12-.3.26-.53.55-.74.86h-3.83c0-.26-.07-.53-.26-.74-.4-.46-1.09-.51-1.56-.12-.3.26-.53.55-.74.86h-5.22c-.73,0-1.32.59-1.32,1.32s.59,1.32,1.32,1.32h4.57c.09.77.41,1.49.93,2.1l-5.44-.27c-.73-.04-1.35.53-1.39,1.26-.04.73.53,1.35,1.26,1.39l6.46.32c-.11.19-.25.37-.43.53-.93.8-1.44,1.88-1.44,3.04,0,1.16.51,2.24,1.44,3.04.43.37.67.86.67,1.37,0,.51-.24.99-.67,1.37-.93.8-1.44,1.88-1.44,3.04,0,.38.07.75.18,1.1H1.1c-.32,0-.63.14-.84.39-.21.25-.3.57-.25.89.07.44,1.8,11,7.14,21.21,4.82,9.2,14.68,15.65,17.14,17.15v5.01c0,.61.49,1.1,1.1,1.1h23.2c.61,0,1.1-.49,1.1-1.1v-5.01c2.46-1.5,12.32-7.94,17.14-17.15,5.35-10.21,7.07-20.77,7.15-21.21.05-.32-.04-.64-.25-.89Zm-37.68-7.27c.43.37.67.86.67,1.37,0,.51-.24.99-.67,1.37-.93.8-1.44,1.88-1.44,3.04,0,.38.07.75.18,1.1h-3.94c-.27-.33-.42-.71-.42-1.1,0-.51.24-.99.67-1.37.93-.8,1.44-1.88,1.44-3.04,0-1.16-.51-2.24-1.44-3.04-.43-.37-.67-.86-.67-1.37,0-.51.24-.99.67-1.37.49-.42.85-.92,1.1-1.47l3.49.17c-.69.75-1.08,1.67-1.08,2.66,0,1.16.51,2.24,1.44,3.04Zm-11.59,6.88c-.27-.33-.42-.71-.42-1.1,0-.51.24-.99.67-1.37.93-.8,1.44-1.88,1.44-3.04,0-1.16-.51-2.24-1.44-3.04-.43-.37-.67-.86-.67-1.37,0-.51.24-.99.67-1.37.58-.5.97-1.11,1.2-1.78l3.67.18c-.88.79-1.37,1.84-1.37,2.96,0,1.16.51,2.24,1.44,3.04.43.37.67.86.67,1.37,0,.51-.24.99-.67,1.37-.93.8-1.44,1.88-1.44,3.04,0,.38.07.75.18,1.1h-3.94Zm.26-17.37c-.3-.26-.5-.57-.6-.91h4.16c.12.98.59,1.89,1.39,2.58.06.05.11.12.17.17l-3.95-.19c-.24-.62-.62-1.19-1.16-1.65Zm11.33,1.67c.17.15.31.32.41.5l-4.09-.2c-.22-.74-.64-1.43-1.27-1.97-.3-.26-.5-.57-.6-.91h4.16c.12.98.59,1.89,1.39,2.58Zm-17.72-1.67c-.3-.26-.5-.57-.6-.91h4.16c.11.91.53,1.75,1.24,2.42l-3.76-.18c-.24-.49-.59-.95-1.04-1.33Zm-.67,16.27c0-.51.24-.99.67-1.37.93-.8,1.44-1.88,1.44-3.04,0-1.16-.51-2.24-1.44-3.04-.43-.37-.67-.86-.67-1.37,0-.51.24-.99.67-1.37.67-.57,1.11-1.3,1.31-2.08l3.85.19c-.07.08-.13.15-.21.22-.93.8-1.44,1.88-1.44,3.04,0,1.16.51,2.24,1.44,3.04.43.37.67.86.67,1.37,0,.51-.24.99-.67,1.37-.93.8-1.44,1.88-1.44,3.04,0,.38.07.75.18,1.1h-3.94c-.27-.33-.42-.71-.42-1.1Zm-10.54,18.37c-.64-1.5-1.21-2.97-1.72-4.39h1.72v4.39Zm40.37,26.28h-21v-3.43h21v3.43Zm19.38-26.28v-4.38h1.72c-.5,1.41-1.07,2.89-1.72,4.38Zm2.46-6.59h-4.67v5.11h-5.47v-2.91h1.63v1.82h2.21v-4.03h-6.04v7.32h9.56c-.51,1.15-1.06,2.31-1.67,3.46-4.69,8.97-14.88,15.41-16.59,16.44h-22.6c-1.71-1.04-11.89-7.47-16.59-16.44-.6-1.15-1.15-2.31-1.67-3.46h9.56v-7.32h-6.04v4.03h2.21v-1.82h1.63v2.91h-5.46v-5.11h-4.67c-1.2-3.72-1.9-6.82-2.23-8.47h69.13c-.33,1.65-1.04,4.75-2.23,8.47Z"/><polygon class="cls-2" points="26.31 37.84 20.84 37.84 20.84 34.93 22.47 34.93 22.47 36.75 24.68 36.75 24.68 32.73 18.63 32.73 18.63 40.05 28.51 40.05 28.51 34.93 33.98 34.93 33.98 37.84 32.35 37.84 32.35 36.02 30.14 36.02 30.14 40.05 36.19 40.05 36.19 32.73 26.31 32.73 26.31 37.84"/><polygon class="cls-2" points="43.86 36.02 41.65 36.02 41.65 37.84 40.02 37.84 40.02 34.93 45.49 34.93 45.49 40.05 55.37 40.05 55.37 32.73 49.32 32.73 49.32 36.75 51.53 36.75 51.53 34.93 53.16 34.93 53.16 37.84 47.69 37.84 47.69 32.73 37.81 32.73 37.81 40.05 43.86 40.05 43.86 36.02"/></g></svg>