<?xml version="1.0" encoding="UTF-8"?><svg id="_レイヤー_2" xmlns="http://www.w3.org/2000/svg" viewBox="0 0 90.27 70"><defs><style>.cls-1{fill:#ffdc00;}.cls-2{fill:#dbdcdc;}.cls-3{fill:#231815;}</style></defs><g id="_レイヤー_1-2"><path class="cls-1" d="m50.75,67.52h-29.76l1.02-5.54c4.21,1.45,8.87,2.23,13.86,2.23s9.66-.79,13.86-2.23l1.02,5.54Z"/><path class="cls-1" d="m35.87,61.73c-18.88,0-32.71-11.88-33.37-28.43h66.73c-.66,16.55-14.49,28.43-33.37,28.43Z"/><path class="cls-1" d="m39.29,61.6c-17.11-1.34-29.33-12.76-29.95-28.3H2.51c.66,16.55,14.49,28.43,33.37,28.43,1.16,0,2.3-.05,3.41-.13Z"/><path class="cls-1" d="m22.01,61.98l-1.02,5.54h6.83l.72-3.9c-2.28-.38-4.46-.93-6.53-1.64Z"/><path class="cls-2" d="m34.34,23.54c-5.29,0-9.68-3.13-10.43-7.2h20.81l-.05.39c-.95,3.87-5.22,6.8-10.33,6.8Z"/><path class="cls-2" d="m62.61,8.43c-7.1,1.96-12.22,4.97-15.09,6.98,1.53-1.6,6.9-6.75,15.58-9.75,7.25-2.51,13.2-3.16,17.42-3.16,3.11,0,5.28.35,6.32.57l.64,3.39c-3.7-.61-12.62-1.41-24.86,1.96Z"/><path class="cls-3" d="m70.5,30.82H1.24c-.69,0-1.24.56-1.24,1.24,0,13.3,7.69,23.99,19.65,29.03l-1.37,7.45c-.07.36.03.73.27,1.02.24.28.59.45.95.45h32.74c.37,0,.72-.16.95-.45.24-.28.33-.66.27-1.02l-1.37-7.45c11.96-5.03,19.65-15.73,19.65-29.03,0-.69-.56-1.24-1.24-1.24Zm-19.75,36.7h-29.76l1.02-5.54c4.21,1.45,8.87,2.23,13.86,2.23s9.66-.79,13.86-2.23l1.02,5.54Zm-14.88-5.79c-18.88,0-32.71-11.88-33.37-28.43h66.73c-.66,16.55-14.49,28.43-33.37,28.43Z"/><path class="cls-3" d="m90.25,7.82l-1.12-5.99c-.09-.45-.42-.82-.86-.96-.41-.13-10.23-3-25.98,2.44-9.55,3.3-15.23,8.93-16.72,10.55h-23.01c-.69,0-1.24.56-1.24,1.24,0,6.02,5.84,10.92,13.02,10.92,5.32,0,9.91-2.7,11.92-6.54.1-.05.21-.1.3-.19.06-.05,6.09-5.55,16.71-8.47,15.3-4.21,25.34-1.6,25.44-1.57.41.11.85,0,1.17-.29.31-.29.46-.72.38-1.14Zm-55.91,15.72c-5.29,0-9.68-3.13-10.43-7.2h20.81l-.05.39c-.95,3.87-5.22,6.8-10.33,6.8Zm28.27-15.11c-7.1,1.96-12.22,4.97-15.09,6.98,1.53-1.6,6.9-6.75,15.58-9.75,7.25-2.51,13.2-3.16,17.42-3.16,3.11,0,5.28.35,6.32.57l.64,3.39c-3.7-.61-12.62-1.41-24.86,1.96Z"/></g></svg>