<?xml version="1.0" encoding="UTF-8"?><svg id="_レイヤー_2" xmlns="http://www.w3.org/2000/svg" viewBox="0 0 80 62.9"><defs><style>.cls-1{fill:#ffdc00;}.cls-2{fill:#dbdcdc;}.cls-3{fill:#231815;}</style></defs><g id="_レイヤー_1-2"><path class="cls-1" d="m77.12,42.23c-.59,0-1.07-.48-1.07-1.07v-8.93c0-.54-.33-1.03-.83-1.23-.03-.01-.07-.03-.1-.04l-5.91-3.07c-.26-.14-.45-.37-.54-.65l-6.97-24.19c-.17-.52-.67-.89-1.25-.89H5.27c-.73,0-1.32.59-1.32,1.32v37.69c0,.59-.48,1.07-1.07,1.07-.4,0-.73.33-.73.73v7.18c0,.4.33.73.73.73.59,0,1.07.48,1.07,1.07v1.2c0,.4.33.73.73.73h2.35c0-.14-.02-.28-.02-.43,0-5.21,4.24-9.46,9.46-9.46s9.45,4.24,9.45,9.46c0,.14-.02.29-.02.43h27.27c0-.14-.02-.28-.02-.43,0-5.21,4.24-9.46,9.46-9.46s9.45,4.24,9.45,9.46c0,.14-.02.29-.02.43h3.29c.4,0,.73-.33.73-.73v-1.2c0-.59.48-1.07,1.07-1.07.4,0,.73-.33.73-.73v-7.18c0-.4-.33-.73-.73-.73Zm-28.46-16.56c0,1.25-1.02,2.27-2.27,2.27h-10.7c-1.25,0-2.27-1.02-2.27-2.27V6.77c0-1.25,1.02-2.27,2.27-2.27h10.7c1.25,0,2.27,1.02,2.27,2.27v18.9Zm15.87,1.36c-.43.58-1.1.91-1.82.91h-8.72c-1.25,0-2.27-1.02-2.27-2.27V6.77c0-1.25,1.02-2.27,2.27-2.27h3.83c1,0,1.89.67,2.18,1.62l4.89,18.94c.2.66.07,1.39-.37,1.97Z"/><path class="cls-2" d="m16.46,60.76c-4.03,0-7.31-3.28-7.31-7.31s3.28-7.31,7.31-7.31,7.31,3.28,7.31,7.31-3.28,7.31-7.31,7.31Z"/><path class="cls-2" d="m62.6,60.76c-4.03,0-7.31-3.28-7.31-7.31s3.28-7.31,7.31-7.31,7.31,3.28,7.31,7.31-3.28,7.31-7.31,7.31Z"/><path class="cls-3" d="m78.19,40.29v-8.07c0-1.41-.83-2.66-2.13-3.2l-5.46-2.84-6.85-23.78c-.46-1.44-1.79-2.41-3.3-2.41H5.27C3.36,0,1.81,1.56,1.81,3.47v36.82c-1.06.43-1.81,1.46-1.81,2.67v7.18c0,1.21.75,2.24,1.81,2.67v.33c0,1.59,1.29,2.88,2.88,2.88h2.69c1.12,3.97,4.77,6.88,9.09,6.88s7.97-2.92,9.09-6.88h27.96c1.12,3.97,4.77,6.88,9.09,6.88s7.97-2.92,9.09-6.88h3.63c1.59,0,2.88-1.29,2.88-2.87v-.34c1.06-.43,1.81-1.46,1.81-2.67v-7.18c0-1.21-.75-2.24-1.81-2.67Zm-61.73,20.47c-4.03,0-7.31-3.28-7.31-7.31s3.28-7.31,7.31-7.31,7.31,3.28,7.31,7.31-3.28,7.31-7.31,7.31Zm46.14,0c-4.03,0-7.31-3.28-7.31-7.31s3.28-7.31,7.31-7.31,7.31,3.28,7.31,7.31-3.28,7.31-7.31,7.31Zm15.26-10.62c0,.4-.33.73-.73.73-.59,0-1.07.48-1.07,1.07v1.2c0,.4-.33.73-.73.73h-3.29c0-.14.02-.28.02-.43,0-5.21-4.24-9.46-9.45-9.46s-9.46,4.24-9.46,9.46c0,.14.02.29.02.43h-27.27c0-.14.02-.28.02-.43,0-5.21-4.24-9.46-9.45-9.46s-9.46,4.24-9.46,9.46c0,.14.02.29.02.43h-2.35c-.4,0-.73-.33-.73-.73v-1.2c0-.59-.48-1.07-1.07-1.07-.4,0-.73-.33-.73-.73v-7.18c0-.4.33-.73.73-.73.59,0,1.07-.48,1.07-1.07V3.47c0-.73.59-1.32,1.32-1.32h55.18c.58,0,1.08.37,1.25.89l6.97,24.19c.08.28.28.52.54.65l5.91,3.07s.06.03.1.04c.5.2.83.68.83,1.23v8.93c0,.59.48,1.07,1.07,1.07.4,0,.73.33.73.73v7.18Z"/><path class="cls-3" d="m60.01,6.13c-.28-.96-1.18-1.62-2.18-1.62h-3.83c-1.25,0-2.27,1.02-2.27,2.27v18.9c0,1.25,1.02,2.27,2.27,2.27h8.72c.72,0,1.39-.33,1.82-.91.43-.58.56-1.31.37-1.97l-4.89-18.94Zm2.81,19.62c-.04.05-.08.05-.1.05h-8.72c-.07,0-.13-.06-.13-.13V6.77c0-.07.06-.13.13-.13h3.83c.06,0,.11.04.11.05l4.89,18.94s.02.06-.02.11Z"/><path class="cls-3" d="m46.4,4.5h-10.7c-1.25,0-2.27,1.02-2.27,2.27v18.9c0,1.25,1.02,2.27,2.27,2.27h10.7c1.25,0,2.27-1.02,2.27-2.27V6.77c0-1.25-1.02-2.27-2.27-2.27Zm.13,21.17c0,.07-.06.13-.13.13h-10.7c-.07,0-.13-.06-.13-.13V6.77c0-.07.06-.13.13-.13h10.7c.07,0,.13.06.13.13v18.9Z"/><path class="cls-3" d="m70.9,34.97l-.85.2c-.54.13-.93.61-.93,1.17v3.12c0,.56.38,1.04.93,1.17l.85.2c.75.17,1.47-.4,1.47-1.17v-3.52c0-.77-.72-1.34-1.47-1.17Z"/></g></svg>