<?xml version="1.0" encoding="utf-8"?>
<!-- Generator: Adobe Illustrator 28.2.0, SVG Export Plug-In . SVG Version: 6.00 Build 0)  -->
<svg version="1.1" id="レイヤー_1" xmlns="http://www.w3.org/2000/svg" xmlns:xlink="http://www.w3.org/1999/xlink" x="0px"
	 y="0px" viewBox="0 0 45 45" style="enable-background:new 0 0 45 45;" xml:space="preserve">
<style type="text/css">
	.st0{fill:#FFFFFF;stroke:#231815;stroke-width:0.7554;stroke-linecap:round;stroke-linejoin:round;stroke-miterlimit:10;}
	.st1{fill:#FFFFFF;}
	.st2{fill:none;stroke:#231815;stroke-width:0.7554;stroke-linecap:round;stroke-linejoin:round;stroke-miterlimit:10;}
	.st3{fill:#FFDC00;}
	.st4{fill:none;}
	.st5{fill:#231815;stroke:#231815;stroke-width:0.423;stroke-miterlimit:10;}
	.st6{fill:none;stroke:#231815;stroke-width:0.6346;stroke-linecap:round;stroke-linejoin:round;stroke-miterlimit:10;}
	.st7{fill:none;stroke:#231815;stroke-width:0.7554;stroke-linejoin:round;stroke-miterlimit:10;}
	.st8{fill:none;stroke:#DBDCDC;stroke-width:0.7554;stroke-linejoin:round;stroke-miterlimit:10;}
	.st9{fill:none;stroke:#231815;stroke-width:0.6043;stroke-linecap:round;stroke-linejoin:round;}
	.st10{fill:#FFFFFF;stroke:#231815;stroke-width:0.6043;stroke-linecap:round;stroke-linejoin:round;}
	.st11{fill:url(#SVGID_1_);}
</style>
<g>
	<g>
		<g>
			<path class="st0" d="M24.07,34.84c-0.2,1.57,0.39,2.08,1.15,2.27c0.76,0.19,1.77-0.4,1.97-1.98c0.2-1.57,0.12-3.97-1.28-4.08
				C25.13,30.98,24.27,33.26,24.07,34.84z"/>
		</g>
		<path class="st0" d="M18.14,34.97c-0.06,1.59,0.57,2.04,1.35,2.16c0.77,0.12,1.72-0.56,1.79-2.15c0.06-1.59-0.38-3.97-1.79-3.96
			C18.7,31.02,18.2,33.38,18.14,34.97z"/>
		<path class="st0" d="M19.28,26.77l7.43-0.55c0.11,0.09,1.16,3.57,0.94,5.68c-0.09,0.88-0.51,1.57-1.5,2.03
			c-0.9,0.45-2.02,0.66-3.15,0.65c-1.13,0.01-2.25-0.2-3.15-0.65c-0.99-0.46-1.41-1.15-1.5-2.03
			C18.14,29.78,19.16,26.86,19.28,26.77z"/>
		<path class="st1" d="M26.42,25.81l-0.02,3.09c-0.25,1.09-0.32,2.64-0.3,3.39c0.03,1.19,0.48,1.86,1.24,1.85
			c0.88-0.02,1.23-0.76,1.23-1.95C28.56,30.82,27.9,28.68,26.42,25.81z"/>
		<path class="st2" d="M26.39,28.9c-0.25,1.09-0.32,2.64-0.3,3.39c0.03,1.19,0.48,1.86,1.24,1.85c0.88-0.02,1.23-0.76,1.23-1.95
			c0-1.36-0.66-3.5-2.14-6.37"/>
		<path class="st3" d="M26.62,26.22l-7.33,0.55c0.21,1.2,2.95,2.89,3.71,2.78C23.78,29.44,26.51,27.53,26.62,26.22z"/>
		<g>
			<path class="st1" d="M22.77,13.99c0.23,2.28,2.26,3.94,4.53,3.71c2.28-0.23,3.94-2.26,3.71-4.53c-0.23-2.28-2.26-3.94-4.53-3.71
				C24.2,9.68,22.54,11.71,22.77,13.99z"/>
			<path class="st1" d="M20.83,14.18c0.23,2.28-1.43,4.3-3.71,4.53c-2.28,0.23-4.31-1.43-4.53-3.71c-0.23-2.28,1.43-4.31,3.71-4.53
				C18.57,10.24,20.6,11.9,20.83,14.18z"/>
			<path class="st1" d="M13.63,22.1c0.42,4.18,4.61,5.98,9.51,5.49c4.9-0.49,8.65-3.08,8.24-7.26c-0.5-4.97-4.85-8.36-9.75-7.87
				C16.73,12.94,13.14,17.13,13.63,22.1z"/>
			<g>
				<g>
					<polyline class="st4" points="16.5,19.16 18.03,20.09 16.43,20.73 					"/>
				</g>
				<g>
					<polyline class="st4" points="28.08,17.97 26.77,19.18 28.46,19.49 					"/>
				</g>
			</g>
			<path class="st3" d="M28.93,15.26c0.43-0.53,0.66-1.22,0.59-1.95c-0.15-1.46-1.44-2.52-2.9-2.37c-1.05,0.11-1.9,0.81-2.23,1.74
				c-0.02,0.07-0.01,0.22,0.09,0.24c1.62,0.36,3.08,1.17,4.2,2.33C28.77,15.33,28.9,15.3,28.93,15.26z"/>
			<path class="st3" d="M15.27,16.61c0.87-1.37,2.15-2.46,3.67-3.13c0.1-0.04,0.08-0.19,0.04-0.25c-0.51-0.85-1.48-1.37-2.53-1.27
				c-1.46,0.15-2.52,1.44-2.37,2.9c0.07,0.73,0.44,1.36,0.96,1.79C15.08,16.68,15.21,16.69,15.27,16.61z"/>
			<path class="st2" d="M31.38,20.32c-0.15-1.49-0.65-2.85-1.41-3.99c0.75-0.84,1.15-1.97,1.03-3.17c-0.23-2.28-2.26-3.94-4.53-3.71
				c-1.73,0.17-3.1,1.39-3.56,2.96c-0.42-0.02-0.85,0-1.28,0.04c-0.43,0.04-0.85,0.11-1.26,0.21c-0.76-1.45-2.35-2.37-4.08-2.2
				c-2.28,0.23-3.94,2.26-3.71,4.53c0.12,1.2,0.74,2.23,1.63,2.9c-0.52,1.28-0.74,2.7-0.59,4.2c0.42,4.18,4.61,5.98,9.51,5.49
				C28.05,27.09,31.8,24.5,31.38,20.32z"/>
			<path class="st3" d="M19.99,22.99c0.12,1.2,1.5,2.04,3.07,1.89c1.58-0.16,2.76-1.26,2.64-2.46c-0.12-1.2-1.5-2.04-3.07-1.89
				C21.05,20.69,19.87,21.79,19.99,22.99z"/>
			<g>
				<g>
					<path class="st5" d="M27.65,19.83c-0.2,0.02-0.4-0.04-0.56-0.17c-0.16-0.13-0.25-0.32-0.27-0.52
						c-0.04-0.42,0.27-0.79,0.69-0.83c0.2-0.02,0.4,0.04,0.56,0.17c0.16,0.13,0.26,0.32,0.28,0.52
						C28.38,19.42,28.07,19.79,27.65,19.83L27.65,19.83z"/>
				</g>
			</g>
			<g>
				<g>
					<path class="st5" d="M17.26,20.87c-0.42,0.04-0.79-0.26-0.84-0.68c-0.02-0.2,0.04-0.4,0.17-0.56c0.13-0.16,0.31-0.26,0.52-0.28
						c0.42-0.04,0.8,0.26,0.84,0.68c0.02,0.2-0.04,0.4-0.16,0.56C17.65,20.75,17.47,20.85,17.26,20.87L17.26,20.87z"/>
				</g>
			</g>
			<path class="st5" d="M21.94,21.54c0.02,0.23,0.39,0.39,0.82,0.35c0.43-0.04,0.76-0.27,0.74-0.5c-0.02-0.23-0.39-0.39-0.82-0.35
				C22.25,21.09,21.92,21.31,21.94,21.54z"/>
		</g>
		<path class="st6" d="M23.82,22.78c-0.15,0.29-0.52,0.49-0.95,0.49c-0.41,0-0.76-0.18-0.92-0.44"/>
		<g>
			<g>
				<g>
					<g>
						<g>
							<polyline class="st7" points="19.01,32.25 20.68,23.67 22.32,23.12 							"/>
							<g>
								<polygon class="st1" points="21.08,33.12 16.91,33.12 16.48,25.72 21.61,25.72 								"/>
							</g>
							<polygon class="st3" points="16.6,27.79 16.91,33.12 21.08,33.12 21.46,27.79 							"/>
							<line class="st8" x1="19.01" y1="32.25" x2="20.35" y2="25.38"/>
							<path class="st1" d="M19.5,28.58c0,0.26-0.21,0.47-0.47,0.47c-0.26,0-0.47-0.21-0.47-0.47c0-0.26,0.21-0.47,0.47-0.47
								C19.29,28.1,19.5,28.31,19.5,28.58z"/>
							<path class="st1" d="M19.99,30.17c0,0.21-0.17,0.38-0.38,0.38c-0.21,0-0.38-0.17-0.38-0.38c0-0.21,0.17-0.38,0.38-0.38
								C19.82,29.79,19.99,29.96,19.99,30.17z"/>
							<g>
								<polygon class="st9" points="21.08,33.12 16.91,33.12 16.48,25.72 21.61,25.72 								"/>
							</g>
						</g>
					</g>
				</g>
				<path class="st0" d="M17.89,29.69c0,0.77-0.56,1.39-1.25,1.39c-0.69,0-1.25-0.62-1.25-1.39c0-0.77,0.56-1.39,1.25-1.39
					C17.32,28.3,17.89,28.92,17.89,29.69z"/>
			</g>
			<rect x="16.27" y="25.01" class="st10" width="5.56" height="1.17"/>
		</g>
	</g>
</g>
<g>
	<g>
		<g>
			<g>
				<g>
					<g>
						<g>
							<g>
								<g>
									
										<linearGradient id="SVGID_1_" gradientUnits="userSpaceOnUse" x1="0" y1="21.61" x2="45" y2="21.61" gradientTransform="matrix(1 0 0 -1 0 44.11)">
										<stop  offset="0" style="stop-color:#FFB400"/>
										<stop  offset="0.5" style="stop-color:#FFDC00"/>
									</linearGradient>
									<path class="st11" d="M22.5,3C33.25,3,42,11.75,42,22.5S33.25,42,22.5,42S3,33.25,3,22.5S11.75,3,22.5,3 M22.5,0
										C10.12,0,0,10.12,0,22.5S10.12,45,22.5,45S45,34.88,45,22.5S34.88,0,22.5,0L22.5,0z"/>
								</g>
							</g>
						</g>
					</g>
				</g>
			</g>
		</g>
	</g>
</g>
</svg>
