<?xml version="1.0" encoding="utf-8"?>
<!-- Generator: Adobe Illustrator 28.2.0, SVG Export Plug-In . SVG Version: 6.00 Build 0)  -->
<svg version="1.1" id="レイヤー_1" xmlns="http://www.w3.org/2000/svg" xmlns:xlink="http://www.w3.org/1999/xlink" x="0px"
	 y="0px" viewBox="0 0 45 45" style="enable-background:new 0 0 45 45;" xml:space="preserve">
<style type="text/css">
	.st0{fill:#FFDC00;}
	.st1{fill:#231815;}
	.st2{fill:url(#SVGID_1_);}
</style>
<g>
	<g id="_レイヤー_1-2_00000055679869647606842430000004362591189239046026_">
		<path class="st0" d="M33.62,24.1c-0.03-0.66-0.26-2.02-1.49-2.98c-0.48-0.37-0.92-0.52-1.35-0.66c-0.57-0.18-1.16-0.38-1.97-1.19
			c-0.3-0.3-0.51-0.69-0.74-1.1c-0.39-0.72-0.83-1.53-1.87-2.13c-1.04-0.6-1.96-0.58-2.78-0.55c-0.47,0.01-0.91,0.02-1.32-0.09
			c-1.11-0.29-1.57-0.71-2.02-1.11c-0.33-0.3-0.68-0.61-1.24-0.84c-1.44-0.59-2.74-0.1-3.33,0.2v-2.89
			c4.15,0.06,8.24,1.19,11.84,3.27s6.63,5.06,8.76,8.62L33.62,24.1L33.62,24.1z"/>
		<path class="st0" d="M32.83,24.42c0-0.07,0.11-1.67-1.19-2.68c-0.37-0.29-0.71-0.4-1.11-0.53c-0.63-0.21-1.34-0.44-2.28-1.38
			c-0.38-0.38-0.63-0.84-0.87-1.28c-0.38-0.69-0.73-1.34-1.57-1.83s-1.58-0.47-2.37-0.45c-0.5,0.01-1.02,0.02-1.54-0.11
			c-1.29-0.34-1.85-0.84-2.34-1.29c-0.31-0.28-0.58-0.52-1.01-0.7c-1.53-0.62-2.86,0.27-2.92,0.31c-0.03,0.02-0.07,0.03-0.11,0.05
			v6.9c1.75,0.2,3.11,1.68,3.11,3.48s-1.36,3.28-3.11,3.48v6.16l2.72-1.57c0,0,0.01,0,0.02-0.01c0.02-0.01,0.05-0.02,0.07-0.02
			c0.02-0.01,0.05-0.01,0.08-0.01c0.01,0,0.01,0,0.02,0c0.02,0,0.03,0.01,0.05,0.01c0.03,0,0.05,0.01,0.08,0.02
			c0.02,0.01,0.05,0.02,0.07,0.03c0.02,0.01,0.04,0.02,0.06,0.04c0.02,0.02,0.03,0.04,0.05,0.06c0.01,0.01,0.02,0.02,0.03,0.04
			c0,0.01,0,0.01,0.01,0.02c0.01,0.02,0.02,0.05,0.02,0.07c0.01,0.02,0.01,0.05,0.01,0.08c0,0.01,0,0.01,0,0.02v1.71
			c0,0.32,0.26,0.59,0.59,0.59S20,35.36,20,35.03v-2.81c0-0.54,0.44-0.98,0.98-0.98c0.54,0,0.98,0.44,0.98,0.98v0.52
			c0,0.32,0.26,0.59,0.59,0.59c0.32,0,0.59-0.26,0.59-0.59v-2.35c0,0,0.01-0.03,0.01-0.05c0-0.03,0.01-0.05,0.02-0.08
			c0.01-0.02,0.02-0.05,0.03-0.07c0.01-0.02,0.02-0.04,0.04-0.06c0.02-0.02,0.04-0.04,0.06-0.05c0.01-0.01,0.02-0.02,0.03-0.03
			l9.52-5.5c-0.01-0.04-0.02-0.08-0.01-0.12L32.83,24.42z M25.97,22.44c-0.75,1.3-2.41,1.74-3.71,0.99
			c-1.3-0.75-1.74-2.41-0.99-3.71c0.36-0.63,0.95-1.08,1.65-1.27c0.23-0.06,0.47-0.09,0.71-0.09c0.47,0,0.93,0.12,1.35,0.37
			C26.27,19.48,26.71,21.15,25.97,22.44z"/>
		<path class="st1" d="M36.99,22.6c-2.21-3.83-5.4-7.03-9.24-9.25c-3.83-2.21-8.19-3.38-12.6-3.38c-0.24,0-0.41,0.17-0.41,0.39
			v24.86c0,0.14,0.07,0.27,0.2,0.34c0.06,0.03,0.13,0.05,0.2,0.05s0.14-0.02,0.2-0.05L18.04,34v1.03c0,0.76,0.61,1.37,1.37,1.37
			s1.37-0.61,1.37-1.37v-2.81c0-0.1,0.09-0.2,0.2-0.2c0.1,0,0.2,0.09,0.2,0.2v0.52c0,0.76,0.61,1.37,1.37,1.37s1.37-0.61,1.37-1.37
			V30.6l12.93-7.47c0.19-0.11,0.25-0.35,0.14-0.53L36.99,22.6z M15.52,22.23c1.31,0.19,2.33,1.32,2.33,2.69s-1.01,2.5-2.33,2.69
			V22.23z M23.13,32.74c0,0.32-0.26,0.59-0.59,0.59c-0.32,0-0.59-0.26-0.59-0.59v-0.52c0-0.54-0.44-0.98-0.98-0.98
			c-0.54,0-0.98,0.44-0.98,0.98v2.81c0,0.32-0.26,0.59-0.59,0.59s-0.59-0.26-0.59-0.59v-1.71c0,0,0-0.01,0-0.02
			c0-0.03-0.01-0.05-0.01-0.08c-0.01-0.02-0.01-0.05-0.02-0.07c0-0.01,0-0.01-0.01-0.02c-0.01-0.01-0.02-0.02-0.03-0.04
			c-0.02-0.02-0.03-0.04-0.05-0.06c-0.02-0.02-0.04-0.03-0.06-0.04c-0.02-0.01-0.04-0.02-0.07-0.03c-0.02-0.01-0.05-0.01-0.08-0.02
			c-0.02,0-0.03-0.01-0.05-0.01c-0.01,0-0.01,0-0.02,0c-0.02,0-0.05,0.01-0.08,0.01c-0.02,0.01-0.05,0.01-0.07,0.02
			c-0.01,0-0.01,0-0.02,0.01l-2.72,1.57v-6.16c1.75-0.2,3.11-1.68,3.11-3.48s-1.36-3.28-3.11-3.48v-6.89
			c0.04-0.01,0.08-0.02,0.11-0.05c0.06-0.04,1.39-0.93,2.92-0.31c0.44,0.18,0.7,0.42,1.01,0.7c0.49,0.44,1.05,0.94,2.34,1.29
			c0.52,0.14,1.04,0.13,1.54,0.11c0.78-0.02,1.52-0.04,2.37,0.45s1.2,1.14,1.57,1.83c0.24,0.44,0.49,0.9,0.87,1.28
			c0.94,0.95,1.66,1.18,2.28,1.38c0.4,0.13,0.74,0.24,1.11,0.53c1.3,1.01,1.2,2.62,1.19,2.68c0,0.04,0,0.08,0.01,0.12l-9.52,5.5
			c0,0-0.02,0.02-0.03,0.03c-0.02,0.02-0.04,0.03-0.06,0.05c-0.02,0.02-0.03,0.04-0.04,0.06c-0.01,0.02-0.02,0.04-0.03,0.07
			c-0.01,0.02-0.01,0.05-0.02,0.08c0,0.02-0.01,0.03-0.01,0.05L23.13,32.74L23.13,32.74z M33.62,24.1
			c-0.03-0.66-0.26-2.02-1.49-2.98c-0.48-0.37-0.92-0.52-1.35-0.66c-0.57-0.18-1.16-0.38-1.97-1.19c-0.3-0.3-0.51-0.69-0.74-1.1
			c-0.39-0.72-0.83-1.53-1.87-2.13c-1.04-0.6-1.96-0.58-2.78-0.55c-0.47,0.01-0.91,0.02-1.32-0.09c-1.11-0.29-1.57-0.71-2.02-1.11
			c-0.33-0.3-0.68-0.61-1.24-0.84c-1.44-0.59-2.74-0.1-3.33,0.2v-2.89c4.15,0.06,8.24,1.19,11.84,3.27s6.63,5.06,8.76,8.62
			L33.62,24.1L33.62,24.1z"/>
		<path class="st1" d="M23.61,24.58c1.21,0,2.39-0.63,3.04-1.75l0,0c0.97-1.67,0.39-3.81-1.28-4.78c-0.81-0.47-1.75-0.59-2.66-0.35
			c-0.9,0.24-1.66,0.82-2.12,1.63c-0.97,1.67-0.39,3.81,1.28,4.78C22.42,24.43,23.02,24.58,23.61,24.58z M21.26,19.73
			c0.36-0.63,0.95-1.08,1.65-1.27c0.23-0.06,0.47-0.09,0.71-0.09c0.47,0,0.93,0.12,1.35,0.37c1.3,0.75,1.74,2.41,0.99,3.71
			s-2.41,1.74-3.71,0.99C20.96,22.69,20.51,21.02,21.26,19.73z"/>
		<path class="st1" d="M18.93,17.19c-0.32-0.19-0.7-0.24-1.06-0.14c-0.36,0.1-0.66,0.33-0.85,0.65c-0.19,0.32-0.24,0.7-0.14,1.06
			c0.1,0.36,0.33,0.66,0.65,0.85c0.22,0.13,0.46,0.19,0.7,0.19c0.48,0,0.96-0.25,1.22-0.7l0,0c0.19-0.32,0.24-0.7,0.14-1.06
			S19.25,17.37,18.93,17.19z M18.76,18.71c-0.17,0.3-0.55,0.4-0.84,0.23s-0.4-0.55-0.23-0.84c0.08-0.14,0.22-0.24,0.38-0.29
			c0.05-0.01,0.11-0.02,0.16-0.02c0.11,0,0.21,0.03,0.31,0.08C18.83,18.04,18.94,18.42,18.76,18.71z"/>
		<path class="st1" d="M23.98,27.87L23.98,27.87c0.39-0.67,0.16-1.53-0.51-1.91c-0.67-0.39-1.53-0.16-1.91,0.51
			c-0.19,0.32-0.24,0.7-0.14,1.06c0.1,0.36,0.33,0.66,0.65,0.85c0.22,0.13,0.46,0.19,0.7,0.19C23.25,28.57,23.72,28.32,23.98,27.87z
			 M23.3,27.48c-0.17,0.3-0.55,0.4-0.84,0.23c-0.14-0.08-0.24-0.22-0.29-0.38c-0.04-0.16-0.02-0.33,0.06-0.47
			c0.12-0.2,0.32-0.31,0.54-0.31c0.1,0,0.21,0.03,0.31,0.08C23.37,26.8,23.47,27.18,23.3,27.48z"/>
		<path class="st1" d="M29.32,24.82c0.22,0.13,0.46,0.19,0.7,0.19c0.12,0,0.24-0.02,0.37-0.05c0.36-0.1,0.66-0.33,0.85-0.65
			c0.19-0.32,0.24-0.7,0.14-1.06c-0.1-0.36-0.33-0.66-0.65-0.85c-0.32-0.19-0.7-0.24-1.06-0.14c-0.36,0.1-0.66,0.33-0.85,0.65
			c-0.19,0.32-0.24,0.7-0.14,1.06C28.76,24.33,28.99,24.63,29.32,24.82z M29.48,23.3c0.08-0.14,0.22-0.24,0.38-0.29
			c0.05-0.01,0.11-0.02,0.16-0.02c0.11,0,0.21,0.03,0.31,0.08c0.14,0.08,0.24,0.22,0.29,0.38c0.04,0.16,0.02,0.33-0.06,0.47l0,0
			c-0.08,0.14-0.22,0.24-0.38,0.29c-0.16,0.04-0.33,0.02-0.47-0.06s-0.24-0.22-0.29-0.38C29.37,23.61,29.39,23.44,29.48,23.3
			L29.48,23.3z"/>
	</g>
	<g>
		<g>
			<g>
				<g>
					<g>
						<g>
							<g>
								<g>
									<g>
										
											<linearGradient id="SVGID_1_" gradientUnits="userSpaceOnUse" x1="0" y1="21.61" x2="45" y2="21.61" gradientTransform="matrix(1 0 0 -1 0 44.11)">
											<stop  offset="0" style="stop-color:#FFB400"/>
											<stop  offset="0.5" style="stop-color:#FFDC00"/>
										</linearGradient>
										<path class="st2" d="M22.5,3C33.25,3,42,11.75,42,22.5S33.25,42,22.5,42S3,33.25,3,22.5S11.75,3,22.5,3 M22.5,0
											C10.12,0,0,10.12,0,22.5S10.12,45,22.5,45S45,34.88,45,22.5S34.88,0,22.5,0L22.5,0z"/>
									</g>
								</g>
							</g>
						</g>
					</g>
				</g>
			</g>
		</g>
	</g>
</g>
</svg>
