<?xml version="1.0" encoding="UTF-8"?><svg id="_レイヤー_2" xmlns="http://www.w3.org/2000/svg" xmlns:xlink="http://www.w3.org/1999/xlink" viewBox="0 0 45 45"><defs><style>.cls-1{fill:#fff;}.cls-2{fill:#ffdc00;}.cls-3{fill:#dbdcdc;}.cls-4{fill:url(#_名称未設定グラデーション_22);}.cls-5{fill:#231815;}</style><linearGradient id="_名称未設定グラデーション_22" x1="0" y1="22.5" x2="45" y2="22.5" gradientUnits="userSpaceOnUse"><stop offset="0" stop-color="#ffb400"/><stop offset=".5" stop-color="#ffdc00"/></linearGradient></defs><g id="_レイヤー_1-2"><path class="cls-1" d="m0,22.5C0,10.12,10.12,0,22.5,0h0c12.38,0,22.5,10.12,22.5,22.5h0c0,12.38-10.12,22.5-22.5,22.5h0C10.12,45,0,34.88,0,22.5h0Z"/><path class="cls-4" d="m22.5,3c10.75,0,19.5,8.75,19.5,19.5s-8.75,19.5-19.5,19.5S3,33.25,3,22.5,11.75,3,22.5,3m0-3C10.12,0,0,10.12,0,22.5s10.12,22.5,22.5,22.5,22.5-10.12,22.5-22.5S34.88,0,22.5,0h0Z"/><path class="cls-2" d="m21.25,26c0,1.19-1.59,2.19-3.48,2.19s-3.48-1-3.48-2.19,1.59-2.19,3.48-2.19,3.48,1,3.48,2.19Z"/><path class="cls-2" d="m21.25,17.38c0,1.19-1.59,2.19-3.48,2.19s-3.48-1-3.48-2.19,1.59-2.19,3.48-2.19,3.48,1,3.48,2.19Z"/><path class="cls-2" d="m24.48,14.22c0-1.36,1.43-2.47,3.2-2.47s3.2,1.11,3.2,2.47-1.43,2.47-3.2,2.47-3.2-1.11-3.2-2.47Z"/><path class="cls-2" d="m30.87,25.72c0,1.36-1.43,2.47-3.2,2.47s-3.2-1.11-3.2-2.47,1.43-2.47,3.2-2.47,3.2,1.11,3.2,2.47Z"/><path class="cls-2" d="m27.68,22.44c-1.76,0-3.2-1.11-3.2-2.47s1.43-2.47,3.2-2.47,3.2,1.11,3.2,2.47-1.43,2.47-3.2,2.47Z"/><path class="cls-5" d="m21.82,10.94h-3.56v-2.43c0-.27-.22-.48-.48-.48s-.48.22-.48.48v2.43h-3.56c-.22,0-.4.18-.4.4v3.41c0,.22.18.4.4.4h1.18c-.87.55-1.41,1.34-1.41,2.22s.53,1.65,1.37,2.19h-1.14c-.22,0-.4.18-.4.4v3.41c0,.22.18.4.4.4h1.18c-.87.55-1.41,1.34-1.41,2.22,0,1.54,1.67,2.81,3.8,2.98v7.51c0,.27.22.48.48.48s.48-.22.48-.48v-7.51c2.13-.17,3.8-1.44,3.8-2.98,0-.88-.55-1.67-1.41-2.22h1.18c.22,0,.4-.18.4-.4v-3.41c0-.22-.18-.4-.4-.4h-1.14c.84-.55,1.37-1.33,1.37-2.19s-.55-1.67-1.41-2.22h1.18c.22,0,.4-.18.4-.4v-3.41c0-.22-.18-.4-.4-.4Zm-.57,15.06c0,1.19-1.59,2.19-3.48,2.19s-3.48-1-3.48-2.19,1.59-2.19,3.48-2.19,3.48,1,3.48,2.19Zm.17-5.63v2.61h-7.29v-2.61h7.29Zm-.17-3c0,1.19-1.59,2.19-3.48,2.19s-3.48-1-3.48-2.19,1.59-2.19,3.48-2.19,3.48,1,3.48,2.19Zm.17-3.02h-7.29v-2.61h7.29v2.61Z"/><path class="cls-5" d="m31.68,19.97c0-1.24-.84-2.32-2.08-2.87,1.24-.56,2.08-1.64,2.08-2.87,0-1.67-1.54-3.05-3.52-3.25v-2.46c0-.27-.22-.48-.48-.48s-.48.22-.48.48v2.46c-1.98.2-3.52,1.58-3.52,3.25,0,1.24.84,2.32,2.08,2.87-1.24.56-2.08,1.64-2.08,2.87s.84,2.32,2.08,2.87c-1.24.56-2.08,1.64-2.08,2.87,0,1.67,1.54,3.05,3.52,3.25v7.52c0,.27.22.48.48.48s.48-.22.48-.48v-7.52c1.98-.2,3.52-1.58,3.52-3.25,0-1.24-.84-2.32-2.08-2.87,1.24-.56,2.08-1.64,2.08-2.87Zm-7.2-5.75c0-1.36,1.43-2.47,3.2-2.47s3.2,1.11,3.2,2.47-1.43,2.47-3.2,2.47-3.2-1.11-3.2-2.47Zm6.39,11.5c0,1.36-1.43,2.47-3.2,2.47s-3.2-1.11-3.2-2.47,1.43-2.47,3.2-2.47,3.2,1.11,3.2,2.47Zm-3.2-3.28c-1.76,0-3.2-1.11-3.2-2.47s1.43-2.47,3.2-2.47,3.2,1.11,3.2,2.47-1.43,2.47-3.2,2.47Z"/><rect class="cls-3" x="17.9" y="20.37" width="3.52" height="2.61"/><rect class="cls-3" x="17.9" y="11.75" width="3.52" height="2.61"/></g></svg>