<?xml version="1.0" encoding="utf-8"?>
<!-- Generator: Adobe Illustrator 28.2.0, SVG Export Plug-In . SVG Version: 6.00 Build 0)  -->
<svg version="1.1" id="レイヤー_1" xmlns="http://www.w3.org/2000/svg" xmlns:xlink="http://www.w3.org/1999/xlink" x="0px"
	 y="0px" viewBox="0 0 45 45" style="enable-background:new 0 0 45 45;" xml:space="preserve">
<style type="text/css">
	.st0{fill:#FFDC00;}
	.st1{fill:#DBDCDC;}
	.st2{fill:#231815;}
	.st3{fill:url(#SVGID_1_);}
</style>
<g>
	<g id="_レイヤー_1-2_00000142140952074602370610000018176804962799097532_">
		<path class="st0" d="M23.96,35.2h-9.77l0.33-1.82c1.38,0.48,2.91,0.73,4.55,0.73c1.64,0,3.17-0.26,4.55-0.73L23.96,35.2z"/>
		<path class="st0" d="M19.08,33.3c-6.2,0-10.74-3.9-10.95-9.33h21.9C29.81,29.4,25.27,33.3,19.08,33.3L19.08,33.3z"/>
		<path class="st0" d="M20.2,33.26c-5.62-0.44-9.63-4.19-9.83-9.29H8.12c0.22,5.43,4.76,9.33,10.95,9.33
			C19.46,33.3,19.83,33.29,20.2,33.26z"/>
		<path class="st0" d="M14.53,33.39l-0.33,1.82h2.24l0.24-1.28C15.92,33.8,15.21,33.62,14.53,33.39z"/>
		<path class="st1" d="M18.57,20.77c-1.74,0-3.18-1.03-3.42-2.36h6.83l-0.02,0.13C21.65,19.8,20.25,20.76,18.57,20.77L18.57,20.77z"
			/>
		<path class="st1" d="M27.85,15.81c-2.33,0.64-4.01,1.63-4.95,2.29c0.5-0.53,2.27-2.22,5.11-3.2c2.38-0.82,4.33-1.04,5.72-1.04
			c1.02,0,1.73,0.11,2.07,0.19l0.21,1.11C34.8,14.96,31.87,14.7,27.85,15.81L27.85,15.81z"/>
		<path class="st2" d="M30.44,23.16H7.71c-0.23,0-0.41,0.18-0.41,0.41c0,4.37,2.52,7.87,6.45,9.53l-0.45,2.45
			c-0.02,0.12,0.01,0.24,0.09,0.33c0.08,0.09,0.19,0.15,0.31,0.15h10.75c0.12,0,0.24-0.05,0.31-0.15c0.08-0.09,0.11-0.22,0.09-0.33
			l-0.45-2.45c3.93-1.65,6.45-5.16,6.45-9.53C30.85,23.34,30.67,23.16,30.44,23.16z M23.96,35.2h-9.77l0.33-1.82
			c1.38,0.48,2.91,0.73,4.55,0.73c1.64,0,3.17-0.26,4.55-0.73L23.96,35.2z M19.08,33.3c-6.2,0-10.74-3.9-10.95-9.33h21.9
			C29.81,29.4,25.27,33.3,19.08,33.3L19.08,33.3z"/>
		<path class="st2" d="M36.93,15.61l-0.37-1.97c-0.03-0.15-0.14-0.27-0.28-0.32c-0.13-0.04-3.36-0.98-8.53,0.8
			c-3.13,1.08-5,2.93-5.49,3.46h-7.55c-0.23,0-0.41,0.18-0.41,0.41c0,1.98,1.92,3.58,4.27,3.58c1.75,0,3.25-0.89,3.91-2.15
			c0.03-0.02,0.07-0.03,0.1-0.06c0.02-0.02,2-1.82,5.49-2.78c5.02-1.38,8.32-0.53,8.35-0.52c0.13,0.04,0.28,0,0.38-0.1
			C36.91,15.89,36.96,15.74,36.93,15.61L36.93,15.61z M18.57,20.77c-1.74,0-3.18-1.03-3.42-2.36h6.83l-0.02,0.13
			C21.65,19.8,20.25,20.76,18.57,20.77L18.57,20.77z M27.85,15.81c-2.33,0.64-4.01,1.63-4.95,2.29c0.5-0.53,2.27-2.22,5.11-3.2
			c2.38-0.82,4.33-1.04,5.72-1.04c1.02,0,1.73,0.11,2.07,0.19l0.21,1.11C34.8,14.96,31.87,14.7,27.85,15.81L27.85,15.81z"/>
	</g>
	
		<linearGradient id="SVGID_1_" gradientUnits="userSpaceOnUse" x1="9.094947e-13" y1="21.61" x2="45" y2="21.61" gradientTransform="matrix(1 0 0 -1 0 44.11)">
		<stop  offset="0" style="stop-color:#FFB400"/>
		<stop  offset="0.5" style="stop-color:#FFDC00"/>
	</linearGradient>
	<path class="st3" d="M22.5,3C33.25,3,42,11.75,42,22.5S33.25,42,22.5,42S3,33.25,3,22.5S11.75,3,22.5,3 M22.5,0
		C10.12,0,0,10.12,0,22.5S10.12,45,22.5,45S45,34.88,45,22.5S34.88,0,22.5,0L22.5,0z"/>
</g>
</svg>
