<?xml version="1.0" encoding="utf-8"?>
<!-- Generator: Adobe Illustrator 28.2.0, SVG Export Plug-In . SVG Version: 6.00 Build 0)  -->
<svg version="1.1" id="レイヤー_1" xmlns="http://www.w3.org/2000/svg" xmlns:xlink="http://www.w3.org/1999/xlink" x="0px"
	 y="0px" viewBox="0 0 45 45" style="enable-background:new 0 0 45 45;" xml:space="preserve">
<style type="text/css">
	.st0{fill:#FFDC00;}
	.st1{fill:#231815;}
	.st2{fill:#FCCF00;}
	.st3{fill:url(#SVGID_1_);}
</style>
<g>
	<g id="_レイヤー_1-2_00000127731918098649453680000004513131664749898390_">
		<path class="st0" d="M33.8,26.79c-1.2,2.08-4.41,3.41-6.95,3.55v-1.19c2.51-0.12,5.5-1.32,6.95-3.46V26.79L33.8,26.79z"/>
		<polygon class="st0" points="11.19,21.65 11.19,20.59 26.02,28.99 26.02,30.05 		"/>
		<polygon class="st0" points="26.02,28.03 11.19,19.63 11.19,15.02 26.02,23.43 		"/>
		<polygon class="st0" points="11.19,22.61 26.02,31.01 26.02,35.7 11.19,27.3 		"/>
		<path class="st0" d="M33.8,20.13v3.01c-0.01,0.48-0.11,0.95-0.3,1.39c-0.98,2.26-4.06,3.66-6.64,3.79v-4.73
			C29.36,23.47,32.35,22.27,33.8,20.13z"/>
		<path class="st0" d="M33.5,32.19c-0.98,2.26-4.06,3.66-6.64,3.79v-4.81c2.41-0.12,5.3-1.2,6.95-2.99v2.42
			c0,0.04,0.01,0.07,0.02,0.1c-0.01,0.03-0.02,0.06-0.02,0.1C33.79,31.28,33.69,31.75,33.5,32.19z"/>
		<path class="st1" d="M34.62,17.32c-0.02-0.55-0.14-1.09-0.36-1.57c-0.41-0.89-1.12-1.53-2-1.82c-0.03-0.41-0.12-0.86-0.27-1.35
			c-0.93-2.92-3.94-3.95-4.07-4c-0.16-0.06-0.35,0-0.46,0.13c-0.11,0.13-0.12,0.32-0.04,0.47c0.17,0.3,0.61,1.24,0.53,1.99
			c-0.01,0.07-0.02,0.11-0.04,0.12c-0.11,0.09-0.57,0.03-0.9-0.01c-1.11-0.13-2.97-0.36-3.81,2.06c-0.07,0.22,0.04,0.45,0.26,0.53
			c0.22,0.07,0.45-0.04,0.53-0.26c0.61-1.78,1.78-1.64,2.91-1.5c0.61,0.07,1.14,0.14,1.52-0.16c0.2-0.16,0.32-0.39,0.35-0.68
			c0.06-0.49-0.04-1-0.18-1.44c0.87,0.5,2.09,1.45,2.58,3.01c1.06,3.34-1.65,4.46-1.76,4.5c-0.22,0.08-0.32,0.32-0.24,0.54
			c0.06,0.16,0.22,0.27,0.39,0.27c0.05,0,0.1-0.01,0.15-0.03c0.03-0.01,2.23-0.9,2.51-3.3c0.55,0.25,0.99,0.69,1.26,1.28
			c0.2,0.43,0.3,0.91,0.3,1.4v0.02c0,0.49-0.1,0.99-0.3,1.44c-1.02,2.35-4.31,3.77-6.96,3.81l-14.18-8.05h9.71
			c0.23,0,0.42-0.19,0.42-0.42s-0.19-0.42-0.42-0.42H10.78c0,0-0.03,0.01-0.05,0.01c-0.03,0-0.06,0.01-0.09,0.02
			c-0.03,0.01-0.04,0.02-0.07,0.03c-0.02,0.01-0.04,0.03-0.07,0.04s-0.04,0.04-0.06,0.06c-0.01,0.01-0.03,0.03-0.03,0.04
			c0,0.01,0,0.01-0.01,0.02c-0.01,0.03-0.02,0.05-0.03,0.08s-0.01,0.05-0.01,0.08c0,0.01,0,0.01,0,0.02v13.23
			c0,0,0.01,0.03,0.01,0.05c0,0.03,0.01,0.06,0.02,0.09c0.01,0.03,0.02,0.05,0.03,0.07c0.01,0.02,0.03,0.04,0.04,0.07
			c0.02,0.02,0.04,0.04,0.06,0.06c0.01,0.01,0.03,0.03,0.04,0.03l15.66,8.88c0,0,0.02,0.01,0.03,0.01c0.01,0,0.02,0.01,0.03,0.01
			c0.05,0.02,0.1,0.03,0.15,0.03l0,0c2.89,0,6.61-1.51,7.83-4.31c0.23-0.54,0.36-1.12,0.37-1.71c0-0.04-0.01-0.07-0.02-0.11
			c0.01-0.03,0.02-0.07,0.02-0.1V17.37C34.64,17.37,34.63,17.34,34.62,17.32L34.62,17.32z M33.8,26.79
			c-1.2,2.08-4.41,3.41-6.95,3.55v-1.19c2.51-0.12,5.5-1.32,6.95-3.46V26.79L33.8,26.79z M11.19,21.65v-1.06l14.83,8.4v1.06
			L11.19,21.65z M26.02,28.03l-14.83-8.4v-4.61l14.83,8.4V28.03z M11.19,22.61l14.83,8.4v4.69l-14.83-8.4
			C11.19,27.3,11.19,22.61,11.19,22.61z M33.8,20.12v3.01c-0.01,0.48-0.11,0.95-0.3,1.39c-0.98,2.26-4.06,3.66-6.64,3.79v-4.73
			C29.36,23.46,32.35,22.26,33.8,20.12z M33.5,32.19c-0.98,2.26-4.06,3.66-6.64,3.79v-4.81c2.41-0.12,5.3-1.2,6.95-2.99v2.42
			c0,0.04,0.01,0.07,0.02,0.1c-0.01,0.03-0.02,0.06-0.02,0.1C33.79,31.28,33.69,31.75,33.5,32.19z"/>
		<path class="st2" d="M27.06,15.35c-1.61,0-2.92,1.31-2.92,2.92c0,1.61,1.31,2.92,2.92,2.92s2.92-1.31,2.92-2.92
			C29.98,16.66,28.67,15.35,27.06,15.35z"/>
		<path class="st2" d="M23.35,18.03c0-1.61,1.09-2.96,2.57-3.36c-0.42-0.8-1.25-1.35-2.22-1.35c-1.38,0-2.5,1.12-2.5,2.5
			c0,1.26,0.94,2.31,2.15,2.47C23.35,18.21,23.34,18.12,23.35,18.03L23.35,18.03z"/>
	</g>
	<g>
		<g>
			<g>
				
					<linearGradient id="SVGID_1_" gradientUnits="userSpaceOnUse" x1="1.818989e-12" y1="21.61" x2="45" y2="21.61" gradientTransform="matrix(1 0 0 -1 0 44.11)">
					<stop  offset="0" style="stop-color:#FFB400"/>
					<stop  offset="0.5" style="stop-color:#FFDC00"/>
				</linearGradient>
				<path class="st3" d="M22.5,3C33.25,3,42,11.75,42,22.5S33.25,42,22.5,42S3,33.25,3,22.5S11.75,3,22.5,3 M22.5,0
					C10.12,0,0,10.12,0,22.5S10.12,45,22.5,45S45,34.88,45,22.5S34.88,0,22.5,0L22.5,0z"/>
			</g>
		</g>
	</g>
</g>
</svg>
