<?xml version="1.0" encoding="utf-8"?>
<!-- Generator: Adobe Illustrator 28.2.0, SVG Export Plug-In . SVG Version: 6.00 Build 0)  -->
<svg version="1.1" id="レイヤー_1" xmlns="http://www.w3.org/2000/svg" xmlns:xlink="http://www.w3.org/1999/xlink" x="0px"
	 y="0px" viewBox="0 0 45 45" style="enable-background:new 0 0 45 45;" xml:space="preserve">
<style type="text/css">
	.st0{fill:#FCCF00;}
	.st1{fill:#FFDC00;}
	.st2{fill:#231815;}
	.st3{fill:#FFFFFF;}
	.st4{fill:url(#SVGID_1_);}
</style>
<g>
	<g id="_レイヤー_1-2_00000121979764531512572810000018298781341835972772_">
		<path class="st0" d="M24.83,8.95h0.05c0.2,0,0.35-0.16,0.35-0.35V7.97h2.28V8.6c0,0.2,0.16,0.35,0.35,0.35h0.05v1.07h-3.08
			L24.83,8.95L24.83,8.95z"/>
		<rect x="25.23" y="10.73" class="st0" width="2.28" height="2.67"/>
		<path class="st1" d="M23.91,16.91c0.89-0.51,1.32-1.13,1.32-1.87v-0.93h2.28v0.93c0,0.75,0.43,1.36,1.32,1.87
			c1.37,0.79,1.58,2.51,1.58,3.47v1h-8.09v-1C22.33,19.43,22.54,17.7,23.91,16.91z"/>
		<path class="st1" d="M16.77,28.67c-3-0.39-4.94-2.64-4.85-5.62c0.01-0.19,0.03-0.41,0.06-0.66c0.52,0.15,1.2,0.26,2.03,0.26
			c0.83,0,1.73-0.1,2.83-0.38c2.25-0.57,3.78-0.36,4.7-0.06c0.05,0.32,0.07,0.6,0.08,0.84C21.71,26.03,19.77,28.28,16.77,28.67z"/>
		<path class="st1" d="M29.97,35.15h-7.2c-0.25,0-0.45-0.2-0.45-0.45v-4.21h8.09v4.21C30.42,34.95,30.22,35.15,29.97,35.15
			L29.97,35.15z"/>
		<path class="st2" d="M29.19,16.29c-0.87-0.5-0.97-0.96-0.97-1.26v-4.31h0.05c0.2,0,0.35-0.16,0.35-0.35V8.6
			c0-0.2-0.16-0.35-0.35-0.35h-0.05V7.62c0-0.2-0.16-0.35-0.35-0.35h-2.99c-0.2,0-0.35,0.16-0.35,0.35v0.62h-0.05
			c-0.2,0-0.35,0.16-0.35,0.35v1.77c0,0.2,0.16,0.35,0.35,0.35h0.05v4.31c0,0.3-0.1,0.76-0.97,1.26c-1.23,0.71-1.69,1.97-1.85,3.03
			c-0.19-0.83-0.35-1.46-0.37-1.52c-0.04-0.16-0.18-0.26-0.34-0.26h-8.44c-0.16,0-0.3,0.11-0.34,0.26
			c-0.04,0.15-0.94,3.69-0.99,5.23c-0.1,3.27,1.98,5.76,5.2,6.3v4.56l-3.38,1.29c-0.16,0.06-0.25,0.23-0.22,0.39
			c0.03,0.17,0.18,0.29,0.35,0.29h7.21c0.17,0,0.32-0.12,0.35-0.29c0.03-0.17-0.06-0.33-0.22-0.39l-3.38-1.29v-4.56
			c2.05-0.34,3.64-1.48,4.5-3.11v8.49c0,0.64,0.52,1.15,1.15,1.15h7.2c0.63,0,1.15-0.52,1.15-1.15V20.38
			C31.13,19.27,30.88,17.26,29.19,16.29L29.19,16.29z M30.42,29.79h-8.09v-7.7h8.09V29.79z M24.83,8.95h0.05
			c0.2,0,0.35-0.16,0.35-0.35V7.97h2.28V8.6c0,0.2,0.16,0.35,0.35,0.35h0.05v1.07h-3.08L24.83,8.95L24.83,8.95z M27.52,10.72v2.67
			h-2.28v-2.67H27.52z M23.91,16.91c0.89-0.51,1.32-1.13,1.32-1.87v-0.93h2.28v0.93c0,0.75,0.43,1.36,1.32,1.87
			c1.37,0.79,1.58,2.51,1.58,3.47v1h-8.09v-1C22.33,19.42,22.54,17.7,23.91,16.91z M12.83,18.24h7.89c0.14,0.57,0.47,1.97,0.7,3.2
			c-1.03-0.27-2.59-0.4-4.75,0.15c-2.16,0.54-3.65,0.38-4.58,0.1C12.3,20.4,12.67,18.85,12.83,18.24L12.83,18.24z M15.09,35.15
			l1.68-0.64l1.68,0.64H15.09L15.09,35.15z M16.77,28.67c-3-0.39-4.94-2.64-4.85-5.62c0.01-0.19,0.03-0.41,0.06-0.66
			c0.52,0.15,1.2,0.26,2.03,0.26c0.83,0,1.73-0.1,2.83-0.38c2.25-0.57,3.78-0.36,4.7-0.06c0.05,0.32,0.07,0.6,0.08,0.84
			C21.71,26.03,19.77,28.28,16.77,28.67z M29.97,35.15h-7.2c-0.25,0-0.45-0.2-0.45-0.45v-4.21h8.09v4.21
			C30.42,34.95,30.22,35.15,29.97,35.15L29.97,35.15z"/>
		<path class="st3" d="M20.37,22.74c0,0-0.01,0-0.01,0c-0.2,0.01-0.35,0.17-0.34,0.36c0.07,2.11-1.2,3.63-3.3,3.96
			c-0.19,0.03-0.32,0.21-0.29,0.4c0.03,0.17,0.18,0.3,0.35,0.3c0.02,0,0.04,0,0.06,0c2.44-0.39,3.97-2.23,3.89-4.68
			C20.72,22.88,20.56,22.73,20.37,22.74L20.37,22.74z"/>
	</g>
	<g>
		<g>
			
				<linearGradient id="SVGID_1_" gradientUnits="userSpaceOnUse" x1="0" y1="21.61" x2="45" y2="21.61" gradientTransform="matrix(1 0 0 -1 0 44.11)">
				<stop  offset="0" style="stop-color:#FFB400"/>
				<stop  offset="0.5" style="stop-color:#FFDC00"/>
			</linearGradient>
			<path class="st4" d="M22.5,3C33.25,3,42,11.75,42,22.5S33.25,42,22.5,42S3,33.25,3,22.5S11.75,3,22.5,3 M22.5,0
				C10.12,0,0,10.12,0,22.5S10.12,45,22.5,45S45,34.88,45,22.5S34.88,0,22.5,0L22.5,0z"/>
		</g>
	</g>
</g>
</svg>
