<?xml version="1.0" encoding="UTF-8"?><svg id="_レイヤー_2" xmlns="http://www.w3.org/2000/svg" viewBox="0 0 57.11 90.04"><defs><style>.cls-1{fill:#ffdc00;}.cls-2{fill:#dbdcdc;}.cls-3{fill:#231815;}</style></defs><g id="_レイヤー_1-2"><path class="cls-1" d="m24.66,55.91c0,3.7-4.96,6.82-10.82,6.82s-10.82-3.12-10.82-6.82,4.96-6.82,10.82-6.82,10.82,3.12,10.82,6.82Z"/><path class="cls-1" d="m24.66,29.08c0,3.7-4.96,6.82-10.82,6.82s-10.82-3.12-10.82-6.82,4.96-6.82,10.82-6.82,10.82,3.12,10.82,6.82Z"/><path class="cls-1" d="m34.71,19.26c0-4.24,4.46-7.69,9.95-7.69s9.95,3.45,9.95,7.69-4.46,7.69-9.95,7.69-9.95-3.45-9.95-7.69Z"/><path class="cls-1" d="m54.61,55.04c0,4.24-4.46,7.69-9.95,7.69s-9.95-3.45-9.95-7.69,4.46-7.69,9.95-7.69,9.95,3.45,9.95,7.69Z"/><path class="cls-1" d="m44.66,44.84c-5.48,0-9.95-3.45-9.95-7.69s4.46-7.69,9.95-7.69,9.95,3.45,9.95,7.69-4.46,7.69-9.95,7.69Z"/><path class="cls-3" d="m26.43,9.07h-11.09V1.5c0-.83-.67-1.5-1.5-1.5s-1.5.67-1.5,1.5v7.57H1.25c-.69,0-1.25.56-1.25,1.25v10.61c0,.69.56,1.25,1.25,1.25h3.67c-2.69,1.71-4.4,4.17-4.4,6.9s1.65,5.12,4.27,6.82H1.25c-.69,0-1.25.56-1.25,1.25v10.61c0,.69.56,1.25,1.25,1.25h3.67c-2.69,1.71-4.4,4.17-4.4,6.9,0,4.79,5.18,8.74,11.82,9.26v23.37c0,.83.67,1.5,1.5,1.5s1.5-.67,1.5-1.5v-23.37c6.64-.52,11.82-4.47,11.82-9.26,0-2.74-1.71-5.2-4.4-6.9h3.67c.69,0,1.25-.56,1.25-1.25v-10.61c0-.69-.56-1.25-1.25-1.25h-3.54c2.62-1.7,4.27-4.13,4.27-6.82s-1.71-5.2-4.4-6.9h3.67c.69,0,1.25-.56,1.25-1.25v-10.61c0-.69-.56-1.25-1.25-1.25Zm-1.77,46.84c0,3.7-4.96,6.82-10.82,6.82s-10.82-3.12-10.82-6.82,4.96-6.82,10.82-6.82,10.82,3.12,10.82,6.82Zm.52-17.51v8.11H2.5v-8.11h22.68Zm-.52-9.32c0,3.7-4.96,6.82-10.82,6.82s-10.82-3.12-10.82-6.82,4.96-6.82,10.82-6.82,10.82,3.12,10.82,6.82Zm.52-9.4H2.5v-8.11h22.68v8.11Z"/><path class="cls-3" d="m57.11,37.15c0-3.85-2.62-7.21-6.48-8.94,3.86-1.73,6.48-5.09,6.48-8.94,0-5.2-4.79-9.5-10.95-10.11V1.5c0-.83-.67-1.5-1.5-1.5s-1.5.67-1.5,1.5v7.65c-6.16.61-10.95,4.91-10.95,10.11,0,3.85,2.62,7.21,6.48,8.94-3.86,1.73-6.48,5.09-6.48,8.94s2.62,7.21,6.48,8.94c-3.86,1.73-6.48,5.09-6.48,8.94,0,5.2,4.79,9.5,10.95,10.11v23.38c0,.83.67,1.5,1.5,1.5s1.5-.67,1.5-1.5v-23.38c6.16-.61,10.95-4.91,10.95-10.11,0-3.85-2.62-7.21-6.48-8.94,3.86-1.73,6.48-5.09,6.48-8.94Zm-22.39-17.89c0-4.24,4.46-7.69,9.95-7.69s9.95,3.45,9.95,7.69-4.46,7.69-9.95,7.69-9.95-3.45-9.95-7.69Zm19.89,35.78c0,4.24-4.46,7.69-9.95,7.69s-9.95-3.45-9.95-7.69,4.46-7.69,9.95-7.69,9.95,3.45,9.95,7.69Zm-9.95-10.19c-5.48,0-9.95-3.45-9.95-7.69s4.46-7.69,9.95-7.69,9.95,3.45,9.95,7.69-4.46,7.69-9.95,7.69Z"/><rect class="cls-2" x="14.24" y="38.4" width="10.94" height="8.11"/><rect class="cls-2" x="14.24" y="11.57" width="10.94" height="8.11"/></g></svg>