<?xml version="1.0" encoding="UTF-8"?><svg id="_レイヤー_2" xmlns="http://www.w3.org/2000/svg" viewBox="0 0 64 75.78"><defs><style>.cls-1{fill:#ffdc00;}.cls-2{fill:#231815;}</style></defs><g id="_レイヤー_1-2"><path class="cls-1" d="m54.16,40.51c-.1-1.9-.75-5.8-4.28-8.55-1.38-1.07-2.65-1.48-3.87-1.88-1.64-.53-3.33-1.08-5.65-3.42-.86-.87-1.47-1.98-2.11-3.16-1.12-2.06-2.39-4.39-5.36-6.11-2.97-1.71-5.63-1.65-7.97-1.59-1.34.03-2.61.07-3.79-.25-3.18-.84-4.5-2.03-5.78-3.18-.96-.86-1.95-1.75-3.56-2.41-4.14-1.68-7.85-.29-9.54.57V2.25c11.91.18,23.63,3.42,33.97,9.39,10.34,5.97,19.01,14.51,25.12,24.73l-7.17,4.14Z"/><path class="cls-1" d="m51.92,41.43c.01-.19.32-4.79-3.41-7.7-1.07-.83-2.05-1.15-3.19-1.52-1.8-.59-3.85-1.25-6.55-3.97-1.09-1.1-1.8-2.4-2.49-3.66-1.08-1.97-2.09-3.84-4.51-5.24-2.42-1.4-4.54-1.34-6.79-1.29-1.44.04-2.93.07-4.42-.32-3.71-.98-5.3-2.42-6.71-3.69-.89-.8-1.66-1.49-2.91-2-4.38-1.79-8.21.78-8.38.89-.1.07-.21.1-.32.13v19.8c5.01.56,8.91,4.82,8.91,9.97s-3.91,9.41-8.91,9.97v17.67l7.8-4.5s.04-.01.06-.02c.07-.03.14-.05.21-.07.07-.02.14-.04.22-.04.02,0,.04-.01.07-.01.05,0,.09.02.14.03.08,0,.15.02.23.05.07.02.13.06.19.09.06.04.12.07.18.12.06.05.1.11.15.17.03.04.07.06.09.11.01.02.01.04.02.07.03.07.05.14.07.21.02.07.04.15.04.22,0,.02.01.04.01.07v4.89c0,.93.76,1.69,1.69,1.69s1.69-.76,1.69-1.69v-8.07c0-1.55,1.26-2.81,2.81-2.81s2.81,1.26,2.81,2.81v1.5c0,.93.76,1.69,1.69,1.69s1.69-.76,1.69-1.69v-6.75s.02-.09.03-.14c0-.08.02-.15.05-.22.02-.07.06-.13.09-.19.04-.06.07-.12.12-.17.05-.06.11-.11.18-.15.04-.03.06-.07.1-.09l27.3-15.76c-.03-.11-.05-.23-.04-.35Zm-19.7-5.67c-2.15,3.72-6.92,5-10.64,2.85-3.72-2.15-5-6.92-2.85-10.64,1.04-1.8,2.72-3.09,4.73-3.63.67-.18,1.35-.27,2.03-.27,1.35,0,2.68.35,3.88,1.05,3.72,2.15,5,6.92,2.85,10.64Z"/><path class="cls-2" d="m63.85,36.22c-6.33-10.99-15.5-20.16-26.51-26.52C26.35,3.35,13.85,0,1.19,0,.51-.01,0,.48,0,1.12v71.31c0,.4.21.77.56.97.17.1.37.15.56.15s.39-.05.56-.15l7.8-4.5v2.94c0,2.17,1.76,3.93,3.93,3.93s3.93-1.76,3.93-3.93v-8.07c0-.3.26-.56.56-.56s.56.26.56.56v1.5c0,2.17,1.76,3.93,3.93,3.93s3.93-1.76,3.93-3.93v-6.11l37.09-21.42c.54-.31.72-1,.41-1.53Zm-61.6-1.08c3.77.55,6.67,3.8,6.67,7.71s-2.9,7.16-6.67,7.71v-15.42Zm21.85,30.14c0,.93-.76,1.69-1.69,1.69s-1.69-.76-1.69-1.69v-1.5c0-1.55-1.26-2.81-2.81-2.81s-2.81,1.26-2.81,2.81v8.07c0,.93-.76,1.69-1.69,1.69s-1.69-.76-1.69-1.69v-4.89s-.01-.04-.01-.07c0-.08-.02-.15-.04-.22-.02-.07-.04-.14-.07-.21-.01-.02,0-.04-.02-.07-.02-.04-.06-.07-.09-.11-.05-.06-.09-.12-.15-.17-.06-.05-.11-.08-.18-.12-.06-.04-.12-.07-.19-.09-.07-.03-.15-.04-.23-.05-.05,0-.09-.03-.14-.03-.02,0-.04.01-.07.01-.07,0-.15.02-.22.04-.07.02-.14.04-.21.07-.02.01-.04,0-.06.02l-7.8,4.5v-17.67c5.01-.56,8.91-4.82,8.91-9.97s-3.91-9.41-8.91-9.97V13.08c.11-.03.22-.07.32-.13.16-.11,3.99-2.68,8.38-.89,1.25.51,2.02,1.2,2.91,2,1.41,1.27,3.01,2.71,6.71,3.69,1.49.39,2.98.36,4.42.32,2.25-.05,4.37-.11,6.79,1.29,2.42,1.4,3.44,3.26,4.51,5.24.69,1.26,1.4,2.57,2.49,3.66,2.7,2.72,4.75,3.39,6.55,3.97,1.14.37,2.12.69,3.19,1.52,3.73,2.9,3.43,7.5,3.41,7.7-.01.12.01.24.04.35l-27.3,15.76s-.07.06-.1.09c-.06.05-.12.09-.18.15-.05.05-.08.11-.12.17-.04.06-.07.12-.09.19-.03.07-.04.15-.05.22,0,.05-.03.09-.03.14v6.75Zm30.06-24.76c-.1-1.9-.75-5.8-4.28-8.55-1.38-1.07-2.65-1.48-3.87-1.88-1.64-.53-3.33-1.08-5.65-3.42-.86-.87-1.47-1.98-2.11-3.16-1.12-2.06-2.39-4.39-5.36-6.11-2.97-1.71-5.63-1.65-7.97-1.59-1.34.03-2.61.07-3.79-.25-3.18-.84-4.5-2.03-5.78-3.18-.96-.86-1.95-1.75-3.56-2.41-4.14-1.68-7.85-.29-9.54.57V2.25c11.91.18,23.63,3.42,33.97,9.39,10.34,5.97,19.01,14.51,25.12,24.73l-7.17,4.14Z"/><path class="cls-2" d="m25.46,41.9c3.47,0,6.85-1.8,8.71-5.02h0c2.77-4.79,1.12-10.94-3.67-13.71-2.32-1.34-5.03-1.7-7.62-1-2.59.69-4.75,2.35-6.09,4.68-2.77,4.79-1.12,10.94,3.67,13.71,1.58.91,3.3,1.34,5,1.34Zm-6.73-13.93c1.04-1.8,2.72-3.09,4.73-3.63.67-.18,1.35-.27,2.03-.27,1.35,0,2.68.35,3.88,1.05,3.72,2.15,5,6.92,2.85,10.64-2.15,3.72-6.92,5-10.64,2.85-3.72-2.15-5-6.92-2.85-10.64Z"/><path class="cls-2" d="m12.04,20.68c-.93-.54-2.01-.68-3.05-.4-1.04.28-1.9.94-2.44,1.87-.54.93-.68,2.01-.4,3.05.28,1.04.94,1.9,1.87,2.44.63.36,1.32.54,2,.54,1.39,0,2.74-.72,3.49-2.01h0c.54-.93.68-2.01.4-3.05-.28-1.04-.94-1.9-1.87-2.44Zm-.47,4.37c-.49.85-1.57,1.14-2.42.65-.85-.49-1.14-1.58-.65-2.42.24-.41.62-.7,1.08-.83.15-.04.31-.06.46-.06.31,0,.61.08.88.24.85.49,1.14,1.58.65,2.42Z"/><path class="cls-2" d="m26.53,51.31h0c1.11-1.92.45-4.38-1.47-5.49-1.92-1.11-4.38-.45-5.49,1.47-.54.93-.68,2.01-.4,3.05.28,1.04.94,1.9,1.87,2.44.63.36,1.32.54,2,.54,1.39,0,2.75-.72,3.49-2.01Zm-1.95-1.12c-.49.85-1.58,1.14-2.42.65-.41-.24-.7-.62-.83-1.08-.12-.46-.06-.94.18-1.35.33-.57.93-.89,1.54-.89.3,0,.61.08.88.24.85.49,1.14,1.58.65,2.43Z"/><path class="cls-2" d="m41.83,42.58c.62.36,1.31.54,2,.54.35,0,.7-.05,1.05-.14,1.04-.28,1.9-.94,2.44-1.87.54-.93.68-2.01.4-3.05-.28-1.04-.94-1.9-1.87-2.44-.93-.54-2.01-.68-3.05-.4-1.04.28-1.9.94-2.44,1.87-.54.93-.68,2.01-.4,3.05.28,1.04.94,1.9,1.87,2.44Zm.47-4.37c.24-.41.62-.7,1.08-.83.15-.04.31-.06.46-.06.31,0,.61.08.88.24.41.24.7.62.83,1.08.12.46.06.94-.18,1.35h0c-.24.41-.62.7-1.08.83-.46.12-.94.06-1.35-.18-.41-.24-.7-.62-.83-1.08-.12-.46-.06-.94.18-1.35Z"/></g></svg>