<?xml version="1.0" encoding="utf-8"?>
<!-- Generator: Adobe Illustrator 27.4.1, SVG Export Plug-In . SVG Version: 6.00 Build 0)  -->
<svg version="1.1" id="_レイヤー_2" xmlns="http://www.w3.org/2000/svg" xmlns:xlink="http://www.w3.org/1999/xlink" x="0px"
	 y="0px" viewBox="0 0 90.55 90.55" style="enable-background:new 0 0 90.55 90.55;" xml:space="preserve">
<style type="text/css">
	.st0{clip-path:url(#SVGID_00000114060819247493509350000004146122114994611133_);}
	.st1{fill:#231815;}
	.st2{fill:#FFDC00;}
</style>
<g id="_レイヤー_1-2">
	<g>
		<defs>
			<ellipse id="SVGID_1_" cx="45.275" cy="45.28" rx="39.61" ry="40"/>
		</defs>
		<clipPath id="SVGID_00000057105687204736125690000014010779669850202000_">
			<use xlink:href="#SVGID_1_"  style="overflow:visible;"/>
		</clipPath>
		<g style="clip-path:url(#SVGID_00000057105687204736125690000014010779669850202000_);">
			
				<rect x="-80.418" y="44.45" transform="matrix(0.7032 -0.7109 0.7109 0.7032 -37.387 0.9796)" class="st1" width="125.796" height="1.65"/>
			
				<rect x="-70.758" y="44.45" transform="matrix(0.7032 -0.7109 0.7109 0.7032 -34.5204 7.8473)" class="st1" width="125.795" height="1.65"/>
			
				<rect x="-61.098" y="44.45" transform="matrix(0.7032 -0.7109 0.7109 0.7032 -31.6538 14.715)" class="st1" width="125.795" height="1.65"/>
			
				<rect x="-51.438" y="44.45" transform="matrix(0.7032 -0.7109 0.7109 0.7032 -28.7872 21.5828)" class="st1" width="125.796" height="1.65"/>
			
				<rect x="-41.778" y="44.45" transform="matrix(0.7032 -0.7109 0.7109 0.7032 -25.9205 28.4506)" class="st1" width="125.796" height="1.65"/>
			
				<rect x="-32.118" y="44.45" transform="matrix(0.7032 -0.7109 0.7109 0.7032 -23.0538 35.3184)" class="st1" width="125.796" height="1.65"/>
			
				<rect x="-22.456" y="44.45" transform="matrix(0.7032 -0.7109 0.7109 0.7032 -20.1858 42.1896)" class="st1" width="125.803" height="1.65"/>
			
				<rect x="-12.796" y="44.45" transform="matrix(0.7032 -0.7109 0.7109 0.7032 -17.3191 49.0574)" class="st1" width="125.803" height="1.65"/>
			
				<rect x="-3.136" y="44.45" transform="matrix(0.7032 -0.7109 0.7109 0.7032 -14.4526 55.9249)" class="st1" width="125.802" height="1.65"/>
			
				<rect x="6.523" y="44.45" transform="matrix(0.7032 -0.7109 0.7109 0.7032 -11.586 62.7925)" class="st1" width="125.803" height="1.65"/>
			
				<rect x="16.184" y="44.45" transform="matrix(0.7032 -0.7109 0.7109 0.7032 -8.7193 69.6604)" class="st1" width="125.803" height="1.65"/>
			
				<rect x="25.844" y="44.45" transform="matrix(0.7032 -0.7109 0.7109 0.7032 -5.8527 76.5282)" class="st1" width="125.803" height="1.65"/>
			
				<rect x="35.504" y="44.45" transform="matrix(0.7035 -0.7107 0.7107 0.7035 -3.002 83.3536)" class="st1" width="125.803" height="1.649"/>
			
				<rect x="45.164" y="44.45" transform="matrix(0.7035 -0.7107 0.7107 0.7035 -0.1382 90.2186)" class="st1" width="125.803" height="1.649"/>
			
				<rect x="107.24" y="-17.627" transform="matrix(0.7106 -0.7036 0.7036 0.7106 -0.5781 89.1444)" class="st1" width="1.649" height="125.803"/>
			
				<rect x="97.58" y="-17.627" transform="matrix(0.7106 -0.7036 0.7036 0.7106 -3.3742 82.3471)" class="st1" width="1.649" height="125.803"/>
			
				<rect x="87.92" y="-17.626" transform="matrix(0.7106 -0.7036 0.7036 0.7106 -6.1703 75.5499)" class="st1" width="1.65" height="125.803"/>
			
				<rect x="78.26" y="-17.626" transform="matrix(0.7106 -0.7036 0.7036 0.7106 -8.9664 68.7526)" class="st1" width="1.65" height="125.803"/>
			
				<rect x="68.6" y="-17.626" transform="matrix(0.7106 -0.7036 0.7036 0.7106 -11.7625 61.9553)" class="st1" width="1.65" height="125.803"/>
			
				<rect x="58.94" y="-17.626" transform="matrix(0.7106 -0.7036 0.7036 0.7106 -14.5586 55.1579)" class="st1" width="1.65" height="125.802"/>
			
				<rect x="49.28" y="-17.627" transform="matrix(0.7105 -0.7036 0.7036 0.7105 -17.3546 48.3613)" class="st1" width="1.65" height="125.803"/>
			
				<rect x="39.62" y="-17.627" transform="matrix(0.7105 -0.7036 0.7036 0.7105 -20.1507 41.564)" class="st1" width="1.65" height="125.803"/>
			
				<rect x="29.955" y="-17.623" transform="matrix(0.7106 -0.7036 0.7036 0.7106 -22.9476 34.7602)" class="st1" width="1.65" height="125.796"/>
			
				<rect x="20.295" y="-17.623" transform="matrix(0.7106 -0.7036 0.7036 0.7106 -25.7433 27.9633)" class="st1" width="1.65" height="125.796"/>
			
				<rect x="10.635" y="-17.623" transform="matrix(0.7106 -0.7036 0.7036 0.7106 -28.5391 21.1663)" class="st1" width="1.65" height="125.796"/>
			
				<rect x="0.975" y="-17.623" transform="matrix(0.7106 -0.7036 0.7036 0.7106 -31.3346 14.3693)" class="st1" width="1.65" height="125.795"/>
			
				<rect x="-8.685" y="-17.623" transform="matrix(0.7106 -0.7036 0.7036 0.7106 -34.1303 7.5725)" class="st1" width="1.65" height="125.795"/>
			
				<rect x="-18.345" y="-17.623" transform="matrix(0.7106 -0.7036 0.7036 0.7106 -36.9261 0.7758)" class="st1" width="1.65" height="125.796"/>
		</g>
	</g>
	<path class="st1" d="M45.275,87.755C22.069,87.755,3.19,68.701,3.19,45.28c0-23.421,18.879-42.475,42.085-42.475
		c23.206,0,42.084,19.054,42.084,42.475C87.36,68.701,68.481,87.755,45.275,87.755z M45.275,7.755
		C24.799,7.755,8.14,24.588,8.14,45.28c0,20.692,16.659,37.526,37.135,37.526c20.476,0,37.135-16.834,37.135-37.526
		C82.41,24.588,65.751,7.755,45.275,7.755z"/>
	<g>
		<path class="st2" d="M63.375,17.3l-18.76-6.47c-1.83-0.63-3.83,0.36-4.46,2.21l-0.49,1.44l-0.89,2.64l-1.14,3.36l-1.14,3.36
			l-0.04,0.12c-0.62,1.85,0.36,3.87,2.19,4.5l18.76,6.47c1.83,0.63,3.83-0.36,4.46-2.21l0.04-0.12l1.14-3.36l1.14-3.36l0.89-2.64
			l0.49-1.44C66.185,19.95,65.205,17.93,63.375,17.3z"/>
		<path class="st1" d="M58.537,36.316c-0.512,0-1.024-0.085-1.521-0.256l-18.761-6.47c-2.445-0.842-3.761-3.538-2.934-6.009
			l3.702-10.926c0.41-1.203,1.262-2.172,2.399-2.729c1.127-0.553,2.398-0.633,3.581-0.225l18.761,6.47
			c2.445,0.843,3.762,3.539,2.933,6.01l-3.695,10.91c-0.416,1.219-1.269,2.188-2.406,2.746
			C59.943,36.155,59.241,36.316,58.537,36.316z M43.484,11.835c-0.345,0-0.689,0.08-1.01,0.236
			c-0.563,0.276-0.985,0.757-1.188,1.354l-3.698,10.913c-0.414,1.234,0.235,2.576,1.445,2.992l18.76,6.47
			c0.575,0.198,1.197,0.159,1.75-0.111c0.563-0.276,0.986-0.757,1.19-1.354l0.033-0.104l3.665-10.815
			c0.412-1.228-0.236-2.569-1.447-2.986l-18.76-6.47C43.984,11.876,43.734,11.835,43.484,11.835z"/>
	</g>
	<g>
		<path class="st2" d="M40.395,40.19l-0.07-0.11l-1.96-2.95l-1.96-2.95l-1.54-2.32l-0.84-1.26c-1.08-1.62-3.27-2.06-4.87-0.97
			l-16.46,11.14c-1.6,1.09-2.04,3.3-0.96,4.92l0.84,1.26l1.54,2.32l1.96,2.95l1.96,2.95l0.07,0.11c1.08,1.62,3.27,2.06,4.87,0.97
			l16.46-11.14C41.035,44.02,41.475,41.81,40.395,40.19z"/>
		<path class="st1" d="M21.039,58.046c-0.301,0-0.604-0.029-0.907-0.089c-1.244-0.242-2.317-0.958-3.021-2.014l-0.083-0.131
			l-6.287-9.46c-1.44-2.16-0.865-5.108,1.282-6.57L28.485,28.64c1.031-0.702,2.28-0.957,3.512-0.718
			c1.245,0.243,2.318,0.958,3.022,2.015l6.377,9.601c1.431,2.16,0.855,5.1-1.289,6.56L23.645,57.239
			C22.866,57.77,21.965,58.046,21.039,58.046z M31.097,30.226c-0.451,0-0.89,0.134-1.269,0.392L13.365,41.76
			c-1.066,0.726-1.352,2.192-0.636,3.267l6.384,9.611c0.334,0.501,0.863,0.854,1.476,0.974c0.604,0.12,1.21-0.007,1.713-0.349
			L38.765,44.12c1.066-0.726,1.352-2.192,0.636-3.267l-6.37-9.59c-0.348-0.522-0.877-0.875-1.491-0.995
			C31.392,30.24,31.244,30.226,31.097,30.226z"/>
	</g>
	<g>
		<path class="st2" d="M50.045,60.11l-19.2-4.96c-1.87-0.48-3.79,0.67-4.27,2.56l-0.03,0.12l-0.87,3.44l-0.87,3.44l-0.68,2.7
			l-0.37,1.47c-0.48,1.89,0.66,3.83,2.53,4.32l19.2,4.96c1.87,0.48,3.79-0.67,4.27-2.56l0.37-1.47l0.68-2.7l0.87-3.44l0.87-3.44
			l0.03-0.12C53.055,62.54,51.915,60.6,50.045,60.11z"/>
		<path class="st1" d="M46.35,79.465c-0.388,0-0.777-0.049-1.162-0.147l-19.202-4.96c-2.512-0.658-4.03-3.247-3.389-5.771
			l2.818-11.164c0.314-1.236,1.087-2.27,2.178-2.917c1.081-0.641,2.342-0.822,3.549-0.512l19.206,4.961
			c2.508,0.656,4.026,3.244,3.386,5.77l-2.819,11.168c-0.313,1.232-1.086,2.266-2.178,2.913
			C48.001,79.241,47.181,79.465,46.35,79.465z M29.983,56.236c-0.406,0-0.809,0.109-1.171,0.324
			c-0.541,0.321-0.924,0.834-1.079,1.443l-2.819,11.168c-0.32,1.259,0.432,2.547,1.674,2.872l19.196,4.959
			c0.588,0.152,1.205,0.061,1.734-0.254c0.541-0.321,0.924-0.834,1.079-1.443l2.819-11.168c0.32-1.259-0.432-2.546-1.674-2.871
			l-19.196-4.959C30.36,56.26,30.171,56.236,29.983,56.236z"/>
	</g>
	<g>
		<path class="st2" d="M80.745,48.84l-0.93-1.19l-1.71-2.19l-2.18-2.78l-2.18-2.78l-0.08-0.1c-1.2-1.53-3.42-1.79-4.93-0.58
			l-15.54,12.42c-1.52,1.21-1.77,3.45-0.58,4.98l0.08,0.1l2.18,2.78l2.18,2.78l1.71,2.19l0.93,1.19c1.2,1.53,3.42,1.79,4.93,0.58
			l15.54-12.42C81.685,52.61,81.935,50.37,80.745,48.84L80.745,48.84z"/>
		<path class="st1" d="M62.462,68.197c-0.182,0-0.365-0.011-0.549-0.031c-1.257-0.146-2.379-0.773-3.159-1.769l-7.074-9.034
			c-1.604-2.062-1.256-5.045,0.771-6.658l15.538-12.418c0.979-0.785,2.211-1.134,3.458-0.992c1.257,0.146,2.379,0.773,3.159,1.768
			l7.083,9.044c1.596,2.054,1.246,5.036-0.779,6.648L65.371,67.174C64.536,67.843,63.52,68.197,62.462,68.197z M70.904,39.653
			c-0.518,0-1.015,0.173-1.422,0.5l-15.541,12.42c-1.009,0.803-1.179,2.288-0.382,3.313l7.077,9.038
			c0.382,0.486,0.934,0.795,1.552,0.866c0.605,0.071,1.212-0.101,1.69-0.483l15.541-12.421c1.008-0.803,1.179-2.287,0.384-3.312
			l-7.071-9.029c-0.39-0.498-0.941-0.806-1.559-0.877C71.082,39.658,70.992,39.653,70.904,39.653z"/>
	</g>
</g>
</svg>
