<?xml version="1.0" encoding="UTF-8"?><svg id="_レイヤー_2" xmlns="http://www.w3.org/2000/svg" viewBox="0 0 65.25 76"><defs><style>.cls-1{fill:#ffdc00;}.cls-2{fill:#231815;}.cls-3{fill:#fccf00;}</style></defs><g id="_レイヤー_1-2"><path class="cls-1" d="m63,49c-3.22,5.6-11.86,9.17-18.67,9.54v-3.19c6.75-.33,14.79-3.55,18.67-9.31v2.97Z"/><polygon class="cls-1" points="2.24 35.18 2.24 32.33 42.09 54.92 42.09 57.77 2.24 35.18"/><polygon class="cls-1" points="42.09 52.34 2.24 29.75 2.24 17.37 42.09 39.96 42.09 52.34"/><polygon class="cls-1" points="2.24 37.76 42.09 60.35 42.09 72.95 2.24 50.36 2.24 37.76"/><path class="cls-1" d="m63,31.08v8.09c-.02,1.29-.3,2.55-.81,3.74-2.63,6.08-10.91,9.83-17.86,10.2v-12.72c6.75-.33,14.79-3.55,18.67-9.31Z"/><path class="cls-1" d="m62.19,63.52c-2.63,6.08-10.91,9.83-17.86,10.2v-12.94c6.47-.31,14.25-3.22,18.67-8.04v6.5c0,.1.03.19.06.28-.02.08-.05.16-.06.26-.02,1.29-.3,2.55-.81,3.74Z"/><path class="cls-2" d="m65.22,23.54c-.06-1.47-.38-2.92-.98-4.23-1.1-2.39-3.01-4.11-5.38-4.88-.09-1.11-.32-2.32-.73-3.63C55.62,2.96,47.54.17,47.2.06c-.44-.15-.93,0-1.23.36-.3.36-.33.87-.1,1.27.47.81,1.64,3.33,1.42,5.34-.02.18-.06.29-.1.32-.29.23-1.52.07-2.43-.03-2.98-.36-7.99-.97-10.23,5.53-.2.59.11,1.22.69,1.43.59.2,1.22-.11,1.43-.69,1.65-4.79,4.79-4.41,7.83-4.04,1.65.2,3.07.38,4.09-.43.53-.42.85-1.04.93-1.83.15-1.33-.12-2.7-.48-3.86,2.33,1.35,5.61,3.91,6.94,8.08,2.86,8.98-4.43,11.98-4.73,12.1-.58.22-.86.87-.64,1.45.17.44.6.72,1.05.72.13,0,.27-.02.4-.08.08-.03,6-2.42,6.76-8.86,1.47.67,2.65,1.86,3.39,3.44.53,1.15.8,2.45.8,3.76v.05c0,1.31-.27,2.65-.81,3.88-2.74,6.32-11.59,10.13-18.7,10.23L5.37,16.56h26.11c.62,0,1.12-.5,1.12-1.12s-.5-1.12-1.12-1.12H1.12s-.09.02-.13.03c-.08,0-.16.02-.23.05-.07.02-.12.06-.19.09-.06.04-.12.07-.18.12-.06.05-.1.11-.15.17-.03.04-.07.07-.09.11-.01.02-.01.04-.02.06-.03.07-.05.14-.07.21-.02.07-.04.14-.04.22,0,.02-.01.04-.01.06v35.57s.02.09.03.14c0,.08.02.15.05.23.02.07.06.13.09.19.04.06.07.12.12.18.05.06.11.1.17.15.04.03.07.07.11.09l42.09,23.86s.05.02.08.03c.03.01.06.02.09.04.13.05.26.08.39.08h0c7.77,0,17.78-4.06,21.04-11.59.63-1.46.97-3,.99-4.59,0-.11-.03-.2-.06-.3.02-.09.06-.18.06-.27V23.68s-.02-.09-.03-.13Zm-2.22,25.46c-3.22,5.6-11.86,9.17-18.67,9.54v-3.19c6.75-.33,14.79-3.55,18.67-9.31v2.97ZM2.24,35.18v-2.86l39.85,22.59v2.85L2.24,35.18Zm39.85,17.16L2.24,29.75v-12.38l39.85,22.59v12.38ZM2.24,37.76l39.85,22.59v12.6L2.24,50.36v-12.6Zm60.76-6.69v8.09c-.02,1.29-.3,2.55-.81,3.74-2.63,6.08-10.91,9.83-17.86,10.2v-12.72c6.75-.33,14.79-3.55,18.67-9.31Zm-.81,32.44c-2.63,6.08-10.91,9.83-17.86,10.2v-12.94c6.47-.31,14.25-3.22,18.67-8.04v6.5c0,.1.03.19.06.28-.02.08-.05.16-.06.26-.02,1.29-.3,2.55-.81,3.74Z"/><path class="cls-3" d="m44.9,18.25c-4.33,0-7.84,3.52-7.84,7.84s3.52,7.84,7.84,7.84,7.84-3.52,7.84-7.84-3.52-7.84-7.84-7.84Z"/><path class="cls-3" d="m34.91,25.46c0-4.32,2.94-7.95,6.92-9.02-1.12-2.16-3.36-3.64-5.96-3.64-3.71,0-6.72,3.01-6.72,6.72,0,3.4,2.52,6.2,5.79,6.65-.02-.24-.04-.47-.04-.71Z"/></g></svg>