<?xml version="1.0" encoding="UTF-8"?><svg id="_レイヤー_2" xmlns="http://www.w3.org/2000/svg" viewBox="0 0 57.1 82"><defs><style>.cls-1{fill:#fff;}.cls-2{fill:#ffdc00;}.cls-3{fill:#231815;}.cls-4{fill:#fccf00;}</style></defs><g id="_レイヤー_1-2"><path class="cls-4" d="m39.05,4.82h.14c.56,0,1.01-.45,1.01-1.01v-1.79h6.55v1.79c0,.56.45,1.01,1.01,1.01h.14v3.07h-8.84v-3.07Z"/><rect class="cls-4" x="40.2" y="9.92" width="6.55" height="7.66"/><path class="cls-2" d="m36.4,27.65c2.56-1.47,3.8-3.23,3.8-5.37v-2.66h6.55v2.66c0,2.14,1.24,3.9,3.8,5.37,3.94,2.27,4.53,7.21,4.53,9.96v2.87h-23.21v-2.87c0-2.74.59-7.68,4.53-9.96Z"/><path class="cls-2" d="m15.93,61.38c-8.59-1.12-14.17-7.58-13.9-16.12.02-.54.08-1.19.17-1.89,1.5.43,3.43.75,5.81.75s4.97-.3,8.11-1.09c6.46-1.63,10.84-1.04,13.48-.17.13.91.21,1.73.23,2.4.27,8.54-5.31,15.01-13.9,16.12Z"/><path class="cls-2" d="m53.79,79.97h-20.64c-.71,0-1.28-.58-1.28-1.28v-12.08h23.21v12.08c0,.71-.58,1.28-1.28,1.28Z"/><path class="cls-3" d="m51.55,25.89c-2.49-1.44-2.78-2.75-2.78-3.62v-12.35h.14c.56,0,1.01-.45,1.01-1.01V3.81c0-.56-.45-1.01-1.01-1.01h-.14v-1.79c0-.56-.45-1.01-1.01-1.01h-8.57c-.56,0-1.01.45-1.01,1.01v1.79h-.14c-.56,0-1.01.45-1.01,1.01v5.09c0,.56.45,1.01,1.01,1.01h.14v12.35c0,.86-.29,2.18-2.78,3.62-3.53,2.03-4.86,5.65-5.32,8.69-.54-2.38-1-4.2-1.05-4.37-.11-.45-.52-.76-.98-.76H3.83c-.46,0-.87.31-.98.76-.11.43-2.7,10.57-2.84,14.99-.29,9.39,5.67,16.53,14.91,18.07v13.09l-9.69,3.69c-.46.17-.72.65-.64,1.13.09.48.51.83,1,.83h20.69c.49,0,.91-.35,1-.83.09-.48-.18-.96-.64-1.13l-9.69-3.69v-13.09c5.89-.98,10.45-4.24,12.9-8.91v24.34c0,1.83,1.48,3.31,3.31,3.31h20.64c1.82,0,3.31-1.48,3.31-3.31v-41.09c0-3.18-.72-8.93-5.55-11.71Zm3.52,38.69h-23.21v-22.09h23.21v22.09ZM39.05,4.82h.14c.56,0,1.01-.45,1.01-1.01v-1.79h6.55v1.79c0,.56.45,1.01,1.01,1.01h.14v3.07h-8.84v-3.07Zm7.7,5.09v7.66h-6.55v-7.66h6.55Zm-10.35,17.73c2.56-1.47,3.8-3.23,3.8-5.37v-2.66h6.55v2.66c0,2.14,1.24,3.9,3.8,5.37,3.94,2.27,4.53,7.21,4.53,9.96v2.87h-23.21v-2.87c0-2.74.59-7.68,4.53-9.96Zm-31.78,3.83h22.63c.41,1.64,1.36,5.64,2,9.18-2.96-.78-7.43-1.14-13.62.42-6.19,1.56-10.47,1.08-13.13.28.62-3.69,1.68-8.13,2.12-9.87Zm6.48,48.5l4.83-1.84,4.83,1.84h-9.67Zm4.83-18.59c-8.59-1.12-14.17-7.58-13.9-16.12.02-.54.08-1.19.17-1.89,1.5.43,3.43.75,5.81.75s4.97-.3,8.11-1.09c6.46-1.63,10.84-1.04,13.48-.17.13.91.21,1.73.23,2.4.27,8.54-5.31,15.01-13.9,16.12Zm37.86,18.59h-20.64c-.71,0-1.28-.58-1.28-1.28v-12.08h23.21v12.08c0,.71-.58,1.28-1.28,1.28Z"/><path class="cls-1" d="m26.26,44.36s-.02,0-.03,0c-.56.02-1,.48-.98,1.04.19,6.04-3.44,10.4-9.47,11.36-.55.09-.93.61-.84,1.16.08.5.51.85,1,.85.05,0,.11,0,.16-.01,7.01-1.12,11.39-6.39,11.17-13.43-.02-.55-.47-.98-1.01-.98Z"/></g></svg>