<?xml version="1.0" encoding="UTF-8"?><svg id="_レイヤー_2" xmlns="http://www.w3.org/2000/svg" viewBox="0 0 74 74.41"><defs><style>.cls-1{fill:#fff;}.cls-2{fill:#ffdc00;}.cls-3{fill:#231815;}</style></defs><g id="_レイヤー_1-2"><path class="cls-2" d="m67.75,34.58c.88,0,1.66.48,1.99,1.22.75,1.66,1.09,3.43,1.02,5.24-.25,6.5-5.89,11.64-12.69,11.89.04-.37.07-.74.09-1.11l.1-2.16c4.11-.12,8-3.13,8.82-6.93.33-1.51.15-3-.51-4.29-.19-.36-.56-.59-.97-.59h-6.79l.15-3.28h8.79Z"/><path class="cls-2" d="m29.18,64.56c-6.27-1.12-10.97-6.51-11.17-12.84l-1.02-21.7h40.01l-1.01,21.72c-.2,6.31-4.9,11.71-11.17,12.82-2.66.47-5.29.71-7.82.71s-5.16-.24-7.82-.71Z"/><path class="cls-2" d="m68.15,69.5c-1.8,1.76-4.18,2.74-6.71,2.74H12.55c-2.52,0-4.9-.97-6.71-2.74l-2.09-2.05h66.5l-2.09,2.05Z"/><path class="cls-3" d="m73.92,65.95c-.17-.41-.56-.68-1.01-.68h-23.45c4.06-2.03,7.09-5.75,8.22-10.15,8.18-.04,14.96-6.2,15.26-14,.08-2.16-.33-4.25-1.21-6.22-.69-1.52-2.25-2.5-3.97-2.5h-8.68l.16-3.42c.01-.3-.09-.59-.3-.8s-.49-.34-.79-.34H15.86c-.3,0-.58.12-.79.34s-.31.5-.3.8l1.07,22.82c.19,5.81,3.66,10.94,8.7,13.47H1.09c-.44,0-.84.27-1.01.68-.17.41-.07.88.25,1.19l4,3.91c2.21,2.17,5.13,3.36,8.23,3.36h48.9c3.1,0,6.02-1.19,8.23-3.36l4-3.91c.32-.31.41-.78.25-1.19Zm-15.21-25.92h6.17c.22.7.25,1.46.08,2.25-.61,2.82-3.51,5.05-6.6,5.21l.35-7.46Zm9.04-5.45c.88,0,1.66.48,1.99,1.22.75,1.66,1.09,3.43,1.02,5.24-.25,6.5-5.89,11.64-12.69,11.89.04-.37.07-.74.09-1.11l.1-2.16c4.11-.12,8-3.13,8.82-6.93.33-1.51.15-3-.51-4.29-.19-.36-.56-.59-.97-.59h-6.79l.15-3.28h8.79Zm-38.57,29.98c-6.27-1.12-10.97-6.51-11.17-12.84l-1.02-21.7h40.01l-1.01,21.72c-.2,6.31-4.9,11.71-11.17,12.82-2.66.47-5.29.71-7.82.71s-5.16-.24-7.82-.71Zm38.97,4.94c-1.8,1.76-4.18,2.74-6.71,2.74H12.55c-2.52,0-4.9-.97-6.71-2.74l-2.09-2.05h66.5l-2.09,2.05Z"/><path class="cls-2" d="m41.23,5.53c-.73,1.29-1.45,3.5-.42,5.3,1.04,1.8,1.99,2.62,1.52,5.79-.4,2.72-2.15,3.15-2.15,3.15,0,0,3.95-1.04,4.57-4.57.62-3.53-.7-4.79-.62-6.37.12-2.6,2.91-3.88,1.32-5.4-1.14-1.09-3.5.82-4.22,2.11Z"/><path class="cls-2" d="m30.81,4.33c-.58,1.94-.88,5.13,1.06,7.23,1.94,2.09,3.47,2.9,3.81,7.28.29,3.76-1.91,4.87-1.91,4.87,0,0,4.97-2.6,4.72-7.51-.24-4.92-2.4-6.2-2.78-8.34-.63-3.51,2.71-6.08.11-7.63-1.86-1.11-4.43,2.17-5.01,4.11Z"/><path class="cls-1" d="m52.83,51.57l.59-12.58c.03-.6-.44-1.11-1.04-1.14-.62-.03-1.11.44-1.14,1.04l-.59,12.59c-.13,3.92-2.91,7.13-6.78,7.82-.59.11-.98.67-.88,1.26.09.53.55.9,1.07.9.06,0,.13,0,.19-.02,4.88-.87,8.41-4.94,8.57-9.87Z"/></g></svg>