<?xml version="1.0" encoding="utf-8"?>
<!-- Generator: Adobe Illustrator 27.4.1, SVG Export Plug-In . SVG Version: 6.00 Build 0)  -->
<svg version="1.1" id="_レイヤー_2" xmlns="http://www.w3.org/2000/svg" xmlns:xlink="http://www.w3.org/1999/xlink" x="0px"
	 y="0px" viewBox="0 0 82 82" style="enable-background:new 0 0 82 82;" xml:space="preserve">
<style type="text/css">
	.st0{fill:#231815;}
	.st1{fill:#FFDC00;}
</style>
<g id="_レイヤー_1-2">
	<path class="st0" d="M41,0C18.4,0,0,18.4,0,41s18.4,41,41,41s41-18.4,41-41S63.6,0,41,0z M41,79.8C19.6,79.8,2.2,62.4,2.2,41
		S19.6,2.2,41,2.2S79.8,19.6,79.8,41S62.4,79.8,41,79.8z"/>
	<path class="st0" d="M41,72.3c-8.4,0-16.2-3.3-22.1-9.2C13,57.2,9.7,49.3,9.7,41c0-8.4,3.3-16.2,9.2-22.1C24.8,13,32.6,9.7,41,9.7
		c8.4,0,16.2,3.3,22.1,9.2l0,0c5.9,5.9,9.2,13.8,9.2,22.1c0,8.4-3.3,16.2-9.2,22.1C57.2,69,49.3,72.3,41,72.3z M41,12.4
		c-7.6,0-14.8,3-20.2,8.4c-5.4,5.4-8.4,12.6-8.4,20.2c0,7.6,3,14.8,8.4,20.2c5.4,5.4,12.6,8.4,20.2,8.4c7.6,0,14.8-3,20.2-8.4
		c5.4-5.4,8.4-12.6,8.4-20.2c0-7.6-3-14.8-8.4-20.2C55.8,15.4,48.6,12.4,41,12.4z"/>
	<g>
		<path class="st1" d="M62.2,19.8C56.5,14.2,49,11,41,11s-15.5,3.1-21.2,8.8c-4.5,4.5-7.4,10.3-8.4,16.5c1.4,3.9,4.3,9.5,9.8,11.3
			c8.9,3,11.2,8.4,13.8,11.7c2.6,3.3,4,8.6,12.1,3.7c5.7-3.4,13.4-3.8,17.5-3.7C68.7,54.1,71,47.7,71,41C71,33,67.8,25.5,62.2,19.8z
			"/>
		<path class="st0" d="M41.5,66.4c-3.4,0-5.1-2.6-6.5-4.6c-0.4-0.6-0.7-1.1-1.1-1.6c-0.5-0.6-0.9-1.2-1.4-1.9
			c-2.2-3.1-4.8-6.9-11.8-9.3c-6-2-9.1-7.7-10.7-12.2L10,36.4l0.1-0.3c1-6.6,4.1-12.5,8.8-17.2C24.8,13,32.6,9.7,41,9.7
			c8.4,0,16.2,3.3,22.1,9.2l0,0c5.9,5.9,9.2,13.8,9.2,22.1c0,7-2.3,13.7-6.6,19.2l-0.4,0.5l-0.7,0c-3.9-0.1-11.3,0.2-16.8,3.5
			C45.2,65.8,43.2,66.4,41.5,66.4z M12.8,36.2c1.4,3.8,4.1,8.6,8.9,10.2c7.8,2.6,10.8,7.1,13.1,10.3c0.4,0.6,0.9,1.2,1.3,1.8
			c0.4,0.6,0.8,1.2,1.2,1.8c2,3,3.4,5.1,9.2,1.7C52.1,58.5,59.6,58,64,58c3.7-5,5.6-10.8,5.6-17c0-7.6-3-14.8-8.4-20.2
			c-5.4-5.4-12.6-8.4-20.2-8.4c-7.6,0-14.8,3-20.2,8.4C16.5,25,13.8,30.3,12.8,36.2z"/>
	</g>
	<path class="st0" d="M54.3,27.8h-4.6v-4.4c0-0.6-0.5-1.1-1.1-1.1s-1.1,0.5-1.1,1.1v4.4h-3.8v-4.4c0-0.6-0.5-1.1-1.1-1.1
		s-1.1,0.5-1.1,1.1v4.4h-4.1v-2.7c0-0.6-0.5-1.1-1.1-1.1s-1.1,0.5-1.1,1.1v2.7h-2.3c-0.6,0-1.1,0.5-1.1,1.1s0.5,1.1,1.1,1.1h2.3v4.1
		H31c-0.6,0-1.1,0.5-1.1,1.1s0.5,1.1,1.1,1.1h4.1v4H31c-0.6,0-1.1,0.5-1.1,1.1s0.5,1.1,1.1,1.1h4.1v5.3c0,0.6,0.5,1.1,1.1,1.1
		s1.1-0.5,1.1-1.1v-5.3h4.1v3.6c0,0.6,0.5,1.1,1.1,1.1s1.1-0.5,1.1-1.1v-3.6h3.8v3.6c0,0.6,0.5,1.1,1.1,1.1s1.1-0.5,1.1-1.1v-3.6
		h3.5c0.6,0,1.1-0.5,1.1-1.1s-0.5-1.1-1.1-1.1h-3.5v-4h3.5c0.6,0,1.1-0.5,1.1-1.1s-0.5-1.1-1.1-1.1h-3.5V30h4.6
		c0.6,0,1.1-0.5,1.1-1.1S54.9,27.8,54.3,27.8z M37.3,30h4.1v4.1h-4.1V30z M37.3,40.4v-4h4.1v4H37.3z M47.5,40.4h-3.8v-4h3.8V40.4z
		 M47.5,34.2h-3.8V30h3.8V34.2z"/>
</g>
</svg>
