<?xml version="1.0" encoding="UTF-8"?><svg id="_レイヤー_2" xmlns="http://www.w3.org/2000/svg" viewBox="0 0 36 36"><defs><style>.cls-1{fill:#fff;}.cls-2{fill:#040000;}.cls-3{fill:#b4b4b4;}</style></defs><g id="_レイヤー_1-2"><g><g><rect class="cls-1" x=".5" y=".5" width="35" height="35" rx="4.9" ry="4.9"/><path class="cls-3" d="M30.6,1c2.43,0,4.4,1.97,4.4,4.4V30.6c0,2.43-1.97,4.4-4.4,4.4H5.4c-2.43,0-4.4-1.97-4.4-4.4V5.4C1,2.97,2.97,1,5.4,1H30.6m0-1H5.4C2.43,0,0,2.43,0,5.4V30.6c0,2.97,2.43,5.4,5.4,5.4H30.6c2.97,0,5.4-2.43,5.4-5.4V5.4c0-2.97-2.43-5.4-5.4-5.4h0Z"/></g><path class="cls-2" d="M10.15,10.33c3.03,0,7.17-.15,10.14-.07,3.99,.1,5.49,1.84,5.54,6.13,.05,2.43,0,9.38,0,9.38h-4.32c0-6.08,.02-7.09,0-9-.05-1.69-.53-2.49-1.83-2.64-1.37-.15-5.22-.02-5.22-.02v11.68h-4.32V10.33Z"/></g></g></svg>