<?xml version="1.0" encoding="utf-8"?>
<!-- Generator: Adobe Illustrator 27.2.0, SVG Export Plug-In . SVG Version: 6.00 Build 0)  -->
<svg version="1.1" id="_レイヤー_2" xmlns="http://www.w3.org/2000/svg" xmlns:xlink="http://www.w3.org/1999/xlink" x="0px"
	 y="0px" viewBox="0 0 19 19" style="enable-background:new 0 0 19 19;" xml:space="preserve">
<style type="text/css">
	.st0{fill:#FFFFFF;}
	.st1{fill:#3C3C3C;}
</style>
<g id="_レイヤー_1-2">
	<g>
		<g>
			<path class="st0" d="M9.5,0.5L9.5,0.5c5,0,9,4,9,9l0,0c0,5-4,9-9,9l0,0c-5,0-9-4-9-9l0,0C0.5,4.5,4.5,0.5,9.5,0.5z"/>
			<path class="st1" d="M9.5,19C4.3,19,0,14.7,0,9.5S4.3,0,9.5,0S19,4.3,19,9.5S14.7,19,9.5,19z M9.5,1C4.8,1,1,4.8,1,9.5
				C1,14.2,4.8,18,9.5,18c4.7,0,8.5-3.8,8.5-8.5C18,4.8,14.2,1,9.5,1z"/>
		</g>
		<polygon class="st1" points="8.9,11.9 8.1,11.1 9.8,9.5 8.1,7.9 8.9,7.1 11.2,9.5 		"/>
	</g>
</g>
</svg>
