<?xml version="1.0" encoding="UTF-8"?><svg id="_レイヤー_2" xmlns="http://www.w3.org/2000/svg" viewBox="0 0 64 51.99"><defs><style>.cls-1{fill:#ffb400;}</style></defs><g id="_レイヤー_1-2"><path class="cls-1" d="m29.46,33.19c0-.39-.11-.39-.18-.39-.38,0-.77.29-1.16.87-.28.43-.53.94-.73,1.5.52-.13.97-.38,1.38-.76.46-.44.69-.85.69-1.22Z"/><path class="cls-1" d="m59.64,22.92v-.02c-.42.07-.85.1-1.29.1-2.46,0-4.65-1.09-6.04-2.78-.19-.24-.37-.49-.53-.75,0,0,0,0,0,0,0,0,0-.01-.01-.02-1.32,2.12-3.78,3.54-6.59,3.54-2.45,0-4.64-1.09-6.04-2.78-.19-.24-.37-.49-.54-.75,0,0,0,0,0,0,0,0,0-.01-.01-.02-1.32,2.12-3.78,3.54-6.59,3.54-2.46,0-4.65-1.09-6.04-2.78-.19-.24-.37-.49-.53-.75,0,0,0,0,0,0,0,0,0-.01-.01-.02-1.32,2.12-3.78,3.54-6.59,3.54-2.46,0-4.64-1.09-6.04-2.78-.19-.24-.37-.49-.53-.75,0,0,0,0,0,0,0,0,0-.01-.01-.02-1.32,2.12-3.78,3.54-6.59,3.54-1.03,0-2-.2-2.89-.54-.12-.05-.25-.09-.37-.15h0s-.01,0-.02,0v29.68h57.27v-29.07s0,0,0,0Zm-4.52,25.86h-11.21v-9.25h11.21v9.25Zm0-11.56h-11.21v-12.2h6.42c2.64,0,4.79,2.14,4.79,4.79v7.42Zm-16.71-2.13c-.12.24-.24.49-.35.74-.37.83-.48,1.27-.49,1.5.02,0,.04,0,.07,0,.15,0,.28-.03.39-.09.25-.13.36-.16.45-.16.26,0,.45.18.45.45,0,.52-.26.96-.77,1.29-.33.22-.65.34-.95.34-.27,0-.5-.03-.69-.09-.2-.06-.37-.17-.52-.31-.34-.3-.51-.73-.51-1.25,0-.59.17-1.29.53-2.14.25-.56.43-.95.53-1.16l.23-.49c.12-.25.16-.4.18-.49,0,0,0-.01,0-.01h0s0-.02,0-.02c-.02,0-.05,0-.08,0,0,0-.11.03-.4.32-.26.27-.49.52-.68.74l-.59.71-1.12,1.43c-.26.49-.47.91-.61,1.24l-.38.81c-.11.23-.21.39-.3.5-.13.15-.31.22-.52.22-.16,0-.32-.03-.46-.09-.14-.06-.27-.13-.38-.22-.25-.21-.37-.45-.37-.72,0-.13.05-.28.18-.55l.26-.56c.08-.17.18-.38.29-.63l.39-.95c.66-1.65.8-2.3.8-2.54,0-.17-.06-.21-.09-.23l-.13-.1c-.07-.05-.2-.17-.2-.42,0-.15.06-.3.16-.43.09-.1.2-.19.34-.27.26-.13.52-.2.78-.2s.45.03.6.09c.15.06.29.15.39.26.23.22.35.46.35.72,0,.15-.02.3-.05.44-.01.03-.01.06-.03.09l.02-.02s0,.02,0,.04l.22-.26c.38-.45.68-.74.91-.89.47-.32.84-.47,1.14-.47.27,0,.51.04.71.11.2.07.38.18.52.32.32.3.48.68.48,1.13,0,.41-.09.83-.27,1.27-.17.4-.32.73-.44.99Zm-11.18-3.01c.72-.54,1.46-.81,2.2-.81.91,0,1.56.41,1.87,1.17.11.26.16.57.15.91,0,.34-.07.67-.2.96-.13.29-.3.56-.52.79-.21.23-.47.44-.77.62-.29.18-.61.33-.95.45-.61.21-1.27.34-1.96.37h0c0,.11,0,.24.04.38.02.12.07.23.13.33.12.19.26.28.47.28.48,0,.96-.14,1.42-.43.16-.1.29-.19.39-.29.17-.18.34-.26.51-.26.11,0,.32.04.48.29.09.15.14.32.14.5,0,.31-.09.59-.27.83v.02s-.03.01-.03.01c-.64.64-1.59.97-2.83.97-.76,0-1.39-.24-1.86-.7-.53-.52-.78-1.24-.75-2.12.02-.43.09-.85.22-1.24.12-.39.29-.77.49-1.13.2-.36.45-.71.72-1.03.27-.32.58-.61.9-.86Zm-19,1.7c.16-.63.38-1.25.66-1.84.28-.59.61-1.15.99-1.66.38-.52.81-.98,1.27-1.36,1-.84,2.07-1.27,3.18-1.27,1.4,0,2.33.65,2.76,1.93.15.44.22.98.2,1.6-.02.61-.11,1.25-.28,1.88-.17.63-.4,1.25-.69,1.83-.29.59-.63,1.14-1.02,1.66-.39.52-.82.97-1.28,1.35-.99.84-2.01,1.27-3.03,1.27-.93,0-1.69-.31-2.24-.93-.56-.63-.83-1.51-.8-2.63.02-.58.11-1.19.27-1.83Zm11.34-2.41c.16.07.3.16.41.29.15.16.22.32.27.49,0,.04.03.08.02.12,0,0,0,0,0,0,0,0,0,.01,0,.02.66-.67,1.36-1.01,2.07-1.01.92,0,1.58.5,1.89,1.44.1.32.15.7.15,1.15s-.07.89-.2,1.33c-.13.44-.31.86-.54,1.25-.22.39-.49.75-.78,1.08-.3.33-.61.62-.95.86-.72.52-1.42.78-2.08.78-.42,0-.76-.12-1.06-.33-.03-.03-.08-.04-.11-.07h0s-.01,0-.02,0c-.04.14-.09.33-.16.55-.19.66-.36,1.2-.49,1.6-.41,1.23-.65,1.58-.79,1.74-.21.23-.48.35-.78.35-.26,0-.63-.1-.87-.55-.06-.11-.1-.25-.1-.39,0-.1.03-.26.24-.72.36-.75.85-2.26,1.46-4.49.24-.89.41-1.5.49-1.81l.22-.88c.14-.56.22-.94.25-1.14.02-.19,0-.25,0-.25-.03-.05-.06-.08-.08-.1-.06-.04-.11-.07-.16-.1-.16-.09-.24-.27-.22-.47.02-.15.08-.29.2-.41.09-.1.21-.18.34-.25.26-.12.51-.18.77-.18s.46.03.62.1Zm-8.53,13.17v-1.35h25.36v1.35H11.04Z"/><path class="cls-1" d="m10.29,37.31c.17.24.36.35.62.35.29,0,.59-.1.89-.29.33-.21.65-.5.96-.86.32-.37.63-.8.92-1.27.29-.48.55-.99.77-1.52.63-1.51.87-2.75.71-3.71-.1-.56-.36-.81-.86-.81s-1.1.38-1.77,1.11c-.66.73-1.24,1.65-1.72,2.75-.23.52-.42,1.06-.56,1.61-.14.54-.22,1-.23,1.37-.01.36,0,.64.06.83.05.18.11.33.2.45Z"/><path class="cls-1" d="m19.71,37.65c.18,0,.35-.05.54-.15.2-.11.4-.26.59-.45.2-.19.38-.43.55-.69.17-.27.33-.55.45-.85.28-.65.41-1.27.41-1.84,0-.36-.06-.55-.1-.65-.05-.11-.1-.11-.13-.11-.12,0-.25.05-.4.16-.18.13-.38.31-.58.52-.21.23-.42.49-.62.78-.2.29-.39.6-.55.91-.16.31-.29.62-.39.93-.09.29-.14.56-.14.8,0,.21.04.38.12.5.04.06.11.13.26.13Z"/><polygon class="cls-1" points="11.8 7.78 13.8 1.92 14.45 .03 14.44 .03 14.45 0 4.88 0 2.09 5.31 .79 7.76 .8 7.76 .79 7.78 11.8 7.78"/><polygon class="cls-1" points="13.64 7.76 13.65 7.76 13.64 7.78 24.66 7.78 25.51 .89 25.62 .03 25.61 .03 25.62 0 16.04 0 14.19 6 13.64 7.76"/><polygon class="cls-1" points="37.51 7.78 36.79 0 27.21 0 26.55 7.15 26.49 7.76 26.49 7.76 26.49 7.78 37.51 7.78"/><polygon class="cls-1" points="39.34 7.78 50.36 7.78 47.95 0 39.47 0 38.4 0 38.4 0 38.38 0 39.34 7.78"/><polygon class="cls-1" points="52.2 7.78 63.21 7.78 59.12 0 51.93 0 49.57 0 49.57 0 49.55 0 52.2 7.78"/><path class="cls-1" d="m40.76,19.1c.09.1.2.19.3.29.13.12.24.25.38.36.05.04.1.06.15.1.98.73,2.22,1.18,3.57,1.18,1.17,0,2.25-.34,3.15-.9.2-.12.4-.24.58-.38.26-.21.5-.45.72-.7.44-.51.77-1.11.97-1.75.07-.23.14-.46.18-.7v-.02c.03-.22.05-.44.05-.67v-6.17h-11.29v6.17c0,.23.01.45.05.68h0s0,.01,0,.01c.14.94.56,1.8,1.19,2.5Z"/><path class="cls-1" d="m2.37,20.08c.93.6,2.06.96,3.28.96s2.23-.33,3.12-.88c.21-.13.41-.25.6-.4.72-.57,1.26-1.31,1.58-2.13.13-.33.23-.67.29-1.02h0,0c.03-.24.05-.46.05-.69v-6.17H0v6.17c0,1.71.93,3.24,2.37,4.17h0Z"/><path class="cls-1" d="m17.41,20.85c.45.11.92.18,1.41.18.82,0,1.6-.18,2.3-.47.52-.21,1-.48,1.43-.81.99-.8,1.68-1.91,1.87-3.16v-.02c.03-.22.05-.44.05-.67v-6.17h-11.3v6.17c0,.23.02.45.05.68h0c.31,2.08,2,3.75,4.19,4.27Z"/><path class="cls-1" d="m26.4,16.59c.06.4.19.77.34,1.14.82,1.92,2.86,3.3,5.25,3.3,2.85,0,5.22-1.94,5.6-4.44h0c.04-.24.05-.46.05-.69v-6.17h-11.29v6.17c0,.23.02.45.05.67v.02Z"/><path class="cls-1" d="m52.79,9.73h-.09v6.17c0,.23.02.45.05.67v.02c.32,2.08,2.01,3.75,4.21,4.26.45.11.91.18,1.39.18.44,0,.88-.05,1.29-.14h0c2.49-.54,4.36-2.57,4.36-4.99v-6.17h-11.21Z"/></g></svg>