<?xml version="1.0" encoding="UTF-8"?>
<svg id="_レイヤー_2" data-name="レイヤー 2" xmlns="http://www.w3.org/2000/svg" viewBox="0 0 970.28 1075.1">
  <defs>
    <style>
      .cls-1 {
        fill: #3e3a39;
      }

      .cls-1, .cls-2, .cls-3, .cls-4, .cls-5, .cls-6, .cls-7, .cls-8 {
        stroke-width: 0px;
      }

      .cls-2 {
        fill: #ffc000;
      }

      .cls-3 {
        fill: #dcdddd;
      }

      .cls-4 {
        fill: #d8d8d8;
      }

      .cls-5 {
        fill: #b5b5b6;
      }

      .cls-6 {
        fill: #ef9218;
      }

      .cls-7 {
        fill: #727171;
      }

      .cls-8 {
        fill: #fff;
      }
    </style>
  </defs>
  <g id="_レイヤー_2-2" data-name="レイヤー 2">
    <g>
      <g>
        <g>
          <rect class="cls-6" x="15.37" y="436.14" width="20.93" height="44.47"/>
          <path class="cls-1" d="M14.53,486.04c-1.15-.18-2.23-.72-3.06-1.55-1.03-1.03-1.61-2.43-1.61-3.89l.02-44.47c0-1.46.58-2.86,1.61-3.89,1.03-1.03,2.43-1.61,3.89-1.61h20.93c3.04.02,5.5,2.48,5.5,5.52l-.02,44.47c0,3.04-2.47,5.5-5.5,5.5H15.35c-.28-.01-.56-.03-.83-.07ZM20.88,441.64l-.02,33.47h9.93s.02-33.46.02-33.46h-9.93Z"/>
        </g>
        <g>
          <rect class="cls-6" x="218.54" y="436.26" width="20.93" height="44.47"/>
          <path class="cls-1" d="M217.69,486.16c-1.15-.18-2.23-.72-3.06-1.55-1.03-1.03-1.61-2.43-1.61-3.89l.02-44.47c0-3.04,2.47-5.5,5.5-5.5h20.93c1.46.02,2.86.59,3.89,1.63,1.03,1.03,1.61,2.43,1.61,3.89l-.03,44.47c0,3.04-2.47,5.5-5.5,5.5h-20.93c-.28-.01-.56-.03-.83-.07ZM224.05,441.75l-.02,33.47h9.93s.02-33.46.02-33.46h-9.93Z"/>
        </g>
        <g>
          <rect class="cls-6" x="5.62" y="5.57" width="241.69" height="446.8"/>
          <path class="cls-1" d="M4.66,457.74C2.02,457.33,0,455.05,0,452.3L.25,5.5C.25,2.46,2.71,0,5.75,0l241.69.13c1.46,0,2.86.58,3.89,1.61,1.03,1.03,1.61,2.43,1.61,3.89l-.25,446.8c0,1.46-.58,2.86-1.61,3.89-1.03,1.03-2.43,1.61-3.89,1.61l-241.69-.14c-.28,0-.56-.02-.84-.06ZM11.25,11l-.24,435.8,230.69.13.24-435.8-230.69-.13Z"/>
        </g>
        <path class="cls-1" d="M125.51,452.37c-2.64-.4-4.66-2.69-4.66-5.44l.11-194.94c0-3.04,2.47-5.5,5.5-5.5,3.03,0,5.5,2.47,5.5,5.5l-.11,194.94c0,3.04-2.47,5.5-5.5,5.5-.28,0-.56-.02-.84-.06Z"/>
        <path class="cls-1" d="M125.62,257.43c-2.64-.4-4.66-2.69-4.66-5.44l.14-242.17c0-3.04,2.47-5.5,5.5-5.5,3.03,0,5.5,2.47,5.5,5.5l-.14,242.17c0,3.04-2.47,5.5-5.5,5.5-.28,0-.56-.02-.84-.06Z"/>
        <g>
          <rect class="cls-8" x="20.41" y="48.41" width="76.71" height="175.17"/>
          <path class="cls-1" d="M19.52,229c-1.15-.18-2.23-.72-3.06-1.55-1.03-1.03-1.61-2.43-1.61-3.89l.1-175.17c0-3.04,2.47-5.5,5.5-5.5l76.71.04c1.46,0,2.86.58,3.89,1.61,1.03,1.03,1.61,2.43,1.61,3.89l-.1,175.17c0,3.04-2.47,5.5-5.5,5.5l-76.71-.04c-.28,0-.56-.02-.83-.06ZM25.95,53.89l-.09,164.17,65.71.04.09-164.17-65.71-.04Z"/>
        </g>
        <g>
          <rect class="cls-8" x="155.09" y="48.49" width="76.71" height="175.17"/>
          <path class="cls-1" d="M154.2,229.07c-1.15-.18-2.23-.72-3.06-1.55-1.03-1.03-1.61-2.43-1.61-3.89l.1-175.17c0-3.04,2.47-5.5,5.5-5.5l76.71.04c1.46,0,2.86.58,3.89,1.61,1.03,1.03,1.61,2.43,1.61,3.89l-.1,175.17c0,3.04-2.47,5.5-5.5,5.5l-76.71-.04c-.28,0-.56-.02-.83-.06ZM160.63,53.97l-.09,164.17,65.71.04.09-164.17-65.71-.04Z"/>
        </g>
        <path class="cls-1" d="M110.97,164.73c-2.64-.4-4.66-2.69-4.66-5.44v-9.34c0-3.04,2.47-5.5,5.51-5.5,3.03.01,5.5,2.47,5.5,5.5v9.34c0,3.04-2.47,5.5-5.51,5.5-.28,0-.56-.02-.84-.06Z"/>
        <path class="cls-1" d="M141.56,164.75c-2.64-.4-4.66-2.69-4.66-5.44v-9.34c0-3.04,2.47-5.5,5.51-5.5,3.04,0,5.5,2.47,5.5,5.5v9.34c0,3.04-2.47,5.5-5.51,5.5-.28,0-.56-.02-.84-.06Z"/>
        <path class="cls-1" d="M10.05,257.37c-2.64-.4-4.66-2.69-4.66-5.44,0-3.04,2.47-5.5,5.5-5.5l231.14.13c3.03,0,5.5,2.47,5.5,5.5,0,3.04-2.47,5.5-5.5,5.5l-231.14-.13c-.28,0-.56-.02-.84-.06Z"/>
        <path class="cls-1" d="M10.03,299.79c-2.64-.4-4.66-2.69-4.66-5.44,0-3.04,2.47-5.5,5.5-5.5l231.14.13c3.03,0,5.5,2.47,5.5,5.5,0,3.04-2.47,5.5-5.5,5.5l-231.14-.13c-.28,0-.56-.02-.84-.06Z"/>
        <path class="cls-1" d="M50.13,274.85c-2.64-.4-4.66-2.69-4.66-5.44,0-3.04,2.47-5.5,5.5-5.5h15.43c3.03.02,5.5,2.47,5.5,5.51,0,3.04-2.47,5.5-5.5,5.5h-15.43c-.28,0-.56-.03-.84-.07Z"/>
        <path class="cls-1" d="M184.81,274.93c-2.64-.4-4.66-2.69-4.66-5.44,0-3.04,2.47-5.5,5.5-5.5h15.43c3.03.02,5.5,2.47,5.5,5.51,0,3.04-2.47,5.5-5.5,5.5h-15.43c-.28,0-.56-.03-.84-.07Z"/>
        <path class="cls-1" d="M106.8,356.01c-2.64-.4-4.66-2.69-4.66-5.44v-19.73c.01-3.04,2.48-5.5,5.51-5.5,3.03,0,5.5,2.47,5.5,5.5v19.73c-.01,3.04-2.48,5.5-5.51,5.5-.28,0-.56-.02-.84-.06Z"/>
        <path class="cls-1" d="M144.07,356.03c-2.64-.4-4.66-2.69-4.66-5.44v-19.73c.01-3.04,2.48-5.5,5.51-5.5,3.04,0,5.5,2.47,5.5,5.5v19.73c-.01,3.04-2.48,5.5-5.51,5.5-.28,0-.56-.02-.84-.06Z"/>
        <path class="cls-1" d="M10.18,31.16c-2.64-.4-4.66-2.69-4.66-5.44,0-3.04,2.47-5.5,5.5-5.5l231.14.13c3.03,0,5.5,2.47,5.5,5.5,0,3.04-2.47,5.5-5.5,5.5l-231.14-.13c-.28,0-.56-.02-.84-.06Z"/>
      </g>
      <g>
        <g>
          <rect class="cls-8" x="326.73" y="161.75" width="272.04" height="156.28"/>
          <path class="cls-1" d="M598.76,323.53h-272.04c-3.04,0-5.5-2.46-5.5-5.5v-156.28c0-3.04,2.46-5.5,5.5-5.5h272.04c3.04,0,5.5,2.46,5.5,5.5v156.28c0,3.04-2.46,5.5-5.5,5.5ZM332.23,312.53h261.04v-145.28h-261.04v145.28Z"/>
        </g>
        <g>
          <rect class="cls-2" x="337.03" y="173.52" width="181.92" height="133.89"/>
          <path class="cls-1" d="M533.22,321.68h-210.46v-162.43s210.46,0,210.46,0v162.43ZM351.3,293.13h153.37v-105.35h-153.37v105.35Z"/>
        </g>
        <g>
          <rect class="cls-8" x="546.79" y="178.8" width="36.3" height="25.75"/>
          <path class="cls-1" d="M583.08,210.05h-36.3c-3.04,0-5.5-2.46-5.5-5.5v-25.75c0-3.04,2.46-5.5,5.5-5.5h36.3c3.04,0,5.5,2.46,5.5,5.5v25.75c0,3.04-2.46,5.5-5.5,5.5ZM552.29,199.05h25.3v-14.75h-25.3v14.75Z"/>
        </g>
        <g>
          <circle class="cls-8" cx="566.43" cy="238" r="16.72" transform="translate(184.29 719.09) rotate(-74.33)"/>
          <path class="cls-1" d="M566.43,260.22c-12.25,0-22.22-9.97-22.22-22.22s9.97-22.22,22.22-22.22,22.22,9.97,22.22,22.22-9.97,22.22-22.22,22.22ZM566.43,226.77c-6.19,0-11.22,5.04-11.22,11.22s5.04,11.22,11.22,11.22,11.22-5.04,11.22-11.22-5.04-11.22-11.22-11.22Z"/>
        </g>
        <rect class="cls-1" x="342.23" y="318.03" width="27.03" height="17.01" rx="2.42" ry="2.42"/>
        <rect class="cls-1" x="552.92" y="318.03" width="27.03" height="17.01" rx="2.42" ry="2.42"/>
        <path class="cls-1" d="M558.62,279.88h-10.11c-3.04,0-5.5-2.46-5.5-5.5s2.46-5.5,5.5-5.5h10.11c3.04,0,5.5,2.46,5.5,5.5s-2.46,5.5-5.5,5.5Z"/>
        <path class="cls-1" d="M583.82,279.88h-10.11c-3.04,0-5.5-2.46-5.5-5.5s2.46-5.5,5.5-5.5h10.11c3.04,0,5.5,2.46,5.5,5.5s-2.46,5.5-5.5,5.5Z"/>
        <path class="cls-1" d="M558.62,297.63h-10.11c-3.04,0-5.5-2.46-5.5-5.5s2.46-5.5,5.5-5.5h10.11c3.04,0,5.5,2.46,5.5,5.5s-2.46,5.5-5.5,5.5Z"/>
        <path class="cls-1" d="M583.82,297.63h-10.11c-3.04,0-5.5-2.46-5.5-5.5s2.46-5.5,5.5-5.5h10.11c3.04,0,5.5,2.46,5.5,5.5s-2.46,5.5-5.5,5.5Z"/>
      </g>
      <g>
        <path class="cls-2" d="M217.69,1067.45h124.57l-4.17-73.31-58.11,11.49-10.55,36.18-23.07,3.33s-4.8,18.03-28.66,22.31Z"/>
        <polygon class="cls-8" points="414.16 738.53 550.63 730.53 550.63 840.38 418.36 850.54 414.16 738.53"/>
        <path class="cls-2" d="M317.7,803.16l21.98-43.38,96.29-37.44s11.13,81.7,44.3,111.85l13.45-1.66s45.82-35.98,42.48-106.43l31.86,8.61,35.01,19.52,27.24,20.89-3.55,230.65,1.74,61.72s-180.78-.04-287.44-.42l-4.3-61.31-19.07-202.6Z"/>
        <path class="cls-8" d="M441.25,668.38c1.04.43,6.51,38.17,0,67.93l38.05,57.11,53.53-34.88s-11.33-51.21-5.92-97.84l-85.66,7.68Z"/>
        <path class="cls-3" d="M443.42,690.03s50.32,26.46,79.02-3.18l.14,20.18s-33.23,26.82-75.4,2.09l-3.76-19.09Z"/>
        <path class="cls-8" d="M399.43,595.75s-35.73-73.17,30.97-111.77c0,0,43.59-27.5,87.18,3.98,0,0,67.14,2.93,59.05,70.02l-12.73,44.51-164.47-6.74Z"/>
        <path class="cls-8" d="M582.17,604.55c-8.96-11.32-21.4-4.03-21.4-4.03l.2-57.83-35.22-19.31h-86.9l-35.22,19.31.21,60.44s-11.48-11.32-20.44,0c0,0-11.8,24.94,21.66,48.08,0,0,9.17-2.18,11.41-6.14,0,0,16.12,61.51,65.82,58.82,49.7,2.7,66.53-57.8,66.53-57.8,2.24,3.96,10.72,5.12,10.72,5.12,36.48-22.89,22.63-46.67,22.63-46.67Z"/>
        <path class="cls-1" d="M482.73,708.96h-.74c-20.78,0-38.02-12.73-40.13-14.36-28.23-18.73-32.69-59.36-32.87-61.08-.29-2.86,1.79-5.41,4.64-5.7,2.86-.29,5.41,1.79,5.7,4.64.04.37,4.19,37.63,28.41,53.57.13.08.25.17.37.26.15.12,15.84,12.27,33.95,12.27h.59c18.3,0,33.87-12.14,34.03-12.27.12-.09.24-.18.37-.26,24.22-15.94,28.37-53.2,28.41-53.58.3-2.85,2.86-4.92,5.71-4.64,2.85.3,4.93,2.84,4.64,5.7-.18,1.72-4.63,42.35-32.87,61.08-2.11,1.62-19.36,14.35-40.21,14.36Z"/>
        <path class="cls-1" d="M522.77,579.93c-.55,0-1.11-.09-1.66-.27-7.2-2.42-12.3-.73-12.52-.66-2.7,1-5.66-.39-6.65-3.08-1-2.69.41-5.7,3.1-6.69.86-.32,8.72-3.01,19.38.58,2.72.92,4.19,3.86,3.27,6.59-.73,2.17-2.76,3.54-4.93,3.54Z"/>
        <path class="cls-1" d="M457.18,579.65c-.66,0-1.32-.12-1.97-.39-.31-.12-5.3-1.97-12.52.11-2.76.8-5.64-.8-6.43-3.56-.79-2.76.8-5.64,3.56-6.43,10.82-3.11,18.55-.07,19.39.28,2.65,1.12,3.89,4.16,2.77,6.81-.84,1.99-2.77,3.18-4.79,3.18Z"/>
        <path class="cls-1" d="M485.94,677.36c-.3,0-.53,0-.68-.01h-.06c-9.42,0-16.63-2.74-21.42-8.13-6.92-7.8-5.74-18.12-5.68-18.56.3-2.39,2.2-4.27,4.59-4.53.84-.09,20.81-2.22,44.69.4,2.63.29,4.63,2.51,4.63,5.16.02,7.92-2.41,14.25-7.22,18.79-6.73,6.36-15.96,6.89-18.85,6.89ZM485.35,666.95c.1,0,.2,0,.3,0,.05,0,7.44.3,12.03-4.09,1.71-1.64,2.87-3.81,3.46-6.5-13.91-1.16-26.06-.71-32.48-.29.37,1.99,1.19,4.35,2.94,6.3,2.74,3.04,7.31,4.58,13.58,4.58.05,0,.1,0,.16,0Z"/>
        <path class="cls-1" d="M514.76,605.19h0c-3.76,0-6.84-3.08-6.84-6.84h0c0-3.76,3.08-6.84,6.84-6.84h0c3.76,0,6.84,3.08,6.84,6.84h0c0,3.76-3.08,6.84-6.84,6.84Z"/>
        <path class="cls-1" d="M451.37,605.19h0c-3.76,0-6.84-3.08-6.84-6.84h0c0-3.76,3.08-6.84,6.84-6.84h0c3.76,0,6.84,3.08,6.84,6.84h0c0,3.76-3.08,6.84-6.84,6.84Z"/>
        <path class="cls-1" d="M485.28,638.26c-.08,0-.15,0-.23,0l-3.17-.14c-2.87-.12-5.09-2.55-4.97-5.42.12-2.87,2.54-5.09,5.42-4.97l3.17.14c2.87.12,5.09,2.55,4.97,5.42-.12,2.79-2.42,4.98-5.19,4.98Z"/>
        <path class="cls-7" d="M505.31,524.55s-9.63,21.79-49.91,24.09l-32.97,7.78-18.6,46.71s-43.3-68.68,46.38-119.69c16.48-9.37,56.64-5.13,64.54,2.56l10.34,2.49s53.3.62,51.53,70.38l-2.62,37.5-12.87.28-6.69-36.05s-25.3-6.83-43.08-30.91l-6.06-5.14Z"/>
        <path class="cls-1" d="M474.61,553.85c-2.27,0-4.35-1.5-5-3.79-.78-2.76.83-5.64,3.59-6.42,30.35-8.56,30.83-27.7,30.83-28.51-.04-2.87,2.25-5.21,5.12-5.25h.08c2.84,0,5.15,2.3,5.2,5.15.02,1.13-.02,27.79-38.41,38.62-.47.13-.95.2-1.42.2Z"/>
        <path class="cls-1" d="M431.52,558.47c-2.5,0-4.7-1.8-5.12-4.35-.47-2.83,1.45-5.51,4.28-5.98,30.42-5.04,35.4-26.93,35.45-27.15.6-2.81,3.36-4.61,6.17-4.01,2.81.6,4.6,3.36,4.01,6.17-.25,1.18-6.58,29.06-43.92,35.25-.29.05-.57.07-.86.07Z"/>
        <path class="cls-1" d="M561.13,601.86c-2.46,0-4.64-1.75-5.11-4.25l-6.13-33.01c-38.41-12.97-45.4-37.64-45.69-38.71-.74-2.77.91-5.62,3.68-6.36,2.76-.74,5.6.89,6.35,3.64.27.95,6.61,21.63,41.73,32.46,1.85.57,3.23,2.12,3.58,4.02l6.69,36.05c.52,2.82-1.34,5.54-4.16,6.06-.32.06-.64.09-.96.09Z"/>
        <path class="cls-1" d="M407.97,595.01c-.8,0-1.61-.18-2.36-.57-2.56-1.31-3.57-4.44-2.26-7,6.4-12.5,10.43-26.42,10.47-26.56.79-2.76,3.67-4.35,6.43-3.56,2.76.79,4.35,3.67,3.56,6.43-.17.61-4.34,15-11.21,28.42-.92,1.8-2.74,2.83-4.63,2.83Z"/>
        <path class="cls-1" d="M558.33,655.2c-3.36,0-7.99-1.3-11.98-7.09-1.63-2.36-1.03-5.6,1.33-7.23,2.36-1.63,5.6-1.04,7.23,1.33,1.83,2.65,3.1,2.6,3.52,2.58,4.17-.16,10.68-8.09,13.76-13.4.05-.08.1-.17.16-.25,10.74-16.33,5.32-24.6,3.88-26.34-7.2-3.89-10.6.7-10.97,1.25-1.61,2.38-4.84,3-7.22,1.39-2.38-1.61-3-4.84-1.39-7.22,3.19-4.71,12.62-11.61,25.47-4.03.3.18.58.38.83.61.63.56,15.13,14.05-1.83,39.94-1.93,3.31-11.11,18.01-22.27,18.45-.17,0-.34.01-.52.01Z"/>
        <path class="cls-1" d="M443.43,727.26c-.39,0-.78-.04-1.18-.13-2.8-.65-4.54-3.44-3.89-6.24,2.52-10.9-.06-29.95-.08-30.14-.39-2.84,1.6-5.47,4.44-5.86,2.85-.4,5.47,1.59,5.86,4.44.12.86,2.87,21.14-.08,33.91-.56,2.4-2.7,4.03-5.06,4.03Z"/>
        <path class="cls-1" d="M526.83,724.8c-2.37,0-4.51-1.62-5.06-4.03-2.97-12.82-.19-30.79-.07-31.55.45-2.84,3.11-4.77,5.95-4.33,2.84.45,4.77,3.11,4.33,5.94h0c-.03.17-2.58,16.75-.07,27.59.65,2.8-1.1,5.59-3.89,6.24-.39.09-.79.13-1.18.13Z"/>
        <path class="cls-1" d="M393.4,526.86c-.87,0-1.75-.22-2.55-.67-2.5-1.41-3.38-4.58-1.97-7.08.49-.87,12.22-21.38,34.14-36.53,20.56-14.2,54.06-26.05,96.94-1.88,2.5,1.41,3.39,4.58,1.98,7.08-1.41,2.5-4.58,3.38-7.08,1.98-30.56-17.23-59.37-16.83-85.65,1.18-20.06,13.75-31.17,33.08-31.28,33.28-.96,1.69-2.72,2.64-4.53,2.64Z"/>
        <path class="cls-1" d="M406.46,655.2c-.18,0-.35,0-.52-.01-11.15-.45-20.34-15.14-22.27-18.45-16.95-25.89-2.45-39.38-1.83-39.94.26-.23.54-.43.83-.61,12.85-7.58,22.28-.68,25.47,4.03,1.61,2.38.99,5.61-1.39,7.22-2.36,1.6-5.56,1-7.18-1.33-.92-1.26-4.34-4.91-11.01-1.3-1.45,1.74-6.86,10.01,3.88,26.34.06.08.11.17.16.26,3.08,5.3,9.58,13.23,13.76,13.39.42.03,1.69.07,3.52-2.58,1.63-2.37,4.87-2.96,7.23-1.33,2.36,1.63,2.96,4.87,1.33,7.23-3.99,5.79-8.62,7.09-11.98,7.09Z"/>
        <path class="cls-1" d="M251.84,965.89c-.35,0-.7-.04-1.05-.11-2.81-.58-4.62-3.33-4.04-6.14l31-150.63c7.72-35.64,38.56-46.36,41.17-47.2l71.15-25.87c2.7-.98,5.68.41,6.66,3.11.98,2.7-.41,5.68-3.11,6.66l-71.25,25.9c-.08.03-.15.05-.23.08-1.11.35-27.65,9.15-34.22,39.47l-30.99,150.58c-.51,2.46-2.67,4.15-5.09,4.15Z"/>
        <path class="cls-1" d="M332.05,973.58c-2.77,0-5.07-2.18-5.19-4.97l-5.4-120.62c-.13-2.87,2.09-5.3,4.96-5.43,2.89-.13,5.3,2.09,5.43,4.96l5.4,120.62c.13,2.87-2.09,5.3-4.96,5.43-.08,0-.16,0-.24,0Z"/>
        <path class="cls-1" d="M629.15,939.61s-.08,0-.13,0c-2.87-.07-5.14-2.45-5.07-5.32.62-25.99,9.6-95.18,9.99-98.12.37-2.85,2.98-4.85,5.83-4.48,2.85.37,4.86,2.98,4.48,5.83-.09.71-9.29,71.58-9.9,97.02-.07,2.83-2.38,5.08-5.2,5.08Z"/>
        <path class="cls-8" d="M722.44,830.06c-4.27,26.76,8.64,40.64,8.64,40.64l-4.76,33.98,29.77,9.2,18.29-25.41s28.7-23.45,39.99-55.22l-11.93-39.82-60.52-2.05-19.49,38.66Z"/>
        <path class="cls-1" d="M731.06,871.78c-1.39,0-2.77-.55-3.79-1.65-.6-.64-14.59-16.08-9.97-45.01.45-2.84,3.12-4.76,5.96-4.31,2.84.45,4.77,3.12,4.31,5.96-3.78,23.66,6.89,35.81,7.34,36.31,1.91,2.12,1.77,5.4-.33,7.33-1,.92-2.26,1.37-3.52,1.37Z"/>
        <path class="cls-1" d="M779.36,892.01c-1.51,0-3-.65-4.03-1.91-1.82-2.22-1.49-5.5.73-7.31h0c.28-.23,27.73-22.96,38.38-52.93.96-2.71,3.94-4.12,6.64-3.16,2.71.96,4.12,3.93,3.16,6.64-11.64,32.76-40.38,56.51-41.6,57.5-.97.79-2.13,1.17-3.29,1.17Z"/>
        <path class="cls-2" d="M636.92,1001.79s15.45,53.82,68,48.16c0,0,23.69-6.44,33.3-26.7l32.53-51.94s7.54-15.41,1.52-29.7l-60.69-40.88-24.83,3.67-22.54-102.46-41.09-31.08-18.71,234.92,32.5-3.97Z"/>
        <path class="cls-2" d="M729,878.02s20.99,17.13,49.29,19.07l-13.29,44.51s-40.67-.33-55.15-44.04l19.15-19.54Z"/>
        <path class="cls-1" d="M664.22,948.91c-.97,0-1.94-.27-2.81-.83-2.41-1.56-3.11-4.78-1.55-7.19l20.35-31.56c1.17-2.36,7.43-13.81,18.89-13.81,2.87,0,5.2,2.33,5.2,5.2s-2.33,5.2-5.2,5.2c-5.69,0-9.57,8.02-9.61,8.1-.11.23-.23.46-.37.68l-20.53,31.83c-.99,1.54-2.67,2.38-4.37,2.38Z"/>
        <path class="cls-1" d="M697.4,1055.56c-19.9,0-37.13-8.29-50.21-24.27-10.98-13.42-15.1-27.47-15.27-28.06-.79-2.76.8-5.64,3.56-6.43,2.76-.79,5.63.8,6.43,3.55h0c.59,2.02,14.88,49.23,61.99,44.48,2.8-.87,21.78-7.28,29.62-23.8.09-.18.18-.36.29-.53l32.36-51.67c.77-1.71,5.97-14.13,1.31-25.2-1.11-2.65.13-5.7,2.77-6.81,2.65-1.11,5.7.13,6.81,2.77,6.86,16.28-1.29,33.29-1.64,34-.08.16-.17.32-.26.48l-32.38,51.69c-10.6,21.94-35.44,28.92-36.5,29.2-.26.07-.53.12-.81.15-2.74.29-5.43.44-8.08.44Z"/>
        <path class="cls-1" d="M681.66,900.35c-2.37,0-4.51-1.63-5.06-4.03-2.4-10.41-3.81-22.05-5.3-34.36-1.8-14.83-3.66-30.16-7.44-45.56-.09-.36-.25-.82-.43-1.31-.31-.87-.69-1.95-.91-3.18-1.58-9.02-11.68-20.71-28.44-32.92-14.15-10.31-32.32-20.44-48.6-27.11-2.66-1.09-3.93-4.12-2.84-6.78,1.09-2.66,4.12-3.93,6.78-2.84,29.76,12.17,78.7,41.35,83.35,67.85.07.38.26.92.47,1.5.24.67.51,1.44.72,2.31,3.93,16.01,5.83,31.66,7.66,46.79,1.46,12.03,2.84,23.4,5.11,33.28.65,2.8-1.1,5.59-3.9,6.24-.39.09-.79.13-1.17.13Z"/>
        <g>
          <g>
            <path class="cls-8" d="M735.58,826.45c-3.59,0-10.88,6.75-13.14,3.61l-31.25-56.3c-3.72-5.18-4.52-15.97.66-19.69,5.18-3.72,12.4-2.54,16.12,2.64l40.39,48.13c3.72,5.18-.87,15.71-6.05,19.44-2.04,1.47-4.4,2.17-6.73,2.17Z"/>
            <path class="cls-1" d="M723.93,836.1c-2.09,0-4.12-.77-5.72-3-.12-.16-.23-.34-.32-.51l-31.12-56.06c-4.73-6.91-5.97-20.92,2.04-26.67,7.44-5.35,17.83-3.7,23.25,3.65l40.28,47.99c.08.1.16.2.24.31,5.81,8.08-.39,21.77-7.24,26.69-2.82,2.02-6.12,3.11-9.57,3.15-.66.18-2.22,1-3.26,1.56-2.16,1.15-5.43,2.89-8.58,2.89ZM698.58,757.11c-1.28,0-2.58.39-3.7,1.19-2.06,1.48-2.09,8.79.53,12.43.12.16.23.33.32.51l29.87,53.82c.7-.34,1.45-.74,2.02-1.04,2.57-1.36,5.22-2.78,7.95-2.78,1.33,0,2.61-.41,3.7-1.2,3.64-2.62,6.23-9.91,4.93-12.07l-40.22-47.92c-.08-.1-.16-.2-.24-.31-1.24-1.72-3.19-2.64-5.17-2.64Z"/>
          </g>
          <g>
            <path class="cls-8" d="M815.57,793.45c-3.89,0-7.69-1.97-9.87-5.53-3.33-5.44-5.31-21.14.13-24.46l43.78-15.91c8.64-2.16,14.25-3.03,17.57,2.41,3.33,5.44-.61,12.19-7,16.7l-38.61,25.09c-1.88,1.15-3.96,1.7-6.01,1.7Z"/>
            <path class="cls-1" d="M815.57,798.65c-5.89,0-11.24-3-14.3-8.02-2.14-3.51-3.71-9.59-3.98-15.5-.37-7.98,1.65-13.56,5.84-16.11.3-.18.61-.33.93-.45l43.79-15.91c.17-.06.34-.11.51-.16,7.46-1.87,17.67-4.42,23.28,4.75,4.52,7.39,1.13,16.9-8.44,23.66-.05.04-.11.08-.17.11l-38.61,25.09s-.08.05-.12.08c-2.63,1.61-5.65,2.46-8.72,2.46ZM808.5,768.02c-1.6,2.44-.95,12.94,1.64,17.19,1.16,1.9,3.19,3.04,5.43,3.04,1.14,0,2.26-.31,3.25-.9l38.46-24.99c3.86-2.76,7.09-7.06,5.48-9.68-1.09-1.78-2.6-2.38-11.62-.14l-42.64,15.49Z"/>
          </g>
          <g>
            <path class="cls-6" d="M839.46,769.86l-7.86,82.32c-.9,9.47-9.31,16.41-18.78,15.51l-93.13-8.89c-9.47-.9-16.41-9.31-15.51-18.78l13-136.17c.9-9.47,9.31-16.41,18.78-15.51l93.13,8.89c9.47.9,16.41,9.31,15.51,18.78l-5.14,53.85Z"/>
            <g>
              <path class="cls-8" d="M743.61,711.14h71.83c2.95,0,5.35,2.4,5.35,5.35v15.39c0,2.95-2.4,5.35-5.35,5.35h-71.83c-2.95,0-5.35-2.4-5.35-5.35v-15.39c0-2.95,2.4-5.35,5.35-5.35Z" transform="translate(72.33 -70.79) rotate(5.45)"/>
              <path class="cls-1" d="M814.56,745.81c-.33,0-.67-.02-1.01-.05h0l-71.51-6.83c-2.8-.27-5.34-1.61-7.13-3.79-1.79-2.17-2.63-4.91-2.37-7.72l1.46-15.33c.55-5.79,5.71-10.05,11.5-9.5l71.51,6.83c2.8.27,5.34,1.61,7.13,3.79,1.79,2.17,2.63,4.91,2.37,7.72l-1.46,15.32c-.52,5.45-5.13,9.55-10.49,9.55ZM814.53,735.41c.08.02.16-.05.16-.13l1.46-15.32c0-.07-.06-.16-.13-.16l-71.51-6.83c-.08-.02-.16.05-.16.13l-1.46,15.32c0,.07.06.16.13.16l71.51,6.83Z"/>
            </g>
            <g>
              <rect class="cls-8" x="730.57" y="752.1" width="22.72" height="22.72" rx="3.7" ry="3.7" transform="translate(75.89 -67.04) rotate(5.45)"/>
              <rect class="cls-8" x="764.11" y="755.3" width="22.72" height="22.72" rx="3.7" ry="3.7" transform="translate(76.35 -70.21) rotate(5.45)"/>
              <rect class="cls-8" x="797.66" y="758.5" width="22.72" height="22.72" rx="3.7" ry="3.7" transform="translate(76.8 -73.38) rotate(5.45)"/>
            </g>
            <g>
              <rect class="cls-8" x="727.39" y="785.4" width="22.72" height="22.72" rx="3.7" ry="3.7" transform="translate(79.05 -66.59) rotate(5.45)"/>
              <rect class="cls-8" x="760.93" y="788.6" width="22.72" height="22.72" rx="3.7" ry="3.7" transform="translate(79.5 -69.76) rotate(5.45)"/>
              <rect class="cls-8" x="794.48" y="791.8" width="22.72" height="22.72" rx="3.7" ry="3.7" transform="translate(79.95 -72.93) rotate(5.45)"/>
            </g>
            <g>
              <rect class="cls-8" x="724.21" y="818.71" width="22.72" height="22.72" rx="3.7" ry="3.7" transform="translate(82.19 -66.13) rotate(5.45)"/>
              <rect class="cls-8" x="757.76" y="821.91" width="22.72" height="22.72" rx="3.7" ry="3.7" transform="translate(82.65 -69.31) rotate(5.45)"/>
              <rect class="cls-8" x="791.3" y="825.11" width="22.72" height="22.72" rx="3.7" ry="3.7" transform="translate(83.1 -72.48) rotate(5.45)"/>
            </g>
          </g>
          <g>
            <path class="cls-8" d="M830.52,798.88c-4.94,0-9.4-3.43-10.5-8.45-1.28-5.81,2.39-11.55,8.2-12.83l10.15-2.24c5.81-1.28,11.55,2.39,12.83,8.2,1.28,5.81-2.39,11.55-8.2,12.83l-10.15,2.24c-.78.17-1.56.25-2.33.25Z"/>
            <path class="cls-1" d="M830.52,804.08c-7.43,0-13.98-5.27-15.58-12.53-.92-4.16-.16-8.44,2.14-12.03,2.3-3.59,5.85-6.08,10.02-7l10.15-2.24c4.16-.92,8.44-.16,12.03,2.14,3.59,2.3,6.08,5.86,6.99,10.02.92,4.16.16,8.43-2.14,12.03-2.3,3.59-5.85,6.08-10.02,7l-10.15,2.24c-1.13.25-2.29.38-3.45.38ZM840.69,780.31c-.4,0-.81.04-1.21.13l-10.15,2.24c-1.45.32-2.69,1.19-3.49,2.44-.8,1.25-1.07,2.74-.75,4.19.56,2.53,2.84,4.37,5.42,4.37.4,0,.81-.04,1.21-.13l10.15-2.24c1.45-.32,2.69-1.19,3.49-2.44.8-1.25,1.07-2.74.75-4.19-.32-1.45-1.18-2.69-2.44-3.49-.91-.58-1.94-.88-2.99-.88Z"/>
          </g>
          <g>
            <path class="cls-8" d="M831.52,823c-5.3,0-10.08-3.67-11.27-9.07-1.37-6.23,2.56-12.39,8.79-13.77l8.15-1.8c6.23-1.38,12.39,2.56,13.77,8.79,1.37,6.23-2.56,12.39-8.79,13.77l-8.15,1.8c-.84.18-1.67.27-2.5.27Z"/>
            <path class="cls-1" d="M831.52,828.2c-7.79,0-14.67-5.53-16.35-13.15-.96-4.37-.17-8.85,2.24-12.62,2.41-3.77,6.14-6.38,10.51-7.34l8.15-1.8c4.36-.96,8.84-.17,12.61,2.23,3.78,2.41,6.39,6.15,7.35,10.52.96,4.37.17,8.85-2.24,12.62-2.41,3.77-6.14,6.38-10.51,7.34l-8.15,1.8c-1.19.26-2.41.4-3.62.4ZM839.7,803.3c-.46,0-.92.05-1.38.15l-8.16,1.8c-1.66.37-3.07,1.35-3.99,2.78-.91,1.43-1.21,3.13-.85,4.79.64,2.89,3.24,4.99,6.19,4.99.46,0,.92-.05,1.38-.15l8.15-1.8c1.66-.37,3.07-1.35,3.99-2.78.91-1.43,1.21-3.13.85-4.79-.37-1.66-1.36-3.08-2.79-3.99-1.03-.66-2.2-1-3.4-1Z"/>
          </g>
          <g>
            <path class="cls-8" d="M832.95,846.27c-5.48,0-10.35-3.92-11.36-9.5-1.13-6.28,3.04-12.29,9.31-13.42l5.28-.95c6.28-1.12,12.29,3.04,13.42,9.31,1.13,6.28-3.04,12.29-9.31,13.42l-5.28.95c-.69.12-1.38.18-2.07.18Z"/>
            <path class="cls-1" d="M832.95,851.47c-8.1,0-15.03-5.79-16.47-13.77-1.64-9.09,4.42-17.82,13.51-19.46l5.28-.95c9.09-1.62,17.82,4.44,19.46,13.51,1.64,9.09-4.42,17.82-13.51,19.46l-5.28.95c-1,.18-2,.27-2.99.27ZM838.23,827.42c-.37,0-.75.03-1.12.1l-5.27.95c-3.45.62-5.74,3.93-5.12,7.38.62,3.4,3.91,5.75,7.39,5.12l5.27-.95c3.45-.62,5.74-3.93,5.12-7.38-.55-3.06-3.24-5.22-6.27-5.22Z"/>
          </g>
        </g>
        <g>
          <path class="cls-2" d="M577.21,558.07l-3-55.01c-1.26-16.65-10.57-31.7-25.05-40.01-19.82-11.38-40.44-18.18-53.82-21.81-10.84-2.94-22.27-3.15-33.13-.31-25.65,6.71-50.42,22.07-63.47,32.66-7.9,6.41-12.92,15.71-13.89,25.84l-4.82,49.93,9.67,8.92s26.93,10.7,56.58-13.9c.48-.4.93-.82,1.36-1.27,3.27-3.43,22.16-20.99,54.91-7.95,3.39,1.35,6.55,3.2,9.44,5.42,7.88,6.05,28.94,19.95,51.27,15.66l13.95,1.83Z"/>
          <path class="cls-1" d="M578.55,556.59c-2.66,0-4.93-2.03-5.17-4.73l-4.34-48.32c-1.15-15.14-9.54-28.56-22.46-35.97-19.2-11.02-39.2-17.66-52.59-21.3-10.15-2.75-20.68-2.85-30.46-.3-24.48,6.4-48.44,21.06-61.51,31.67-6.79,5.51-11.16,13.63-12,22.3l-4.82,49.93c-.28,2.86-2.82,4.96-5.68,4.68-2.86-.28-4.95-2.82-4.68-5.67l4.82-49.93c1.1-11.42,6.86-22.13,15.79-29.38,13.88-11.26,39.35-26.83,65.43-33.65,11.53-3.01,23.91-2.9,35.81.32,13.98,3.79,34.88,10.74,55.05,22.31,15.91,9.13,26.25,25.63,27.65,44.13l4.34,48.25c.26,2.86-1.85,5.39-4.71,5.64-.16.01-.32.02-.47.02Z"/>
          <path class="cls-1" d="M389.48,552.15c-.58,0-1.17-.1-1.74-.3-2.71-.96-4.12-3.94-3.15-6.64.67-1.87,17.18-45.91,91.82-52.68,2.61-.24,5.33-.31,8.09-.23,15.07.47,65.95,4.94,87.77,42.87,1.43,2.49.57,5.67-1.92,7.1-2.49,1.43-5.67.57-7.1-1.91-19.13-33.26-65.36-37.24-79.07-37.66-2.34-.07-4.64,0-6.83.19-68.09,6.17-82.82,45.42-82.96,45.81-.76,2.13-2.76,3.46-4.9,3.46Z"/>
          <path class="cls-1" d="M406.97,565.84c-9.98,0-16.49-2.49-17.06-2.72-2.67-1.06-3.97-4.08-2.91-6.75,1.06-2.66,4.07-3.96,6.73-2.92,1.05.41,24.67,9.09,51.36-13.06.31-.25.61-.54.92-.87,3.84-4.03,24.84-23.42,60.59-9.19,3.73,1.48,7.32,3.54,10.68,6.12,7.44,5.71,26.92,18.57,47.13,14.68,2.82-.54,5.55,1.3,6.09,4.12s-1.3,5.55-4.12,6.09c-24.35,4.69-46.87-10.08-55.42-16.64-2.6-2-5.36-3.58-8.2-4.71-29.54-11.76-46.19,3.53-49.22,6.71-.59.62-1.2,1.18-1.81,1.69-16.99,14.1-33.2,17.44-44.75,17.44Z"/>
        </g>
        <path class="cls-1" d="M399.44,601.86c-1.62,0-3.21-.75-4.22-2.16-6.18-8.58-9.89-20.01-11.04-33.99-.23-2.86,1.9-5.37,4.76-5.61,2.86-.22,5.37,1.9,5.61,4.76.99,12.07,4.05,21.74,9.11,28.76,1.68,2.33,1.15,5.58-1.18,7.26-.92.66-1.98.98-3.04.98Z"/>
        <path class="cls-1" d="M572.83,598.41c-.33,0-.65-.03-.99-.09-2.82-.54-4.67-3.27-4.13-6.09,2.07-10.8,3.29-20.94,3.64-30.14.11-2.87,2.51-5.15,5.39-5,2.87.11,5.11,2.52,5,5.39-.36,9.73-1.64,20.4-3.81,31.71-.48,2.49-2.66,4.22-5.1,4.22Z"/>
        <path class="cls-1" d="M628.14,997.98c-.28,0-.56-.02-.84-.07-2.83-.46-4.76-3.13-4.3-5.96,5.16-31.88,1-163.12.95-164.45-.09-2.87,2.16-5.27,5.03-5.37,2.88-.08,5.27,2.16,5.37,5.03.18,5.44,4.24,133.57-1.08,166.44-.41,2.55-2.62,4.37-5.13,4.37Z"/>
        <path class="cls-1" d="M490.64,1074.68c-2.83,0-5.15-2.28-5.2-5.12-.22-14.09-.46-28.72-.7-43.51-.99-60.48-2.02-123.02-1.62-163.45l-4.29-21.01c-.31-1.5-.89-2.66-1.61-3.17-34.29-24.74-40.91-110.21-41.17-113.83-.21-2.86,1.94-5.35,4.81-5.56,2.86-.22,5.36,1.94,5.57,4.81.06.84,6.52,84.25,36.89,106.16,2.89,2.08,4.86,5.38,5.71,9.53l4.51,22.1v.55c-.42,40.27.61,103.03,1.61,163.72.24,14.79.48,29.43.7,43.53.04,2.87-2.25,5.23-5.12,5.28-.03,0-.05,0-.08,0Z"/>
        <path class="cls-1" d="M493.73,837.72c-1.5,0-2.99-.65-4.02-1.9-1.82-2.22-1.51-5.5.71-7.32,41.41-34.08,37.26-105.11,37.21-105.83-.19-2.87,1.98-5.34,4.85-5.53,2.86-.16,5.34,1.98,5.53,4.84.21,3.13,4.59,77.04-40.98,114.54-.97.8-2.14,1.19-3.3,1.19Z"/>
        <path class="cls-1" d="M485.37,785.61c-18.24,0-30.11-5.59-30.86-5.96-2.58-1.25-3.66-4.36-2.41-6.95,1.25-2.58,4.35-3.66,6.93-2.42.38.18,25.08,11.54,57.36-1.12,2.67-1.05,5.69.27,6.74,2.94,1.05,2.67-.27,5.69-2.94,6.74-12.99,5.09-24.86,6.76-34.82,6.76Z"/>
        <path class="cls-1" d="M472.44,860.89c-1.56,0-3.1-.7-4.12-2.03l-28.51-37.04-56.2,8.89c-1.73.28-3.48-.34-4.66-1.64-1.18-1.3-1.62-3.1-1.18-4.8l21.71-83.87c1.16-4.5,4.22-8.28,8.38-10.36l21.02-10.52c2.57-1.28,5.69-.25,6.98,2.32,1.29,2.57.25,5.69-2.32,6.98l-21.02,10.52c-1.47.74-2.55,2.07-2.96,3.66l-19.72,76.19,51.41-8.13c1.88-.3,3.77.46,4.93,1.96l30.39,39.49c1.75,2.28,1.33,5.54-.95,7.29-.94.73-2.06,1.08-3.17,1.08Z"/>
        <path class="cls-1" d="M505.81,860.89c-1.11,0-2.22-.35-3.17-1.08-2.28-1.75-2.7-5.02-.95-7.29l30.39-39.49c1.16-1.51,3.05-2.26,4.93-1.96l51.41,8.13-19.72-76.19c-.4-1.55-1.44-2.86-2.85-3.61l-24.28-10.45c-2.64-1.14-3.86-4.19-2.72-6.83,1.14-2.64,4.19-3.85,6.83-2.72l24.44,10.52c.09.04.18.08.27.13,4.16,2.08,7.21,5.86,8.38,10.36l21.71,83.87c.44,1.7,0,3.5-1.18,4.8-1.18,1.3-2.93,1.91-4.66,1.64l-56.2-8.89-28.51,37.04c-1.02,1.33-2.57,2.03-4.12,2.03Z"/>
        <path class="cls-1" d="M393.19,920.66l-34.83-9.51c-4.29-.23-7.87-3.41-8.53-7.76l-1.53-10.06c-.43-2.84,1.52-5.49,4.36-5.92,2.84-.43,5.49,1.52,5.92,4.36l1.37,9.04,33.08,9.03,43.66-13.32.63-.03c.35-.02.64-.3.67-.65l1.23-14.22c.04-.48-.17-.8-.35-.99-.18-.19-.51-.41-.98-.38l-85.77,5.01c-2.86.17-5.33-2.02-5.49-4.89-.17-2.87,2.02-5.33,4.89-5.5l85.77-5.01c3.38-.18,6.68,1.08,9.04,3.51,2.36,2.43,3.55,5.76,3.26,9.14l-1.23,14.22c-.45,5.24-4.58,9.45-9.73,10.07l-45.42,13.86Z"/>
        <path class="cls-1" d="M394.29,985.35c-2.4,0-4.55-1.66-5.08-4.1-2.68-12.41-2.5-60.38-2.49-62.42.01-2.86,2.34-5.18,5.2-5.18h.02c2.87.01,5.19,2.35,5.18,5.22-.06,13.55.22,50.79,2.25,60.17.61,2.81-1.18,5.57-3.98,6.18-.37.08-.74.12-1.1.12Z"/>
        <path class="cls-1" d="M366.88,987.74c-6.16,0-11.5-4-13.03-9.78-5.66-21.4-4.45-58.25-4.39-59.81.1-2.87,2.52-5.12,5.38-5.02,2.87.1,5.12,2.51,5.02,5.38-.01.37-1.21,36.88,4.05,56.79.32,1.2,1.58,2.1,3.02,2.04,12.88-.15,44.86-.8,63.71-3.78,1.38-.22,2.37-1.29,2.33-2.5-.46-11.15-.22-38.35-.08-54.6.05-5.45.08-9.78.08-12.06,0-2.87,2.33-5.2,5.2-5.2s5.2,2.33,5.2,5.2c0,2.3-.04,6.66-.08,12.15-.14,16.16-.37,43.2.07,54.09.27,6.49-4.5,12.16-11.09,13.2-19.52,3.09-52.11,3.76-65.22,3.91-.05,0-.11,0-.16,0Z"/>
        <path class="cls-1" d="M577.79,923.09l-45.42-13.86c-5.16-.62-9.28-4.84-9.73-10.07l-1.22-14.22c-.29-3.38.9-6.71,3.26-9.14,2.36-2.43,5.67-3.7,9.04-3.51l85.77,5.01c2.87.17,5.06,2.63,4.89,5.5-.17,2.87-2.64,5.03-5.49,4.89l-85.77-5.01c-.49-.03-.8.19-.98.38-.18.19-.4.51-.35.99l1.22,14.22c.03.35.32.63.67.65l.63.03,43.66,13.32,33.08-9.03,1.37-9.04c.43-2.84,3.08-4.79,5.92-4.36,2.84.43,4.79,3.08,4.36,5.92l-1.53,10.06c-.66,4.34-4.24,7.53-8.53,7.76l-34.83,9.51Z"/>
        <path class="cls-1" d="M576.69,987.78c-.36,0-.73-.04-1.1-.12-2.81-.61-4.59-3.37-3.98-6.18,2.03-9.38,2.31-46.62,2.25-60.17-.01-2.87,2.3-5.21,5.18-5.22h.02c2.86,0,5.19,2.31,5.2,5.18,0,2.04.2,50.01-2.49,62.42-.53,2.44-2.68,4.1-5.08,4.1Z"/>
        <path class="cls-1" d="M604.1,990.17c-.05,0-.11,0-.16,0-13.1-.15-45.69-.82-65.22-3.91-6.59-1.04-11.36-6.72-11.09-13.2.45-10.89.21-37.93.07-54.09-.05-5.49-.08-9.85-.08-12.15,0-2.87,2.33-5.2,5.2-5.2s5.2,2.33,5.2,5.2c0,2.28.04,6.61.08,12.06.14,16.25.37,43.46-.08,54.6-.05,1.21.95,2.29,2.33,2.5,18.85,2.98,50.83,3.64,63.71,3.78,1.46.02,2.7-.84,3.02-2.04,5.26-19.91,4.07-56.43,4.05-56.79-.1-2.87,2.15-5.28,5.02-5.38,2.87-.08,5.28,2.15,5.38,5.02.05,1.56,1.26,38.41-4.39,59.81-1.53,5.78-6.87,9.78-13.03,9.78Z"/>
        <g>
          <g>
            <path class="cls-5" d="M378.23,986.2l-165.06,32.63c-4.94.98-9.74-2.24-10.71-7.18l-43.12-218.16c-.98-4.94,2.24-9.74,7.18-10.71l165.06-32.63c4.94-.98,9.74,2.24,10.71,7.18l43.12,218.16c.98,4.94-2.24,9.74-7.18,10.71Z"/>
            <path class="cls-1" d="M211.39,1024.2c-6.69,0-12.69-4.73-14.04-11.54l-43.12-218.16c-.74-3.75.02-7.57,2.15-10.75,2.13-3.18,5.37-5.33,9.12-6.08l165.06-32.63c7.75-1.52,15.29,3.52,16.82,11.27l43.12,218.16c.74,3.75-.02,7.57-2.15,10.74-2.13,3.18-5.37,5.33-9.12,6.08h0l-165.06,32.63c-.93.18-1.86.27-2.78.27ZM333.35,755.18c-.26,0-.51.03-.77.08l-165.06,32.63c-1.03.2-1.91.79-2.49,1.66-.58.87-.79,1.91-.59,2.94l43.12,218.16c.2,1.03.79,1.91,1.66,2.5.87.58,1.91.79,2.94.59l165.06-32.63c1.03-.2,1.91-.79,2.49-1.66.58-.87.79-1.91.59-2.94l-43.12-218.16c-.2-1.03-.79-1.91-1.66-2.5-.65-.44-1.4-.66-2.17-.66ZM378.23,986.2h.01-.01Z"/>
          </g>
          <rect class="cls-8" x="197.82" y="784" width="148.57" height="198.32" transform="translate(-166.09 69.53) rotate(-11.18)"/>
          <rect class="cls-7" x="216.83" y="777.4" width="72.67" height="19.92" transform="translate(-147.87 64.04) rotate(-11.18)"/>
          <path class="cls-1" d="M219.45,809.37c-2.43,0-4.61-1.72-5.1-4.19l-1.93-9.77c-.56-2.82,1.28-5.55,4.09-6.11,2.82-.55,5.55,1.28,6.11,4.09l.92,4.67,61.09-12.08-1.85-9.34-62.57,12.37c-2.82.55-5.55-1.28-6.11-4.09-.56-2.82,1.28-5.55,4.09-6.11l67.67-13.38c1.35-.27,2.76.01,3.9.78,1.15.77,1.94,1.96,2.21,3.31l3.86,19.54c.56,2.82-1.28,5.55-4.09,6.11l-71.29,14.09c-.34.07-.68.1-1.01.1Z"/>
          <path class="cls-1" d="M218.46,1000.04c-1.02,0-2.03-.3-2.89-.88-1.15-.77-1.94-1.96-2.21-3.31l-38.46-194.55c-.56-2.82,1.28-5.55,4.09-6.11l26.73-5.28c2.82-.55,5.55,1.28,6.11,4.09.56,2.82-1.28,5.55-4.09,6.11l-21.63,4.28,36.44,184.35,135.55-26.79-36.44-184.35-22.28,4.4c-2.82.55-5.55-1.28-6.11-4.09-.56-2.82,1.28-5.55,4.09-6.11l27.38-5.41c2.82-.56,5.55,1.28,6.11,4.09l38.46,194.55c.56,2.82-1.28,5.55-4.09,6.11l-145.75,28.81c-.33.07-.67.1-1.01.1Z"/>
          <path class="cls-1" d="M208.01,847.14c-2.43,0-4.61-1.72-5.1-4.19-.56-2.82,1.28-5.55,4.09-6.11l103.93-20.54c2.82-.55,5.55,1.28,6.11,4.09.56,2.82-1.28,5.55-4.09,6.11l-103.93,20.54c-.34.07-.68.1-1.01.1Z"/>
          <path class="cls-1" d="M213.77,876.28c-2.43,0-4.61-1.72-5.1-4.19-.56-2.82,1.28-5.55,4.09-6.11l103.93-20.54c2.82-.55,5.55,1.28,6.11,4.09.56,2.82-1.28,5.55-4.09,6.11l-103.93,20.54c-.34.07-.68.1-1.01.1Z"/>
          <path class="cls-1" d="M219.53,905.43c-2.43,0-4.61-1.72-5.1-4.19-.56-2.82,1.28-5.55,4.09-6.11l103.93-20.54c2.82-.55,5.55,1.28,6.11,4.09.56,2.82-1.28,5.55-4.09,6.11l-103.93,20.54c-.34.07-.68.1-1.01.1Z"/>
          <path class="cls-1" d="M225.29,934.58c-2.43,0-4.61-1.72-5.1-4.19-.56-2.82,1.28-5.55,4.09-6.11l103.93-20.54c2.82-.55,5.55,1.28,6.11,4.09.56,2.82-1.28,5.55-4.09,6.11l-103.93,20.54c-.34.07-.68.1-1.01.1Z"/>
          <path class="cls-1" d="M231.05,963.72c-2.43,0-4.61-1.72-5.1-4.19-.56-2.82,1.28-5.55,4.09-6.11l103.93-20.54c2.82-.55,5.55,1.28,6.11,4.09.56,2.82-1.28,5.55-4.09,6.11l-103.93,20.54c-.34.07-.68.1-1.01.1Z"/>
        </g>
        <path class="cls-8" d="M187.61,1026.01l-26.33-51.12s-8.23-19.49,6.71-31.43l35.62-15.72s11.74,4.36,4.96,19.72c0,0,13.03-5.06,11.61,15.56,0,0,14.27,1.86,10.76,18.01,0,0,12.64,13.3-3.62,25.91l15.92,47.27-29.39,15.22-26.25-43.41Z"/>
        <path class="cls-1" d="M159.01,985.59c-2.53,0-4.75-1.85-5.14-4.44-.13-.85-2.98-20.94,5.6-34.44,1.28-2.01,7.03-7.59,10.2-9.11l25.36-13.21c.17-.09.35-.17.53-.24,5.65-2.18,11.95-.97,16.05,3.07,2.17,2.14,6.63,8.16,1.1,17.72-3.91,6.76-6.5,8.54-8.1,9.28-2.6,1.21-5.7.09-6.91-2.52-1.18-2.54-.14-5.54,2.33-6.82.42-.34,1.74-1.8,3.68-5.16,2.1-3.62,1.05-4.66.6-5.1-1.13-1.11-3.02-1.44-4.78-.86l-25.16,13.11c-.1.05-.21.11-.32.15-1.28.76-5.08,4.28-5.86,5.34-6.43,10.13-4.06,27.09-4.03,27.26.41,2.84-1.55,5.48-4.39,5.9-.26.04-.51.06-.76.06ZM173.98,947.07s-.09.04-.13.05c.04-.02.09-.03.13-.05ZM200.22,944.79s0,0,0,0c0,0,0,0,0,0Z"/>
        <path class="cls-1" d="M166.26,1000.04c-.17,0-.34,0-.51-.03-2.86-.28-4.95-2.82-4.67-5.68.26-2.61,2.66-25.75,8.18-34.27,1.56-2.4,3.88-4.25,6.71-5.34l29.59-11.4c5.65-2.17,11.95-.97,16.05,3.07,2.27,2.24,3.49,6.42,3.18,10.92-.4,5.89-3.21,11.07-7.91,14.58-2.3,1.72-5.56,1.25-7.28-1.05-1.72-2.3-1.25-5.56,1.05-7.28,4.49-3.36,3.95-8.68,3.44-9.97-1.2-1-3.09-1.24-4.8-.58l-29.59,11.4c-.76.29-1.37.75-1.72,1.29-3.13,4.83-5.68,20.74-6.56,29.63-.26,2.69-2.53,4.69-5.17,4.69Z"/>
        <path class="cls-1" d="M176.4,1013.68c-.23,0-.46-.01-.69-.05-2.85-.38-4.85-2.99-4.47-5.83.09-.7,2.34-17.37,8.61-28.58,1.39-2.48,3.77-4.43,6.89-5.63l29.59-11.4c5.65-2.17,11.95-.97,16.05,3.07,2.17,2.14,6.63,8.16,1.1,17.72-.16.27-.41.93-.62,1.47-.83,2.16-2.08,5.41-5.36,6.95-2.6,1.21-5.7.09-6.91-2.52-1.11-2.39-.26-5.19,1.91-6.58.2-.39.47-1.09.66-1.58.35-.92.75-1.96,1.32-2.95,2.1-3.62,1.05-4.66.6-5.1-1.18-1.16-3.19-1.47-5.01-.77l-29.59,11.4c-1,.38-1.44.81-1.55,1-5.28,9.45-7.35,24.71-7.37,24.87-.35,2.61-2.58,4.52-5.15,4.52ZM223.1,981.97s0,0,0,0c0,0,0,0,0,0Z"/>
        <path class="cls-1" d="M188.78,1038.66c-2.8,0-5.11-2.23-5.19-5.05-.19-6.58-.42-28.63,4.47-36.18,1.44-2.22,3.59-3.93,6.21-4.94l26.04-10.03c5.2-2,11-.89,14.79,2.84,2.02,1.99,6.16,7.56,1.07,16.35-2.08,3.6-4.17,5.82-6.56,6.96l-17.04,8.7c-2.56,1.31-5.69.29-7-2.27-1.31-2.56-.29-5.69,2.27-7l17.11-8.74c.06-.03.11-.06.17-.08h0s.74-.52,2.05-2.79c1.6-2.77.92-3.44.63-3.73-.87-.85-2.37-1.07-3.75-.54l-26.04,10.03c-.54.21-.98.53-1.22.89-2.17,3.34-3.14,18.29-2.8,30.22.08,2.87-2.18,5.26-5.05,5.35-.05,0-.1,0-.15,0Z"/>
        <path class="cls-1" d="M208.63,1065.96c-1.5,0-2.99-.64-4.01-1.89-28.17-34.15-49.41-79.56-50.31-81.48-1.21-2.6-.08-5.7,2.52-6.91,2.6-1.21,5.7-.08,6.91,2.52.21.46,21.6,46.14,48.9,79.25,1.83,2.22,1.51,5.49-.7,7.32-.97.8-2.14,1.19-3.31,1.19Z"/>
        <path class="cls-1" d="M237.54,1047.01c-2.61,0-4.86-1.96-5.16-4.61-1.64-14.39-7.56-27.41-7.62-27.54-1.2-2.61-.06-5.7,2.55-6.9,2.61-1.2,5.69-.06,6.89,2.55.27.59,6.67,14.61,8.51,30.71.33,2.85-1.72,5.43-4.58,5.76-.2.02-.4.03-.6.03Z"/>
        <path class="cls-1" d="M213.98,1075.1c-2.32,0-4.44-1.57-5.04-3.92-.71-2.78.97-5.61,3.76-6.32,8.67-2.2,23.93-7.8,28.79-20.53,1.02-2.68,4.03-4.03,6.71-3,2.68,1.02,4.03,4.03,3,6.71-6.53,17.12-25.32,24.2-35.94,26.9-.43.11-.86.16-1.29.16Z"/>
        <path class="cls-1" d="M265.75,1070.54c-.12,0-.24,0-.36-.01-2.87-.19-5.03-2.67-4.84-5.54.09-1.36.1-2.79.03-4.23-.05-.97-.39-1.93-.98-2.78-.04-.06-.08-.12-.12-.19l-6.64-10.5c-1.54-2.43-.81-5.64,1.62-7.17,2.43-1.54,5.64-.81,7.17,1.62l6.59,10.42c1.66,2.43,2.61,5.23,2.75,8.1.09,1.85.08,3.68-.04,5.44-.19,2.75-2.47,4.85-5.18,4.85Z"/>
        <path class="cls-1" d="M269.42,1047.01c-.54,0-1.09-.08-1.63-.26-2.73-.9-4.21-3.84-3.31-6.57.23-.71.61-1.81,1.08-3.18,1.85-5.41,5.29-15.48,6.64-21.18.66-2.79,3.47-4.52,6.26-3.86,2.79.66,4.52,3.46,3.86,6.26-1.47,6.19-5.01,16.57-6.92,22.14-.45,1.32-.81,2.38-1.04,3.07-.72,2.19-2.75,3.57-4.94,3.57Z"/>
        <path class="cls-1" d="M341.07,1072.27c-2.7,0-4.98-2.08-5.18-4.82-2.46-33.38-4.3-58.68-4.3-58.68-.21-2.86,1.94-5.36,4.81-5.57,2.86-.19,5.35,1.94,5.56,4.81,0,0,1.85,25.3,4.3,58.68.21,2.86-1.94,5.36-4.8,5.57-.13,0-.26.01-.39.01Z"/>
        <path class="cls-1" d="M628.51,1072.69c-2.82,0-5.13-2.25-5.2-5.08-.75-33.9-1.73-61.38-1.74-61.66-.1-2.87,2.14-5.28,5.01-5.38,2.87-.13,5.28,2.14,5.38,5.01,0,.27.99,27.83,1.74,61.79.06,2.87-2.21,5.25-5.08,5.31-.04,0-.08,0-.12,0Z"/>
        <path class="cls-1" d="M814.5,872.97c-.72,0-1.45-.03-2.17-.1l-93.13-8.89c-5.96-.57-11.35-3.43-15.16-8.04-3.81-4.62-5.6-10.45-5.03-16.41l13-136.17c.57-5.96,3.43-11.35,8.05-15.16,4.62-3.81,10.45-5.6,16.41-5.03l93.13,8.89c5.96.57,11.35,3.43,15.16,8.04,3.81,4.62,5.6,10.45,5.03,16.41l-4.83,50.64c-.27,2.86-2.82,4.95-5.67,4.68-2.86-.27-4.96-2.81-4.68-5.67l4.83-50.64c.31-3.2-.65-6.32-2.7-8.8-2.05-2.48-4.93-4.01-8.13-4.31l-93.13-8.89c-3.2-.31-6.32.65-8.8,2.7-2.48,2.05-4.01,4.93-4.31,8.13l-13,136.17c-.31,3.2.65,6.32,2.7,8.8,2.05,2.48,4.93,4.01,8.13,4.31l93.14,8.89c3.2.31,6.32-.65,8.8-2.7,2.48-2.05,4.01-4.93,4.31-8.13.27-2.86,2.82-4.95,5.67-4.68,2.86.27,4.95,2.81,4.68,5.67-.57,5.96-3.43,11.35-8.04,15.16-4.06,3.35-9.04,5.14-14.24,5.14Z"/>
        <path class="cls-1" d="M769.11,936.56c-.62,0-1.24-.11-1.85-.34-2.68-1.02-4.03-4.03-3-6.71l9.52-24.92c-21.27-4.96-37.02-14.62-44.05-19.54-6.25,7-14.38,15.94-16.53,17.49-2.33,1.68-5.58,1.15-7.26-1.18-1.68-2.33-1.15-5.58,1.18-7.26,1.54-1.24,10.38-10.91,17.99-19.51,1.86-2.1,5.04-2.35,7.21-.56.19.16,20.14,16.34,49.41,21.59,1.52.27,2.85,1.21,3.61,2.56.76,1.35.88,2.97.33,4.41l-11.7,30.63c-.79,2.07-2.77,3.35-4.86,3.35Z"/>
        <path class="cls-1" d="M759.08,938.17c-.09,0-.18,0-.28,0-33.28-1.75-46.43-26.11-46.97-27.15-1.33-2.54-.35-5.69,2.19-7.02,2.54-1.33,5.67-.36,7.01,2.17.48.88,11.17,20.18,38.31,21.61,2.87.15,5.07,2.6,4.92,5.47-.15,2.77-2.44,4.93-5.19,4.93Z"/>
        <g>
          <path class="cls-6" d="M829.74,671.52c-.5,0-1.02-.08-1.52-.24-2.57-.84-3.97-3.6-3.13-6.16l6.72-20.56c.84-2.57,3.6-3.97,6.17-3.13,2.57.84,3.97,3.6,3.13,6.16l-6.72,20.56c-.67,2.06-2.59,3.37-4.65,3.37Z"/>
          <path class="cls-6" d="M810.78,667.67c-2.31,0-4.36-1.64-4.8-4l-3.43-18.49c-.49-2.65,1.26-5.21,3.91-5.7,2.65-.49,5.21,1.26,5.7,3.91l3.43,18.49c.49,2.65-1.26,5.2-3.91,5.7-.3.06-.6.08-.9.08Z"/>
          <path class="cls-6" d="M848.17,678.75c-1.21,0-2.42-.45-3.37-1.35-1.96-1.86-2.04-4.95-.17-6.91l12.96-13.63c1.86-1.96,4.95-2.04,6.91-.17,1.96,1.86,2.04,4.95.17,6.91l-12.96,13.63c-.96,1.01-2.25,1.52-3.54,1.52Z"/>
        </g>
      </g>
      <g>
        <g>
          <g>
            <rect class="cls-4" x="678.2" y="5.65" width="286.43" height="509.7"/>
            <path class="cls-1" d="M965.15,520.97c-.18.02-.36.03-.54.03h-286.43c-3.12,0-5.64-2.54-5.64-5.65l.02-509.7c0-1.5.59-2.93,1.65-3.99,1.06-1.06,2.49-1.66,3.99-1.65h286.43c3.12,0,5.64,2.54,5.64,5.65l-.02,509.7c0,1.5-.59,2.93-1.65,3.99-.93.93-2.15,1.5-3.45,1.63ZM683.83,509.7h275.14s.02-498.4.02-498.4h-275.14s-.02,498.4-.02,498.4Z"/>
          </g>
          <path class="cls-1" d="M965.17,284.55c-.18.02-.36.03-.54.03h-286.43c-3.12,0-5.64-2.54-5.64-5.65,0-3.12,2.54-5.64,5.64-5.64h286.43c3.12,0,5.64,2.54,5.64,5.65,0,2.93-2.24,5.34-5.1,5.62Z"/>
          <path class="cls-1" d="M965.17,48.14c-.18.02-.36.03-.54.03h-286.43c-3.12,0-5.64-2.54-5.64-5.65,0-3.12,2.54-5.64,5.64-5.64h286.43c3.12,0,5.64,2.54,5.64,5.65,0,2.93-2.24,5.34-5.1,5.62Z"/>
          <path class="cls-1" d="M821.96,305.07c-.18.02-.36.03-.54.03-3.12,0-5.64-2.53-5.64-5.64V48.16c.01-3.12,2.54-5.65,5.65-5.64,3.12,0,5.64,2.53,5.64,5.64v251.3c-.01,2.93-2.25,5.34-5.11,5.62Z"/>
          <path class="cls-1" d="M821.96,512.68c-.18.02-.36.03-.54.03-3.12,0-5.64-2.53-5.64-5.64v-216.85c.01-3.12,2.54-5.65,5.65-5.64,3.12,0,5.64,2.53,5.64,5.64v216.85c-.01,2.93-2.25,5.34-5.11,5.62Z"/>
        </g>
        <path class="cls-1" d="M840.94,252.8c-2.64-.4-4.66-2.69-4.66-5.44v-44.73c.01-3.04,2.48-5.5,5.51-5.5,3.04,0,5.5,2.47,5.5,5.5v44.73c-.01,3.04-2.48,5.5-5.51,5.5-.28,0-.56-.02-.84-.06Z"/>
        <path class="cls-1" d="M797.81,252.8c-2.64-.4-4.66-2.69-4.66-5.44v-44.73c.01-3.04,2.48-5.5,5.51-5.5,3.04,0,5.5,2.47,5.5,5.5v44.73c-.01,3.04-2.48,5.5-5.51,5.5-.28,0-.56-.02-.84-.06Z"/>
        <path class="cls-1" d="M840.94,359.86c-2.64-.4-4.66-2.69-4.66-5.44v-44.73c.01-3.04,2.48-5.5,5.51-5.5,3.04,0,5.5,2.47,5.5,5.5v44.73c-.01,3.04-2.48,5.5-5.51,5.5-.28,0-.56-.02-.84-.06Z"/>
        <path class="cls-1" d="M797.81,359.86c-2.64-.4-4.66-2.69-4.66-5.44v-44.73c.01-3.04,2.48-5.5,5.51-5.5,3.04,0,5.5,2.47,5.5,5.5v44.73c-.01,3.04-2.48,5.5-5.51,5.5-.28,0-.56-.02-.84-.06Z"/>
      </g>
    </g>
  </g>
</svg>