<?xml version="1.0" encoding="UTF-8"?><svg id="_レイヤー_2" xmlns="http://www.w3.org/2000/svg" viewBox="0 0 226.8 142.06"><defs><style>.cls-1{fill:#ffdc00;}.cls-2{fill:#ccc;}</style></defs><g id="_レイヤー_1-2"><path d="m151.08,124.29h35.53c-.18-3.24-.72-6.34-1.24-9.45-.14-.83-.34-1.64-.44-2.47-.15-1.28-.07-2.6-1.63-3.21-.55-.21-.81-.85-.83-1.5-.05-1.32.11-2.63.28-3.94.12-.91.79-1.05,1.59-1.07,2.99-.07,5.99-.25,8.98-.12q1.88.08,1.91-1.81c0-.48,0-.95,0-1.39-.62-.24-1,.16-1.43.33-3.82,1.56-8.21.11-10.3-3.44-.77-1.31-.55-2.22.84-2.95,3.09-1.62,6.2-1.6,9.28.05.26.14.51.31.77.47.25.15.5.31.87.53.47-1.27.24-2.49.29-3.68-.63-.24-1.1.1-1.61.19-2.66.49-5.16.19-7.2-1.77-.96-.92-1.82-1.99-1.43-3.46.4-1.52,1.78-1.88,3.06-2.15,2-.42,3.93-.06,5.7,1.01.45.28.88.6,1.42.97.31-.94.12-1.53-.6-2.18-2.52-2.31-3-5.2-2.05-8.38.43-1.44,1.19-2.75,2.19-3.89,1.17-1.33,2.14-1.34,3.29-.03,1.54,1.75,2.57,3.71,2.82,6.08.27,2.67-.54,4.87-2.68,6.46-.74.55-.82,1.07-.63,1.89,1.28-.73,2.41-1.62,3.92-1.75,1.47-.13,2.87.06,4.23.58,1.19.46,1.5,1.15,1.15,2.41-.9,3.27-4.4,5.33-7.71,4.55-.52-.12-1.03-.32-1.6-.5-.31,1-.24,2-.28,3,.17.01.32.08.39.02,3.11-2.42,6.5-1.94,9.93-.94.58.17,1.09.5,1.52.92.84.82.98,1.61.31,2.56-1.52,2.15-3.46,3.6-6.22,3.73-2.05.09-4.06-.01-6.08-.89-.08,1.09-.17,2.04-.22,2.98-.04.64.45.6.86.6,1.38,0,2.76-.04,4.13-.05,1.74-.02,3.48-.1,5.21.12,1.28.16,1.54.42,1.56,1.71.02,1.26-.05,2.52-.09,3.77,0,.23-.02.52-.15.69-1.3,1.62-1.33,3.65-1.8,5.53-.81,3.25-1.5,6.52-2.25,9.78.62.31,1.23.18,1.81.18,5.99.01,11.98,0,17.98.01.54,0,1.09-.01,1.6.1.42.09.73.43.75.91.02.49-.29.78-.7.94-.27.1-.58.12-.88.13-.48.02-.96,0-1.44,0-24.03,0-48.06,0-72.08,0-1.07,0-2.17-.19-2.67,1.19-.16.45-.71.53-1.23.53-8.57.04-17.13.11-25.7.17-1.44.01-2.88.03-4.31.09-1.26.05-2.47.28-3.66.77-2.72,1.13-5.64.95-8.5,1.15-3.17.22-6.35.13-9.52.05-.91-.02-1.74-.1-2.09,1.12-.29.99-1.28,1.1-2.23,1.15-4.01.2-8.02.37-12.02.68-9.8.78-19.64.59-29.45,1.12-.36.02-.72.01-1.08.02-1.02.01-2.21-.31-3,.12-.89.47-1.05,1.81-1.49,2.78-.47,1.03-.83,2.12-1.25,3.17-.15.39-.29.8-.53,1.13-.27.37-.7.44-1.13.27-.37-.15-.57-.48-.54-.85.04-.41.15-.82.28-1.21.68-2.18,1.65-4.24,2.67-6.27.26-.53.39-.92,0-1.46-1.92-2.73-2.96-5.86-4.1-8.95-1.45-3.93-2.96-7.84-4.45-11.75-.28-.73-.48-1.47-.59-2.25-.09-.64-.14-1.26.63-1.45.85-.21,1.17.37,1.36,1.07.14.52.22,1.06.4,1.56,2.17,5.77,4.35,11.53,6.56,17.28.54,1.4,1.41,2.63,2.23,3.89.43.66.97.98,1.79.93,1.85-.12,3.71-.17,5.56-.24,7.42-.26,14.86-.26,22.28-.73,5.08-.32,10.15-.82,15.25-.85.77,0,1.19-.31,1.43-1.05.95-2.9,1.1-5.88.83-8.88-.11-1.22-.34-1.38-1.62-1.39-7.97-.09-15.93-.64-23.9-.23-1.99.1-2.57-.36-2.96-2.29-.44-2.17-.84-4.35-1.27-6.52-1.61-8.06-4.75-15.56-8.6-22.75-3.06-5.73-7.77-9.98-13.39-13.2-1.45-.83-3.01-1.47-4.5-2.22-.92-.46-1.91-.68-2.91-.89-1.75-.38-3.23-.04-4.54,1.33-1.82,1.91-3.54,3.9-5.14,6-7.95,10.44-13.94,21.88-17.61,34.5-2.04,7.03-3.35,14.21-4.49,21.42-.15.95-.27,1.9-.43,2.84-.19,1.19-.64,1.72-1.31,1.58-.69-.14-.89-.67-.74-1.95.03-.24.09-.47.13-.71.19-1.18.36-2.37.55-3.55,1.55-9.71,3.54-19.3,7.11-28.51,4.3-11.1,10.33-21.17,17.93-30.32,1.53-1.85,3.18-3.6,5.3-4.8.64-.36.91-.95,1.15-1.55.62-1.56,1.37-3.06,2.17-4.5-.14-.56-.63-.51-1-.65-2.77-1.05-5.29-2.5-7.59-4.36-1.98-1.6-3.35-3.58-4.05-6.01-2.83-9.77-1.52-18.72,5.32-26.55.51-.59,1.05-1.15,1.59-1.71.54-.56,1.12-1.09,1.62-1.58.08-.56-.34-.65-.58-.87-3.5-3.15-4.88-7.02-3.79-11.64,1.22-5.14,6.45-8.67,11.35-7.73,5.06.97,7.93,5.52,6.83,10.82-.12.58-.3,1.16-.46,1.75.73.37,1.39-.12,2.07-.22,6.15-.91,12.04.04,17.74,2.4,3.88,1.61,7.48,3.75,11.13,5.8,2.11,1.19,3.87,2.81,5.32,4.76,1.06,1.42,1.77,3.01,1.99,4.75.34,2.8-.48,5.24-2.71,7.05-.73.59-1,1.2-1.05,2.11-.23,4.21-1.12,8.3-2.42,12.3-.29.88-.22,1.5.36,2.28,1.94,2.61.11,5.87-2.37,6.11-1.43.14-2.15.94-2.87,2.04-1.75,2.68-3.87,5.04-6.7,6.65-3.71,2.12-7.54,2.65-11.45.55-.7-.38-1.04-.25-1.44.36-.87,1.36-1.76,2.71-2.7,4.03-.41.58-.33.92.2,1.33.61.48,1.17,1.03,1.74,1.55,4.2,3.84,7.02,8.62,9.19,13.79,1.09,2.59,2.27,5.14,3.23,7.79,1.81,5.03,3.03,10.21,3.87,15.47.31,1.93.36,1.72,2.01,1.66,7.01-.22,14.03-.09,21.03.23,3.67.17,7.25-.02,10.87-.62,4.04-.66,7.85.27,11.34,2.42.57.35,1.14.64,1.75.88.5.2,1.13.3,1.45.67,1.35,1.55,3.11,1.24,4.82,1.24,7.85-.02,15.7-.05,23.55-.06.63,0,1.07,0,1.41-.73,1.83-3.84,3.81-7.6,5.6-11.45,3.9-8.35,7.72-16.73,11.57-25.1.15-.33.28-.66.44-.98.66-1.35.76-1.41,2.2-1.24,1.07.13,2.15.22,3.21.41,2,.35,2.3.95,1.4,2.79-3.08,6.29-6.15,12.58-8.94,19-2.65,6.1-5.63,12.03-8.58,17.98-.26.53-.5,1.06-.82,1.76ZM75.37,40.65c-7.04,2.42-14.36,3.66-21.67,4.88-1.29.22-2.32.05-3.07-1.2-.57-.95-1.57-1.01-2.56-.74-2.14.57-4.42,3.3-4.63,5.5-.18,1.97.86,3.58,2.92,4.46.6.26,1.25.42,1.85.69.48.22.74.64.55,1.18-.15.42-.49.68-.97.64-.35-.03-.71-.08-1.06-.18-1.28-.35-2.42-.98-3.45-1.89-.87.83-1.42,1.83-2.05,2.77-1.13,1.69-2.08,3.53-3.4,5.06-1.84,2.13-2.88,4.6-3.99,7.21,1.51.41,2.93.61,4.23,1.24,2.58,1.26,5.24,2.38,7.54,4.13.64.49.97.39,1.39-.28.95-1.52,1.95-3.02,3.01-4.47.96-1.32,1.64-1.42,3.06-.68.37.19.72.43,1.1.6,2.73,1.25,5.37.93,8.11-.39-.29-.31-.46-.48-.61-.66-1.57-1.9-1.37-4.16.55-5.68,1.79-1.42,3.76-1.52,5.7-.39.85.49,1.3.41,1.67-.42.61-1.33,1.63-2,3.1-2.05.9-.03,1.67-.39,1.98-1.29.33-.97-.01-1.79-.85-2.34-.89-.59-.81-1.29-.52-2.18.62-1.87,1.17-3.77,1.65-5.68.64-2.55.95-5.15,1.18-7.92-.43.04-.62.03-.78.09Zm125.98,83.74c.94.01,1.23-.35,1.42-1.17.94-4.2,1.93-8.39,2.89-12.59.05-.21.14-.47-.34-.75-6.04.09-12.3-.17-18.61.01.58,4.94,1.76,9.54,1.94,14.47,4.34,0,8.53-.03,12.71.03Zm-90.63,3.49c1.41-.12,2.81-.57,4.06-1.29,1.16-.67,1.39-1.74.7-2.88-.53-.87-1.35-1.31-2.25-1.66-.55-.21-1.12-.32-1.62-.69-4.84-3.63-10.19-3.04-15.61-1.82-.38.08-.63.23-.54.73.47,2.63.03,5.23-.26,7.97,5.31.42,10.42.07,15.53-.35Zm84.86-20.04c3.23,0,6.46,0,9.68,0,1.86,0,1.48.06,1.57-1.52.1-1.69.09-1.71-1.56-1.71-6.34,0-12.67,0-19.01,0-.24,0-.48.03-.72,0-.71-.06-.96.34-1,.96-.02.24-.03.48-.04.72-.06,1.49-.06,1.51,1.39,1.52,3.23.01,6.46,0,9.68,0v.03ZM62.86,65.23c-.4.84-.08,1.59.79,2.3.76.62,1.19.1,1.66-.34.56-.53,1.12-1.07,1.64-1.65.69-.76.6-1.14-.36-1.51-.38-.15-.81-.19-1.04-.24-1.23,0-2.28.61-2.68,1.44Zm6.23-15.54c-1.07-.03-2.12.94-2.14,1.98-.01.99.93,1.97,1.9,2,1.04.02,1.96-.96,1.98-2.11,0-1.03-.75-1.84-1.75-1.87Z"/><path d="m92.66,34.48c.82-.08,1.27.1,1.44.61.21.62-.11,1.07-.67,1.27-.9.33-1.8.64-2.73.86-.57.14-1.07-.11-1.25-.73-.15-.54.09-.98.59-1.16.95-.35,1.92-.63,2.62-.85Z"/><path d="m92.58,48.81c-.01.65-.62,1.12-1.26.85-1.1-.47-2.04-1.21-2.88-2.06-.25-.25-.27-.65-.05-1,.21-.34.51-.5.89-.49.66.01,3.05,1.77,3.25,2.37.04.11.05.23.07.33Z"/><path d="m91.35,40.56c.47,0,.95-.04,1.42,0,.61.06.99.44.97,1.05-.02.54-.41.85-.92.92-.88.12-1.77.1-2.64-.05-.59-.1-1.01-.43-.97-1.06.03-.63.48-.9,1.09-.91.35,0,.71,0,1.06,0,0,.02,0,.03,0,.05Z"/><path class="cls-1" d="m22.4,43.03c-.1-3.97.82-8.29,3.34-12.21,2.75-4.29,6-8.06,10.77-10.25.6-.27,1.18-.6,1.71-.98,4.66-3.29,9.84-3.92,15.39-3.34,4.13.43,7.94,1.71,11.61,3.49,2.79,1.36,5.49,2.89,8.19,4.43,1.89,1.08,3.51,2.5,4.81,4.26,1.14,1.54,1.78,3.23,1.65,5.19-.15,2.27-1.44,3.87-3.59,4.61-7.1,2.44-14.42,3.89-21.8,5.11-1.03.17-1.87.22-2.68-.77-.93-1.14-2.36-1.31-3.8-1.04-3.52.66-6.8,4.77-6.65,8.35,0,.18-.04.39.04.53.9,1.56-.08,2.63-.9,3.81-1.27,1.81-2.41,3.71-3.64,5.56-.82,1.24-.98,1.31-2.35.83-3.15-1.09-5.96-2.75-8.39-5.05-1.17-1.11-1.85-2.48-2.35-3.97-.86-2.57-1.22-5.24-1.35-8.56Z"/><path class="cls-2" d="m117.87,126.29c.04-.78.07-1.44.1-2.07.37-.34.81-.22,1.22-.23,7.18-.05,14.37-.1,21.55-.13,1.26,0,2.51.04,3.77.13.97.07,1.55-.31,1.96-1.2,3.36-7.4,7.32-14.51,10.49-22.02,2.13-5.07,4.59-9.99,6.91-14.98.68-1.46.69-1.46,2.26-1.19.41.07.81.17,1.3.27-.99,2.07-1.92,4.07-2.9,6.05-2.53,5.09-4.75,10.32-7.11,15.48-2.82,6.14-5.74,12.23-8.91,18.2-.56,1.06-1.2,1.53-2.48,1.53-8.32-.02-16.64.33-24.96.16-1.01-.02-2.02,0-3.19,0Z"/><path class="cls-1" d="m27.58,12.9c.11-5.33,3.66-9.02,8.19-9.02,3.44,0,6.21,2.51,6.48,5.94.12,1.63-.17,3.22-.92,4.7-.33.65-.76,1.19-1.4,1.59-2.28,1.43-4.61,2.78-6.98,4.06-.69.38-1.12.17-1.6-.19-2.55-1.89-3.62-4.51-3.76-7.08Z"/><path class="cls-1" d="m196.69,72.25c1.64,1.71,2.44,3.58,2.47,5.78.02,1.27-.47,2.34-1.27,3.27-.81.94-1.19.94-2.03.05-1.39-1.49-1.62-3.32-1.25-5.2.27-1.41.97-2.67,2.08-3.89Z"/><path class="cls-1" d="m207.87,95.08c-2.19,3.09-6.38,3.85-9.74,1.87,1.58-3.13,5.65-3.94,9.74-1.87Z"/><path class="cls-1" d="m194.75,96.84c-4.11,2.3-7.57,1.63-9.28-1.74,3.2-1.74,6.63-1.12,9.28,1.74Z"/><path class="cls-1" d="m195,88.22c-3.47,1.57-6.53.71-7.63-2.12,2.77-1.56,5.66-.76,7.63,2.12Z"/><path class="cls-1" d="m200.71,89.25c-.73-.13-1.91,0-2.18-.89-.25-.82.74-1.39,1.41-1.86,1.29-.91,2.7-1.15,4.23-.7.94.28,1.03.46.55,1.34-.67,1.23-2.32,2.13-4.01,2.12Z"/><path d="m149.52,63.33c-.43,0-.83-.25-1.01-.64l-3.42-7.12c-13.64-2.3-23.87-14.07-23.89-27.63-.01-7.26,2.99-14.44,8.25-19.7,5.3-5.31,12.3-8.24,19.69-8.24s14.38,2.93,19.68,8.24c5.26,5.27,8.27,12.45,8.25,19.7-.03,13.37-9.75,24.86-23.19,27.52l-3.34,7.22c-.18.39-.58.65-1.01.65h0Zm-.38-61.08c-6.8,0-13.22,2.69-18.1,7.58-4.84,4.85-7.6,11.45-7.59,18.11.03,12.65,9.73,23.62,22.57,25.51.37.05.69.29.85.63l2.64,5.5,2.58-5.58c.15-.33.46-.57.82-.63,12.47-2.22,21.89-13.14,21.92-25.42h0c.01-6.66-2.76-13.26-7.6-18.11-4.88-4.89-11.3-7.58-18.09-7.58Z"/><polygon class="cls-1" points="136.59 36.31 138.99 36.31 138.99 34.04 136.59 34.04 136.59 30.87 138.99 30.87 138.99 28.6 136.59 28.6 136.59 25.43 138.99 25.43 138.99 23.16 136.59 23.16 136.59 19.99 138.99 19.99 138.99 17.72 136.59 17.72 136.59 14.09 134 14.09 134 42.97 162.88 42.97 162.88 40.39 136.59 40.39 136.59 36.31"/><polygon class="cls-1" points="147.07 29.59 153.27 33.72 159.24 25.19 161.98 27.11 162.88 16.74 153.45 21.14 156.19 23.05 152.31 28.6 146.08 24.44 139.65 33.83 142.73 35.94 147.07 29.59"/></g></svg>