<?xml version="1.0" encoding="UTF-8"?>
<svg id="_レイヤー_2" data-name="レイヤー 2" xmlns="http://www.w3.org/2000/svg" viewBox="0 0 239.4 333.17">
  <defs>
    <style>
      .cls-1 {
        fill: #ffc000;
      }

      .cls-1, .cls-2, .cls-3, .cls-4, .cls-5, .cls-6, .cls-7 {
        stroke-width: 0px;
      }

      .cls-2 {
        fill: #333;
      }

      .cls-3 {
        fill: #a5a5a5;
      }

      .cls-4 {
        fill: #d47d00;
      }

      .cls-5 {
        fill: #ebb44d;
      }

      .cls-6 {
        fill: #3c3c3c;
      }

      .cls-7 {
        fill: #fff;
      }
    </style>
  </defs>
  <g id="content_12" data-name="content 12">
    <path class="cls-1" d="M37.9,163.98c1.05,2.93,1.25,6.11.53,8.93-.23.9-.51,1.76-.84,2.59-.9-1.6-2.67-2.82-4.38-3.48.03-.15.07-.3.1-.45.19-.76.45-1.53.78-2.28,0,0,0-.02.01-.02,0,0,0,0,0,0,0,0,0,0,0,0,0,0,0-.01,0-.02.13-.25.26-.51.38-.79,0,0,0,0,0,0,0,0,0-.02.01-.02.93-1.67,2.06-3.15,3.38-4.43Z"/>
    <path class="cls-1" d="M30.25,158.15c.8-1.17,1.67-2.11,2.32-2.73,1.3,2.78,1.69,5.86,1.06,8.63-.29,1.28-.66,2.43-1.1,3.43-.03.06-.07.13-.09.19,0,0,0,0,0,0-.02.03-.03.07-.05.1-.02.03-.03.07-.05.1h0c-.07.14-.13.28-.2.42,0,0,0,0,0,0,0,0,0,0,0,.01-.48.89-1.02,1.55-1.56,1.93-.46.18-1.02.33-1.23.32,0,0,0,0-.01,0-.04,0-.07-.02-.11-.04-.05-.02-.09-.04-.14-.06-.03-.01-.06-.03-.09-.04-.15-.08-.28-.19-.39-.32-.02-.02-.04-.04-.06-.07-.13-.16-.24-.34-.33-.55-.02-.04-.03-.08-.05-.12-.02-.04-.03-.09-.05-.13-.01-.04-.03-.09-.04-.14-.04-.13-.08-.27-.11-.42,0-.06-.02-.11-.03-.17,0-.06-.02-.13-.03-.2-.03-.2-.05-.41-.07-.62,0-.06,0-.11-.01-.17,0-.09,0-.17-.01-.26,0-.13,0-.27-.01-.41,0-.28,0-.57,0-.86,0-.16,0-.31,0-.47v-.06s0-.01,0-.01c0-.09.01-.17.02-.25,0-.1.02-.2.03-.3,0-.06.01-.11.02-.16,0-.06.01-.11.02-.17,0-.06.01-.12.02-.17,0-.06.01-.12.02-.18,0-.02,0-.04,0-.05,0-.02,0-.04,0-.06,0-.03,0-.05.01-.08,0,0,0-.01,0-.02,0,0,0-.01,0-.02h0s0-.02,0-.02h0c.06-.35.12-.72.2-1.09.09-.46.22-.93.38-1.38,0-.01,0-.03.01-.04,0,0,0,0,0,0,0,0,0-.02,0-.03,0,0,0,0,0,0,0,0,0,0,0,0h0s0-.01,0-.02c0,0,0,0,0,0h0c.07-.2.14-.4.23-.6h0c.08-.2.17-.4.26-.6.06-.14.13-.27.2-.41.05-.1.11-.2.16-.3.11-.2.22-.4.34-.6.06-.1.12-.2.19-.3.09-.14.18-.27.27-.41Z"/>
    <path class="cls-1" d="M24.77,148.76c1.89,2.68,3.09,5.65,3.43,8.49-.02.03-.03.06-.05.08-.02.03-.04.07-.06.1-.08.13-.16.26-.24.39,0,0-.01.02-.02.02-.02.03-.04.06-.05.09-.02.03-.04.06-.05.09,0-.01-.01-.02-.02-.04-.05-.11-.09-.21-.15-.32-.39-.84-.85-1.63-1.33-2.38-.11-.17-.23-.35-.34-.52-.03-.04-.05-.08-.08-.12-.13-.19-.26-.37-.39-.56-.12-.17-.24-.33-.36-.49-.16-.23-.33-.45-.49-.66-.07-.09-.14-.18-.21-.26-.04-.05-.08-.1-.12-.15-.07-.08-.14-.16-.21-.24-.02-.02-.04-.05-.07-.08-.23-.26-.46-.52-.69-.76.42-1.19,1.02-2.1,1.51-2.7Z"/>
    <path class="cls-1" d="M21.22,152.56s0,0,0,0c0,0,.01.01.02.02,0,0,.02.01.02.02,0,0,0,0,.01.01h0c.35.34.66.65.92.95.04.04.08.08.11.13.04.05.08.09.12.14.12.15.24.3.36.45.2.27.41.54.61.82.16.23.33.45.48.68.06.09.13.18.19.27.8,1.18,1.54,2.47,2.01,3.85.04.1.07.2.1.3.03.1.06.2.09.3.05.17.09.33.12.5h0c-.02.06-.04.12-.05.18-.04.11-.07.22-.1.33-.03.09-.05.18-.07.27-.03.09-.05.19-.07.29-.03.12-.05.24-.08.36-.02.09-.04.18-.06.28-.09-.02-.17-.04-.25-.05-.14-.03-.28-.06-.42-.08-.11-.02-.23-.04-.34-.05-.08-.01-.16-.02-.24-.03-.06,0-.12-.01-.18-.02-.06,0-.12-.01-.17-.02-.03,0-.07,0-.1,0-.02-.01-.05-.03-.07-.05-.08-.05-.15-.1-.22-.16-.06-.04-.11-.08-.16-.12-.07-.05-.15-.11-.22-.17-.03-.02-.06-.05-.09-.08-.09-.07-.17-.14-.26-.21-.04-.03-.08-.07-.12-.1-.08-.07-.17-.14-.25-.22-.01,0-.02-.02-.03-.03-.11-.09-.21-.19-.32-.29-.1-.09-.19-.18-.29-.27-.04-.04-.08-.08-.12-.12-.08-.08-.16-.16-.24-.25-.11-.11-.22-.23-.32-.34-.11-.11-.21-.23-.31-.34-.31-.34-.61-.7-.91-1.05-.15-.18-.3-.36-.45-.55-.24-.3-.48-.59-.72-.89l-.36-.45c-.06-.07-.11-.14-.17-.21-.11-.14-.22-.29-.33-.44-.12-.16-.23-.32-.36-.49-.11-.16-.23-.32-.34-.49-.05-.07-.1-.15-.15-.22-.01-.02-.02-.03-.03-.05,0-.01-.02-.03-.03-.04-1.48-2.24-2.66-4.58-3.48-6.87,2.63,1.07,5.12,2.64,7.31,4.59Z"/>
    <path class="cls-1" d="M12.58,157.09c1.03-.28,2.12-.39,3.36-.47.4.57.77,1.08,1.14,1.54l.36.44c.64.8,1.29,1.6,1.98,2.38.08.09.16.18.24.27.08.09.16.18.24.27.31.34.63.66.96.98.02.02.04.04.06.06-.07.01-.14.02-.21.03-.07.01-.14.02-.21.04-.14.02-.29.05-.43.08-2.41-1.24-4.77-3.01-7.49-5.61Z"/>
    <path class="cls-1" d="M16.75,166.05c.82-.36,2.01-.81,3.41-1.12.16-.03.31-.07.47-.09.11-.02.22-.04.32-.06.32-.05.64-.09.95-.13,0,0,0,0,0,0,.1,0,.21-.02.31-.03.53-.04,1.04-.04,1.54-.02,0,0,.02,0,.03,0h0s.01,0,.02,0h.03c.49.03.98.09,1.43.19.12.03.25.05.37.08-.01.12-.02.24-.03.37,0,.04,0,.09,0,.13v.07c-.01.46-.03,1.01-.01,1.59,0,.09,0,.19,0,.28,0,.1,0,.2.01.3,0,.09.01.18.02.28,0,.06.01.13.02.19,0,.08.02.15.03.23,0,.08.02.15.03.23.02.14.04.27.07.41.02.1.04.19.06.29.02.08.03.16.06.23.01.06.03.11.04.16.01.06.03.12.05.18,0,.04.02.08.04.11.02.07.05.15.08.22.03.07.06.14.09.22.03.07.06.13.09.2,0,.01.01.03.02.04.02.05.05.09.07.14.04.07.08.14.12.21-.77-.07-1.59-.2-2.44-.4-2.5-.59-5.06-2.17-7.3-4.5Z"/>
    <path class="cls-1" d="M22.08,174.57c1.69-.75,3.48-1.21,5.32-1.37.05,0,.09,0,.14,0,.02,0,.05,0,.07,0,.09,0,.17,0,.26,0,.05,0,.09,0,.14,0,.06,0,.11,0,.17,0,0,0,.02,0,.02,0,0,0,0,0,0,0h.02c.75.01,1.48.1,2.15.27.32.08.64.18.95.27l.3.09s.03,0,.04.01c.04.01.08.03.13.04,1.25.41,3.25,1.45,3.94,2.84.02.05.04.09.06.14.02.05.04.1.06.15.02.06.04.11.05.17.01.04.02.08.03.12,0,.03.01.05.01.08,0,.01,0,.03,0,.04,0,.05.01.09.02.14.02.21,0,.42-.05.64-.06.21-.5.79-.93,1.22-.56.35-1.34.56-2.28.6h-.01c-.18,0-.36,0-.55,0,0,0,0,0,0,0h-.02c-1-.03-2.09-.21-3.25-.53-3.05-.85-5.38-3.12-6.8-4.88Z"/>
    <g>
      <g>
        <g>
          <path class="cls-3" d="M159.63,104.78c0,.66-.54,1.2-1.2,1.2h-3.09c-.66,0-1.2-.54-1.2-1.2v-43.64h5.48v43.64Z"/>
          <path class="cls-3" d="M208.42,88.25v7.35c0,1.31-1.06,2.37-2.37,2.37h-33.25v-12.09h33.25c1.31,0,2.37,1.06,2.37,2.37Z"/>
          <path class="cls-3" d="M196.78,68.31c0-3.43,1.18-6.55,3.11-8.85h-15.64c1.92,2.3,3.1,5.42,3.1,8.84s-1.18,6.53-3.1,8.84h0s15.62,0,15.62,0c-1.92-2.3-3.09-5.41-3.09-8.83ZM187.76,63.42c-.47,0-.92-.08-1.33-.22.41.14.86.22,1.33.22h8.62c.47,0,.92-.08,1.33-.22-.41.14-.86.22-1.33.22h-8.62Z"/>
          <path class="cls-3" d="M132.53,260.18c-4.04-4.23-6.16-9.56-6.16-15.01V110.51c0-3.8,3.61-6.89,8.06-6.89h13.55c1.27,0,2.3-.88,2.3-1.97v-19.45c0-1.09-1.03-1.97-2.3-1.97h-26.35c-12.49,0-22.62,3.32-22.62,19.34v145.6c0,5.46-2.12,10.79-6.16,15.01-5.3,5.55-10.81,6.22-10.81,6.22h61.3s-5.52-.67-10.81-6.22Z"/>
          <path class="cls-3" d="M151.45,266.4h-77.51c-4.12,0-7.46,2.86-7.46,6.38v9.79h92.44v-9.79c0-3.52-3.34-6.38-7.46-6.38Z"/>
          <path class="cls-3" d="M165.68,81.36c-.99-.5-2.24.11-2.24,1.09v18.95c0,.98,1.25,1.59,2.24,1.09l7.11-4.52v-12.09l-7.11-4.52Z"/>
          <path class="cls-7" d="M199.89,22.35c0-1.84-.87-3.52-2.29-4.73-1.41-1.21-3.37-1.96-5.53-1.96-4.32,0-7.82,2.99-7.82,6.68v37.1h15.64V22.35Z"/>
          <polygon class="cls-3" points="199.89 77.14 199.87 77.14 184.25 77.14 184.25 85.88 199.89 85.88 199.89 77.14"/>
          <path class="cls-3" d="M194.69,128.08c.29.54.93.89,1.63.89h3.76c1.19,0,2.05-.97,1.74-1.95l-9.36-29.06h-14.07l16.29,30.11Z"/>
        </g>
        <g>
          <path class="cls-6" d="M154.97,107.19h3.83c1.12,0,2.04-.91,2.04-2.04v-45.7c0-.67-.54-1.21-1.21-1.21h-5.48c-.67,0-1.21.54-1.21,1.21v45.7c0,1.12.91,2.04,2.04,2.04ZM158.42,104.77h-3.06v-44.1h3.06v44.1Z"/>
          <path class="cls-6" d="M66.48,283.78h92.44c.67,0,1.21-.54,1.21-1.21v-9.79c0-4.19-3.89-7.59-8.67-7.59h-77.51c-4.78,0-8.67,3.4-8.67,7.59v9.79c0,.67.54,1.21,1.21,1.21ZM157.71,281.36h-90.02v-8.58c0-2.85,2.8-5.17,6.25-5.17h77.51c3.45,0,6.25,2.32,6.25,5.17v8.58Z"/>
          <path class="cls-6" d="M82.05,267.61h61.3c.64,0,1.17-.5,1.21-1.14.04-.64-.43-1.2-1.06-1.28-.05,0-5.18-.72-10.08-5.85-3.75-3.93-5.82-8.97-5.82-14.18V110.51c0-3.13,3.07-5.68,6.85-5.68h13.55c1.94,0,3.51-1.43,3.51-3.18v-19.45c0-1.75-1.58-3.18-3.51-3.18h-26.35c-7.56,0-12.86,1.23-16.69,3.88-4.81,3.33-7.15,8.78-7.15,16.67v145.6c0,5.21-2.07,10.24-5.82,14.18-4.94,5.17-10.03,5.84-10.08,5.85-.64.08-1.1.64-1.06,1.28.04.64.57,1.14,1.21,1.14ZM136.87,265.19h-48.35c1.64-.97,3.44-2.31,5.22-4.17,4.19-4.39,6.49-10.01,6.49-15.85V99.57c0-7.03,2-11.84,6.1-14.68,3.4-2.35,8.26-3.45,15.31-3.45h26.35c.64,0,1.09.4,1.09.76v19.45c0,.4-.51.76-1.09.76h-13.55c-5.11,0-9.27,3.63-9.27,8.1v134.66c0,5.84,2.31,11.46,6.49,15.85,1.78,1.86,3.58,3.2,5.22,4.17Z"/>
          <path class="cls-6" d="M172.79,99.18h33.81c1.67,0,3.03-1.36,3.03-3.03v-8.45c0-1.67-1.36-3.03-3.03-3.03h-33.81c-.67,0-1.21.54-1.21,1.21v12.09c0,.67.54,1.21,1.21,1.21ZM206.6,87.09c.33,0,.61.27.61.61v8.45c0,.33-.27.61-.61.61h-32.59v-9.67h32.59Z"/>
          <path class="cls-6" d="M164.93,103.88c.44,0,.89-.1,1.29-.3.04-.02.07-.04.11-.06l7.11-4.52c.35-.22.56-.61.56-1.02v-12.09c0-.41-.21-.8-.56-1.02l-7.11-4.52s-.07-.04-.11-.06c-.89-.45-1.96-.4-2.8.12-.74.46-1.19,1.23-1.19,2.06v18.95c0,.83.44,1.6,1.19,2.06.46.28.98.42,1.51.42ZM165.1,101.43c-.19.08-.38,0-.44-.06v-18.89c.06-.06.25-.14.44-.06l6.48,4.12v10.76l-6.48,4.12Z"/>
          <path class="cls-6" d="M196.33,130.19h3.76c1.01,0,1.95-.46,2.51-1.22.5-.68.63-1.52.38-2.31l-9.36-29.06c-.16-.5-.63-.84-1.15-.84h-14.07c-.43,0-.82.22-1.04.59-.22.37-.23.82-.03,1.2l16.29,30.11c.51.94,1.54,1.53,2.7,1.53ZM191.59,99.18l9.08,28.22s.02.06-.03.14c-.08.11-.27.23-.55.23h-3.76c-.28,0-.5-.13-.57-.26l-15.32-28.32h11.15Z"/>
          <g>
            <g>
              <path class="cls-6" d="M187.76,64.63h8.62c.6,0,1.18-.1,1.73-.29.63-.22.96-.91.74-1.55-.22-.63-.91-.96-1.54-.74-.29.1-.6.15-.92.15h-8.62c-.32,0-.64-.05-.93-.16-.63-.22-1.32.11-1.54.74-.22.63.11,1.32.74,1.54.55.19,1.14.29,1.73.29Z"/>
              <path class="cls-6" d="M184.25,78.35h15.62c.47,0,.9-.27,1.1-.7.2-.43.13-.93-.17-1.29-1.81-2.18-2.81-5.04-2.81-8.06s1-5.9,2.83-8.08c.03-.03.05-.06.07-.1.13-.19.21-.42.21-.67h0c0-.68-.54-1.22-1.21-1.22h-15.64c-.67,0-1.21.54-1.21,1.21h0c0,.28.1.56.28.78,1.82,2.18,2.82,5.04,2.82,8.06s-1,5.88-2.82,8.06c-.18.22-.28.49-.28.78,0,.67.54,1.22,1.21,1.22ZM197.56,75.93h-11c1.3-2.26,2-4.9,2-7.64s-.7-5.37-2-7.63h11.01c-1.3,2.26-2.01,4.9-2.01,7.64s.7,5.37,1.99,7.62Z"/>
            </g>
            <path class="cls-6" d="M184.25,60.67h15.64c.67,0,1.21-.54,1.21-1.21V22.35c0-2.15-.96-4.15-2.71-5.65-1.7-1.45-3.94-2.25-6.32-2.25-4.98,0-9.03,3.54-9.03,7.89v37.11c0,.67.54,1.21,1.21,1.21ZM198.68,58.24h-13.21V22.35c0-3.02,2.96-5.47,6.61-5.47,1.8,0,3.49.59,4.74,1.67,1.2,1.03,1.86,2.38,1.86,3.81v35.89Z"/>
            <path class="cls-6" d="M184.25,87.09h15.64c.67,0,1.21-.54,1.21-1.21v-8.74c0-.67-.54-1.21-1.21-1.21h-15.64c-.67,0-1.21.54-1.21,1.21v8.74c0,.67.54,1.21,1.21,1.21ZM198.68,84.67h-13.21v-6.32h13.21v6.32Z"/>
          </g>
        </g>
        <path class="cls-2" d="M189.06,21.66c0-.49-.15-.94-.39-1.26-.24-.32-.57-.52-.93-.52-.73,0-1.32.8-1.32,1.79v33.6h2.63V21.66Z"/>
        <path class="cls-6" d="M191.09,115.39h.4s.03,0,.04,0c.35-.01.66-.17.88-.42.17-.13.33-.28.46-.45.37-.51.47-1.13.28-1.72l-4.89-15.19c-.16-.5-.63-.84-1.15-.84h-4.98c-.43,0-.82.22-1.04.59-.22.37-.23.82-.03,1.2l8.51,15.74h0c.15.27.35.5.6.68.22.26.55.42.92.42ZM186.23,99.18l3.04,9.45-5.11-9.45h2.07Z"/>
        <path class="cls-7" d="M91.02,267.61c1.64,0,5.97-1.99,9.03-6.8,2.8-4.4,4.66-8.74,4.66-15.64v-27.76c0-.67-.54-1.21-1.21-1.21s-1.21.54-1.21,1.21v27.76c0,7.02-2.21,11.08-4.28,14.34-2.7,4.25-6.27,5.67-6.99,5.68-.67,0-1.21.55-1.21,1.21,0,.67.54,1.21,1.21,1.21Z"/>
        <path class="cls-7" d="M103.51,167.72c.67,0,1.21-.54,1.21-1.21v-60.73c0-7.4.57-12.19,3.46-14.77,2.7-2.42,7.74-3.36,17.96-3.36.67,0,1.21-.54,1.21-1.21s-.54-1.21-1.21-1.21c-9.34,0-15.86.66-19.57,3.97-3.57,3.19-4.27,8.49-4.27,16.58v60.73c0,.67.54,1.21,1.21,1.21Z"/>
        <path class="cls-7" d="M154.28,276.8c.67,0,1.21-.54,1.21-1.21,0-4.08-1.56-5.82-5.2-5.82-.67,0-1.21.54-1.21,1.21s.54,1.21,1.21,1.21c1.83,0,2.78.15,2.78,3.4,0,.67.54,1.21,1.21,1.21Z"/>
        <path class="cls-7" d="M103.51,210.37c.67,0,1.21-.54,1.21-1.21v-34.67c0-.67-.54-1.21-1.21-1.21s-1.21.54-1.21,1.21v34.67c0,.67.54,1.21,1.21,1.21Z"/>
        <path class="cls-7" d="M156.89,58.23c2.57,0,4.65-11.88,4.65-26.53s-2.08-26.53-4.65-26.53-4.65,11.88-4.65,26.53,2.08,26.53,4.65,26.53Z"/>
        <path class="cls-2" d="M156.89,62.18c4.11,0,7.45-13.65,7.45-30.48s-3.33-30.48-7.45-30.48-7.45,13.65-7.45,30.48,3.33,30.48,7.45,30.48ZM156.89,5.16c2.57,0,4.65,11.88,4.65,26.53s-2.08,26.53-4.65,26.53-4.65-11.88-4.65-26.53,2.08-26.53,4.65-26.53Z"/>
        <path class="cls-6" d="M156.89,63.39c2.68,0,4.85-3.31,6.44-9.85,1.43-5.85,2.22-13.61,2.22-21.84s-.79-15.99-2.22-21.84c-1.6-6.54-3.76-9.85-6.44-9.85s-4.85,3.31-6.44,9.85c-1.43,5.85-2.22,13.61-2.22,21.84s.79,15.99,2.22,21.84c1.6,6.54,3.76,9.85,6.44,9.85ZM156.89,2.42c.79,0,2.55,1.69,4.09,8,1.38,5.67,2.15,13.22,2.15,21.27s-.76,15.6-2.15,21.27c-1.54,6.32-3.3,8-4.09,8s-2.55-1.69-4.09-8c-1.38-5.67-2.15-13.22-2.15-21.27s.76-15.6,2.15-21.27c1.54-6.32,3.3-8,4.09-8Z"/>
      </g>
      <g>
        <g>
          <path class="cls-1" d="M96.47,283.01s0,0,0,0c-2.78-3.92-8.71-11.17-16.59-14.81-.84-.39-1.69-.73-2.57-1.03-3.75-1.27-7.88-1.65-12.28-.49-.28.08-.57.16-.85.24-19.56,6-30.09,42.89-38.99,45.74-8.27,2.65-17.97-10.49-19.3-12.36,1.04,1.39,7.11,8.9,15.19,6.31,8.9-2.85,19.43-39.75,38.99-45.74,1.9-.58,3.79-.82,5.65-.77,4.77.13,9.38,2.12,13.55,4.95.72.49,1.43,1,2.12,1.53,6.93,5.31,12.41,12.56,15.07,16.42Z"/>
          <path class="cls-4" d="M87.25,270.25c-1.73-1.7-3.47-3.21-5.2-4.54-.63-.48-1.26-.94-1.89-1.37h0c-1.83-1.26-3.64-2.3-5.43-3.11-2.97-1.35-5.88-2.08-8.7-2.2-2.15-.09-4.25.18-6.29.8-12.11,3.71-20.71,18.58-27.62,30.54-4.22,7.3-8.21,14.19-11.38,15.21-7.5,2.4-13.29-4.99-14.03-5.99-.01-.02-.03-.04-.04-.06-.01-.02-.02-.03-.03-.04,0,0,0-.01,0-.01-.01-.02-.02-.03-.04-.05-.01-.02-.03-.04-.05-.06-.36-.41-.98-.49-1.44-.17-.08.05-.15.11-.21.18-.06.07-.11.14-.15.22-.12.23-.16.49-.1.75.02.08.04.15.08.23.01.03.02.05.04.08.01.02.03.05.05.07,0,.01.02.03.03.05.01.02.03.04.04.06.02.02.03.05.05.07,1.17,1.66,9.59,13.23,17.96,13.23.87,0,1.75-.13,2.61-.4,3.98-1.27,7.79-7.86,12.61-16.2,6.72-11.62,15.08-26.07,26.36-29.53.19-.06.38-.11.57-.16,3.76-1.04,7.56-.97,11.35.21.92.28,1.83.63,2.74,1.04,2.87,1.29,5.74,3.22,8.6,5.77,2.94,2.63,5.31,5.46,6.95,7.64.39.51.73.99,1.03,1.42,0,0,0,0,0,0,.5-.6.97-1.17,1.44-1.78,0,0,0,0,0-.01-2.02-2.91-5.49-7.51-9.94-11.86ZM78.14,266.32c-4.38-1.57-8.79-1.84-13.11-.77-.39.1-.78.21-1.18.33-12.12,3.71-20.72,18.59-27.63,30.54-4.22,7.3-8.21,14.19-11.38,15.21-3.62,1.16-7.7-1.29-10.81-3.94,1.22.38,2.44.57,3.67.57s2.48-.19,3.71-.58c3.98-1.27,7.79-7.86,12.61-16.2,6.72-11.62,15.08-26.08,26.36-29.53,1.71-.52,3.41-.74,5.08-.71,4.63.08,9.11,2.04,13.05,4.67.67.45,1.32.91,1.95,1.39-.78-.36-1.56-.69-2.35-.97Z"/>
        </g>
        <path class="cls-4" d="M96.68,279.35c-5.36-11.64-9.29-23.05-12.08-32.64-.74-2.53-1.39-4.94-1.98-7.19-3.98-15.35-5.45-26.7-5.67-28.58.97-.51,1.96-1.61,2.95-3.28.69-1.17,1.2-2.6,1.5-4.25,1.23-1.23,2.29-2.6,3.24-3.83l.07-.09c2.95-3.81,4.84-9.34,5.2-15.16,0-.01,0-.03,0-.04,0-.02,0-.04,0-.05-.04-1.79-.06-2.68-.09-4.44-.01-.61-.51-1.09-1.12-1.08-.35,0-.65.18-.85.43.99-2.65,1.61-5.52,1.83-8.47,0-.01,0-.03,0-.04,0-.02,0-.04,0-.05l-.02-1.42c-.01-.98-.02-1.79-.04-3.03,0-.6-.5-1.09-1.1-1.09,0,0-.01,0-.02,0-.34,0-.63.16-.83.4.99-2.65,1.6-5.5,1.79-8.43,0-.02,0-.03,0-.05,0-.02,0-.04,0-.06-.04-1.75-.06-2.64-.11-4.45-.02-.61-.52-1.08-1.13-1.07-.34,0-.64.18-.83.43.95-2.65,1.51-5.5,1.62-8.41,0-.02,0-.05,0-.07,0-.02,0-.04,0-.07-.09-1.83-.14-2.7-.24-4.42-.04-.61-.56-1.07-1.17-1.03-.36.02-.66.21-.84.49.87-2.65,1.32-5.54,1.3-8.47,0-.02,0-.03,0-.05,0-.02,0-.04,0-.06-.17-1.79-.26-2.65-.47-4.38-.07-.6-.62-1.04-1.22-.97-.6.07-1.04.62-.97,1.22.16,1.41.26,2.24.38,3.49-.92.34-1.81.74-2.66,1.18,2.41-3.97,3.58-8.93,3.22-13.82,0-.02,0-.04-.01-.05,0-.02,0-.04,0-.06-.29-1.76-.44-2.61-.77-4.32-.12-.6-.69-.99-1.29-.87-.6.12-.99.69-.87,1.29.26,1.37.41,2.18.61,3.37-.91.35-1.81.74-2.68,1.18,2.23-3.97,3.05-8.88,2.26-13.7,0-.02-.01-.05-.02-.07,0-.02,0-.04,0-.05-.44-1.7-.68-2.58-1.17-4.23-.17-.58-.78-.92-1.37-.74-.58.17-.92.78-.74,1.37.39,1.31.61,2.09.9,3.21-.79.3-1.96.79-3.3,1.53.64-4.12.25-8.69-1.15-13.14,0,0,0-.02-.01-.03,0,0,0-.02,0-.03-1.86-5-4.24-10.08-7.51-15.98-.29-.53-.96-.72-1.5-.43-.53.29-.72.96-.43,1.5,3,5.42,5.24,10.12,7,14.7-.99.49-2.53,1.41-4.02,2.96-3-7.91-6.63-15.21-11.05-22.28-.32-.52-1-.67-1.52-.35-.52.32-.67,1-.35,1.52,2.95,4.72,5.55,9.54,7.83,14.59-1.22-1.32-2.53-2.53-3.91-3.62-2.73-5.35-5.74-10.37-9.21-15.33-.35-.5-1.03-.62-1.53-.27-.5.35-.62,1.03-.27,1.53,3.39,4.86,6.35,9.78,9.02,15.01-.15,1.57-.21,3.21-.15,4.9-2.45-5.55-5.25-10.83-8.48-15.99-.32-.51-1-.67-1.52-.35-.52.32-.67,1-.35,1.52,4.28,6.84,7.8,13.91,10.73,21.55-1.79-.5-3.49-.83-5.35-.78-1.81-4.76-4.12-9.62-7.22-15.22-.29-.53-.96-.72-1.5-.43-.53.29-.72.96-.43,1.5,3.21,5.81,5.56,10.79,7.37,15.68,0,.01.01.03.02.04,0,0,0,.02,0,.02,2.16,4.88,4.25,8.56,6.6,11.55-1.53-.06-2.8.01-3.62.09-.31-1.16-.54-1.99-.93-3.33-.17-.58-.78-.92-1.37-.74-.58.17-.92.78-.74,1.37.49,1.65.71,2.47,1.15,4.16,0,.02.01.04.02.06,0,.02,0,.04.01.06,1.71,4.85,4.43,8.86,7.72,11.41-1-.03-2.01,0-3.02.08-.2-1.15-.35-1.96-.6-3.31-.12-.6-.69-.99-1.29-.87-.6.12-.99.69-.87,1.29.32,1.68.47,2.51.76,4.26,0,.02.01.04.01.05,0,.02,0,.03,0,.05.75,2.95,2.62,8.25,6.83,11.77-1.01-.04-2.03-.02-3.06.06-.11-1.13-.2-1.95-.36-3.29-.07-.6-.62-1.04-1.22-.97-.6.07-1.04.62-.97,1.22.2,1.71.29,2.56.46,4.34,0,.02,0,.03,0,.05,0,.02,0,.04,0,.05.54,2.96,2.06,8.34,6.16,12.03-1-.05-2.03-.02-3.08.07-.06-1.14-.11-1.96-.19-3.29-.04-.61-.56-1.07-1.17-1.03-.61.04-1.07.56-1.03,1.17.11,1.72.15,2.58.24,4.39,0,.02,0,.03,0,.05,0,.03,0,.05,0,.08.68,5.07,2.73,9.46,5.69,12.2-1.04-.07-2.06-.06-3.08.02-.02-1.07-.04-1.91-.08-3.27-.02-.61-.52-1.08-1.13-1.07-.61.02-1.09.52-1.07,1.13.05,1.8.07,2.69.11,4.43,0,.02,0,.03,0,.05,0,.02,0,.04,0,.06.54,5.14,2.54,9.59,5.54,12.35-1.04-.09-2.08-.11-3.15-.03v-.12c-.01-1.02-.03-1.85-.04-3.13,0-.6-.5-1.09-1.1-1.09,0,0-.01,0-.02,0-.61,0-1.09.51-1.09,1.12.02,1.28.03,2.1.04,3.13l.02,1.32s0,.03,0,.04c0,.02,0,.03,0,.05.49,5.11,2.48,9.54,5.5,12.31-1.04-.07-2.07-.06-3.1.02-.02-1.09-.04-1.92-.07-3.24-.01-.61-.51-1.1-1.12-1.08-.61.01-1.09.51-1.08,1.12.03,1.77.05,2.66.09,4.45,0,.02,0,.03,0,.05,0,.02,0,.03,0,.05.58,5.35,2.9,10,6.38,12.76.86.68,2.12,1.26,3.45,1.74,0,.02,0,.03.01.05.36,1.16,1.04,2.78,2.27,3.96,1.14,1.09,2.1,1.61,2.89,1.81.22,1.86,1.7,13.35,5.72,28.86.47,1.83,1,3.76,1.57,5.78,2.49,8.76,5.94,19.15,10.6,29.92.71,1.65,1.46,3.32,2.23,4.98.42.9.84,1.79,1.28,2.69.1-.13.21-.25.31-.38,0,0,0,0,0,0,.15-.19.3-.38.45-.56.09-.11.17-.22.26-.33,0,0,0,0,0-.01.16-.21.32-.42.49-.64-.34-.71-.67-1.41-.99-2.12ZM82.97,198.13l-.07.09c-.95,1.23-1.96,2.52-3.09,3.66-.07.04-.13.09-.19.14-.8.77-1.51,1.33-2.12,1.73-.61.38-1.24.69-1.93.91-.55-.11-1.3-.27-2.14-.48-.02-.03-.04-.05-.06-.08-.01-.01-.02-.03-.03-.04-.35-.52-.45-1.18-.4-1.9,0-.02,0-.04,0-.07,0-.05.01-.11.02-.16.27-2.12,1.83-4.75,2.82-6.41l.2-.34c.31-.49.71-1.02,1.13-1.58v-.02c.71-.93,1.55-1.84,2.57-2.79,0,0,.01,0,.02-.01.09-.08.19-.16.27-.24.03-.03.06-.05.08-.08.05-.05.1-.09.15-.14,0,0,.01-.01.02-.02,2.2-1.65,4.59-3.29,7.33-4.43-.56,4.75-2.19,9.14-4.59,12.25ZM78.94,163.75c.18-.15.37-.31.56-.47,0,0,0,0,0,0,.01,0,.02-.02.03-.03.02-.02.03-.03.05-.05.15-.14.31-.27.46-.42,1.99-1.45,4.34-3.03,7.06-4.18-.59,4.6-2.29,8.91-4.88,12.29-1.17,1.53-2.35,2.86-3.51,3.94-.02.02-.04.03-.06.05-.3.24-.59.5-.87.76-.01,0-.02.02-.03.03-1.19.98-2.31,1.61-3.25,1.84-.68,0-1.46-.08-1.7-.2-.04-.03-.07-.07-.1-.11-.02-.03-.05-.05-.07-.08-.01-.01-.02-.03-.03-.04-1.56-2.05,1.22-6.55,2.58-8.76l.25-.41c.32-.49.73-1.02,1.16-1.58l.02-.03c.68-.89,1.46-1.75,2.32-2.55ZM75.69,153.53c.21-.29.41-.57.62-.85.71-.94,1.52-1.83,2.4-2.66.35-.29.68-.59,1-.9,2.03-1.71,4.41-3.13,6.99-4.16-.46,4.57-2.1,8.88-4.69,12.29-.99,1.31-2,2.47-2.99,3.45.08-2.66-1.52-5.39-3.34-7.18ZM76.81,179.96c.7-.92,1.52-1.8,2.42-2.64.31-.26.62-.53.93-.81,2.4-1.87,4.79-3.31,7.15-4.27-.61,4.63-2.31,8.95-4.85,12.31-.99,1.31-1.99,2.47-2.97,3.44.08-2.54-1.33-5.22-3.32-7.18.21-.28.42-.57.64-.86ZM87.69,183.48c-.89.33-1.76.71-2.59,1.12.99-1.5,1.83-3.14,2.52-4.87,0,.03,0,.07,0,.1.03,1.48.04,2.34.08,3.65ZM87.46,169.18v.63c-.84.31-1.68.66-2.53,1.08.98-1.48,1.82-3.09,2.5-4.79,0,.02,0,.04,0,.06.02,1.24.03,2.05.04,3.03ZM87.25,156.17c-.9.34-1.76.72-2.58,1.13.99-1.5,1.83-3.14,2.49-4.86,0,.03,0,.05,0,.08.04,1.51.06,2.38.09,3.66ZM86.78,142.59c-.87.32-1.72.67-2.55,1.06.95-1.46,1.74-3.08,2.35-4.82,0,.05,0,.09,0,.14.09,1.45.14,2.29.2,3.61ZM85.82,131.43c-.27,4.58-1.81,9.04-4.26,12.18l-.02.02c-1.01,1.29-2.08,2.66-3.29,3.84-.37.32-.74.64-1.1.98-.93.75-1.95,1.35-3.08,1.71-.54-.11-1.27-.27-2.1-.48-.01-.02-.03-.03-.04-.05-.02-.03-.04-.06-.05-.08-.03-.04-.05-.09-.08-.13-.02-.03-.03-.06-.05-.1-.02-.04-.04-.08-.05-.12-.02-.04-.03-.08-.05-.12,0-.03-.02-.05-.02-.08-.66-2.2,1.44-5.84,2.66-7.94l.22-.37c.3-.49.68-1.01,1.09-1.57l.02-.02c.7-.96,1.52-1.89,2.43-2.74.15-.13.35-.31.55-.5,2.05-1.57,4.47-3.27,7.23-4.41ZM84.21,118.08c.03,4.4-1.27,8.73-3.64,12.08-.88,1.24-1.83,2.39-2.84,3.44,0-.06,0-.12-.01-.18,0-.05,0-.09,0-.14-.18-2.58-1.99-5.16-3.96-6.84.17-.26.34-.51.52-.78.61-.89,1.33-1.75,2.14-2.55.28-.25.57-.52.85-.8,2.13-1.8,4.46-3.22,6.95-4.23ZM76.9,107.48c1.8-1.25,3.56-2.07,4.69-2.52.42,4.31-.57,8.6-2.78,11.94-.98,1.47-2,2.75-3.04,3.8-.29.26-.58.53-.86.81-1.1.95-2.16,1.57-3.08,1.79-.78.02-1.68-.09-1.9-.23-1.91-1.41-.91-4.41.31-7.37.01-.03.02-.05.03-.08l.05-.1c.06-.12.12-.24.18-.36.01-.02.02-.05.04-.08.05-.11.11-.21.16-.31,0-.02.02-.03.03-.05.06-.11.11-.22.17-.32,0-.01.01-.02.02-.03.06-.11.12-.22.18-.32h0c.05-.09.1-.18.15-.27,0,0,0,0,0,0,0,0,0,0,0,0,.24-.42.5-.85.79-1.3.36-.56.76-1.11,1.19-1.63,0,0,.02-.02.02-.03.98-1.17,2.18-2.26,3.55-3.23.04-.03.08-.06.13-.09,0,0,0,0,0,0ZM74.98,92.99c1.21,4.48,1.33,9.01.33,12.91-.03.02-.06.05-.1.07-.21.15-.41.3-.61.46-.11.09-.23.18-.34.27-.13.11-.26.21-.39.32-.06.05-.12.1-.18.15-.01-.99-.1-1.96-.24-2.92h0c-.03-.23-.07-.47-.11-.7,0-.02,0-.04,0-.05-.08-.46-.17-.92-.27-1.37,0-.03-.01-.06-.02-.1-.04-.19-.09-.37-.13-.56-.01-.04-.02-.09-.03-.13-.1-.43-.21-.85-.33-1.26-.01-.05-.03-.11-.04-.16-.04-.16-.09-.31-.13-.47-.01-.05-.03-.1-.04-.15-.06-.2-.11-.39-.17-.59,0,0,0,0,0,0-.26-.88-.59-1.78-.98-2.61,1.33-1.63,2.83-2.61,3.8-3.12ZM68.91,96.47s.01.03.02.05c.52,1.1.87,2,1.11,2.82.85,2.91,1.7,6.26,1.37,9.54,0,.05-.01.11-.02.16-.02.14-.03.27-.05.41,0,.07-.02.13-.03.2-.03.04-.06.08-.09.12-.05.06-.1.12-.15.19-.07.08-.13.17-.19.25-.04.06-.09.12-.13.18-.07.1-.14.19-.21.29-.03.05-.07.1-.1.15-.1.15-.2.3-.29.45-.13.21-.26.42-.39.63-.19-.13-.39-.26-.6-.39-.15-.09-.3-.18-.45-.27-.06-.03-.11-.06-.17-.1-.1-.06-.19-.11-.29-.16-.07-.04-.14-.07-.2-.11-.09-.05-.18-.1-.28-.14-.07-.04-.14-.07-.22-.11-.05-.02-.09-.05-.14-.07-.04-.06-.08-.12-.12-.17-.06-.08-.11-.16-.16-.24-.06-.09-.12-.18-.17-.27-.05-.08-.11-.17-.16-.25-.05-.09-.11-.18-.16-.27-.05-.09-.1-.18-.15-.26-.05-.09-.1-.18-.15-.27-.05-.09-.1-.18-.15-.28-.05-.09-.09-.18-.14-.27-.05-.09-.1-.19-.14-.28-.04-.09-.09-.18-.13-.27-.05-.1-.09-.19-.14-.29-.04-.09-.08-.18-.12-.27-.04-.1-.09-.2-.13-.3-.04-.09-.08-.18-.12-.27-.04-.1-.09-.2-.13-.31-.04-.09-.07-.18-.11-.28-.04-.1-.08-.21-.12-.31-.04-.09-.07-.19-.11-.28-.04-.1-.08-.21-.12-.31-.03-.09-.07-.18-.1-.28-.04-.11-.08-.21-.12-.32-.03-.09-.06-.18-.1-.27-.04-.11-.08-.22-.12-.33-.03-.09-.06-.18-.09-.26-.04-.11-.08-.22-.11-.34-.03-.08-.06-.17-.08-.25-.04-.12-.08-.24-.12-.36-.01-.04-.02-.07-.04-.11-.12-.36-.24-.73-.35-1.09l-.24-.72h0c-.29-.89-.56-1.88-.82-3.04-.86-3.81-1.22-7.61-1.06-11.11,3.05,2.71,5.65,6.08,7.58,9.85ZM55.1,97.7c1.73.08,3.37.53,5.29,1.13h0c.17.71.35,1.37.53,1.98,0,.03.02.05.02.08.06.19.11.37.17.55,0,0,0,0,0,.01l.23.72s0,0,0,0c.08.25.16.5.25.76.03.09.06.17.09.26.07.21.14.42.21.64.02.07.05.14.07.21.09.26.18.52.27.79.03.07.05.15.08.22.07.21.15.41.22.62.03.08.06.16.09.24.1.26.2.53.3.79.02.05.04.1.06.15.09.22.18.43.27.65.03.08.07.16.1.24.1.24.21.47.32.71.01.03.02.06.04.08.12.25.24.51.37.76.02.03.03.06.05.1-.6-.16-1.22-.29-1.86-.4-.04,0-.08-.02-.12-.02-2.56-2.84-4.77-6.36-7.04-11.25ZM56.09,110.87c1.22-.09,3.17-.13,5.33.2,1.75.26,3.35.72,4.77,1.36,0,0,.01,0,.01,0,0,0,.01,0,.02.01.62.28,1.21.59,1.75.94.23.14.46.3.7.46,0,0,0,.01-.01.02-.05.09-.09.18-.14.27-.01.03-.03.06-.04.09-.06.12-.11.23-.16.33,0,0,0,0,0,0,0,0,0,0,0,0-.02.05-.05.1-.06.14l-.04.09s-.01.03-.02.04c-.04.1-.08.2-.12.3,0,.02-.02.04-.03.06-.1.25-.21.51-.31.79,0,.02-.01.04-.02.06-.11.28-.21.57-.31.86,0,.02-.02.04-.02.07-.1.3-.2.6-.28.92,0,.02-.01.05-.02.07-.09.31-.16.63-.23.95,0,.03-.01.06-.02.08-.06.32-.11.64-.14.96,0,.03,0,.06,0,.09-.03.32-.04.63-.03.95,0,.03,0,.06,0,.1,0,.15.02.3.04.45,0,0,0,0,0,.01.02.15.05.3.08.45,0,.03.01.07.02.1.03.14.07.28.11.42,0,0,0,.01,0,.02-1.15-.5-2.36-1.17-3.58-2-2.99-2.03-5.54-5.43-7.25-9.66ZM58.71,123.95c2.66-.2,5.3.08,7.85.81.16.06.32.12.48.18.01,0,.03.01.04.01.17.06.35.12.51.17.96.38,1.84.85,2.62,1.39.37.26.72.53,1.07.79.11.09.22.17.33.25,2.39,1.81,5,5.46,3.37,7.9,0,.01-.01.02-.02.03h0c-.21.31-1.15.87-1.91,1.21-.95.21-2.1.09-3.4-.36,0,0,0,0-.02,0-.2-.08-.41-.16-.61-.23,0,0,0,0,0,0-1.27-.52-2.59-1.28-3.92-2.26-3.63-2.68-5.5-6.96-6.4-9.9ZM60.34,137.28c2.79-.21,5.51.1,7.93.9.2.08.39.15.58.22,0,0,0,0,0,0,1,.4,1.91.91,2.7,1.5.2.15.39.3.58.45-1.31,2.18-3.19,5.69-2.78,8.57-1.31-.45-2.53-.97-3.24-1.55-3.53-2.83-5.09-7.16-5.77-10.09ZM61.23,150.79c4.32-.39,8.29.57,11.02,2.68.33.25.65.53.96.8.1.09.2.17.29.26,2.18,1.89,4.44,5.65,2.64,8.13-.24.33-1.2.9-1.99,1.25-.88.19-1.9.1-3.04-.28,0,0,0,0-.01,0-.35-.16-.73-.33-1.12-.45-1.13-.53-2.27-1.26-3.39-2.17-2.64-2.15-4.56-5.83-5.35-10.22ZM61.65,164.38c2.44-.19,4.92.09,7.54.85.36.16.72.31,1.07.43.85.39,1.61.86,2.29,1.4.18.15.36.29.53.44-1.39,2.19-3.43,5.72-3.11,8.65,0,.04,0,.08.02.13,0,.06.02.12.03.18.02.11.04.21.06.32-1.09-.52-2.19-1.24-3.28-2.13-2.64-2.17-4.48-5.87-5.15-10.26ZM61.86,178.04c2.49-.18,4.82.21,7.63.89.12.05.23.1.35.15.03.01.05.02.08.03,0,0,.01,0,.02,0,0,0,0,0,.01,0,.16.06.31.12.47.18.86.39,1.65.87,2.34,1.43.34.27.67.57.98.85l.25.23c1.99,1.76,4.46,5.51,2.67,8.09-.01.02-.02.03-.03.05h0c-.24.33-1.19.89-1.97,1.24-.95.21-2.1.08-3.34-.37l-.08-.03c-.14-.06-.3-.13-.47-.18,0,0-.02,0-.03-.01-1.23-.53-2.47-1.3-3.7-2.29-2.68-2.17-4.53-5.87-5.17-10.25ZM70.82,201.39s-.01.07-.02.11c0,.02,0,.04,0,.05-.09.64-.11,1.26-.02,1.86-1.31-.44-2.54-.96-3.26-1.54-2.79-2.21-4.73-5.89-5.42-10.18,2.55-.2,5.13.11,7.85.95.16.07.32.13.49.2,0,0,0,0,0,0h0c.98.42,1.85.93,2.61,1.52.19.15.37.3.55.45-1,1.63-2.42,4.16-2.8,6.58ZM72.67,206.86c1.15.23,2.23.24,3.2,0,0,0,0,0,.01,0,0,0,0,0,.01,0,0,0,0,0,0,0,.02,0,.04,0,.06-.02,0,0,0,0,0,0,.78-.18,1.59-.53,2.43-1.05-.12.26-.25.5-.38.73-1.33,2.25-2.15,2.5-2.26,2.53,0,0-.02,0-.03,0-.29.07-1.1-.13-2.33-1.3-.28-.27-.52-.57-.73-.9Z"/>
        <path class="cls-4" d="M96.68,279.35c-1.38-1.19-2.72-2.4-4.03-3.63-3.89-3.64-7.46-7.38-10.69-11.04-.06-.06-.11-.12-.16-.19-4.77-5.42-8.78-10.64-11.91-15.04-.06-.08-.12-.16-.17-.24-6.66-9.36-10.68-16.75-11.56-18.4.52-.66.89-1.69,1.14-3.09.17-1.02.15-2.17-.08-3.41.52-1.18.89-2.41,1.23-3.52l.02-.08c1.08-3.57.93-7.9-.4-12.2,0-.02-.01-.05-.02-.07,0,0,0-.01,0-.02,0,0,0-.02,0-.03-.51-1.24-.76-1.86-1.26-3.1-.23-.56-.87-.84-1.43-.61-.04.02-.08.04-.12.06,0,0,0,0,0,0-.08-1.92-.4-3.88-.98-5.79,0,0,0,0,0-.01,0-.02-.01-.04-.02-.06,0,0,0-.01,0-.02,0,0,0,0,0,0l-1.24-3.12c-.22-.57-.86-.84-1.43-.62-.04.02-.08.04-.12.06,0,0,0,0,0,0-.08-1.93-.41-3.88-1-5.78,0-.03-.02-.06-.03-.1,0,0,0,0,0,0-.5-1.24-.76-1.86-1.27-3.1-.23-.56-.88-.83-1.44-.6-.04.02-.08.04-.12.06,0,0,0,0,0,0-.1-1.92-.48-3.85-1.11-5.73,0-.02-.01-.04-.02-.06,0,0,0-.01,0-.02,0-.01,0-.02-.01-.03,0,0,0,0,0,0-.56-1.27-.82-1.87-1.36-3.05-.25-.55-.9-.8-1.46-.55-.04.02-.08.05-.12.07,0,0,0,0,0,0h0c-.16-1.89-.61-3.8-1.32-5.64,0,0,0-.01,0-.02,0-.01,0-.02-.02-.04,0-.02-.02-.04-.03-.06,0,0,0,0,0,0-.6-1.21-.9-1.8-1.5-2.96-.28-.54-.95-.75-1.48-.47-.06.03-.12.07-.18.12h0c-.23-1.9-.77-3.8-1.6-5.56,0,0,0-.01-.01-.02-.01-.02-.02-.04-.03-.06,0,0,0,0,0-.01-.67-1.15-1.02-1.73-1.71-2.84-.32-.52-1-.68-1.52-.36-.07.05-.14.1-.2.16h0c-.34-1.87-1.02-3.71-2.01-5.41,0,0,0-.02-.01-.02-.02-.02-.03-.05-.05-.08h0s0,0,0,0c-.77-1.08-1.17-1.63-1.96-2.67-.37-.48-1.06-.58-1.54-.21-.48.37-.58,1.06-.21,1.54.56.73.91,1.21,1.35,1.81,0,0,0,0,0,0-.38.35-.87.83-1.4,1.42-.71-2.91-2.16-5.84-4.21-8.45,0,0-.01-.02-.02-.03,0-.01-.02-.03-.03-.04,0-.01-.02-.03-.03-.04,0,0,0,0,0,0-2.66-3.03-5.71-5.97-9.6-9.26-.46-.39-1.16-.33-1.55.13-.39.46-.33,1.16.13,1.55,3.48,2.93,6.26,5.58,8.68,8.26-.52.59-1.19,1.48-1.74,2.66,0,0,0,0,0,0-4.17-4.64-8.6-8.72-13.51-12.44-.48-.37-1.18-.27-1.54.21-.37.49-.27,1.18.21,1.54,2.91,2.2,5.64,4.53,8.25,7.04-.74-.31-1.49-.59-2.26-.83,0,0,0,0,0,0-3.35-3.02-6.81-5.74-10.57-8.29-.5-.34-1.19-.21-1.53.29-.34.5-.21,1.19.29,1.53,3.66,2.49,7.03,5.13,10.28,8.06h0c.2.74.44,1.48.72,2.23h0s0,0,0,0c-2.95-2.9-6.04-5.58-9.36-8.08-.48-.37-1.18-.27-1.54.21-.37.49-.27,1.18.21,1.54,4.69,3.55,8.94,7.44,12.93,11.85-1.15.13-2.24.35-3.34.78h0c-2.53-2.82-5.43-5.59-9.06-8.66-.46-.39-1.16-.33-1.55.13-.39.46-.33,1.16.13,1.55,3.81,3.21,6.78,6.08,9.37,9.03,0,0,.02.02.03.03,0,0,0,0,0,.01.01.02.03.03.05.05,2.64,2.66,4.96,4.6,7.26,6.06-.73.27-1.34.54-1.8.76h0c-.46-.64-.84-1.14-1.42-1.91-.37-.48-1.06-.58-1.54-.21-.48.37-.58,1.06-.21,1.54.78,1.03,1.16,1.54,1.92,2.61,0,0,0,0,0,0,0,0,0,0,0,.01.02.03.04.05.06.08,1.3,1.54,2.74,2.85,4.24,3.88,0,0,0,0,0,0-.08.03-.17.06-.24.11-.52.32-.68,1-.36,1.52.68,1.09,1.01,1.64,1.68,2.79,0,.01.02.02.03.03,0,0,0,.02.01.02.01.02.03.05.05.07.81,1.15,2.14,2.79,3.94,4.21,0,0,0,0,0,0-.1.02-.2.05-.3.1-.54.28-.75.95-.47,1.48.6,1.15.89,1.72,1.49,2.92,0,0,0,.02.01.02,0,0,0,0,0,0,0,0,0,0,0,0,.01.03.03.06.05.09,0,0,0,.01.01.02.74,1.21,1.98,2.96,3.73,4.47,0,0,0,0,0,0-.12.01-.24.04-.36.09-.55.25-.8.9-.55,1.46.53,1.18.8,1.77,1.35,3.02,0,0,0,0,0,0,.01.02.02.04.03.07,0,.01,0,.02.01.03.69,1.27,1.87,3.12,3.58,4.71,0,0,0,0,0,0-.12,0-.24.03-.35.08-.56.23-.83.88-.6,1.44.51,1.23.76,1.85,1.26,3.09,0,.02.02.03.02.05,0,0,0,.02.01.03.01.03.03.05.04.08.95,1.87,2.16,3.5,3.51,4.77,0,0,0,0,0,0-.13,0-.27.02-.4.07-.56.22-.84.86-.62,1.43l1.24,3.12s0,0,0,0c.01.03.02.05.03.07.95,1.91,2.16,3.56,3.54,4.86,0,0,0,0,0,0-.13,0-.27.02-.4.08-.56.23-.84.87-.61,1.43.5,1.23.75,1.85,1.24,3.07,0,0,0,0,0,0,0,.01,0,.02.01.04.02.05.05.1.08.15,1.87,3.64,4.8,6.31,8.04,7.33.73.23,1.66.31,2.63.31.07,0,.14,0,.21,0,.59.74,1.52,1.69,2.71,2.19.94.39,1.69.54,2.29.54.06,0,.12,0,.18,0,.88,1.66,4.96,9.16,11.7,18.65.56.79,1.15,1.61,1.77,2.45,2.71,3.69,5.95,7.83,9.66,12.11.56.65,1.13,1.3,1.72,1.95,4.1,4.59,8.74,9.3,13.84,13.74.67.58,1.35,1.17,2.04,1.74.09-.11.17-.22.26-.33,0,0,0,0,0-.01.16-.21.32-.42.49-.64.19-.25.38-.51.58-.78-.53-.44-1.05-.89-1.57-1.34ZM41.65,219.36s0,0,0,0c-.23-.56-.43-1.06-.7-1.72.63.47,1.3.88,1.97,1.21-.43.15-.86.32-1.28.52ZM25.67,181.6s0,0,0,0c-.27-.53-.5-.98-.8-1.56h0c.63.39,1.3.75,2.02,1.05-.41.15-.82.33-1.22.51ZM58.41,210.83c.76,3.29.75,6.58-.05,9.24l-.02.08c-.33,1.09-.68,2.25-1.16,3.32-.05.06-.08.12-.12.19-.39.83-.77,1.45-1.11,1.9,0,0,0,.01-.01.02-.26.32-.55.62-.87.89-.38.07-.89.15-1.47.22-.04-.03-.08-.07-.12-.1-.04-.03-.07-.07-.1-.1-1.1-1.22-.53-4.51-.23-6.2l.03-.2v-.08c.1-.42.24-.9.38-1.4v-.02c.24-.82.57-1.66,1.02-2.58,0,0,0,0,0,0,.09-.16.17-.32.26-.49,1.01-1.61,2.14-3.25,3.58-4.69ZM54.56,201.29c.69,3.23.62,6.49-.21,9.36-.27.94-.58,1.81-.9,2.6-.76-1.54-2.26-2.83-3.94-3.61.05-.18.1-.36.16-.55.24-.8.56-1.62.95-2.41,0,0,0,0,0,0,0,0,0-.01.01-.02,0,0,0,0,0,0,0,0,0,0,0,0,.15-.27.3-.55.44-.84,0,0,0,0,0,0,1.07-1.77,2.23-3.28,3.48-4.51ZM50.77,191.76c.7,3.19.62,6.46-.24,9.35-.41,1.38-.88,2.61-1.39,3.66,0,0,0,.01,0,.02,0,0-.01.02-.02.03-.07.13-.14.26-.21.38-.01.03-.03.06-.05.09-.02.04-.04.08-.06.11-.04.07-.07.14-.1.21-.68,1.17-1.27,1.76-1.67,2.05-.39.15-.86.28-1.07.29h0s-.02,0-.03-.02c-.03-.01-.06-.03-.08-.05-.03-.01-.05-.03-.08-.05-.02,0-.04-.02-.06-.04-.03-.02-.05-.04-.08-.07-.02-.01-.03-.03-.05-.04-.02-.02-.04-.04-.05-.06-.03-.03-.05-.06-.07-.08,0,0,0,0,0,0-.03-.04-.06-.08-.09-.13-.02-.03-.04-.07-.06-.1-.04-.07-.07-.14-.1-.21-.61-1.48-.08-4.28.21-5.79l.05-.26.02-.08c.09-.43.23-.91.39-1.44.24-.79.55-1.58.93-2.36,0,0,0-.02.01-.03.02-.04.05-.08.07-.13.04-.07.08-.15.12-.22,0,0,0,0,0,0,.04-.08.09-.17.13-.25.02-.04.05-.09.07-.13.04-.07.07-.14.11-.21.93-1.42,2.04-3,3.45-4.43ZM46.83,182.26c.77,3.15.74,6.41-.11,9.32-.28.94-.58,1.82-.91,2.62-.09-.17-.18-.34-.29-.5-.03-.05-.07-.1-.1-.16-.81-1.25-2.11-2.3-3.57-2.96.05-.18.1-.36.15-.53.24-.81.55-1.61.92-2.39.19-.33.36-.66.52-1,.89-1.58,2.03-3.07,3.4-4.38ZM42.6,172.96c.9,3.12.97,6.43.14,9.13v.02c-.36,1.16-.74,2.39-1.27,3.52,0,0,0,0,0,0-.18.32-.35.64-.5.97-.43.73-.94,1.39-1.58,1.91-.37.07-.87.14-1.43.2-.04-.03-.08-.07-.12-.1-.04-.03-.07-.07-.11-.11-1.06-1.24-.54-4.49-.26-6.16l.05-.31h0c.08-.42.21-.89.34-1.38v-.02c.23-.84.55-1.69.95-2.51,0,0,0-.01,0-.02,0,0,0,0,0-.01.02-.05.05-.1.08-.15h0c.04-.08.08-.16.12-.24,0,0,.01-.02.02-.03,0-.02.02-.04.03-.06.94-1.53,2.08-3.21,3.53-4.67ZM37.9,163.98c1.05,2.93,1.25,6.11.53,8.93-.23.9-.51,1.76-.84,2.59-.9-1.6-2.67-2.82-4.38-3.48.03-.15.07-.3.1-.45.19-.76.45-1.53.78-2.28,0,0,0-.02.01-.02,0,0,0,0,0,0,0,0,0,0,0,0,0,0,0-.01,0-.02.13-.25.26-.51.38-.79,0,0,0,0,0,0,0,0,0-.02.01-.02.93-1.67,2.06-3.15,3.38-4.43ZM57.69,208.5s0,0,0,0c-.26.23-.51.46-.74.7.11-.64.19-1.29.23-1.95,0,0,0,0,0,0,.17.42.33.81.51,1.25ZM53.86,198.94s0,0,0,0c-.24.21-.49.44-.72.67.11-.63.19-1.26.24-1.9h0s.49,1.23.49,1.23ZM50.05,189.41c-.26.23-.5.46-.74.7.11-.64.19-1.29.23-1.95h0c.17.41.33.8.51,1.25ZM46.07,179.97h0c-.25.22-.5.45-.75.69.1-.63.16-1.27.19-1.93.18.41.35.79.55,1.24ZM41.74,170.75s0,0,0,0c-.28.25-.55.51-.81.78.09-.7.13-1.4.13-2.11h0c.24.46.44.86.68,1.34ZM36.91,161.89h0c-.29.27-.58.54-.85.82.07-.72.08-1.45.03-2.18,0,0,0,0,0,0,.29.48.54.88.82,1.36ZM30.25,158.15c.8-1.17,1.67-2.11,2.32-2.73,1.3,2.78,1.69,5.86,1.06,8.63-.29,1.28-.66,2.43-1.1,3.43-.03.06-.07.13-.09.19,0,0,0,0,0,0-.02.03-.03.07-.05.1-.02.03-.03.07-.05.1h0c-.07.14-.13.28-.2.42,0,0,0,0,0,0,0,0,0,0,0,.01-.48.89-1.02,1.55-1.56,1.93-.46.18-1.02.33-1.23.32,0,0,0,0-.01,0-.04,0-.07-.02-.11-.04-.05-.02-.09-.04-.14-.06-.03-.01-.06-.03-.09-.04-.15-.08-.28-.19-.39-.32-.02-.02-.04-.04-.06-.07-.13-.16-.24-.34-.33-.55-.02-.04-.03-.08-.05-.12-.02-.04-.03-.09-.05-.13-.01-.04-.03-.09-.04-.14-.04-.13-.08-.27-.11-.42,0-.06-.02-.11-.03-.17,0-.06-.02-.13-.03-.2-.03-.2-.05-.41-.07-.62,0-.06,0-.11-.01-.17,0-.09,0-.17-.01-.26,0-.13,0-.27-.01-.41,0-.28,0-.57,0-.86,0-.16,0-.31,0-.47v-.06s0-.01,0-.01c0-.09.01-.17.02-.25,0-.1.02-.2.03-.3,0-.06.01-.11.02-.16,0-.06.01-.11.02-.17,0-.06.01-.12.02-.17,0-.06.01-.12.02-.18,0-.02,0-.04,0-.05,0-.02,0-.04,0-.06,0-.03,0-.05.01-.08,0,0,0-.01,0-.02,0,0,0-.01,0-.02h0s0-.02,0-.02h0c.06-.35.12-.72.2-1.09.09-.46.22-.93.38-1.38,0-.01,0-.03.01-.04,0,0,0,0,0,0,0,0,0-.02,0-.03,0,0,0,0,0,0,0,0,0,0,0,0h0s0-.01,0-.02c0,0,0,0,0,0h0c.07-.2.14-.4.23-.6h0c.08-.2.17-.4.26-.6.06-.14.13-.27.2-.41.05-.1.11-.2.16-.3.11-.2.22-.4.34-.6.06-.1.12-.2.19-.3.09-.14.18-.27.27-.41ZM24.77,148.76c1.89,2.68,3.09,5.65,3.43,8.49-.02.03-.03.06-.05.08-.02.03-.04.07-.06.1-.08.13-.16.26-.24.39,0,0-.01.02-.02.02-.02.03-.04.06-.05.09-.02.03-.04.06-.05.09,0-.01-.01-.02-.02-.04-.05-.11-.09-.21-.15-.32-.39-.84-.85-1.63-1.33-2.38-.11-.17-.23-.35-.34-.52-.03-.04-.05-.08-.08-.12-.13-.19-.26-.37-.39-.56-.12-.17-.24-.33-.36-.49-.16-.23-.33-.45-.49-.66-.07-.09-.14-.18-.21-.26-.04-.05-.08-.1-.12-.15-.07-.08-.14-.16-.21-.24-.02-.02-.04-.05-.07-.08-.23-.26-.46-.52-.69-.76.42-1.19,1.02-2.1,1.51-2.7ZM21.22,152.56s0,0,0,0c0,0,.01.01.02.02,0,0,.02.01.02.02,0,0,0,0,.01.01h0c.35.34.66.65.92.95.04.04.08.08.11.13.04.05.08.09.12.14.12.15.24.3.36.45.2.27.41.54.61.82.16.23.33.45.48.68.06.09.13.18.19.27.8,1.18,1.54,2.47,2.01,3.85.04.1.07.2.1.3.03.1.06.2.09.3.05.17.09.33.12.5h0c-.02.06-.04.12-.05.18-.04.11-.07.22-.1.33-.03.09-.05.18-.07.27-.03.09-.05.19-.07.29-.03.12-.05.24-.08.36-.02.09-.04.18-.06.28-.09-.02-.17-.04-.25-.05-.14-.03-.28-.06-.42-.08-.11-.02-.23-.04-.34-.05-.08-.01-.16-.02-.24-.03-.06,0-.12-.01-.18-.02-.06,0-.12-.01-.17-.02-.03,0-.07,0-.1,0-.02-.01-.05-.03-.07-.05-.08-.05-.15-.1-.22-.16-.06-.04-.11-.08-.16-.12-.07-.05-.15-.11-.22-.17-.03-.02-.06-.05-.09-.08-.09-.07-.17-.14-.26-.21-.04-.03-.08-.07-.12-.1-.08-.07-.17-.14-.25-.22-.01,0-.02-.02-.03-.03-.11-.09-.21-.19-.32-.29-.1-.09-.19-.18-.29-.27-.04-.04-.08-.08-.12-.12-.08-.08-.16-.16-.24-.25-.11-.11-.22-.23-.32-.34-.11-.11-.21-.23-.31-.34-.31-.34-.61-.7-.91-1.05-.15-.18-.3-.36-.45-.55-.24-.3-.48-.59-.72-.89l-.36-.45c-.06-.07-.11-.14-.17-.21-.11-.14-.22-.29-.33-.44-.12-.16-.23-.32-.36-.49-.11-.16-.23-.32-.34-.49-.05-.07-.1-.15-.15-.22-.01-.02-.02-.03-.03-.05,0-.01-.02-.03-.03-.04-1.48-2.24-2.66-4.58-3.48-6.87,2.63,1.07,5.12,2.64,7.31,4.59ZM12.58,157.09c1.03-.28,2.12-.39,3.36-.47.4.57.77,1.08,1.14,1.54l.36.44c.64.8,1.29,1.6,1.98,2.38.08.09.16.18.24.27.08.09.16.18.24.27.31.34.63.66.96.98.02.02.04.04.06.06-.07.01-.14.02-.21.03-.07.01-.14.02-.21.04-.14.02-.29.05-.43.08-2.41-1.24-4.77-3.01-7.49-5.61ZM16.75,166.05c.82-.36,2.01-.81,3.41-1.12.16-.03.31-.07.47-.09.11-.02.22-.04.32-.06.32-.05.64-.09.95-.13,0,0,0,0,0,0,.1,0,.21-.02.31-.03.53-.04,1.04-.04,1.54-.02,0,0,.02,0,.03,0h0s.01,0,.02,0h.03c.49.03.98.09,1.43.19.12.03.25.05.37.08-.01.12-.02.24-.03.37,0,.04,0,.09,0,.13v.07c-.01.46-.03,1.01-.01,1.59,0,.09,0,.19,0,.28,0,.1,0,.2.01.3,0,.09.01.18.02.28,0,.06.01.13.02.19,0,.08.02.15.03.23,0,.08.02.15.03.23.02.14.04.27.07.41.02.1.04.19.06.29.02.08.03.16.06.23.01.06.03.11.04.16.01.06.03.12.05.18,0,.04.02.08.04.11.02.07.05.15.08.22.03.07.06.14.09.22.03.07.06.13.09.2,0,.01.01.03.02.04.02.05.05.09.07.14.04.07.08.14.12.21-.77-.07-1.59-.2-2.44-.4-2.5-.59-5.06-2.17-7.3-4.5ZM20.82,172.73c-.29-.49-.55-.92-.87-1.44.68.37,1.36.68,2.04.93-.39.15-.79.32-1.17.5ZM22.08,174.57c1.69-.75,3.48-1.21,5.32-1.37.05,0,.09,0,.14,0,.02,0,.05,0,.07,0,.09,0,.17,0,.26,0,.05,0,.09,0,.14,0,.06,0,.11,0,.17,0,0,0,.02,0,.02,0,0,0,0,0,0,0h.02c.75.01,1.48.1,2.15.27.32.08.64.18.95.27l.3.09s.03,0,.04.01c.04.01.08.03.13.04,1.25.41,3.25,1.45,3.94,2.84.02.05.04.09.06.14.02.05.04.1.06.15.02.06.04.11.05.17.01.04.02.08.03.12,0,.03.01.05.01.08,0,.01,0,.03,0,.04,0,.05.01.09.02.14.02.21,0,.42-.05.64-.06.21-.5.79-.93,1.22-.56.35-1.34.56-2.28.6h-.01c-.18,0-.36,0-.55,0,0,0,0,0,0,0h-.02c-1-.03-2.09-.21-3.25-.53-3.05-.85-5.38-3.12-6.8-4.88ZM26.78,183.52c1.77-.79,3.61-1.25,5.38-1.33.08,0,.16,0,.23,0,.08,0,.16,0,.23,0,0,0,0,0,0,0h.03c.79.01,1.54.12,2.23.32.1.03.2.06.29.08-.16.93-.32,2.09-.32,3.25,0,1.08.14,2.16.53,3.08-.85.01-1.63-.04-2.17-.22-3.02-.97-5.17-3.36-6.45-5.18ZM29.26,189.15c.62.43,1.29.82,2.01,1.15-.42.16-.84.34-1.25.53-.25-.57-.47-1.05-.75-1.68,0,0,0,0,0,0ZM31.01,192.79c2.79-1.3,5.66-1.64,8-.93.29.09.59.2.87.31.08.03.15.06.22.08.02,0,.04.01.06.02.01,0,.02,0,.03.01,1.79.66,4.01,2.34,3.91,4.21,0,.03,0,.07,0,.1,0,.05-.01.1-.02.16,0,.03,0,.05-.01.08,0,.04-.02.09-.03.13,0,.02,0,.03-.02.05-.1.25-.54.8-.96,1.23-.52.34-1.2.52-2.03.56h-.01s-.01,0-.02,0c-.05,0-.1,0-.15,0-.23-.01-.49-.02-.75,0-.91-.07-1.87-.27-2.88-.6-2.3-.76-4.52-2.7-6.2-5.38ZM33.33,198.59h0c.6.44,1.24.83,1.94,1.16-.43.15-.85.32-1.25.51-.22-.55-.42-1.03-.69-1.67,0,0,0,0,0,0ZM34.95,202.25c1.55-.7,3.24-1.12,5.14-1.27h0s0,0,0,0c.2.01.4.02.6.02.1,0,.2,0,.29,0,.66.05,1.29.17,1.87.36.09.03.17.06.26.09-.21,1.05-.43,2.39-.43,3.71,0,.7.07,1.4.23,2.04.03.15.07.29.12.43.03.11.07.21.11.31.02.06.05.11.07.16.02.06.05.11.08.17-.73-.1-1.49-.28-2.28-.55-2.3-.77-4.48-2.74-6.08-5.46ZM37.15,208.08h0c.64.48,1.3.9,1.98,1.23-.44.15-.87.31-1.3.5,0,0,0,0,0,0l-.68-1.73s0,0,0,0ZM38.76,211.8c1.58-.69,3.22-1.01,5.23-1.27h0s.05,0,.08,0c.04,0,.08,0,.13,0h.06c.08,0,.17,0,.25,0h.02c.06,0,.12,0,.18,0h0c.68.04,1.34.16,1.95.36.31.1.61.22.9.33l.19.07.05.02s.02,0,.03.01c1.74.67,3.91,2.31,3.91,4.12,0,.05,0,.09,0,.14,0,.05,0,.09-.01.14-.01.09-.03.19-.06.29-.06.22-.52.81-.97,1.26-.56.36-1.35.56-2.27.57h-.08c-.12,0-.24-.01-.38,0-.01,0-.02,0-.03,0,0,0,0,0,0,0-.97-.05-2.01-.25-3.11-.61-2.33-.77-4.51-2.72-6.08-5.45ZM48.84,226.67c-2.41-.76-4.64-2.68-6.24-5.33,1.63-.73,3.4-1.15,5.39-1.28h.01s.02,0,.02,0c.1,0,.2,0,.3,0,.04,0,.07,0,.11,0,.76.03,1.47.15,2.13.36.09.03.19.06.28.09-.17.93-.35,2.13-.35,3.33,0,.6.04,1.21.16,1.78.02.13.05.26.08.38.01.06.03.12.05.18.06.24.14.47.24.7-.85.01-1.64-.04-2.19-.21ZM54.44,229.18c.58-.16,1.1-.38,1.56-.67.03-.02.07-.04.1-.06,0,0,0,0,0,0,.01,0,.03-.01.04-.02.02-.01.03-.02.05-.04.3-.2.59-.45.87-.74-.31,1.58-.73,1.9-.74,1.91,0,0,0,0-.02,0-.08.05-.61.15-1.72-.32-.05-.02-.09-.04-.14-.06Z"/>
      </g>
      <g>
        <g>
          <path class="cls-1" d="M222.2,144.05c2.86,0,5.19-2.33,5.19-5.19s-2.33-5.19-5.19-5.19-5.19,2.33-5.19,5.19,2.33,5.19,5.19,5.19ZM222.2,135.76c1.71,0,3.11,1.39,3.11,3.11s-1.39,3.11-3.11,3.11-3.11-1.39-3.11-3.11,1.39-3.11,3.11-3.11Z"/>
          <path class="cls-1" d="M172.78,128.18c2.19,0,3.97-1.78,3.97-3.97s-1.78-3.97-3.97-3.97-3.97,1.78-3.97,3.97,1.78,3.97,3.97,3.97ZM172.78,122.32c1.04,0,1.89.85,1.89,1.89s-.85,1.89-1.89,1.89-1.89-.85-1.89-1.89.85-1.89,1.89-1.89Z"/>
          <path class="cls-1" d="M202.11,153.22c4.25,0,7.7-3.45,7.7-7.7s-3.45-7.7-7.7-7.7-7.7,3.45-7.7,7.7,3.45,7.7,7.7,7.7ZM202.11,139.9c3.1,0,5.62,2.52,5.62,5.62s-2.52,5.62-5.62,5.62-5.62-2.52-5.62-5.62,2.52-5.62,5.62-5.62Z"/>
        </g>
        <g>
          <path class="cls-7" d="M162.37,160.45h71.46c1.56,0,2.87,1.19,3.01,2.75.79,8.81,2.9,36.78-.26,54.87-3.79,21.7-11.38,37.41-11.38,59.86v36c0,3.93-3.19,7.12-7.12,7.12h-39.96c-3.93,0-7.12-3.19-7.12-7.12v-36c0-22.45-7.59-38.16-11.38-59.86-3.16-18.09-1.05-46.06-.26-54.87.14-1.56,1.45-2.75,3.01-2.75Z"/>
          <path class="cls-1" d="M165.39,200.01c-.13,8.03.13,16.74,1.34,23.67,3.09,17.69,9.28,30.49,9.28,48.79v34.46h44.17v-34.46c0-18.3,6.18-31.1,9.28-48.79,1.21-6.93,1.47-15.64,1.34-23.67h-65.41ZM165.41,200.01h65.38-65.38Z"/>
          <g>
            <path class="cls-1" d="M181.66,184.75c.53,0,1.06-.05,1.59-.15,5.76-1.06,5.32-6.09,5-9.76-.3-3.43-.38-5.57,1.63-6.36,1.73-.68,3.07.41,5.3,2.4,2.1,1.88,4.72,4.23,8.45,4.1,2.88-.09,4.92-1.1,6.09-2.99,2.67-4.34-.69-11.71-.84-12.02l-2.07.96c.84,1.81,2.65,7.13.96,9.86-.75,1.21-2.13,1.83-4.21,1.9-2.81.09-4.87-1.74-6.85-3.52-2.23-1.99-4.53-4.06-7.66-2.83-3.7,1.45-3.37,5.3-3.07,8.69.37,4.23.4,6.65-3.14,7.31-2.09.39-4.18-.28-6.23-1.99-6.09-5.07-9.6-17.04-9.6-19.91h-2.29c0,3.86,4.05,16.36,10.43,21.67,2.1,1.75,4.28,2.63,6.52,2.63Z"/>
            <path class="cls-4" d="M158.22,163.1c.19-2.16,1.98-3.79,4.15-3.79h71.46c2.17,0,3.96,1.63,4.15,3.79.75,8.31,2.93,36.85-.28,55.16-1.39,7.96-3.29,15.13-5.13,22.07-3.2,12.08-6.23,23.49-6.23,37.6v36c0,4.55-3.71,8.26-8.26,8.26h-39.96c-4.55,0-8.26-3.71-8.26-8.26v-36c0-14.11-3.03-25.52-6.23-37.6-1.84-6.93-3.74-14.11-5.13-22.07-3.2-18.32-1.02-46.86-.28-55.16ZM235.7,163.31c-.09-.98-.89-1.71-1.87-1.71h-71.46c-.98,0-1.78.74-1.87,1.71-.38,4.25-1.14,13.82-1.36,24.58h77.91c-.21-10.75-.97-20.33-1.36-24.58ZM178.12,319.91h39.96c3.29,0,5.97-2.68,5.97-5.97v-5.05h-51.91v5.05c0,3.29,2.68,5.97,5.97,5.97ZM160.75,217.87c1.38,7.87,3.26,14.99,5.09,21.88,3.24,12.23,6.31,23.77,6.31,38.18v28.66h51.91v-28.66c0-14.41,3.06-25.96,6.31-38.18,1.83-6.89,3.72-14.01,5.09-21.88,1.41-8.09,1.76-18.23,1.64-27.7h-77.99c-.12,9.47.23,19.62,1.64,27.7Z"/>
            <path class="cls-7" d="M220.18,306.59c.63,0,1.14-.51,1.14-1.14v-32.98c0-11.47,2.46-20.76,5.07-30.59,1.5-5.66,3.05-11.51,4.19-18,1.06-6.07,1.52-14.11,1.36-23.89-.01-.62-.52-1.13-1.14-1.13s-1.15.51-1.15,1.14c0,.05,0,.1,0,.15.15,9.58-.3,17.42-1.33,23.32-1.12,6.4-2.66,12.2-4.15,17.81-2.65,9.98-5.15,19.4-5.15,31.18v32.98c0,.63.51,1.14,1.14,1.14Z"/>
            <path class="cls-7" d="M176.01,306.59c.63,0,1.14-.51,1.14-1.14v-32.98c0-11.77-2.5-21.2-5.15-31.18-1.49-5.61-3.03-11.41-4.15-17.81-1.03-5.9-1.48-13.75-1.33-23.33,0-.05,0-.09,0-.14,0-.63-.51-1.14-1.14-1.14h-.01c-.62,0-1.13.5-1.14,1.13-.16,9.78.3,17.82,1.36,23.89,1.14,6.5,2.69,12.35,4.19,18,2.61,9.83,5.07,19.11,5.07,30.59v32.98c0,.63.51,1.14,1.14,1.14Z"/>
            <path class="cls-7" d="M174.72,175.16c.23,0,.47-.07.67-.22.51-.37.62-1.09.25-1.6-1.85-2.52-3.11-5.33-4.23-9.41-.17-.61-.8-.97-1.41-.8-.61.17-.97.8-.8,1.41,1.19,4.36,2.57,7.4,4.59,10.16.22.31.57.47.92.47Z"/>
          </g>
        </g>
      </g>
      <g>
        <g>
          <g>
            <path class="cls-1" d="M87.24,318.98c-.44-.06-.87-.13-1.29-.2-1.03,3.15-2.3,5.37-2.3,5.37,0,0-.29-.05-.79-.16-1.04,3.29-2.38,5.62-2.38,5.62,0,0-.92-.16-2.32-.55h0c-1.92,1.89-4.27,3.09-4.27,3.09,0,0-2.35-1.2-4.27-3.09-1.41.39-2.32.55-2.32.55,0,0-1.34-2.34-2.38-5.62-.5.11-.78.16-.78.16,0,0-1.27-2.22-2.3-5.37-.42.08-.84.14-1.29.2,1.21-4.06-3.6-13.17,5.74-20.5,1.07-.84,2.44-1.53,3.85-2.08,0,0,0,0,0,0,1.7-.66,3.29-1.08,3.75-1.14h0c.46.05,2.05.47,3.74,1.13,1.41.55,2.88,1.32,3.86,2.09,9.38,7.28,4.54,16.45,5.74,20.5Z"/>
            <g>
              <path class="cls-4" d="M60.54,319.99c-.29,0-.57-.13-.77-.35-.22-.26-.3-.62-.2-.94.29-.97.15-2.44,0-4.14-.43-4.76-1.03-11.28,6.09-16.87,1.04-.82,2.42-1.57,4.09-2.22,0,0,.01,0,.02,0,1.67-.65,3.38-1.13,4.01-1.2.29-.03.57.06.78.25.1.09.18.19.23.31.02.05.04.1.06.15.84,2.78,3.07,10.16.37,16.13,0,0,0,0,0,0-.14.31-.29.62-.45.91-1.15,2.1-2.89,3.83-5.15,5.15-2.07,1.21-4.64,2.09-7.62,2.61-.43.08-.87.15-1.32.21-.05,0-.09,0-.14,0ZM70.5,297.34h0c-1.49.58-2.7,1.23-3.59,1.94-6.25,4.91-5.74,10.56-5.32,15.1.11,1.25.22,2.39.17,3.4,2.71-.49,5.02-1.28,6.86-2.35,1.94-1.13,3.42-2.6,4.4-4.38.13-.24.26-.5.38-.77,1.97-4.37,1.01-9.58-.2-13.83-.65.17-1.62.47-2.67.88,0,0,0,0-.01,0ZM74.31,310.69h0,0Z"/>
              <path class="cls-4" d="M87.24,319.99s-.09,0-.14,0c-.45-.06-.9-.13-1.33-.21-2.98-.53-5.55-1.41-7.62-2.61-2.26-1.32-4-3.05-5.15-5.15-.17-.3-.17-.67,0-.97.13-.24.26-.5.38-.77,2.11-4.69.86-10.33-.46-14.72-.03-.09-.04-.19-.04-.29,0-.56.45-1.01,1.01-1.01.04,0,.08,0,.11,0,.63.07,2.34.55,4,1.19,1.56.61,3.1,1.44,4.11,2.23,7.16,5.55,6.52,12.36,6.1,16.86-.16,1.71-.3,3.19-.01,4.15.1.33.02.68-.2.94-.19.22-.47.35-.77.35ZM75.04,311.5c.97,1.57,2.36,2.89,4.13,3.92,1.85,1.07,4.15,1.87,6.86,2.35-.05-1.02.06-2.16.17-3.41.42-4.55.95-10.21-5.33-15.08-.87-.67-2.22-1.4-3.61-1.94-.7-.27-1.36-.5-1.92-.67.94,3.45,2.14,9.43-.12,14.44-.06.13-.12.27-.19.39Z"/>
              <path class="cls-4" d="M73.89,333.17c-.16,0-.31-.04-.46-.11-.1-.05-2.51-1.29-4.52-3.27-.25-.25-.36-.61-.27-.96.09-.35.35-.62.69-.72.97-.29,2.93-.93,4.16-1.46.26-.11.55-.11.8,0,1.14.5,2.96,1.1,4.16,1.46.34.1.6.38.69.72.09.35-.02.71-.27.96-2.01,1.98-4.42,3.22-4.52,3.27-.14.07-.3.11-.46.11ZM71.63,329.49c.9.71,1.76,1.23,2.26,1.52.5-.29,1.36-.82,2.26-1.52-.78-.26-1.59-.55-2.26-.83-.68.27-1.48.56-2.26.83Z"/>
              <g>
                <path class="cls-4" d="M80.48,330.62c-.06,0-.11,0-.17-.01-.04,0-.98-.17-2.42-.57h0s-.02,0-.03,0c-.23-.07-.48-.14-.74-.22-1.17-.35-2.3-.76-3.37-1.22l-.13-.05s-.09-.04-.14-.06c-.37-.16-.6-.53-.6-.93,0-.4.24-.76.61-.92,2.57-1.11,4.67-2.47,6.24-4.01.26-.26.65-.36,1-.25.38.12.75.22,1.12.32.41.11.83.21,1.23.3.28.06.51.24.65.48.14.25.17.54.09.81-1.06,3.35-2.41,5.72-2.47,5.82-.18.32-.52.51-.87.51ZM78.45,328.1c.61.17,1.12.29,1.49.37.38-.74,1.01-2.09,1.61-3.76-.08-.02-.15-.04-.23-.06-.2-.06-.41-.11-.62-.17-1.2,1.1-2.64,2.1-4.29,2.99.42.15.85.29,1.29.42.25.08.49.15.72.21.01,0,.02,0,.03,0Z"/>
                <path class="cls-5" d="M73.89,328.57c-.14,0-.27-.03-.4-.08-2.8-1.21-5.11-2.7-6.86-4.43-.25-.25-.36-.61-.27-.96.08-.35.34-.62.68-.72,1.63-.5,4.05-1.39,6.32-2.77.32-.2.73-.2,1.05,0,2.27,1.38,4.69,2.26,6.32,2.77.34.1.6.38.68.72.08.35-.02.71-.27.96-1.75,1.72-4.05,3.21-6.86,4.43-.13.06-.26.08-.4.08ZM69.32,323.74c1.28,1.01,2.81,1.92,4.57,2.72,1.76-.8,3.29-1.71,4.57-2.72-1.38-.5-2.99-1.19-4.57-2.1-1.58.91-3.19,1.59-4.57,2.1Z"/>
                <path class="cls-4" d="M83.65,325.16c-.06,0-.11,0-.17-.01-.01,0-.32-.05-.83-.17-.43-.1-.87-.21-1.32-.32-.39-.11-.79-.22-1.19-.34-1.74-.53-4.33-1.48-6.78-2.97-.3-.18-.48-.51-.48-.86s.18-.68.48-.86c1.9-1.15,3.41-2.48,4.49-3.93.31-.41.87-.53,1.32-.27,1.87,1.09,4.21,1.88,6.96,2.37.29.05.54.22.69.47.15.25.18.55.09.83-1.05,3.22-2.33,5.47-2.38,5.56-.18.32-.52.51-.87.51ZM75.83,320.4c1.82.94,3.61,1.58,4.91,1.98.38.12.75.22,1.12.32.41.11.83.21,1.23.3,0,0,.02,0,.03,0,.36-.7.94-1.93,1.5-3.47-2.15-.46-4.05-1.12-5.69-1.97-.86,1.01-1.89,1.96-3.1,2.82Z"/>
              </g>
              <g>
                <path class="cls-4" d="M67.3,330.62c-.36,0-.69-.19-.87-.51-.06-.1-1.41-2.47-2.47-5.82-.09-.27-.05-.56.09-.81.14-.25.38-.42.66-.48.38-.08.8-.19,1.23-.3.38-.1.75-.21,1.12-.32.35-.11.74-.01,1.01.25,1.57,1.55,3.67,2.9,6.24,4.01.37.16.61.52.61.93,0,.4-.24.77-.61.93-1.15.5-2.37.95-3.63,1.33-1.86.56-3.14.78-3.2.79-.06,0-.11.01-.17.01ZM66.22,324.71c.6,1.68,1.24,3.02,1.61,3.76.52-.12,1.31-.31,2.24-.59.43-.13.86-.27,1.29-.42-1.65-.89-3.09-1.89-4.29-2.99-.21.06-.41.12-.62.17-.08.02-.15.04-.23.06Z"/>
                <path class="cls-4" d="M73.89,328.57c-.14,0-.27-.03-.4-.08-2.8-1.21-5.11-2.7-6.86-4.43-.25-.25-.36-.61-.27-.96.08-.35.34-.62.68-.72,1.63-.5,4.05-1.39,6.32-2.77.32-.2.73-.2,1.05,0,2.27,1.38,4.69,2.26,6.32,2.77.34.1.6.38.68.72.08.35-.02.71-.27.96-1.75,1.72-4.05,3.21-6.86,4.43-.13.06-.26.08-.4.08ZM69.32,323.74c1.28,1.01,2.81,1.92,4.57,2.72,1.76-.8,3.29-1.71,4.57-2.72-1.38-.5-2.99-1.19-4.57-2.1-1.58.91-3.19,1.59-4.57,2.1Z"/>
                <path class="cls-4" d="M64.13,325.16c-.36,0-.69-.19-.87-.51-.05-.09-1.34-2.35-2.38-5.56-.09-.28-.06-.58.09-.83.15-.25.4-.42.69-.47,2.75-.49,5.09-1.28,6.96-2.37.44-.26,1.01-.14,1.32.27,1.08,1.45,2.59,2.77,4.49,3.93.3.18.48.51.48.86s-.18.68-.48.86c-2.45,1.49-5.04,2.44-6.78,2.97-.39.12-.79.24-1.19.34-.46.12-.91.23-1.32.32-.51.12-.82.17-.83.17-.06,0-.11.01-.17.01ZM63.16,319.55c.57,1.54,1.15,2.77,1.5,3.47,0,0,.02,0,.03,0,.38-.08.81-.19,1.23-.3.37-.1.75-.21,1.12-.32,1.3-.4,3.09-1.04,4.91-1.98-1.21-.87-2.24-1.81-3.1-2.82-1.64.84-3.54,1.5-5.69,1.97Z"/>
                <path class="cls-4" d="M73.89,321.49c-.18,0-.36-.05-.52-.15-2.12-1.29-3.82-2.79-5.06-4.45-.17-.23-.24-.52-.18-.8.06-.28.23-.52.48-.67,1.94-1.13,3.42-2.6,4.4-4.38.18-.32.52-.52.88-.52h0c.37,0,.71.2.88.52.98,1.78,2.46,3.25,4.4,4.38.25.14.42.39.48.67.06.28,0,.57-.18.8-1.23,1.66-2.94,3.16-5.06,4.45-.16.1-.34.15-.52.15ZM70.62,316.53c.88.99,1.98,1.91,3.27,2.75,1.29-.84,2.39-1.76,3.27-2.75-1.3-.89-2.4-1.94-3.27-3.14-.88,1.2-1.97,2.24-3.27,3.14Z"/>
              </g>
            </g>
          </g>
          <path class="cls-4" d="M73.89,296.27c-.5,0-.93-.37-1-.87-.03-.19-.62-4.76.45-10.45,1.42-7.6,5.17-13.55,10.84-17.19.47-.3,1.09-.17,1.39.3.3.47.17,1.09-.3,1.39-5.25,3.37-8.59,8.69-9.94,15.81-1.02,5.38-.45,9.82-.44,9.87.07.55-.31,1.06-.87,1.13-.05,0-.09,0-.14,0Z"/>
        </g>
        <g>
          <g>
            <path class="cls-1" d="M105.19,252.87l2.87-1.32s-7.19-4.61-12.07-4.65c-5.03-.04-7.53,3.71-7.46,6.59.03,1.39-.86.95-.86.95,0,0-.89.44-.86-.95.07-2.87-2.43-6.62-7.46-6.59-4.87.04-12.07,4.65-12.07,4.65l2.87,1.32s-8.32,4.26-5.76,20.39c5.57-1.03,7.7,0,13.9-7.13,1.47-1.69,3.87-.19,2.13,1.55-2.47,2.47-7.28,7.21-2.6,13.68,2.64,3.65,4.15,5.29,9.86,11.26,5.71-5.97,7.22-7.62,9.86-11.26,4.69-6.47-.13-11.21-2.6-13.68-1.74-1.74.66-3.24,2.13-1.55,6.2,7.13,8.32,6.1,13.9,7.13,2.56-16.13-5.76-20.39-5.76-20.39Z"/>
            <path class="cls-4" d="M87.66,293.76c-.31,0-.61-.13-.82-.35-5.81-6.07-7.31-7.72-9.96-11.38-2.25-3.11-2.77-6.27-1.54-9.38,1-2.51,2.93-4.44,4.21-5.72l.05-.05c.16-.16.22-.27.25-.34-.13-.03-.41,0-.72.34-5.4,6.22-8.02,6.57-11.97,7.11-.8.11-1.64.22-2.58.4-.3.06-.61-.01-.87-.19-.25-.18-.42-.45-.47-.75-1.95-12.28,2.18-18.06,4.67-20.34l-1.13-.52c-.38-.17-.63-.54-.66-.96-.03-.42.17-.81.52-1.04.31-.2,7.53-4.79,12.67-4.83.03,0,.06,0,.08,0,3.2,0,5.21,1.35,6.33,2.49.9.92,1.57,2.05,1.92,3.23.35-1.18,1.01-2.31,1.92-3.23,1.12-1.14,3.13-2.49,6.33-2.49.03,0,.05,0,.08,0,5.14.04,12.37,4.63,12.67,4.83.35.22.55.62.52,1.04-.03.42-.28.78-.66.96l-1.13.52c2.49,2.28,6.62,8.05,4.67,20.34-.05.3-.22.57-.47.75-.25.18-.56.25-.87.19-.94-.17-1.77-.29-2.58-.4-3.96-.54-6.57-.89-11.97-7.11-.3-.35-.59-.37-.72-.34.03.07.1.18.25.34l.05.05c1.28,1.28,3.21,3.21,4.21,5.72,1.23,3.11.71,6.27-1.54,9.38-2.65,3.66-4.15,5.31-9.96,11.38-.22.22-.51.35-.82.35ZM79.75,264.24c.19,0,.39.02.58.06.85.18,1.51.78,1.74,1.56.25.87-.06,1.82-.86,2.62l-.05.05c-2.44,2.44-6.52,6.52-2.43,12.16,2.44,3.37,3.89,5,8.93,10.28,5.05-5.29,6.49-6.91,8.93-10.28,4.09-5.64,0-9.72-2.43-12.16l-.05-.05c-.8-.8-1.11-1.75-.86-2.62.23-.78.89-1.37,1.74-1.56,1.04-.23,2.13.17,2.91,1.07,4.84,5.57,6.87,5.84,10.56,6.35.47.06.98.13,1.52.22,1.86-14.21-5.25-18.02-5.32-18.06-.39-.2-.63-.6-.62-1.04,0-.44.27-.83.66-1.01l.88-.41c-2.37-1.32-6.56-3.37-9.62-3.39-.02,0-.04,0-.06,0-2.41,0-3.89.98-4.71,1.81-1,1.01-1.57,2.36-1.54,3.61.03,1.14-.44,1.68-.83,1.93-.38.25-.81.29-1.17.23-.36.06-.79.02-1.17-.23-.39-.25-.85-.79-.83-1.93.03-1.25-.55-2.6-1.54-3.61-.82-.83-2.29-1.81-4.71-1.81-.02,0-.04,0-.06,0-3.06.02-7.25,2.07-9.62,3.39l.88.41c.4.18.65.58.66,1.01,0,.44-.23.84-.62,1.04-.01,0-1.89,1.03-3.46,3.85-1.4,2.52-2.81,6.99-1.87,14.21.54-.08,1.05-.15,1.52-.22,3.69-.5,5.72-.78,10.56-6.34.64-.73,1.48-1.14,2.33-1.14Z"/>
          </g>
          <g>
            <path class="cls-4" d="M98.71,257.3c0-.25.12-.5.34-.66.36-.26.87-.18,1.13.19l7.94,11.13c.26.36.18.87-.19,1.13-.36.26-.87.18-1.13-.19l-7.94-11.13c-.1-.14-.15-.31-.15-.47Z"/>
            <path class="cls-4" d="M67.06,268.42c0-.16.05-.33.15-.47l7.94-11.13c.26-.36.77-.45,1.13-.19.36.26.45.76.19,1.13l-7.94,11.13c-.26.36-.77.45-1.13.19-.22-.16-.34-.41-.34-.66Z"/>
          </g>
          <g>
            <g>
              <path class="cls-4" d="M86.86,269.78c0-.25.12-.5.34-.66.36-.26.87-.18,1.13.19l5.5,7.7c.26.36.18.87-.19,1.13-.36.26-.87.18-1.13-.19l-5.5-7.7c-.1-.14-.15-.31-.15-.47Z"/>
              <path class="cls-4" d="M81.36,277.49c0-.16.05-.33.15-.47l5.5-7.7c.26-.36.77-.45,1.13-.19.36.26.45.76.19,1.13l-5.5,7.7c-.26.36-.77.45-1.13.19-.22-.16-.34-.41-.34-.66Z"/>
            </g>
            <g>
              <path class="cls-4" d="M86.86,257.25c0-.25.12-.5.34-.66.36-.26.87-.18,1.13.19l3.2,4.49c.26.36.18.87-.19,1.13-.36.26-.87.18-1.13-.19l-3.2-4.49c-.1-.14-.15-.31-.15-.47Z"/>
              <path class="cls-4" d="M83.65,261.74c0-.16.05-.33.15-.47l3.2-4.49c.26-.36.77-.45,1.13-.19.36.26.45.76.19,1.13l-3.2,4.49c-.26.36-.77.45-1.13.19-.22-.16-.34-.41-.34-.66Z"/>
            </g>
            <g>
              <path class="cls-4" d="M86.86,278.49c0-.25.12-.5.34-.66.36-.26.87-.18,1.13.19l3.2,4.49c.26.36.18.87-.19,1.13-.36.26-.87.18-1.13-.19l-3.2-4.49c-.1-.14-.15-.31-.15-.47Z"/>
              <path class="cls-4" d="M83.65,282.97c0-.16.05-.33.15-.47l3.2-4.49c.26-.36.77-.45,1.13-.19.36.26.45.76.19,1.13l-3.2,4.49c-.26.36-.77.45-1.13.19-.22-.16-.34-.41-.34-.66Z"/>
            </g>
            <path class="cls-4" d="M86.86,292.95v-35.7c0-.45.36-.81.81-.81s.81.36.81.81v35.7c0,.45-.36.81-.81.81s-.81-.36-.81-.81Z"/>
          </g>
        </g>
      </g>
    </g>
    <path class="cls-1" d="M58.41,210.83c.76,3.29.75,6.58-.05,9.24l-.02.08c-.33,1.09-.68,2.25-1.16,3.32-.05.06-.08.12-.12.19-.39.83-.77,1.45-1.11,1.9,0,0,0,.01-.01.02-.26.32-.55.62-.87.89-.38.07-.89.15-1.47.22-.04-.03-.08-.07-.12-.1-.04-.03-.07-.07-.1-.1-1.1-1.22-.53-4.51-.23-6.2l.03-.2v-.08c.1-.42.24-.9.38-1.4v-.02c.24-.82.57-1.66,1.02-2.58,0,0,0,0,0,0,.09-.16.17-.32.26-.49,1.01-1.61,2.14-3.25,3.58-4.69Z"/>
    <path class="cls-1" d="M54.56,201.29c.69,3.23.62,6.49-.21,9.36-.27.94-.58,1.81-.9,2.6-.76-1.54-2.26-2.83-3.94-3.61.05-.18.1-.36.16-.55.24-.8.56-1.62.95-2.41,0,0,0,0,0,0,0,0,0-.01.01-.02,0,0,0,0,0,0,0,0,0,0,0,0,.15-.27.3-.55.44-.84,0,0,0,0,0,0,1.07-1.77,2.23-3.28,3.48-4.51Z"/>
    <path class="cls-1" d="M50.77,191.76c.7,3.19.62,6.46-.24,9.35-.41,1.38-.88,2.61-1.39,3.66,0,0,0,.01,0,.02,0,0-.01.02-.02.03-.07.13-.14.26-.21.38-.01.03-.03.06-.05.09-.02.04-.04.08-.06.11-.04.07-.07.14-.1.21-.68,1.17-1.27,1.76-1.67,2.05-.39.15-.86.28-1.07.29h0s-.02,0-.03-.02c-.03-.01-.06-.03-.08-.05-.03-.01-.05-.03-.08-.05-.02,0-.04-.02-.06-.04-.03-.02-.05-.04-.08-.07-.02-.01-.03-.03-.05-.04-.02-.02-.04-.04-.05-.06-.03-.03-.05-.06-.07-.08,0,0,0,0,0,0-.03-.04-.06-.08-.09-.13-.02-.03-.04-.07-.06-.1-.04-.07-.07-.14-.1-.21-.61-1.48-.08-4.28.21-5.79l.05-.26.02-.08c.09-.43.23-.91.39-1.44.24-.79.55-1.58.93-2.36,0,0,0-.02.01-.03.02-.04.05-.08.07-.13.04-.07.08-.15.12-.22,0,0,0,0,0,0,.04-.08.09-.17.13-.25.02-.04.05-.09.07-.13.04-.07.07-.14.11-.21.93-1.42,2.04-3,3.45-4.43Z"/>
    <path class="cls-1" d="M46.83,182.26c.77,3.15.74,6.41-.11,9.32-.28.94-.58,1.82-.91,2.62-.09-.17-.18-.34-.29-.5-.03-.05-.07-.1-.1-.16-.81-1.25-2.11-2.3-3.57-2.96.05-.18.1-.36.15-.53.24-.81.55-1.61.92-2.39.19-.33.36-.66.52-1,.89-1.58,2.03-3.07,3.4-4.38Z"/>
    <path class="cls-1" d="M42.6,172.96c.9,3.12.97,6.43.14,9.13v.02c-.36,1.16-.74,2.39-1.27,3.52,0,0,0,0,0,0-.18.32-.35.64-.5.97-.43.73-.94,1.39-1.58,1.91-.37.07-.87.14-1.43.2-.04-.03-.08-.07-.12-.1-.04-.03-.07-.07-.11-.11-1.06-1.24-.54-4.49-.26-6.16l.05-.31h0c.08-.42.21-.89.34-1.38v-.02c.23-.84.55-1.69.95-2.51,0,0,0-.01,0-.02,0,0,0,0,0-.01.02-.05.05-.1.08-.15h0c.04-.08.08-.16.12-.24,0,0,.01-.02.02-.03,0-.02.02-.04.03-.06.94-1.53,2.08-3.21,3.53-4.67Z"/>
    <path class="cls-1" d="M26.78,183.52c1.77-.79,3.61-1.25,5.38-1.33.08,0,.16,0,.23,0,.08,0,.16,0,.23,0,0,0,0,0,0,0h.03c.79.01,1.54.12,2.23.32.1.03.2.06.29.08-.16.93-.32,2.09-.32,3.25,0,1.08.14,2.16.53,3.08-.85.01-1.63-.04-2.17-.22-3.02-.97-5.17-3.36-6.45-5.18Z"/>
    <path class="cls-1" d="M31.01,192.79c2.79-1.3,5.66-1.64,8-.93.29.09.59.2.87.31.08.03.15.06.22.08.02,0,.04.01.06.02.01,0,.02,0,.03.01,1.79.66,4.01,2.34,3.91,4.21,0,.03,0,.07,0,.1,0,.05-.01.1-.02.16,0,.03,0,.05-.01.08,0,.04-.02.09-.03.13,0,.02,0,.03-.02.05-.1.25-.54.8-.96,1.23-.52.34-1.2.52-2.03.56h-.01s-.01,0-.02,0c-.05,0-.1,0-.15,0-.23-.01-.49-.02-.75,0-.91-.07-1.87-.27-2.88-.6-2.3-.76-4.52-2.7-6.2-5.38Z"/>
    <path class="cls-1" d="M34.95,202.25c1.55-.7,3.24-1.12,5.14-1.27h0s0,0,0,0c.2.01.4.02.6.02.1,0,.2,0,.29,0,.66.05,1.29.17,1.87.36.09.03.17.06.26.09-.21,1.05-.43,2.39-.43,3.71,0,.7.07,1.4.23,2.04.03.15.07.29.12.43.03.11.07.21.11.31.02.06.05.11.07.16.02.06.05.11.08.17-.73-.1-1.49-.28-2.28-.55-2.3-.77-4.48-2.74-6.08-5.46Z"/>
    <path class="cls-1" d="M38.76,211.8c1.58-.69,3.22-1.01,5.23-1.27h0s.05,0,.08,0c.04,0,.08,0,.13,0h.06c.08,0,.17,0,.25,0h.02c.06,0,.12,0,.18,0h0c.68.04,1.34.16,1.95.36.31.1.61.22.9.33l.19.07.05.02s.02,0,.03.01c1.74.67,3.91,2.31,3.91,4.12,0,.05,0,.09,0,.14,0,.05,0,.09-.01.14-.01.09-.03.19-.06.29-.06.22-.52.81-.97,1.26-.56.36-1.35.56-2.27.57h-.08c-.12,0-.24-.01-.38,0-.01,0-.02,0-.03,0,0,0,0,0,0,0-.97-.05-2.01-.25-3.11-.61-2.33-.77-4.51-2.72-6.08-5.45Z"/>
    <path class="cls-1" d="M48.84,226.67c-2.41-.76-4.64-2.68-6.24-5.33,1.63-.73,3.4-1.15,5.39-1.28h.01s.02,0,.02,0c.1,0,.2,0,.3,0,.04,0,.07,0,.11,0,.76.03,1.47.15,2.13.36.09.03.19.06.28.09-.17.93-.35,2.13-.35,3.33,0,.6.04,1.21.16,1.78.02.13.05.26.08.38.01.06.03.12.05.18.06.24.14.47.24.7-.85.01-1.64-.04-2.19-.21Z"/>
    <path class="cls-1" d="M54.44,229.18c.58-.16,1.1-.38,1.56-.67.03-.02.07-.04.1-.06,0,0,0,0,0,0,.01,0,.03-.01.04-.02.02-.01.03-.02.05-.04.3-.2.59-.45.87-.74-.31,1.58-.73,1.9-.74,1.91,0,0,0,0-.02,0-.08.05-.61.15-1.72-.32-.05-.02-.09-.04-.14-.06Z"/>
    <path class="cls-1" d="M82.97,198.13l-.07.09c-.95,1.23-1.96,2.52-3.09,3.66-.07.04-.13.09-.19.14-.8.77-1.51,1.33-2.12,1.73-.61.38-1.24.69-1.93.91-.55-.11-1.3-.27-2.14-.48-.02-.03-.04-.05-.06-.08-.01-.01-.02-.03-.03-.04-.35-.52-.45-1.18-.4-1.9,0-.02,0-.04,0-.07,0-.05.01-.11.02-.16.27-2.12,1.83-4.75,2.82-6.41l.2-.34c.31-.49.71-1.02,1.13-1.58v-.02c.71-.93,1.55-1.84,2.57-2.79,0,0,.01,0,.02-.01.09-.08.19-.16.27-.24.03-.03.06-.05.08-.08.05-.05.1-.09.15-.14,0,0,.01-.01.02-.02,2.2-1.65,4.59-3.29,7.33-4.43-.56,4.75-2.19,9.14-4.59,12.25Z"/>
    <path class="cls-1" d="M78.94,163.75c.18-.15.37-.31.56-.47,0,0,0,0,0,0,.01,0,.02-.02.03-.03.02-.02.03-.03.05-.05.15-.14.31-.27.46-.42,1.99-1.45,4.34-3.03,7.06-4.18-.59,4.6-2.29,8.91-4.88,12.29-1.17,1.53-2.35,2.86-3.51,3.94-.02.02-.04.03-.06.05-.3.24-.59.5-.87.76-.01,0-.02.02-.03.03-1.19.98-2.31,1.61-3.25,1.84-.68,0-1.46-.08-1.7-.2-.04-.03-.07-.07-.1-.11-.02-.03-.05-.05-.07-.08-.01-.01-.02-.03-.03-.04-1.56-2.05,1.22-6.55,2.58-8.76l.25-.41c.32-.49.73-1.02,1.16-1.58l.02-.03c.68-.89,1.46-1.75,2.32-2.55Z"/>
    <path class="cls-1" d="M85.82,131.43c-.27,4.58-1.81,9.04-4.26,12.18l-.02.02c-1.01,1.29-2.08,2.66-3.29,3.84-.37.32-.74.64-1.1.98-.93.75-1.95,1.35-3.08,1.71-.54-.11-1.27-.27-2.1-.48-.01-.02-.03-.03-.04-.05-.02-.03-.04-.06-.05-.08-.03-.04-.05-.09-.08-.13-.02-.03-.03-.06-.05-.1-.02-.04-.04-.08-.05-.12-.02-.04-.03-.08-.05-.12,0-.03-.02-.05-.02-.08-.66-2.2,1.44-5.84,2.66-7.94l.22-.37c.3-.49.68-1.01,1.09-1.57l.02-.02c.7-.96,1.52-1.89,2.43-2.74.15-.13.35-.31.55-.5,2.05-1.57,4.47-3.27,7.23-4.41Z"/>
    <path class="cls-1" d="M84.21,118.08c.03,4.4-1.27,8.73-3.64,12.08-.88,1.24-1.83,2.39-2.84,3.44,0-.06,0-.12-.01-.18,0-.05,0-.09,0-.14-.18-2.58-1.99-5.16-3.96-6.84.17-.26.34-.51.52-.78.61-.89,1.33-1.75,2.14-2.55.28-.25.57-.52.85-.8,2.13-1.8,4.46-3.22,6.95-4.23Z"/>
    <path class="cls-1" d="M76.9,107.48c1.8-1.25,3.56-2.07,4.69-2.52.42,4.31-.57,8.6-2.78,11.94-.98,1.47-2,2.75-3.04,3.8-.29.26-.58.53-.86.81-1.1.95-2.16,1.57-3.08,1.79-.78.02-1.68-.09-1.9-.23-1.91-1.41-.91-4.41.31-7.37.01-.03.02-.05.03-.08l.05-.1c.06-.12.12-.24.18-.36.01-.02.02-.05.04-.08.05-.11.11-.21.16-.31,0-.02.02-.03.03-.05.06-.11.11-.22.17-.32,0-.01.01-.02.02-.03.06-.11.12-.22.18-.32h0c.05-.09.1-.18.15-.27,0,0,0,0,0,0,0,0,0,0,0,0,.24-.42.5-.85.79-1.3.36-.56.76-1.11,1.19-1.63,0,0,.02-.02.02-.03.98-1.17,2.18-2.26,3.55-3.23.04-.03.08-.06.13-.09,0,0,0,0,0,0Z"/>
    <path class="cls-1" d="M74.98,92.99c1.21,4.48,1.33,9.01.33,12.91-.03.02-.06.05-.1.07-.21.15-.41.3-.61.46-.11.09-.23.18-.34.27-.13.11-.26.21-.39.32-.06.05-.12.1-.18.15-.01-.99-.1-1.96-.24-2.92h0c-.03-.23-.07-.47-.11-.7,0-.02,0-.04,0-.05-.08-.46-.17-.92-.27-1.37,0-.03-.01-.06-.02-.1-.04-.19-.09-.37-.13-.56-.01-.04-.02-.09-.03-.13-.1-.43-.21-.85-.33-1.26-.01-.05-.03-.11-.04-.16-.04-.16-.09-.31-.13-.47-.01-.05-.03-.1-.04-.15-.06-.2-.11-.39-.17-.59,0,0,0,0,0,0-.26-.88-.59-1.78-.98-2.61,1.33-1.63,2.83-2.61,3.8-3.12Z"/>
    <path class="cls-1" d="M68.91,96.47s.01.03.02.05c.52,1.1.87,2,1.11,2.82.85,2.91,1.7,6.26,1.37,9.54,0,.05-.01.11-.02.16-.02.14-.03.27-.05.41,0,.07-.02.13-.03.2-.03.04-.06.08-.09.12-.05.06-.1.12-.15.19-.07.08-.13.17-.19.25-.04.06-.09.12-.13.18-.07.1-.14.19-.21.29-.03.05-.07.1-.1.15-.1.15-.2.3-.29.45-.13.21-.26.42-.39.63-.19-.13-.39-.26-.6-.39-.15-.09-.3-.18-.45-.27-.06-.03-.11-.06-.17-.1-.1-.06-.19-.11-.29-.16-.07-.04-.14-.07-.2-.11-.09-.05-.18-.1-.28-.14-.07-.04-.14-.07-.22-.11-.05-.02-.09-.05-.14-.07-.04-.06-.08-.12-.12-.17-.06-.08-.11-.16-.16-.24-.06-.09-.12-.18-.17-.27-.05-.08-.11-.17-.16-.25-.05-.09-.11-.18-.16-.27-.05-.09-.1-.18-.15-.26-.05-.09-.1-.18-.15-.27-.05-.09-.1-.18-.15-.28-.05-.09-.09-.18-.14-.27-.05-.09-.1-.19-.14-.28-.04-.09-.09-.18-.13-.27-.05-.1-.09-.19-.14-.29-.04-.09-.08-.18-.12-.27-.04-.1-.09-.2-.13-.3-.04-.09-.08-.18-.12-.27-.04-.1-.09-.2-.13-.31-.04-.09-.07-.18-.11-.28-.04-.1-.08-.21-.12-.31-.04-.09-.07-.19-.11-.28-.04-.1-.08-.21-.12-.31-.03-.09-.07-.18-.1-.28-.04-.11-.08-.21-.12-.32-.03-.09-.06-.18-.1-.27-.04-.11-.08-.22-.12-.33-.03-.09-.06-.18-.09-.26-.04-.11-.08-.22-.11-.34-.03-.08-.06-.17-.08-.25-.04-.12-.08-.24-.12-.36-.01-.04-.02-.07-.04-.11-.12-.36-.24-.73-.35-1.09l-.24-.72h0c-.29-.89-.56-1.88-.82-3.04-.86-3.81-1.22-7.61-1.06-11.11,3.05,2.71,5.65,6.08,7.58,9.85Z"/>
    <path class="cls-1" d="M55.1,97.7c1.73.08,3.37.53,5.29,1.13h0c.17.71.35,1.37.53,1.98,0,.03.02.05.02.08.06.19.11.37.17.55,0,0,0,0,0,.01l.23.72s0,0,0,0c.08.25.16.5.25.76.03.09.06.17.09.26.07.21.14.42.21.64.02.07.05.14.07.21.09.26.18.52.27.79.03.07.05.15.08.22.07.21.15.41.22.62.03.08.06.16.09.24.1.26.2.53.3.79.02.05.04.1.06.15.09.22.18.43.27.65.03.08.07.16.1.24.1.24.21.47.32.71.01.03.02.06.04.08.12.25.24.51.37.76.02.03.03.06.05.1-.6-.16-1.22-.29-1.86-.4-.04,0-.08-.02-.12-.02-2.56-2.84-4.77-6.36-7.04-11.25Z"/>
    <path class="cls-1" d="M56.09,110.87c1.22-.09,3.17-.13,5.33.2,1.75.26,3.35.72,4.77,1.36,0,0,.01,0,.01,0,0,0,.01,0,.02.01.62.28,1.21.59,1.75.94.23.14.46.3.7.46,0,0,0,.01-.01.02-.05.09-.09.18-.14.27-.01.03-.03.06-.04.09-.06.12-.11.23-.16.33,0,0,0,0,0,0,0,0,0,0,0,0-.02.05-.05.1-.06.14l-.04.09s-.01.03-.02.04c-.04.1-.08.2-.12.3,0,.02-.02.04-.03.06-.1.25-.21.51-.31.79,0,.02-.01.04-.02.06-.11.28-.21.57-.31.86,0,.02-.02.04-.02.07-.1.3-.2.6-.28.92,0,.02-.01.05-.02.07-.09.31-.16.63-.23.95,0,.03-.01.06-.02.08-.06.32-.11.64-.14.96,0,.03,0,.06,0,.09-.03.32-.04.63-.03.95,0,.03,0,.06,0,.1,0,.15.02.3.04.45,0,0,0,0,0,.01.02.15.05.3.08.45,0,.03.01.07.02.1.03.14.07.28.11.42,0,0,0,.01,0,.02-1.15-.5-2.36-1.17-3.58-2-2.99-2.03-5.54-5.43-7.25-9.66Z"/>
    <path class="cls-1" d="M58.71,123.95c2.66-.2,5.3.08,7.85.81.16.06.32.12.48.18.01,0,.03.01.04.01.17.06.35.12.51.17.96.38,1.84.85,2.62,1.39.37.26.72.53,1.07.79.11.09.22.17.33.25,2.39,1.81,5,5.46,3.37,7.9,0,.01-.01.02-.02.03h0c-.21.31-1.15.87-1.91,1.21-.95.21-2.1.09-3.4-.36,0,0,0,0-.02,0-.2-.08-.41-.16-.61-.23,0,0,0,0,0,0-1.27-.52-2.59-1.28-3.92-2.26-3.63-2.68-5.5-6.96-6.4-9.9Z"/>
    <path class="cls-1" d="M60.34,137.28c2.79-.21,5.51.1,7.93.9.2.08.39.15.58.22,0,0,0,0,0,0,1,.4,1.91.91,2.7,1.5.2.15.39.3.58.45-1.31,2.18-3.19,5.69-2.78,8.57-1.31-.45-2.53-.97-3.24-1.55-3.53-2.83-5.09-7.16-5.77-10.09Z"/>
    <path class="cls-1" d="M61.23,150.79c4.32-.39,8.29.57,11.02,2.68.33.25.65.53.96.8.1.09.2.17.29.26,2.18,1.89,4.44,5.65,2.64,8.13-.24.33-1.2.9-1.99,1.25-.88.19-1.9.1-3.04-.28,0,0,0,0-.01,0-.35-.16-.73-.33-1.12-.45-1.13-.53-2.27-1.26-3.39-2.17-2.64-2.15-4.56-5.83-5.35-10.22Z"/>
    <path class="cls-1" d="M61.65,164.38c2.44-.19,4.92.09,7.54.85.36.16.72.31,1.07.43.85.39,1.61.86,2.29,1.4.18.15.36.29.53.44-1.39,2.19-3.43,5.72-3.11,8.65,0,.04,0,.08.02.13,0,.06.02.12.03.18.02.11.04.21.06.32-1.09-.52-2.19-1.24-3.28-2.13-2.64-2.17-4.48-5.87-5.15-10.26Z"/>
    <path class="cls-1" d="M61.86,178.04c2.49-.18,4.82.21,7.63.89.12.05.23.1.35.15.03.01.05.02.08.03,0,0,.01,0,.02,0,0,0,0,0,.01,0,.16.06.31.12.47.18.86.39,1.65.87,2.34,1.43.34.27.67.57.98.85l.25.23c1.99,1.76,4.46,5.51,2.67,8.09-.01.02-.02.03-.03.05h0c-.24.33-1.19.89-1.97,1.24-.95.21-2.1.08-3.34-.37l-.08-.03c-.14-.06-.3-.13-.47-.18,0,0-.02,0-.03-.01-1.23-.53-2.47-1.3-3.7-2.29-2.68-2.17-4.53-5.87-5.17-10.25Z"/>
    <path class="cls-1" d="M70.82,201.39s-.01.07-.02.11c0,.02,0,.04,0,.05-.09.64-.11,1.26-.02,1.86-1.31-.44-2.54-.96-3.26-1.54-2.79-2.21-4.73-5.89-5.42-10.18,2.55-.2,5.13.11,7.85.95.16.07.32.13.49.2,0,0,0,0,0,0h0c.98.42,1.85.93,2.61,1.52.19.15.37.3.55.45-1,1.63-2.42,4.16-2.8,6.58Z"/>
    <path class="cls-1" d="M72.67,206.86c1.15.23,2.23.24,3.2,0,0,0,0,0,.01,0,0,0,0,0,.01,0,0,0,0,0,0,0,.02,0,.04,0,.06-.02,0,0,0,0,0,0,.78-.18,1.59-.53,2.43-1.05-.12.26-.25.5-.38.73-1.33,2.25-2.15,2.5-2.26,2.53,0,0-.02,0-.03,0-.29.07-1.1-.13-2.33-1.3-.28-.27-.52-.57-.73-.9Z"/>
    <path class="cls-1" d="M75.69,153.53c.21-.29.41-.57.62-.85.71-.94,1.52-1.83,2.4-2.66.35-.29.68-.59,1-.9,2.03-1.71,4.41-3.13,6.99-4.16-.46,4.57-2.1,8.88-4.69,12.29-.99,1.31-2,2.47-2.99,3.45.08-2.66-1.52-5.39-3.34-7.18Z"/>
    <path class="cls-1" d="M76.81,179.96c.7-.92,1.52-1.8,2.42-2.64.31-.26.62-.53.93-.81,2.4-1.87,4.79-3.31,7.15-4.27-.61,4.63-2.31,8.95-4.85,12.31-.99,1.31-1.99,2.47-2.97,3.44.08-2.54-1.33-5.22-3.32-7.18.21-.28.42-.57.64-.86Z"/>
  </g>
</svg>