<?xml version="1.0" encoding="UTF-8"?>
<svg id="_レイヤー_2" data-name="レイヤー 2" xmlns="http://www.w3.org/2000/svg" viewBox="0 0 286.72 244.91">
  <defs>
    <style>
      .cls-1 {
        fill: #3c3c3c;
        font-family: NotoSansJP-Regular, 'Noto Sans JP';
        font-size: 16px;
        font-variation-settings: 'wght' 400;
      }

      .cls-2 {
        fill: #231815;
      }

      .cls-2, .cls-3, .cls-4, .cls-5 {
        stroke-width: 0px;
      }

      .cls-6 {
        font-family: NotoSansJP-Medium, 'Noto Sans JP';
        font-size: 12.96px;
        font-variation-settings: 'wght' 500;
      }

      .cls-3 {
        fill: #db7d00;
      }

      .cls-7 {
        fill: none;
        stroke: #474545;
        stroke-linecap: round;
        stroke-linejoin: round;
      }

      .cls-8, .cls-9 {
        font-family: Roboto-Medium, Roboto;
        font-size: 17.82px;
      }

      .cls-9 {
        letter-spacing: .1em;
      }

      .cls-10 {
        letter-spacing: -.02em;
      }

      .cls-11 {
        letter-spacing: -.06em;
      }

      .cls-4 {
        fill: #ffa403;
      }

      .cls-12 {
        letter-spacing: -.06em;
      }

      .cls-5 {
        fill: #ffcf46;
      }

      .cls-13 {
        letter-spacing: -.03em;
      }

      .cls-14 {
        fill: #fff;
        font-weight: 500;
      }
    </style>
  </defs>
  <g id="_追加_ilustration" data-name="追加 ilustration">
    <g>
      <text class="cls-1" transform="translate(89.2 228.11)"><tspan x="0" y="0">年</tspan><tspan class="cls-10" x="16" y="0">間</tspan><tspan class="cls-13" x="31.74" y="0">か</tspan><tspan class="cls-12" x="47.23" y="0">か</tspan><tspan class="cls-11" x="62.22" y="0">る</tspan><tspan x="77.31" y="0">金額</tspan></text>
      <text class="cls-1" transform="translate(225.49 15.38)"><tspan x="0" y="0">導入前</tspan></text>
      <rect class="cls-3" x="37.79" width="97" height="200"/>
      <rect class="cls-4" x="152.93" y="86" width="97" height="114"/>
      <g>
        <circle class="cls-5" cx="201.5" cy="161.53" r="25.71" transform="translate(33.24 357.45) rotate(-88.06)"/>
        <path class="cls-2" d="M201.5,188.66c-14.96,0-27.13-12.17-27.13-27.12s12.17-27.13,27.13-27.13,27.12,12.17,27.12,27.13-12.17,27.12-27.12,27.12ZM201.5,137.25c-13.39,0-24.29,10.9-24.29,24.29s10.9,24.29,24.29,24.29,24.29-10.9,24.29-24.29-10.9-24.29-24.29-24.29Z"/>
      </g>
      <path class="cls-2" d="M201.74,179.56c-4.62,0-9.78-2.9-11.15-9.48-.09-.42.02-.85.29-1.18.27-.33.67-.52,1.1-.52h19.06c.41,0,.81.18,1.08.49.27.31.39.73.33,1.14-.98,6.43-5.93,9.43-10.4,9.55-.1,0-.2,0-.29,0ZM193.86,171.21c1.52,3.9,5,5.59,8.09,5.51,2.7-.07,6.02-1.59,7.29-5.51h-15.38Z"/>
      <g>
        <circle class="cls-2" cx="191.52" cy="155.94" r="3.17"/>
        <circle class="cls-2" cx="211.47" cy="155.94" r="3.17" transform="translate(-10.51 15.36) rotate(-4.06)"/>
      </g>
      <text class="cls-14" transform="translate(46.57 27.58)"><tspan class="cls-8" x="0" y="0">360,00</tspan><tspan class="cls-9" x="54.55" y="0">0</tspan><tspan class="cls-6" x="66.46" y="0">円</tspan></text>
      <text class="cls-14" transform="translate(161.79 110.61)"><tspan class="cls-8" x="0" y="0">144,00</tspan><tspan class="cls-9" x="54.55" y="0">0</tspan><tspan class="cls-6" x="66.46" y="0">円</tspan></text>
      <line class="cls-7" x1="286.22" y1="200" x2=".5" y2="200"/>
      <rect class="cls-3" x="203.8" y=".96" width="16" height="16"/>
      <text class="cls-1" transform="translate(225.49 40.3)"><tspan x="0" y="0">導入後</tspan></text>
      <rect class="cls-4" x="203.8" y="25.88" width="16" height="16"/>
    </g>
  </g>
</svg>