<?xml version="1.0" encoding="UTF-8"?><svg id="_レイヤー_2" xmlns="http://www.w3.org/2000/svg" viewBox="0 0 103.8 117.76"><defs><style>.cls-1{fill:#fff;}.cls-2{fill:#ffdc00;}.cls-3{fill:#ccc;}</style></defs><g id="_レイヤー_1-2"><path d="m22.17,79.93c-.03-1.01-.23-1.64-1.15-2.08-2.45-1.16-3.66-3.48-3.45-6.25.2-2.59,1.76-4.53,4.32-5.38,1.39-.46,1.39-.46,1.39-1.9,0-.82.02-1.63.03-2.45,0-.53.09-1.05.27-1.55.55-1.56,2.04-1.98,3.33-.94.66.53,1.04,1.24,1.31,2.03.63,1.84.85,3.74.83,5.67,0,.77.11,1.27.94,1.67,1.92.94,2.6,3.06,1.8,5.18-.27.71-.62,1.42-1.07,2.03-.88,1.2-.43,2.49-.38,3.76.01.26.22.42.48.46.38.05.76.11,1.15.11,4.09-.04,8.15.42,12.24.44.33,0,.73-.07.99.08,1.37.8,2.27-.06,3.13-.87,1.08-1.02,1.63-2.32,1.85-3.8.28-1.91.45-3.81.4-5.74-.07-3.01-1.36-5.28-4.16-6.47-2.52-1.07-4.01-3.03-5.15-5.37-1.26-2.57-2.01-5.28-2.42-8.1-.08-.58-.35-.78-.9-.91-2.72-.65-5.65-3.81-5.12-7.39.23-1.53,1.16-2.74,2.32-3.7.54-.45.71-.66.34-1.34-2.18-3.93-1.74-7.95-.22-11.96,1.82-4.82,4.91-8.53,9.55-10.88,2.6-1.32,5.14-2.79,8.09-3.5-.66-2.18-.5-4.25.44-6.22.79-1.65,2.06-2.89,3.67-3.74,2.87-1.52,7.23-.86,9.69,1.42,2.5,2.33,2.85,5.77.99,10.01.19.42.65.34.98.45,6.91,2.24,11.04,6.86,12.08,14.11.39,2.72.51,5.44-.03,8.17-.15.76-.47,1.45-.74,2.24,1.64.91,2.62,2.34,3.04,4.14.77,3.29-1.68,6.78-4.51,7.35-.71.15-.98.46-1.1,1.19-.34,1.98-.76,3.96-1.41,5.87-1.42,4.17-4.25,6.98-8.27,8.64-1.98.82-2.55,1.62-2.65,3.77-.1,2.02-.02,4.03.28,6.03.44,2.9,2.05,4.65,4.96,5.23,2.21.45,4.45.68,6.69.91,3.15.32,5.99,1.46,8.42,3.66,3.41,3.1,4.96,6.97,5.23,11.46.22,3.64.5,7.28.36,10.94,0,.19,0,.38,0,.58.03,1.09.03,1.11,1.09,1.11,3.22,0,6.44,0,9.66,0,.34,0,.67,0,1.01.01.51.03,1.01.15,1.02.77.02.71-.5.84-1.09.84-.38,0-.77,0-1.15,0-13.84,0-27.67,0-41.51,0-.89,0-1.73-.08-2.1,1-.13.37-.53.54-.88.71-3.36,1.75-6.56,3.79-9.95,5.5-1.62.82-3.17.92-4.85.75-.19-.02-.38-.13-.56-.11-2.4.26-4.79-.11-7.18-.04-2.11.07-4.21.09-6.33,0-3.45-.13-6.92-.11-10.37-.07-4.13.05-8.26.11-12.39-.03-1.15-.04-2.3.02-3.46.02-1.21,0-1.46-.2-1.83-1.36-.15-.47-.24-.97-.07-1.42.46-1.25.27-2.54.28-3.8.03-5.72-.05-11.43.04-17.15.05-3.65.31-7.29.49-10.93.02-.43.1-.86.24-1.27.21-.65.62-.96,1.37-1.02,2.78-.23,5.56-.23,8.35-.27,3.74-.05,7.48-.21,11.31-.33Z"/><path class="cls-3" d="m21.53,81.67c6.43-.04,12.86.16,19.28.58.86.06,1.73.07,2.59.03.71-.03,1.06.19,1.06.95,0,1.49.2,2.99.03,4.46-.38,3.44-.39,6.9-.5,10.35-.15,4.51-.48,9.01-.45,13.53,0,1.16-.05,1.26-1.24,1.18-2.83-.19-5.66.09-8.49-.15-1.53-.13-3.07-.01-4.61-.03-6.38-.08-12.76-.43-19.15-.21-2.46.08-4.89-.2-7.33-.36-.68-.04-.77-.35-.77-.91.02-1.15-.01-2.3-.01-3.46,0-4.56-.04-9.12.03-13.68.05-3.31.19-6.62.41-9.92.15-2.32-.08-1.95,2.16-2.03,4.32-.17,8.64-.22,12.95-.3,1.34-.03,2.69,0,4.03,0Z"/><path class="cls-1" d="m62.63,27c1.64,2.75,3.33,5.2,5.28,7.46,1.59,1.84,3.41,3.36,5.78,4.14,1.31.43,2.6.56,3.97.33,2.22-.37,3.61.79,3.9,3.05.34,2.55-1.68,5.18-4.23,5.43-1.2.12-1.15.18-1.31,1.27-.37,2.52-.85,5.03-1.81,7.39-1.37,3.37-3.85,5.68-7.25,6.94-2.06.77-3.2,2.18-3.39,4.36-.29,3.18-.18,6.33.89,9.38.14.39.2.72-.22,1-3.78,2.55-7.79,3.65-11.86,1.28-1.07-.62-1.05-.63-.8-1.91.57-2.99.91-6,.27-9.01-.54-2.52-1.99-4.47-4.43-5.45-2.09-.84-3.5-2.32-4.49-4.25-1.34-2.63-2.15-5.43-2.58-8.35-.04-.28-.08-.57-.15-.85-.15-.59-.42-.88-1.14-1.01-2.3-.42-3.86-1.82-4.55-4.09-.49-1.59.33-3.66,1.71-4.54.34-.22.73-.38,1.09-.21,1.42.67,2.73.1,4.04-.33.77-.25,1.53-.58,2.26-.93,4.2-1.99,8.38-4.03,12.46-6.27,2.36-1.29,4.56-2.85,6.56-4.85Z"/><path class="cls-2" d="m59.12,107.92c.07-.55.18-1.11.19-1.67.02-1.2-.22-1.45-1.4-1.46-2.16-.02-4.32-.01-6.48,0-1.68.01-3.36,0-5.03-.22-1.12-.15-1.13-.15-1.1-1.2.16-4.46.24-8.92.55-13.37.14-2.06.19-4.11.21-6.17,0-.48-.09-1,.56-1.15.65-.15,1.17-.66,1.98-.06,3.32,2.48,7.06,3.42,11.13,2.46,2.78-.65,5.35-1.87,7.56-3.7.78-.65,1.38-.82,2.4-.52,2.21.65,4.51.85,6.81,1.03,3.49.27,6.4,1.64,8.83,4.25,2.49,2.69,3.5,5.81,3.68,9.39.17,3.31.43,6.61.37,9.92q-.05,2.65-2.61,2.65c-8.69,0-17.38,0-26.06,0-.51,0-1.05.14-1.59-.17Z"/><path class="cls-2" d="m56.35,12.28c3.07.07,6.13.2,9.05,1.32.84.32,1.77.4,2.64.65,6.49,1.9,10.41,6.59,11.18,13.33.24,2.1.38,4.2.04,6.31-.52,3.26-1.95,4.16-5.12,3.12-1.98-.65-3.53-1.93-4.85-3.48-2.03-2.38-3.9-4.86-5.32-7.67-.55-1.1-.9-1.17-1.87-.48-.35.25-.69.53-1,.82-2.93,2.68-6.3,4.66-9.92,6.29-1.83.83-3.56,1.87-5.37,2.76-1.97.98-3.92,2.02-6.1,2.48-1.37.29-2.15-.12-2.8-1.36-1.83-3.45-1.49-6.94-.19-10.44,1.63-4.39,4.32-7.88,8.57-10.04,1.41-.72,2.82-1.44,4.22-2.17,2.14-1.11,4.44-1.5,6.83-1.45Z"/><path class="cls-3" d="m57.51,107.15c-.19,1.74-.82,2.76-2.3,3.54-3.01,1.58-5.88,3.42-8.96,4.89-.63.3-1.21.46-1.91.45-1.63-.02-3.26.05-4.89.09-.48.01-.96.03-1.44.02-5.85-.09-11.69-.26-17.54-.26-3.98,0-7.96.14-11.95.13-1.97,0-3.92-.28-5.9-.17-.43.02-1.02.12-1-.66.02-.91.5-1.67,1.17-1.64.86.04,1.72.12,2.58.24,1.58.21,3.16.21,4.74.16,6.67-.23,13.33.09,20,.25,3.93.09,7.86.04,11.79.17,1.77.06,3.22-.51,4.7-1.37,3.11-1.8,6.28-3.48,9.44-5.2.42-.23.88-.37,1.47-.62Z"/><path class="cls-2" d="m67.21,8.03c.05,1.09-.33,2.26-1.01,3.34-.26.41-.49.59-1.04.41-3.19-1.06-6.49-1.21-9.81-1.1-.64.02-.81-.31-.97-.81-1.01-3.14,1.21-7.16,4.41-7.98,1.43-.37,2.88-.38,4.27.09,2.47.83,4.29,2.64,4.15,6.05Z"/><path class="cls-1" d="m27.38,67.89c-1.36,0-2.48.37-3.53,1-.84.51-1.49,1.21-1.91,2.1-.5,1.08-.55,2.17.31,3.09.87.94,2.03.98,3.21.78.43-.07.7-.37.68-.8-.02-.43-.31-.69-.75-.72-.33-.02-.68.01-1.01-.03-1.09-.15-1.4-.74-.89-1.72.55-1.06,1.5-1.61,2.59-1.9,1.16-.3,2.3-.05,3.32.55.88.52,1.24,1.55,1,2.64-.16.71-.48,1.37-.91,1.94-.92,1.24-1.12,2.59-.89,4.08.18,1.17.13,1.16-1.07,1.14-1.15-.02-2.3,0-3.45-.06-.23-.14-.22-.36-.24-.53-.2-1.53-.86-2.59-2.4-3.26-1.72-.74-2.24-2.37-2.23-4.18.01-1.88.89-3.18,2.57-3.98.52-.25,1.08-.38,1.64-.49,1.25-.26,1.5-.59,1.51-1.86,0-1.2,0-2.4.02-3.6,0-.33.05-.67.09-1,.03-.25.15-.49.38-.56.25-.08.45.12.62.29.37.39.56.89.72,1.39.58,1.8.66,3.66.6,5.67Z"/><path class="cls-2" d="m66.87,79.7c-3.29,2.41-6.6,4.22-10.68,4.06-2.13-.08-4.03-.84-5.84-1.84-1.03-.57-1.01-.66-.29-1.59.12-.15.25-.29.44-.51,1.19.69,2.37,1.38,3.71,1.76,1.75.49,3.5.6,5.26.13,1.81-.49,3.55-1.19,5.14-2.2,1.11-.7,1.1-.72,2.27.18Z"/><path class="cls-3" d="m54.78,106.48c-3.15,1.81-6.15,3.82-9.59,5.31,0-1.75,0-3.45,0-5.15,0-.44.33-.53.7-.51.81.05,1.63.07,2.43.16,2.13.23,4.27-.13,6.45.18Z"/><path d="m21.66,93.65c2.1,0,3.53,1.44,3.51,3.53-.02,1.89-1.54,3.44-3.35,3.42-1.88-.02-3.65-1.65-3.65-3.37,0-2.07,1.48-3.58,3.49-3.59Z"/><path d="m57.96,56.93c-1.8-.18-3.45-.85-4.71-2.32-.35-.41-.56-.89-.69-1.41-.12-.49.04-.88.48-1.08.49-.22.9.06,1.01.52.32,1.36,1.37,1.89,2.51,2.34,1.85.74,3.69.1,4.69-1.63.1-.16.14-.36.26-.51.23-.3.55-.37.9-.23.29.13.42.38.42.69,0,.5-.19.94-.48,1.33-1.07,1.43-2.53,2.15-4.38,2.28Z"/><path d="m57.87,45.61c.41.22.81.03,1.23-.06.5-.11.87.1.98.6.1.44-.2.73-.57.89-.88.38-1.78.38-2.67.07-.51-.18-.73-.6-.71-1.14.06-1.68.12-3.36.19-5.04,0-.24.05-.48.11-.71.1-.37.37-.58.74-.55.37.03.65.27.69.63.05.42,0,.86,0,1.29,0,1.33,0,2.67,0,4.02Z"/><path d="m64.3,37.64c1.24,0,2.11.62,2.76,1.58.25.38.31.84-.09,1.17-.39.32-.8.21-1.14-.14-.17-.17-.31-.36-.5-.52-.69-.57-1.37-.54-2.02.1-.1.1-.17.23-.26.34-.32.38-.71.51-1.12.18-.4-.32-.37-.76-.16-1.17.54-1.03,1.45-1.46,2.54-1.53Z"/><path d="m51.21,37.86c1.07.02,1.94.45,2.61,1.27.29.35.47.76.1,1.16-.4.44-.81.32-1.26,0-1.48-1.06-1.57-1.07-2.94,0-.43.33-.86.52-1.26.1-.4-.42-.22-.9.12-1.29.69-.79,1.54-1.26,2.62-1.23Z"/><path class="cls-2" d="m23.59,97.15c.01,1.01-.83,1.91-1.77,1.89-1.02-.02-2.05-.92-2.06-1.83,0-1.1.83-2.03,1.82-1.98,1.24.06,1.99.69,2.01,1.92Z"/><path d="m20.91,54.22c-.2,0-.39-.11-.47-.31l-1.49-3.32c-.12-.26,0-.57.26-.68.26-.12.57,0,.68.26l1.49,3.32c.12.26,0,.57-.26.68-.07.03-.14.05-.21.05Z"/><path d="m18.42,56.2c-.1,0-.19-.03-.28-.08l-3.05-1.98c-.24-.16-.31-.48-.15-.72.16-.24.47-.31.72-.15l3.05,1.98c.24.16.31.48.15.72-.1.15-.26.24-.43.24Z"/><path d="m24.05,53.69s-.09,0-.13-.02c-.28-.07-.44-.36-.37-.63l.93-3.52c.07-.28.36-.44.63-.37.28.07.44.36.37.63l-.93,3.52c-.06.23-.27.39-.5.39Z"/></g></svg>