<svg data-name="グループ 20029" xmlns="http://www.w3.org/2000/svg" width="40" height="40"><defs><clipPath id="a"><path data-name="長方形 16106" fill="none" d="M0 0h40v40H0z"/></clipPath></defs><g data-name="グループ 20028" clip-path="url(#a)"><path data-name="パス 23187" d="M32.275 16.285a1.051 1.051 0 110 2.1H29.35v1.875h2.925a1.05 1.05 0 010 2.1H28.3a1.051 1.051 0 01-1.045-1.048V13.36a1.053 1.053 0 011.05-1.05h3.975a1.05 1.05 0 110 2.1h-2.93v1.875zm-6.425 5.027a1.049 1.049 0 01-.72.993 1.073 1.073 0 01-.332.052 1.031 1.031 0 01-.85-.417l-4.072-5.528v4.9a1.048 1.048 0 11-2.095.041V13.36a1.044 1.044 0 01.717-.992.968.968 0 01.323-.055 1.08 1.08 0 01.825.423l4.1 5.55V13.36a1.05 1.05 0 112.1 0zm-9.568 0a1.05 1.05 0 11-2.1 0V13.36a1.05 1.05 0 112.1 0zm-4.11 1.048H8.195a1.056 1.056 0 01-1.05-1.048V13.36a1.05 1.05 0 112.1 0v6.9h2.927a1.05 1.05 0 010 2.1M40 17.037C40 8.085 31.025.8 20 .8S0 8.085 0 17.037c0 8.018 7.117 14.736 16.725 16.014.652.137 1.538.43 1.763.983a4.071 4.071 0 01.063 1.8l-.273 1.7c-.075.5-.4 1.977 1.748 1.075s11.527-6.8 15.727-11.626C38.627 23.835 40 20.611 40 17.037" fill="#fff"/></g></svg>