<?xml version="1.0" encoding="UTF-8"?><svg id="_レイヤー_2" xmlns="http://www.w3.org/2000/svg" viewBox="0 0 26.66 40"><defs><style>.cls-1{fill:#ffb400;}</style></defs><g id="_レイヤー_1-2"><path class="cls-1" d="m23.68.21c-1.7-.55-3.51-.02-4.64,1.37l-5.39,6.57c-.09.11-.18.22-.26.33-.02.03-.04.05-.06.08-.1-.14-.21-.27-.32-.41L7.62,1.58C6.48.19,4.67-.34,2.97.22,1.16.81,0,2.6,0,4.51v17.79c0,1.34.47,2.65,1.32,3.69l11.15,13.61c.44.54,1.27.54,1.72,0l11.15-13.61c.85-1.04,1.32-2.35,1.32-3.69V4.5c0-1.91-1.16-3.7-2.98-4.29Zm-.2,22.08c0,.61-.21,1.21-.6,1.68l-9.16,11.23c-.13.16-.39.07-.39-.14V13.66c0-.18.06-.35.18-.49l7.99-9.57c.22-.27.52-.42.85-.42.19,0,.39.05.57.15.37.2.57.63.57,1.05v17.91Z"/></g></svg>