<?xml version="1.0" encoding="UTF-8"?><svg id="_レイヤー_2" xmlns="http://www.w3.org/2000/svg" viewBox="0 0 30 28.58"><defs><style>.cls-1{fill:#fff;}</style></defs><g id="_レイヤー_1-2"><path class="cls-1" d="m30,12.17C30,5.46,23.27,0,15,0S0,5.46,0,12.17c0,6.02,5.34,11.06,12.55,12.01.49.11,1.15.32,1.32.74.15.38.1.97.05,1.36,0,0-.18,1.06-.21,1.28-.07.38-.3,1.48,1.3.81,1.6-.67,8.64-5.09,11.79-8.71h0c2.17-2.38,3.22-4.8,3.22-7.49Zm-20.84,3.95h-2.96c-.43,0-.78-.35-.78-.78v-5.91c0-.43.35-.78.78-.78s.78.35.78.78v5.13h2.18c.43,0,.78.35.78.78s-.35.78-.78.78Zm3.06-.78c0,.43-.35.78-.78.78s-.78-.35-.78-.78v-5.91c0-.43.35-.78.78-.78s.78.35.78.78v5.91Zm7.12,0c0,.34-.21.63-.53.74-.08.03-.16.04-.25.04-.24,0-.48-.12-.62-.31l-3.03-4.13v3.66c0,.43-.35.78-.78.78s-.78-.35-.78-.78v-5.91c0-.34.21-.63.53-.74.08-.03.16-.04.25-.04.24,0,.48.12.62.31l3.03,4.13v-3.66c0-.43.35-.78.78-.78s.78.35.78.78v5.91Zm4.78-3.74c.43,0,.78.35.78.78s-.35.78-.78.78h-2.18v1.4h2.18c.43,0,.78.35.78.78s-.35.78-.78.78h-2.96c-.43,0-.78-.35-.78-.78v-2.95h0v-2.96h0c0-.43.35-.78.78-.78h2.96c.43,0,.78.35.78.78s-.35.78-.78.78h-2.18v1.4h2.18Z"/></g></svg>