<?xml version="1.0" encoding="utf-8"?>
<!-- Generator: Adobe Illustrator 27.4.0, SVG Export Plug-In . SVG Version: 6.00 Build 0)  -->
<svg version="1.1" id="_レイヤー_2" xmlns="http://www.w3.org/2000/svg" xmlns:xlink="http://www.w3.org/1999/xlink" x="0px"
	 y="0px" viewBox="0 0 18 18" style="enable-background:new 0 0 18 18;" xml:space="preserve">
<style type="text/css">
	.st0{fill:#FFB400;}
	.st1{fill:#FFFFFF;}
</style>
<g id="_レイヤー_1-2">
	<path class="st0" d="M2,0h14c1.1,0,2,0.9,2,2v14c0,1.1-0.9,2-2,2H2c-1.1,0-2-0.9-2-2V2C0,0.9,0.9,0,2,0z"/>
	<path class="st1" d="M7.6,13.8L7.6,13.8c-0.4,0-0.8-0.2-1.1-0.4L3,9.8l2.1-2.1l2.5,2.5L14,3.8l2.1,2.1l-7.5,7.5
		C8.4,13.6,8,13.8,7.6,13.8z"/>
</g>
</svg>
