<?xml version="1.0" encoding="UTF-8"?><svg id="_レイヤー_2" xmlns="http://www.w3.org/2000/svg" viewBox="0 0 36.57 40"><defs><style>.cls-1{font-family:DNPShueiMGoStd-B, 'DNPShueiMGoStd B-83pv-RKSJ-H';font-size:7.95px;}.cls-1,.cls-2,.cls-3{fill:#ffb400;}.cls-2{font-family:Helvetica-Bold, 'Helvetica Bold';font-size:17.49px;font-weight:700;}</style></defs><g id="_レイヤー_1-2"><path class="cls-3" d="m35.16,14.67s-.02-.04-.03-.06c0,0,0,0,0-.01l-5.73,2.42h-.02s-.01.01-.01.01c.63,1.48.94,3.06.94,4.68s-.32,3.2-.94,4.68c-.61,1.43-1.47,2.72-2.58,3.82-1.11,1.11-2.39,1.97-3.83,2.58-1.48.63-3.06.94-4.68.94s-3.2-.32-4.68-.94c-1.43-.61-2.72-1.47-3.82-2.58-1.11-1.11-1.97-2.39-2.58-3.82-.63-1.48-.94-3.06-.94-4.68s.32-3.2.94-4.68c.61-1.43,1.47-2.72,2.58-3.82,1.11-1.11,2.39-1.97,3.82-2.58,1.48-.63,3.06-.94,4.68-.94.81,0,1.61.09,2.39.24.06.01.13.02.19.04l-1.07,2.54-.54,1.27h0s0,.01,0,.01l9.9-1.23,4.95-.61h0s.01,0,.01,0l-6.04-7.99L25.1,0h0s0,0,0,0l-1.75,4.14c-1.63-.47-3.32-.71-5.05-.71-2.47,0-4.86.48-7.12,1.44-2.18.92-4.13,2.24-5.81,3.92-1.68,1.68-3,3.63-3.92,5.81-.95,2.26-1.44,4.65-1.44,7.12s.48,4.86,1.44,7.12c.92,2.18,2.24,4.13,3.92,5.81,1.68,1.68,3.63,3,5.81,3.92,2.26.95,4.65,1.44,7.12,1.44s4.86-.48,7.12-1.44c2.18-.92,4.13-2.24,5.81-3.92,1.68-1.68,3-3.63,3.92-5.81.95-2.26,1.44-4.65,1.44-7.12s-.47-4.81-1.41-7.04Z"/><text class="cls-2" transform="translate(10.41 28.45)"><tspan x="0" y="0">1</tspan></text><text class="cls-1" transform="translate(18.02 27.55)"><tspan x="0" y="0">年</tspan></text></g></svg>