<?xml version="1.0" encoding="UTF-8"?><svg id="_レイヤー_2" xmlns="http://www.w3.org/2000/svg" viewBox="0 0 98.33 152.06"><defs><style>.cls-1{fill:#fff;}.cls-2{fill:#ffdc00;}.cls-3{fill:#ccc;}.cls-4{fill:#3c3c3c;}</style></defs><g id="_レイヤー_1-2"><path class="cls-1" d="m98.3,127.17c-.62-5.39-2.78-9.91-6.78-13.66-3.21-3.01-7.01-4.53-11.22-5-3-.34-6-.62-8.96-1.2-3.84-.74-6.03-2.86-6.72-6.7-.52-2.85-.65-5.73-.49-8.64.13-2.49,1.3-4.01,3.63-4.85,1.5-.54,3.03-1.13,4.2-2.29,1.34-1.34,2.88-1.94,4.82-1.9,2.61.05,4.29-1.49,5.29-3.8.25-.58.38-1.23.5-1.86.62-3.35.81-6.76,1.11-10.15.08-.95.3-1.65,1.15-2.24,1.22-.85,2.11-2.07,2.77-3.41,1.71-3.45.56-7.9-2.6-10.16-.45-.32-1.07-.44-.78-1.27.92-2.63.68-5.32.33-8.01-.38-2.94-.92-5.83-1.95-8.63-2.37-6.48-6.72-11.16-12.91-14.15-1.53-.74-3.11-1.4-4.74-2.12,2.14-2.62,3.28-5.47,3.02-8.8-.25-3.14-1.68-5.47-4.58-6.83-1.65-.77-3.39-1.17-5.18-1.41-4.3-.58-7.51,1.3-9.94,4.63-2.41,3.31-2.63,6.87-.69,10.52.22.42.64.78.6,1.52-3.19.24-5.96,1.63-8.78,2.85-3.01,1.31-5.61,3.18-7.47,5.89-2.41,3.51-4.36,7.28-5.53,11.4-1.35,4.73-2.21,9.51-.43,14.32-.21.45-.67.37-.99.57-2.25,1.4-3.75,3.39-4.05,6.01-.45,3.9,2.59,8.22,6.79,9.39.93.26,1.17.66,1.32,1.52.64,3.61,1.55,7.14,3.18,10.47,1.57,3.2,3.56,5.88,7.01,7.33,3.12,1.31,4.98,3.78,5.39,7.17.25,2.11.21,4.24,0,6.35-.19,1.89-.27,1.94-2.09,1.79-5.91-.5-11.82-.42-17.74-.29-3.41.07-6.81.27-10.22.28-3.73.01-7.45.05-11.18.35-1.1.09-1.65.58-1.95,1.5-.15.48-.23,1.01-.25,1.51-.24,4.81-.55,9.63-.67,14.44-.11,4.56.08,9.13-.05,13.69-.15,5.04.5,10.1-.44,15.11-.1.51.05,1.02.22,1.51.5,1.45.79,1.68,2.35,1.68,1.54,0,3.09-.08,4.63-.03,5.53.19,11.06.1,16.59.04,4.63-.05,9.27-.1,13.89.08,2.9.11,5.77.06,8.66-.01,3.13-.08,6.27.38,9.42.06.3-.03.63.18.94.18,1.7-.04,3.42.45,5.1-.42,4.17-2.15,8.21-4.54,12.37-6.68,2.85-1.46,4.56-3.38,4.95-6.52.07-.53.31-.91.9-1.1,2.13-.7,4.23-1.51,6.37-2.17,3.57-1.1,7.1-2.23,10.24-4.34,1.33-.89,1.82-1.93,1.63-3.56Z"/><path class="cls-4" d="m25.96,51.24c-1.78-4.81-.92-9.59.43-14.32,1.17-4.11,3.12-7.88,5.53-11.4,1.87-2.72,4.47-4.59,7.47-5.89,2.82-1.22,5.58-2.61,8.78-2.85.04-.74-.38-1.1-.6-1.52-1.94-3.66-1.72-7.21.69-10.53C50.68,1.4,53.9-.47,58.2.1c1.79.24,3.54.64,5.18,1.41,2.9,1.36,4.33,3.69,4.58,6.83.27,3.33-.88,6.18-3.02,8.8,1.63.73,3.21,1.38,4.74,2.12,6.19,2.99,10.53,7.67,12.91,14.15,1.02,2.79,1.57,5.69,1.95,8.63.34,2.7.59,5.38-.33,8.01-.29.83.33.95.78,1.27,3.15,2.26,4.3,6.71,2.6,10.16-.66,1.34-1.55,2.56-2.77,3.41-.85.6-1.07,1.3-1.15,2.24-.3,3.39-.49,6.8-1.11,10.15-.12.63-.25,1.27-.5,1.86-1,2.31-2.68,3.85-5.29,3.8-1.94-.04-3.48.56-4.82,1.9-1.17,1.16-2.7,1.75-4.2,2.29-2.32.84-3.5,2.36-3.63,4.85-.15,2.91-.02,5.79.49,8.64.7,3.84,2.89,5.95,6.73,6.7,2.97.58,5.96.86,8.96,1.2,4.21.47,8.02,1.99,11.22,5,4,3.75,6.16,8.27,6.78,13.66.19,1.63-.3,2.66-1.63,3.56-3.14,2.11-6.68,3.24-10.24,4.34-2.14.66-4.24,1.48-6.37,2.17-.59.19-.83.57-.9,1.1-.39,3.14-2.1,5.06-4.95,6.52-4.16,2.14-8.21,4.52-12.37,6.68-1.68.87-3.39.38-5.1.42-.31,0-.63-.21-.94-.18-3.15.33-6.29-.13-9.42-.05-2.89.07-5.77.12-8.66.01-4.62-.18-9.26-.13-13.89-.08-5.53.06-11.06.14-16.59-.04-1.54-.05-3.08.03-4.63.03-1.56,0-1.85-.23-2.35-1.68-.17-.49-.31-1-.22-1.51.94-5.01.29-10.08.44-15.11.13-4.56-.06-9.13.05-13.69.12-4.82.43-9.63.67-14.44.03-.51.1-1.03.25-1.51.29-.93.85-1.42,1.95-1.5,3.72-.29,7.45-.33,11.18-.35,3.41-.01,6.81-.21,10.22-.28,5.92-.13,11.83-.21,17.74.29,1.82.15,1.9.1,2.09-1.79.21-2.11.25-4.25,0-6.35-.41-3.39-2.26-5.86-5.39-7.17-3.44-1.45-5.44-4.13-7.01-7.33-1.63-3.33-2.54-6.86-3.18-10.47-.15-.86-.38-1.26-1.32-1.52-4.2-1.17-7.24-5.49-6.79-9.39.3-2.62,1.79-4.62,4.05-6.01.32-.2.78-.12.99-.57Zm20.22-13.81c-.26.44-.5.9-.77,1.34-3.36,5.62-7.81,10.17-13.4,13.6-1.21.74-2.5,1.3-3.98,1.24-2.83-.12-4.97,1.93-5,4.78-.03,3.24,2.47,6.34,6,7,1.29.24,1.69.86,1.93,1.9.07.31.1.63.15.95.53,3.85,1.65,7.52,3.43,10.98,1.36,2.65,3.28,4.76,6.25,5.67.7.21,1.24.64,1.78,1.09,2.79,2.32,4.22,5.27,4.22,8.91,0,2.3.07,4.59-.3,6.99,4.28.13,8.35.59,12.46.57.63,0,1.27-.08,1.89.2.68.31.35,1.23,1,1.53.62-.46,1.28-.8,1.01-1.82-.91-3.52-.97-7.11-.79-10.72.16-3.19,1.68-5.25,4.65-6.37,1.15-.43,2.39-.75,3.4-1.91-4.45.52-8.68.42-12.91.07-.58-.05-.97.03-1.22.62-.42.97-1.25,1.44-2.26,1.59-1.09.17-2.19.16-3.26-.05-1.63-.32-2.65-1.28-2.78-2.54-.14-1.37.65-2.77,2.06-3.41,1.98-.9,3.99-.72,5.64.61,1.05.85,2.09,1.11,3.34,1.13,4.05.07,8.09.04,12.14-.19,2.18-.12,3.42-1.03,4.37-2.79,2.11-3.92,2.99-8.18,3.53-12.53.12-.97.33-1.44,1.45-1.49,1.56-.07,1.56-.18,1.34-1.92-.5.02-1,.11-1.5.06-1.32-.11-2.28-1.26-2.01-2.53.28-1.34.87-2.56,2.05-3.38.95-.67,1.96-1,3.05-.34,1.01.61,1.37,1.6,1.01,3.01-.27,1.06-.18,2.07-.07,3.29,2.59-2.71,2.86-5.34,1.01-8.16-1-1.53-1.62-1.82-3.39-1.43-.57.13-1.12.23-1.7.12-4.41-.85-8.83-1.72-13.11-3.1-4.04-1.3-7.92-2.99-11.49-5.35-3.28-2.17-6.39-4.53-8.9-7.61-.15.18-.24.27-.31.38Zm15.38,81.48c-.49.42-.51,1.01-.52,1.59-.07,4.17-.05,8.34-.43,12.49-.08.87.2,1.27,1.12,1.38,1.79.21,3.58.29,5.37.32,1.32.02,1.33,0,1.43-1.42.11-1.53.18-3.07.31-4.6.49-5.8.99-11.6,1.53-17.8-3.33,2.68-5.9,5.56-8.82,8.04Zm.09-3.06c2.45-2.29,4.91-4.58,7.48-6.98-1.92-1.01-3.82-1.81-5.2-3.63-.77,1.06-2.21,1.44-2.22,2.69-.04,2.61-.14,5.22-.45,7.82.13.03.26.07.39.1Zm18.44-37.73c.26-.64.39-1.36.47-2.05.31-2.67.58-5.35.83-8.02.05-.51.2-1.08-.29-1.6-1.1,4.85-1.96,9.76-4.77,14.25,2.24.1,3.15-1.08,3.76-2.57Zm-19.66-3.93c.41-.52.65-1.12.71-1.76.04-.47-.14-.9-.64-1.06-.47-.15-.89-.07-1.17.38-.13.22-.22.46-.34.69-1.03,1.79-2.61,2.71-4.63,2.47-2.16-.26-4.14-1.02-4.93-3.37-.22-.64-.59-1.04-1.27-.85-.77.22-.86.86-.74,1.55.13.71.48,1.34.95,1.87,1.71,1.92,3.9,2.85,6.35,3.04,2.39-.2,4.29-1.13,5.72-2.96Zm-6.03-14.34c.03-1.35.07-2.69.11-4.04.03-1.19-.28-1.8-.99-1.75-1.08.08-1.04.93-1.1,1.71-.17,2.17.06,4.36-.28,6.53-.11.68.17,1.34.83,1.6,1.3.53,2.63.54,3.91-.12.44-.23.68-.6.57-1.11-.13-.61-.6-.84-1.15-.78-.57.06-1.11.34-1.9.09,0-.74-.01-1.44,0-2.14Zm-6.22-6.64c0-1.03-.77-1.79-1.84-1.79-1.07,0-2.06,1.03-2.06,2.12,0,.97.81,1.75,1.88,1.79,1.07.04,2.01-.94,2.02-2.12Zm13.91-1.81c-1.08-.08-2.01.78-2.01,1.86,0,.94.83,1.75,1.87,1.83,1.01.08,1.8-.67,1.85-1.77.05-1.06-.65-1.85-1.71-1.92Z"/><path class="cls-3" d="m28.85,103.71c8.61-.05,17.22.21,25.81.78,1.28.08,2.57.07,3.86.05.66-.01.94.27.94.9.02,2.25.24,4.51.04,6.74-.32,3.46-.5,6.92-.55,10.39-.11,7.13-.77,14.25-.66,21.39.02.97-.33,1.4-1.33,1.38-3.53-.07-7.07.03-10.6-.16-2.32-.13-4.62-.02-6.94-.07-8.61-.18-17.22-.62-25.83-.32-3.35.11-6.67-.26-10.01-.49-.75-.05-1-.34-.99-1.06.02-2.25,0-4.5,0-6.75,0-5.59-.08-11.19.03-16.78.09-4.56.36-9.12.61-13.67.1-1.76.18-1.82,1.9-1.87,6.1-.18,12.2-.32,18.31-.45,1.8-.04,3.6,0,5.4,0Z"/><path class="cls-2" d="m70.71,132.45c.61-6.89,1.24-14.11,1.9-21.33.12-1.29.16-1.28,1.37-1.14,1.53.18,3.06.44,4.59.49,2.41.08,4.68.7,6.9,1.56.48.18.97.36,1.4.63,5.46,3.49,8.79,8.3,9.3,14.9.07.93-.45,1.25-1.03,1.64-2.09,1.42-4.42,2.32-6.81,3.08-2.26.73-4.55,1.32-6.75,2.24-1.04.43-2.11.99-3.29.2-.27-.18-.75-.05-1.14-.06-1.54-.02-3.08-.04-4.62-.04-2.25,0-1.87.03-1.83-2.17Z"/><path class="cls-3" d="m77.07,138.03c-.26.89-.46,1.63-.68,2.37-.2.64-.59,1.12-1.19,1.44-4.58,2.46-8.95,5.28-13.67,7.48-.6.28-1.19.41-1.85.4-2.38-.04-4.75-.09-7.12.13-.57.05-1.16.02-1.73.01-7.57-.12-15.14-.35-22.71-.35-5.59,0-11.18.19-16.77.17-2.63,0-5.25-.37-7.89-.23-.62.03-1.34.07-1.28-.94.06-1.14.66-2.16,1.43-2.13,1.22.05,2.44.16,3.65.32,2.05.28,4.11.27,6.16.2,9-.31,17.98.12,26.97.34,5.19.13,10.39.05,15.59.23,2.43.08,4.44-.69,6.48-1.87,4.22-2.43,8.54-4.71,12.82-7.02.49-.26.98-.62,1.82-.54Z"/><path class="cls-3" d="m60.49,144.04c0-2.34-.01-4.61,0-6.89,0-.59.44-.71.93-.68,1.09.07,2.18.1,3.26.21,2.86.3,5.72-.15,8.64.05-1.02,1.14-8.41,5.34-12.84,7.31Z"/><path class="cls-3" d="m52.08,83.65c-.35-.06-.6-.09-.85-.15-.54-.13-1.32-.13-1.33-.81-.01-.78.68-1.18,1.42-1.28.69-.1,1.4-.11,2.06.17.39.17.92.29.85.86-.06.52-.33.96-.94,1.05-.44.06-.88.12-1.22.16Z"/><path class="cls-4" d="m33.68,124.36c.04,2.53-1.94,4.67-4.36,4.71-2.49.05-4.95-2.11-5.02-4.39-.09-2.74,1.88-4.84,4.55-4.94,3.3-.12,4.65,2.28,4.83,4.61Z"/><path class="cls-2" d="m29.07,121.89c1.54.02,2.48.97,2.51,2.54.02,1.35-1.1,2.56-2.36,2.54-1.47-.02-2.83-1.32-2.77-2.64.08-1.52,1.08-2.45,2.61-2.43Z"/></g></svg>