<?xml version="1.0" encoding="UTF-8"?><svg id="_レイヤー_2" xmlns="http://www.w3.org/2000/svg" viewBox="0 0 78.12 55.71"><defs><style>.cls-1{fill:#ffb400;}</style></defs><g id="_レイヤー_1-2"><path class="cls-1" d="m56.63,0H21.48c-.83,0-1.5.67-1.5,1.5v54.17h0v.04h14.57v-10.24h9.01v10.24h14.57V1.5c0-.83-.67-1.5-1.5-1.5Zm-5.91,6.75v4.39h-5.49v-4.39h5.49Zm0,9.12v4.47h-5.49v-4.47h5.49Zm0,9.2v4.48h-5.49v-4.48h5.49Zm0,9.2v4.48h-5.49v-4.48h5.49Zm-9.15-27.52v4.39h-5.49v-4.39h5.49Zm-5.49,13.59v-4.47h5.49v4.47h-5.49Zm0,9.2v-4.48h5.49v4.48h-5.49Zm0,9.2v-4.48h5.49v4.48h-5.49Zm-3.66-31.99v4.39h-5.49v-4.39h5.49Zm0,9.12v4.47h-5.49v-4.47h5.49Zm0,9.2v4.48h-5.49v-4.48h5.49Zm0,9.2v4.48h-5.49v-4.48h5.49Z"/><path class="cls-1" d="m0,9.85v45.84h0v.03h15.54v-14.42H4.59v-3.8h10.95v-4.02H4.59v-3.81h10.95v-4.02H4.59v-3.8h10.95v-4.02H4.59v-3.73h10.93s0,0,0,0h.02v-5.75H1.5c-.83,0-1.5.67-1.5,1.5Z"/><path class="cls-1" d="m76.62,8.35h-14.04v5.72h0v.02h10.95v3.73h-10.95v3.98h0v.04h10.95v3.8h-10.95v3.98h0v.04h10.95v3.81h-10.95v3.98h0v.04h10.95v3.8h-10.95v14.4h0v.03h15.54V9.85c0-.83-.67-1.5-1.5-1.5Z"/></g></svg>