<?xml version="1.0" encoding="UTF-8"?><svg id="_レイヤー_2" xmlns="http://www.w3.org/2000/svg" viewBox="0 0 15 15"><defs><style>.cls-1{fill:#008cd2;}</style></defs><g id="_レイヤー_1-2"><g><path class="cls-1" d="M9.26,10.23c-.18-.18-.45-.19-.65-.03l-.91,.74c-.18,.15-.44,.14-.62,0,0,0-.78-.52-1.63-1.38-.86-.86-1.38-1.64-1.38-1.64-.15-.18-.15-.44,0-.62l.74-.91c.16-.19,.14-.47-.03-.65l-1.75-1.75c-.18-.18-.46-.19-.66-.03L.17,5.8c-.18,.15-.22,.4-.12,.6,0,0,.29,.6,.57,1.06,.75,1.26,1.97,2.76,3.06,3.85,1.09,1.09,2.58,2.31,3.85,3.06,.46,.27,1.06,.57,1.06,.57,.2,.11,.45,.06,.6-.12l1.84-2.19c.16-.19,.15-.48-.03-.66l-1.75-1.75Z"/><path class="cls-1" d="M9.69,7.89l.73-.12c-.12-.77-.48-1.52-1.08-2.12-.6-.6-1.34-.96-2.12-1.08l-.12,.73c.63,.1,1.23,.39,1.71,.87,.48,.48,.77,1.08,.87,1.71Z"/><path class="cls-1" d="M12.62,2.38C11.3,1.06,9.66,.27,7.95,0l-.11,.73c1.56,.25,3.06,.97,4.27,2.17,1.2,1.2,1.93,2.7,2.17,4.27l.73-.11c-.27-1.71-1.06-3.35-2.38-4.67Z"/><path class="cls-1" d="M7.59,2.29l-.11,.73c1.1,.17,2.15,.68,2.99,1.52,.85,.85,1.35,1.9,1.52,2.99l.73-.11c-.19-1.24-.77-2.44-1.73-3.4-.96-.96-2.16-1.53-3.4-1.73Z"/></g></g></svg>