<?xml version="1.0" encoding="UTF-8"?><svg id="_レイヤー_2" xmlns="http://www.w3.org/2000/svg" viewBox="0 0 30 30"><defs><style>.cls-1{fill:#fff;}.cls-2{fill:#ffb400;}</style></defs><g id="_レイヤー_1-2"><g><rect class="cls-1" x="0" y="0" width="30" height="30"/><path class="cls-2" d="M23.24,13.21c0-2.04-1.65-3.7-3.7-3.7-.38,0-.74,.06-1.09,.17-.8-1.02-2.05-1.68-3.45-1.68s-2.65,.66-3.45,1.68c-.35-.11-.71-.17-1.09-.17-2.04,0-3.7,1.65-3.7,3.7,0,1.74,1.21,3.2,2.83,3.59-.37,1.14-.69,2.61-.69,4.53v.67h12.21v-.67c0-1.92-.33-3.39-.69-4.53,1.62-.39,2.83-1.85,2.83-3.59Zm-2.03,1.67c-.43,.43-1.01,.69-1.67,.69h-.02s-.98-.03-.98-.03l.34,.92c.39,1.05,.79,2.35,.87,4.2H10.25c.08-1.85,.48-3.14,.87-4.2l.34-.92-1,.03c-.65,0-1.24-.26-1.67-.69-.43-.43-.69-1.02-.69-1.67,0-.65,.26-1.24,.69-1.67,.43-.43,1.02-.69,1.67-.69,.38,0,.73,.09,1.05,.24l.56,.27,.32-.53c.53-.9,1.51-1.5,2.63-1.5,1.12,0,2.09,.6,2.63,1.5l.32,.53,.56-.27c.32-.16,.67-.24,1.05-.24,.65,0,1.24,.26,1.67,.69,.43,.43,.69,1.02,.69,1.67,0,.65-.26,1.24-.69,1.67Z"/></g></g></svg>