<?xml version="1.0" encoding="UTF-8"?><svg id="_レイヤー_2" xmlns="http://www.w3.org/2000/svg" viewBox="0 0 36 36"><defs><style>.cls-1{fill:#fff;}.cls-2{fill:#1c9fce;}</style></defs><g id="_レイヤー_1-2"><g><rect class="cls-2" width="36" height="36" rx="5.4" ry="5.4"/><g id="_6-twitter"><path class="cls-1" d="M26.55,11.7c1.09-.56,1.9-1.53,2.25-2.7-.9,.9-2.81,1.2-2.81,1.2-1.57-1.93-4.4-2.22-6.33-.65-1.43,1.17-2.01,3.09-1.45,4.85h-.21c-3.71-.25-7.14-2.04-9.45-4.95,0,0-2.7,3.6,1.35,6.3,0,0-1.8,0-2.25-.45,0,0-.45,2.7,3.6,4.5-.57,.26-1.23,.26-1.8,0,0,1.74,1.81,3.15,4.05,3.15,0,1.24-3.02,2.25-6.75,2.25,5.85,4.05,19.8,3.15,20.7-12.15l2.25-2.25-3.15,.9Z"/></g></g></g></svg>