<?xml version="1.0" encoding="UTF-8"?><svg id="_レイヤー_2" xmlns="http://www.w3.org/2000/svg" viewBox="0 0 30 30"><defs><style>.cls-1{fill:#F07D00;}.cls-2{fill:#fff;}</style></defs><g id="_レイヤー_1-2"><g><rect class="cls-1" x="0" y="0" width="30" height="30"/><path class="cls-2" d="M15,11.28l-3.03-2.93c-.36-.35-.89-.44-1.34-.25-.46,.19-.76,.64-.76,1.14v7.49c0,.5,.2,.99,.57,1.34l3.71,3.59c.48,.46,1.24,.46,1.72,0l3.71-3.59c.36-.35,.57-.83,.57-1.34v-7.49c0-.5-.3-.95-.76-1.14-.46-.19-.99-.1-1.34,.25l-3.03,2.93Zm3.39,5.23c0,.17-.07,.33-.19,.45l-3.2,3.09v-6.34l.61-.59,2.25-2.18c.09-.09,.22-.11,.34-.06,.11,.05,.19,.16,.19,.28v5.35Z"/></g></g></svg>