<?xml version="1.0" encoding="UTF-8"?><svg id="_レイヤー_2" xmlns="http://www.w3.org/2000/svg" viewBox="0 0 30 30"><defs><style>.cls-1{fill:#fff;}.cls-2{fill:#ffb400;}</style></defs><g id="_レイヤー_1-2"><g><rect class="cls-1" x="0" y="0" width="30" height="30"/><path class="cls-2" d="M8.33,10v10h13.33V10H8.33Zm6.88,5.28c-.05,.04-.13,.07-.21,.07s-.16-.03-.21-.07l-5.21-4.03h10.83l-5.2,4.03Zm-4.4-1.89l1.81,1.54-3.04,2.99v-5.42l1.23,.89Zm2.71,2.3l.43,.36c.28,.24,.66,.37,1.05,.37s.77-.13,1.05-.37l.43-.36,3.11,3.06H10.42l3.11-3.06Zm3.86-.76l3.04-2.43v5.42l-3.04-2.99Z"/></g></g></svg>