<?xml version="1.0" encoding="UTF-8"?><svg id="_レイヤー_2" xmlns="http://www.w3.org/2000/svg" viewBox="0 0 187 65.6"><defs><style>.cls-1{fill:#3c3c3c;}</style></defs><g id="_レイヤー_1-2"><g><g><path class="cls-1" d="M71.36,16.63h6.04v1.14h-6.04v-1.14Zm2.42,.7h1.2v7.86h-1.2v-7.86Z"/><path class="cls-1" d="M78.66,16.63h1.2v8.57h-1.2v-8.57Zm.58,0h4.92v1.14h-4.92v-1.14Zm0,3.74h4.27v1.14h-4.27v-1.14Zm0,3.68h4.92v1.14h-4.92v-1.14Z"/><path class="cls-1" d="M85.78,16.63h1.09l4.19,6.62-.14,.15v-6.77h1.19v8.56h-1.1l-4.18-6.52,.14-.15v6.67h-1.19v-8.56Z"/><path class="cls-1" d="M94.08,16.63h1.2v8.57h-1.2v-8.57Zm.62,4.1h2.74c.26,0,.49-.06,.68-.18,.2-.12,.35-.29,.46-.52,.11-.22,.16-.48,.16-.77s-.05-.55-.16-.78c-.11-.22-.26-.4-.46-.52-.2-.12-.42-.19-.68-.19h-2.74v-1.14h2.7c.51,0,.96,.11,1.35,.33,.39,.22,.69,.53,.9,.92s.32,.86,.32,1.38-.11,.98-.32,1.38-.52,.7-.9,.92c-.39,.22-.84,.32-1.35,.32h-2.7v-1.14Z"/><path class="cls-1" d="M102.89,24.89c-.46-.26-.81-.63-1.06-1.11-.25-.48-.37-1.03-.37-1.66v-2.43c0-.63,.12-1.18,.37-1.66,.25-.48,.6-.85,1.06-1.11s.98-.39,1.58-.39,1.12,.13,1.58,.39c.46,.26,.81,.63,1.06,1.11,.25,.48,.37,1.03,.37,1.66v2.43c0,.63-.12,1.18-.37,1.66-.25,.48-.6,.85-1.06,1.11-.46,.26-.98,.39-1.58,.39s-1.12-.13-1.58-.39Zm2.51-1.03c.27-.16,.48-.38,.62-.68,.15-.29,.22-.63,.22-1.02v-2.51c0-.38-.07-.72-.22-1.02-.15-.29-.36-.52-.62-.68-.27-.16-.58-.24-.93-.24s-.66,.08-.93,.24c-.27,.16-.48,.38-.62,.68-.15,.29-.22,.63-.22,1.02v2.51c0,.38,.07,.72,.22,1.02,.15,.29,.36,.52,.62,.68,.27,.16,.58,.24,.93,.24s.66-.08,.93-.24Z"/><path class="cls-1" d="M111.22,25.28s-.18-.04-.55-.12c-.37-.08-.71-.2-1.03-.35-.32-.16-.62-.35-.9-.59l.75-.92c.33,.28,.69,.49,1.08,.64,.39,.14,.82,.21,1.28,.21,.62,0,1.1-.11,1.44-.34,.34-.23,.51-.55,.51-.97h0c0-.3-.08-.54-.23-.72-.16-.17-.36-.3-.6-.39-.25-.08-.56-.16-.95-.23-.01,0-.02,0-.04,0s-.03,0-.04,0l-.09-.02c-.57-.1-1.04-.21-1.4-.33-.36-.12-.67-.35-.92-.68-.26-.33-.38-.79-.38-1.4h0c0-.54,.12-.99,.36-1.36,.24-.38,.58-.66,1.04-.86s1-.29,1.64-.29c.31,0,.61,.03,.9,.1,.3,.07,.59,.17,.88,.3,.29,.13,.57,.3,.85,.5l-.68,.95c-.33-.24-.65-.42-.97-.54-.32-.12-.65-.18-.97-.18-.59,0-1.04,.12-1.36,.35s-.49,.56-.49,.99h0c0,.3,.08,.53,.25,.7,.17,.17,.38,.29,.62,.37s.6,.16,1.04,.25c.02,0,.03,0,.04,0,.01,0,.03,0,.04,0,.02,0,.04,0,.06,.01s.05,0,.06,.01c.52,.11,.95,.23,1.3,.38s.64,.38,.87,.7c.23,.32,.35,.77,.35,1.33h0c0,.53-.12,.98-.37,1.35-.25,.37-.61,.65-1.08,.85s-1.04,.29-1.7,.29h-.62Z"/></g><g><path class="cls-1" d="M18.19,32.03h3.61v25.7h-3.61v-25.7Zm1.77,0h14.4v3.43h-14.4v-3.43Zm0,11.45h12.46v3.43h-12.46v-3.43Z"/><path class="cls-1" d="M39.69,57.06c-1.13-.62-1.99-1.53-2.59-2.73-.59-1.2-.89-2.64-.89-4.32v-2.99c0-1.66,.3-3.08,.89-4.27s1.46-2.09,2.59-2.7,2.49-.93,4.08-.93,2.95,.31,4.08,.93,1.99,1.52,2.59,2.7c.59,1.18,.89,2.61,.89,4.27v3.04c0,1.67-.3,3.1-.89,4.29-.59,1.18-1.46,2.09-2.59,2.71-1.13,.62-2.49,.94-4.08,.94s-2.95-.31-4.08-.94Zm7.01-3.68c.69-.79,1.03-1.9,1.03-3.32v-3.04c0-1.43-.34-2.53-1.03-3.3s-1.66-1.17-2.92-1.17-2.24,.39-2.92,1.17c-.69,.78-1.03,1.88-1.03,3.3v3.04c0,1.43,.34,2.53,1.03,3.32,.69,.79,1.66,1.18,2.92,1.18s2.24-.39,2.92-1.18Z"/><path class="cls-1" d="M58.22,57.06c-1.13-.62-1.99-1.53-2.59-2.73-.6-1.2-.89-2.64-.89-4.32v-2.99c0-1.66,.3-3.08,.89-4.27,.59-1.18,1.46-2.09,2.59-2.7s2.49-.93,4.08-.93,2.95,.31,4.08,.93,1.99,1.52,2.59,2.7c.59,1.18,.89,2.61,.89,4.27v3.04c0,1.67-.3,3.1-.89,4.29-.59,1.18-1.46,2.09-2.59,2.71-1.13,.62-2.49,.94-4.08,.94s-2.95-.31-4.08-.94Zm7.01-3.68c.69-.79,1.03-1.9,1.03-3.32v-3.04c0-1.43-.34-2.53-1.03-3.3-.69-.78-1.66-1.17-2.93-1.17s-2.24,.39-2.92,1.17c-.69,.78-1.03,1.88-1.03,3.3v3.04c0,1.43,.34,2.53,1.03,3.32,.69,.79,1.66,1.18,2.92,1.18s2.24-.39,2.93-1.18Z"/><path class="cls-1" d="M76.31,57.17c-.95-.58-1.67-1.43-2.16-2.55-.49-1.12-.74-2.46-.74-4.03v-4.05c0-1.58,.24-2.93,.72-4.05,.48-1.12,1.19-1.97,2.11-2.55,.92-.58,2.03-.88,3.33-.88,1.08,0,2.08,.28,2.98,.85,.9,.57,1.63,1.36,2.18,2.39l-.37,3.75c0-.78-.14-1.44-.42-2-.28-.55-.69-.97-1.23-1.26-.54-.29-1.19-.43-1.95-.43-1.19,0-2.11,.37-2.77,1.11-.65,.74-.98,1.78-.98,3.13v3.99c0,1.33,.33,2.36,.98,3.08,.65,.72,1.58,1.09,2.77,1.09,.77,0,1.42-.15,1.95-.45,.54-.3,.95-.73,1.23-1.3,.28-.57,.42-1.24,.42-2.03l.25,3.87c-.37,.91-.96,1.67-1.79,2.28-.83,.61-1.85,.92-3.07,.92-1.34,0-2.49-.29-3.44-.87Zm8.05-25.14h3.61v25.7h-3.61v-25.7Z"/><path class="cls-1" d="M92.33,39.38h3.61v25.8h-3.61v-25.8Zm5.23,17.79c-.85-.55-1.47-1.32-1.87-2.32l.25-3.83c0,.79,.14,1.46,.42,2.01,.28,.55,.69,.98,1.23,1.27,.54,.29,1.19,.44,1.95,.44,1.19,0,2.11-.36,2.77-1.09,.65-.72,.98-1.75,.98-3.07v-3.98c0-1.34-.33-2.39-.98-3.13-.65-.74-1.58-1.11-2.77-1.11-.77,0-1.42,.14-1.95,.42-.54,.28-.95,.7-1.23,1.25-.28,.55-.42,1.2-.42,1.97l-.37-3.53c.55-1.07,1.28-1.9,2.17-2.48,.9-.58,1.89-.88,2.99-.88,1.3,0,2.41,.29,3.33,.88,.92,.58,1.63,1.43,2.11,2.55,.48,1.12,.72,2.47,.72,4.05v3.99c0,1.56-.25,2.89-.74,3.99-.49,1.11-1.22,1.95-2.17,2.54-.95,.58-2.1,.87-3.43,.87-1.14,0-2.14-.27-2.99-.82Z"/><path class="cls-1" d="M114.46,52.99c0,.45,.1,.79,.29,1.03s.47,.36,.82,.36h1.7v3.43h-2.12c-1.37,0-2.42-.42-3.17-1.27-.75-.85-1.12-2.04-1.12-3.59v-20.92h3.61v20.96Z"/><path class="cls-1" d="M121.65,56.59c-1.12-.94-1.68-2.36-1.68-4.27s.51-3.17,1.54-4.08c1.03-.91,2.57-1.36,4.65-1.36h5.21l.25,2.9h-5.44c-.94,0-1.65,.21-2.11,.63-.47,.42-.7,1.06-.7,1.92,0,.93,.31,1.62,.93,2.07,.62,.45,1.56,.67,2.82,.67,1.38,0,2.41-.15,3.08-.44,.68-.29,1.02-.75,1.02-1.38l.37,2.58c-.32,.49-.71,.9-1.18,1.22-.47,.32-1,.56-1.62,.72-.61,.16-1.3,.24-2.07,.24-2.26,0-3.95-.47-5.07-1.4Zm9.56-10.49c0-1.2-.32-2.14-.96-2.8-.64-.67-1.55-1-2.73-1-.73,0-1.45,.11-2.15,.34-.7,.22-1.32,.54-1.86,.94l-2.63-1.8c.7-.84,1.61-1.49,2.75-1.95,1.14-.47,2.4-.7,3.79-.7,1.52,0,2.82,.27,3.91,.8,1.08,.54,1.91,1.31,2.47,2.33s.85,2.25,.85,3.68v11.79h-3.43v-11.63Z"/><path class="cls-1" d="M143.8,57.99s-.59-.31-1.78-.94c-1.18-.62-2.09-1.53-2.71-2.72-.62-1.19-.94-2.63-.94-4.31v-3.02c0-1.66,.31-3.08,.94-4.26,.62-1.18,1.53-2.08,2.71-2.69,1.18-.62,2.61-.93,4.29-.93,.95,0,1.85,.12,2.7,.34,.84,.23,1.6,.56,2.27,1,.67,.44,1.23,.97,1.68,1.59l-2.6,2.33c-.52-.59-1.13-1.04-1.82-1.36-.7-.32-1.42-.48-2.17-.48-1.39,0-2.47,.39-3.23,1.17-.77,.78-1.15,1.87-1.15,3.29v3.02c0,1.45,.38,2.57,1.14,3.36,.76,.79,1.84,1.18,3.24,1.18,.77,0,1.5-.17,2.19-.51,.7-.34,1.3-.82,1.8-1.45l2.6,2.51c-.46,.61-1.03,1.13-1.7,1.56s-1.43,.76-2.27,.98c-.84,.22-1.73,.34-2.68,.34h-2.51Z"/><path class="cls-1" d="M160.75,57.99s-.6-.32-1.8-.95c-1.2-.64-2.12-1.57-2.75-2.8-.63-1.23-.95-2.72-.95-4.46v-2.07c0-1.81,.3-3.36,.91-4.65,.61-1.28,1.49-2.26,2.64-2.93,1.15-.67,2.54-1.01,4.17-1.01,1.53,0,2.84,.38,3.92,1.15,1.08,.77,1.91,1.87,2.48,3.32,.57,1.45,.86,3.19,.86,5.21v1.2h-12.37v-2.9h8.94c-.11-1.5-.49-2.66-1.16-3.49-.67-.83-1.56-1.25-2.68-1.25-1.37,0-2.42,.45-3.17,1.34-.75,.9-1.12,2.16-1.12,3.8v2.33c0,1.52,.4,2.69,1.2,3.5,.8,.81,1.94,1.22,3.41,1.22,.73,0,1.46-.15,2.17-.44,.72-.29,1.36-.71,1.93-1.24l2.37,2.37c-.91,.87-1.93,1.55-3.06,2.02-1.13,.48-2.27,.72-3.41,.72h-2.54Z"/></g><rect class="cls-1" y="62.25" width="187" height="3.35"/><g><rect class="cls-1" x="175.27" y="29.41" width="3.35" height="36.19"/><rect class="cls-1" x="8.38" y="29.41" width="3.35" height="36.19"/></g><rect class="cls-1" x="71.38" y="26.67" width="44.24" height=".34"/><g><polygon class="cls-1" points="93.5 0 93.5 3.52 187 33.9 187 30.38 93.5 0"/><polygon class="cls-1" points="0 30.38 0 33.9 93.5 3.52 93.5 0 0 30.38"/></g></g></g></svg>