<?xml version="1.0" encoding="utf-8"?>
<!-- Generator: Adobe Illustrator 27.2.0, SVG Export Plug-In . SVG Version: 6.00 Build 0)  -->
<svg version="1.1" id="_レイヤー_2" xmlns="http://www.w3.org/2000/svg" xmlns:xlink="http://www.w3.org/1999/xlink" x="0px"
	 y="0px" viewBox="0 0 200.4 15.6" style="enable-background:new 0 0 200.4 15.6;" xml:space="preserve">
<style type="text/css">
	.st0{fill:#FF5A00;}
</style>
<g id="_レイヤー_1-2">
	<g>
		<g>
			<rect x="4.6" y="-0.3" transform="matrix(0.9335 -0.3585 0.3585 0.9335 -2.1545 2.2796)" width="1" height="14.5"/>
			<rect x="2.6" y="6.9" transform="matrix(0.8139 -0.581 0.581 0.8139 -6.1068 3.9453)" width="1" height="9.3"/>
		</g>
		<g>
			<rect x="188.1" y="6.4" transform="matrix(0.3592 -0.9332 0.9332 0.3592 118.667 186.7345)" width="14.5" height="1"/>
			<rect x="192.6" y="11" transform="matrix(0.5823 -0.8129 0.8129 0.5823 73.0418 165.1823)" width="9.3" height="1"/>
		</g>
		<g>
			<path d="M18,1.1c0.4,0,0.6,0.2,0.6,0.6S18.3,2.2,18,2.2h-2.9c-0.4,0-0.6,0.2-0.6,0.6v8.9c0,0.3-0.3,0.5-0.6,0.5s-0.6-0.2-0.6-0.5
				V2.6c0-0.9,0.5-1.4,1.4-1.4C14.6,1.1,18,1.1,18,1.1z"/>
			<path class="st0" d="M32,12.3c0.3,0.2,0.5,0.5,0.5,0.7c0,0.4-0.3,0.8-0.8,0.8c-0.1,0-0.3,0-0.4-0.1c-2.3-1.3-4.2-3.7-5.1-6.6
				c-0.3,1.4-0.9,2.6-1.7,3.6c-0.9,1.2-2.2,2.4-3.5,3.1C20.8,14,20.6,14,20.5,14c-0.5,0-0.7-0.4-0.7-0.8c0-0.3,0.1-0.5,0.4-0.7
				c1.1-0.6,2.3-1.6,3.1-2.7c1.2-1.6,1.9-3.8,1.9-7.4c0-0.5,0.4-0.7,0.8-0.7s0.8,0.2,0.8,0.7c0,0.5,0,1,0,1.5
				C27.3,7.4,28.8,10.5,32,12.3L32,12.3z"/>
			<path d="M34.9,11.2c-0.1,0.1-0.2,0.2-0.4,0.2c-0.3,0-0.6-0.3-0.6-0.6c0-0.1,0.1-0.3,0.2-0.4l2.5-2.5L34,5.3
				c-0.1-0.1-0.2-0.3-0.2-0.4c0-0.3,0.3-0.6,0.6-0.6c0.1,0,0.3,0.1,0.4,0.2L37.4,7l2.5-2.5c0.1-0.1,0.3-0.2,0.4-0.2
				c0.3,0,0.6,0.3,0.6,0.6c0,0.1-0.1,0.3-0.2,0.4l-2.5,2.5l2.5,2.5c0.1,0.1,0.2,0.3,0.2,0.4c0,0.3-0.3,0.6-0.6,0.6
				c-0.2,0-0.3-0.1-0.4-0.2l-2.5-2.5C37.4,8.7,34.9,11.2,34.9,11.2z"/>
			<path class="st0" d="M48.1,3.6c0.2,0.2,0.3,0.4,0.3,0.6c0,0.4-0.3,0.7-0.7,0.7c-0.2,0-0.4-0.1-0.5-0.2c-0.5-0.5-1.1-1-1.7-1.3
				c-0.7,0.8-1.4,1.6-2.1,2.1c-0.2,0.1-0.3,0.2-0.5,0.2c-0.4,0-0.7-0.3-0.7-0.7c0-0.2,0.1-0.4,0.3-0.6c0.9-0.6,1.8-1.7,2.5-2.6
				c0.2-0.2,0.4-0.4,0.6-0.4c0.4,0,0.8,0.3,0.8,0.7c0,0.1,0,0.2-0.1,0.2C46.8,2.6,47.6,3.2,48.1,3.6z M44.6,11.9
				c0.4-0.1,0.8-0.3,1.3-0.4c-0.1-0.1-0.2-0.2-0.3-0.3c-0.1-0.1-0.2-0.3-0.2-0.4c0-0.3,0.3-0.6,0.7-0.6c0.2,0,0.4,0.1,0.5,0.2
				c0.4,0.4,0.9,1,1.2,1.6c0.1,0.1,0.1,0.3,0.1,0.4c0,0.4-0.4,0.7-0.7,0.7c-0.2,0-0.5-0.1-0.6-0.4l0-0.1c-1.2,0.5-2.4,0.9-3.5,1.1
				c-0.1,0-0.1,0-0.2,0c-0.4,0-0.7-0.4-0.7-0.7c0-0.3,0.2-0.6,0.5-0.6c0.1,0,0.3-0.1,0.4-0.1V6.6c0-0.9,0.4-1.2,1.3-1.2h0.3V4.8
				c0-0.3,0.3-0.5,0.7-0.5s0.7,0.2,0.7,0.5v0.5h0.3c0.9,0,1.3,0.3,1.3,1.2v2c0,0.9-0.4,1.3-1.3,1.3h-1.9L44.6,11.9L44.6,11.9z
				 M46.5,6.7c0-0.2-0.1-0.3-0.3-0.3h-1.3c-0.2,0-0.3,0.1-0.3,0.3V7h1.8V6.7z M46.2,8.7c0.2,0,0.3-0.1,0.3-0.3V8.1h-1.8v0.7H46.2z
				 M52.1,6.9c0,0.1,0,0.2,0,0.4c0.3,2.4,1.4,4.2,2.7,5.5c0.2,0.2,0.3,0.4,0.3,0.6c0,0.4-0.4,0.7-0.8,0.7c-0.2,0-0.4-0.1-0.6-0.3
				c-0.9-0.9-1.6-2.2-2.1-3.6c-0.5,1.6-1.5,2.9-2.8,3.9c-0.2,0.1-0.3,0.2-0.5,0.2c-0.4,0-0.7-0.3-0.7-0.7c0-0.2,0.1-0.4,0.3-0.6
				c1.8-1.4,2.8-3.5,2.8-6.2V6.1c0-0.4,0.4-0.6,0.7-0.6s0.7,0.2,0.7,0.6L52.1,6.9L52.1,6.9z M53.5,3.9c0.9,0,1.3,0.4,1.3,1
				c0,0.2,0,0.3-0.1,0.5c-0.1,0.4-0.4,0.9-0.6,1.3c-0.2,0.3-0.4,0.4-0.7,0.4c-0.4,0-0.7-0.3-0.7-0.6c0-0.1,0-0.2,0.1-0.4
				c0.2-0.3,0.3-0.5,0.4-0.7c0,0,0-0.1,0-0.1c0-0.1-0.1-0.1-0.2-0.1h-2.7c-0.2,0.6-0.5,1.2-0.8,1.7c-0.2,0.3-0.5,0.4-0.7,0.4
				c-0.4,0-0.7-0.3-0.7-0.7c0-0.1,0-0.3,0.1-0.4c0.7-1.1,1.3-2.7,1.6-4.2c0.1-0.4,0.4-0.6,0.7-0.6c0.4,0,0.8,0.2,0.8,0.7
				c0,0.1,0,0.1,0,0.2c-0.1,0.5-0.3,1-0.5,1.6L53.5,3.9L53.5,3.9z"/>
			<path class="st0" d="M68.7,5.1c0.4,0.1,0.6,0.4,0.6,0.7c0,0.4-0.3,0.7-0.7,0.7c-0.1,0-0.3,0-0.4-0.1c-1.9-0.8-4.1-2.2-5.6-3.6
				C61,4.3,59,5.7,57,6.6c-0.1,0-0.2,0.1-0.3,0.1C56.3,6.7,56,6.3,56,6c0-0.2,0.1-0.5,0.5-0.7c2.1-0.9,4.1-2.4,5.6-4
				C62.2,1.1,62.5,1,62.7,1c0.4,0,0.7,0.3,0.7,0.6c0,0.1,0,0.1,0,0.2C64.8,3.1,66.8,4.3,68.7,5.1z M63.5,10.1c0.3,0.4,0.6,0.7,1,1
				c0.9-0.5,1.8-1.1,2.5-1.7c0.2-0.1,0.3-0.2,0.5-0.2c0.4,0,0.7,0.3,0.7,0.7c0,0.2-0.1,0.4-0.3,0.6c-0.6,0.5-1.5,1-2.3,1.4
				c0.8,0.4,1.6,0.8,2.6,1.1c0.4,0.1,0.6,0.4,0.6,0.7c0,0.4-0.3,0.7-0.7,0.7c-0.1,0-0.1,0-0.2,0c-2.4-0.6-4.7-2.1-6-4.2h-1.5v2.4
				c0.6-0.1,1.3-0.2,1.9-0.4c0.1,0,0.1,0,0.2,0c0.4,0,0.6,0.3,0.6,0.6c0,0.2-0.1,0.5-0.5,0.6c-1.5,0.4-3.4,0.7-5.1,0.8
				c0,0-0.2,0-0.3,0c-0.4,0-0.6-0.3-0.6-0.6s0.2-0.6,0.6-0.7c0.5,0,1.1-0.1,1.7-0.1v-6c0-0.9,0.5-1.4,1.8-1.4h1.1V4.3
				c0-0.4,0.4-0.6,0.7-0.6s0.7,0.2,0.7,0.6v0.9h1.1c1.3,0,1.8,0.5,1.8,1.4v2.1c0,1.2-0.7,1.4-1.8,1.4H63.5L63.5,10.1z M64.7,6.7
				c0-0.3-0.1-0.4-0.5-0.4H61c-0.4,0-0.5,0.1-0.5,0.4v0.4h4.2L64.7,6.7L64.7,6.7z M64.2,8.9c0.3,0,0.5,0,0.5-0.4V8.2h-4.2v0.8H64.2
				L64.2,8.9z"/>
			<path class="st0" d="M76.2,1.8c0-0.4,0.4-0.6,0.8-0.6s0.8,0.2,0.8,0.6v1.2h4.5c0.4,0,0.6,0.3,0.6,0.7s-0.2,0.7-0.6,0.7h-8.5
				c-0.6,0-0.8,0.2-0.8,0.7v1.8c0,2.7-0.4,4.8-1.4,6.6c-0.2,0.4-0.5,0.5-0.8,0.5c-0.4,0-0.8-0.3-0.8-0.7c0-0.1,0-0.3,0.1-0.5
				c0.8-1.6,1.2-3.4,1.2-5.9V4.6c0-1.2,0.6-1.7,2-1.7h2.8C76.2,2.9,76.2,1.8,76.2,1.8z M76.6,5.3c0-0.4,0.4-0.6,0.7-0.6
				S78,4.9,78,5.3v1.1h3.7c0.4,0,0.6,0.3,0.6,0.7s-0.2,0.7-0.6,0.7H78v1.7h1.5c1.4,0,1.9,0.5,1.9,1.5v1.7c0,1.3-0.8,1.5-1.9,1.5
				h-3.8c-1.4,0-1.9-0.5-1.9-1.5v-1.7c0-1,0.5-1.5,1.9-1.5h0.8V5.3z M79.4,12.8c0.5,0,0.6-0.1,0.6-0.5v-1.2c0-0.4-0.1-0.5-0.6-0.5
				h-3.5c-0.5,0-0.6,0.1-0.6,0.5v1.2c0,0.4,0.2,0.5,0.6,0.5H79.4z"/>
			<path d="M84.8,14.5c-0.3,0-0.6-0.2-0.6-0.6s0.2-0.6,0.6-0.6h2.9c0.4,0,0.6-0.2,0.6-0.6V3.9c0-0.3,0.3-0.5,0.6-0.5
				s0.6,0.2,0.6,0.5v9.2c0,0.9-0.5,1.4-1.4,1.4C88.1,14.5,84.8,14.5,84.8,14.5z"/>
			<path d="M100.8,3.8c1.2,0,1.9,0.5,1.9,1.3c0,0.4-0.2,0.8-0.5,1.3c-1,1.4-2.3,2.7-3.8,3.8c0.4,0.4,0.9,0.9,1.2,1.3
				c0.2,0.2,0.3,0.5,0.3,0.7c0,0.5-0.4,0.9-0.9,0.9c-0.2,0-0.5-0.1-0.7-0.4c-1-1.2-2.6-2.7-3.7-3.5c-0.2-0.2-0.3-0.4-0.3-0.6
				c0-0.4,0.4-0.8,0.9-0.8c0.2,0,0.4,0.1,0.6,0.2c0.5,0.3,1,0.7,1.5,1.2c1.4-1,2.6-2.1,3.3-3.2c0.1-0.1,0.1-0.2,0.1-0.3
				c0-0.1-0.1-0.2-0.4-0.2l-8.1,0.1c-0.5,0-0.7-0.4-0.7-0.8s0.2-0.8,0.7-0.8L100.8,3.8L100.8,3.8z"/>
			<path d="M107.1,7.7c0,0.1,0,0.2,0,0.2c0,0.4-0.4,0.7-0.8,0.7c-0.3,0-0.5-0.1-0.6-0.4c-0.2-0.6-0.6-1.3-0.9-1.8
				c-0.1-0.1-0.1-0.2-0.1-0.3c0-0.4,0.4-0.6,0.8-0.6c0.2,0,0.5,0.1,0.6,0.4C106.5,6.3,106.9,7,107.1,7.7L107.1,7.7z M112.8,5.2
				c0.4,0,0.8,0.2,0.8,0.7c0,0.1,0,0.1,0,0.2c-0.9,3.3-3.1,6.3-5.8,7.7c-0.1,0.1-0.3,0.1-0.4,0.1c-0.4,0-0.7-0.4-0.7-0.7
				c0-0.2,0.1-0.5,0.4-0.7c2.5-1.4,4.2-3.7,5-6.8C112.2,5.3,112.5,5.2,112.8,5.2L112.8,5.2z M109.8,7c0,0.1,0,0.2,0,0.2
				c0,0.4-0.4,0.7-0.8,0.7c-0.3,0-0.5-0.1-0.6-0.5c-0.2-0.6-0.5-1.2-0.8-1.8c-0.1-0.1-0.1-0.2-0.1-0.3c0-0.4,0.4-0.6,0.8-0.6
				c0.2,0,0.5,0.1,0.7,0.4C109.3,5.7,109.6,6.4,109.8,7L109.8,7z"/>
			<path d="M122.6,6.6h4.3c0.4,0,0.6,0.4,0.6,0.7S127.3,8,126.8,8h-4.4c-0.3,2.8-1.5,4.5-3.4,5.7c-0.2,0.1-0.4,0.1-0.5,0.1
				c-0.5,0-0.8-0.4-0.8-0.8c0-0.2,0.1-0.5,0.4-0.7c1.6-1,2.4-2.3,2.7-4.3h-4.6c-0.4,0-0.6-0.4-0.6-0.7s0.2-0.7,0.6-0.7h4.7
				c0-0.1,0-0.3,0-0.4V4.5c-1,0.1-2.2,0.3-3,0.3c-0.5,0-0.8-0.4-0.8-0.8s0.2-0.7,0.8-0.7c2.2-0.1,5-0.6,6.7-1.2c0.1,0,0.2,0,0.3,0
				c0.5,0,0.8,0.4,0.8,0.8c0,0.3-0.2,0.6-0.6,0.7c-0.8,0.2-1.7,0.5-2.7,0.6L122.6,6.6L122.6,6.6z"/>
			<path d="M132.7,5.1c0.2,0.2,0.2,0.4,0.2,0.6c0,0.5-0.4,0.9-0.9,0.9c-0.2,0-0.4-0.1-0.6-0.3c-0.6-0.6-1.3-1.2-1.9-1.7
				c-0.2-0.2-0.3-0.4-0.3-0.6c0-0.4,0.4-0.8,0.9-0.8c0.2,0,0.4,0.1,0.6,0.2C131.3,3.7,132.1,4.4,132.7,5.1L132.7,5.1z M138.9,4.7
				c0.4,0,0.9,0.3,0.9,0.8c0,0.1-0.1,0.3-0.1,0.4c-2,3.5-5.2,6.1-8.7,7.4c-0.1,0.1-0.3,0.1-0.4,0.1c-0.5,0-0.8-0.4-0.8-0.9
				c0-0.3,0.1-0.6,0.6-0.7c3.2-1.2,6.2-3.6,7.9-6.6C138.3,4.8,138.6,4.7,138.9,4.7L138.9,4.7z"/>
			<path d="M148.7,4.1c1.2,0,1.8,0.4,1.8,1.3c0,0.2,0,0.5-0.1,0.7c-1,3.3-3.4,6.2-6.4,7.9c-0.2,0.1-0.3,0.1-0.5,0.1
				c-0.5,0-0.8-0.4-0.8-0.8c0-0.3,0.1-0.6,0.5-0.8c2.8-1.6,4.6-4,5.5-6.7c0-0.1,0-0.1,0-0.2c0-0.2-0.1-0.2-0.4-0.2l-3.1,0
				c-0.7,1-1.5,2-2.3,2.7c-0.2,0.2-0.4,0.3-0.6,0.3c-0.4,0-0.8-0.3-0.8-0.7c0-0.2,0.1-0.4,0.4-0.7c1.3-1.2,2.6-3.1,3.4-4.8
				c0.1-0.4,0.5-0.5,0.8-0.5c0.4,0,0.8,0.3,0.8,0.7c0,0.1,0,0.2-0.1,0.3c-0.2,0.4-0.4,0.9-0.6,1.3L148.7,4.1L148.7,4.1z M149.5,2.4
				c0-0.3,0.3-0.5,0.6-0.5c0.1,0,0.3,0.1,0.4,0.2c0.4,0.4,0.7,0.9,1,1.3c0.1,0.1,0.1,0.2,0.1,0.3c0,0.3-0.3,0.6-0.6,0.6
				c-0.2,0-0.4-0.1-0.5-0.3c-0.3-0.5-0.6-0.9-0.9-1.3C149.6,2.7,149.5,2.6,149.5,2.4L149.5,2.4z M151,1.5c0-0.3,0.3-0.5,0.6-0.5
				c0.1,0,0.3,0.1,0.5,0.2c0.3,0.4,0.7,0.8,1,1.2c0.1,0.1,0.1,0.3,0.1,0.4c0,0.3-0.3,0.5-0.6,0.5c-0.2,0-0.4-0.1-0.5-0.3
				c-0.3-0.4-0.6-0.9-0.9-1.3C151.1,1.7,151,1.6,151,1.5L151,1.5z"/>
			<path d="M158.6,9c0,0.5-0.4,0.7-0.8,0.7S157,9.5,157,9V6.6h-2.2c-0.4,0-0.6-0.3-0.6-0.7s0.2-0.7,0.6-0.7h2.2V2.9
				c0-0.5,0.4-0.7,0.8-0.7s0.8,0.2,0.8,0.7v2.3h3.2V2.7c0-0.5,0.4-0.7,0.8-0.7s0.8,0.2,0.8,0.7v2.5h2.4c0.4,0,0.6,0.3,0.6,0.7
				s-0.2,0.7-0.6,0.7h-2.4V7c0,3.4-1.6,5.7-4.1,6.8c-0.1,0.1-0.2,0.1-0.4,0.1c-0.5,0-0.8-0.4-0.8-0.8c0-0.3,0.1-0.6,0.5-0.7
				c2.1-1,3.1-2.6,3.1-5.5V6.6h-3.2L158.6,9L158.6,9z"/>
			<path d="M173,7.2c-1.2,0.9-2.4,1.7-3.5,2.4c-0.2,0.1-0.3,0.1-0.5,0.1c-0.4,0-0.8-0.4-0.8-0.8c0-0.3,0.1-0.6,0.5-0.8
				c2.5-1.3,5.1-3.5,6.8-5.7c0.2-0.2,0.4-0.4,0.7-0.4c0.4,0,0.9,0.3,0.9,0.8c0,0.2-0.1,0.3-0.2,0.5c-0.8,1.1-1.9,2.1-3,3.1
				c0.4,0,0.7,0.3,0.7,0.7v6.1c0,0.5-0.4,0.7-0.8,0.7s-0.8-0.2-0.8-0.7L173,7.2L173,7.2z"/>
			<path d="M183,6.4c0.1-0.2,0.4-0.4,0.7-0.4c0.1,0,0.2,0,0.4,0.1c0.9,0.4,2.1,1.1,3,1.8c0.3,0.2,0.4,0.5,0.4,0.7
				c0,0.4-0.4,0.8-0.8,0.8c-0.2,0-0.4-0.1-0.6-0.2c-0.8-0.6-2-1.3-2.6-1.7c-0.2-0.1-0.3-0.2-0.4-0.4v6c0,0.5-0.4,0.7-0.8,0.7
				s-0.8-0.2-0.8-0.7V2.5c0-0.5,0.4-0.7,0.8-0.7S183,2,183,2.5L183,6.4L183,6.4z"/>
		</g>
	</g>
</g>
</svg>
