<?xml version="1.0" encoding="UTF-8"?><svg id="_レイヤー_2" xmlns="http://www.w3.org/2000/svg" viewBox="0 0 78.91 121.99"><defs><style>.cls-1{fill:#ffb400;}.cls-2{fill:#3c3c3c;}</style></defs><g id="_レイヤー_1-2"><path class="cls-2" d="m56.95,13.95c.78-1.83,1.41-3.45,2.17-5.01.67-1.38,1.66-2.52,3.14-3.13,2.98-1.23,5.69.28,6.15,3.46.25,1.71-.06,3.35-.76,4.91-.52,1.14-.96,2.38-1.74,3.33-1.19,1.45-.78,2.71-.09,4.14.31.64.67.78,1.32.87,2.76.39,3.91,1.57,4.39,4.32.29,1.65.18,3.31-.03,5.14,1.71.02,3.2.06,4.65.49,1.6.48,2.65,1.68,2.77,3.2.1,1.27-.61,2.18-2.31,2.92-1.16.51-2.37.97-3.63.94-1.43-.04-1.65.64-1.56,1.85.07,1,.04,2.02-.12,3.01-.34,2.05-1.29,3.69-3.59,3.93-1,.1-1.15.67-1.35,1.47-.75,3.09-1.56,6.18-2.39,9.25-3.18,11.93-9.25,22.42-16.15,32.5-1.37,2-2.89,3.92-4.87,5.4-.27.2-.6.36-.65.72-.31,2.36-1.65,4.56-.85,7.11.6,1.93.52,3.99.4,6-.25,4.24-2.28,7.33-6.2,9-2.98,1.27-5.98,2.63-9.4,2.07-1.08-.18-2.16-.32-3.18-.71-2.87-1.09-3.46-1.97-3.44-5.07,0-.84,0-1.68-.01-2.51,0-.05-.11-.09-.34-.27-.78.77-1.58,1.58-2.41,2.36-1.67,1.55-3.44,2.97-5.6,3.77-2.33.86-3.49.55-5.12-1.3-1-1.14-1.92-2.34-2.6-3.7-1.08-2.17-.84-2.91,1.43-3.83,4.58-1.85,8.6-4.52,12.13-7.96.33-.32.89-.53.76-1.29-1.7-.34-3.42.06-5.13.13-4.08.16-4.73-.48-4.47-4.56.07-1.08.18-2.19.45-3.23.3-1.15.77-2.26,2.23-2.39.87-.08,1.01-.71,1.09-1.42.1-.92.22-1.84.43-2.73.31-1.4.88-1.87,2.29-1.74,1.05.1,2.08.41,3.36.68-.79-2.95-1.49-5.67-2.25-8.38-3.61-12.89-4.5-26.08-4.26-39.38.01-.58.18-1.17-.47-1.55-1.28-.75-2-1.98-2.73-3.36-1.04.73-1.87,1.56-2.94,1.99-2.93,1.18-5.3-.27-5.44-3.44-.12-2.69.93-4.95,3.11-6.53.93-.68,1.23-1.16.53-2.2-.77-1.15-.95-2.5-.68-3.87.51-2.65,2.75-3.9,5.28-3,1.54.55,2.73,1.6,4.26,3.28-.72-2.43-.9-4.24.6-5.72,1.5-1.49,3.39-1.56,5.51-1.21-.48-1.19-.86-2.11-1.22-3.03-.54-1.38-.59-2.81-.24-4.21.77-3,3.65-3.94,6.03-1.95,1.73,1.44,2.74,3.37,3.39,5.49.22.71.4,1.44.61,2.24.69-.33,1.26-.67,1.87-.86,1.01-.31,1.62-.7,1.83-1.96.28-1.63,1.7-2.4,3.32-2.63,1.28-.18,2.5.08,3.7.51.59-.57.29-1.27.32-1.9.04-.86.23-1.67.62-2.42,1.24-2.41,3.82-2.65,5.49-.49.83,1.08,1.34,2.32,1.55,3.67.11.73.21,1.47.32,2.18.81.32,1.55-.04,2.29.03,1.7.18,3.13.68,3.5,2.61.08.42.1.83.59,1.01,1.67.6,3.02,1.72,4.35,2.97Zm-14.61,34.26c-1.6-.04-3.02-.71-4.6-1.16-.33,1.55-.44,2.99-1.05,4.29-1.67,3.56-5.74,3.98-8.09.81-1.15-1.56-1.49-3.35-1.25-5.25.17-1.32.65-2.56,1.23-3.9-1.33-.44-2.5-.83-3.68-1.23-2.05-.71-3.8-1.78-4.75-3.84-.69-1.5-2.38-1.42-3.49-2.24-.32-.24-.59.11-.87.27-1.67.96-2.37,2.3-2.35,4.3.08,13.39,1.18,26.64,5,39.55,1.1,3.7,2.07,7.43,4.25,10.7,1.34,2.01,3.08,3.5,5.29,4.5,3.78,1.71,7.54,1.09,11.33.11.99-.26,1.47-1.08,1.93-1.87,1.19-2.04,2.14-4.19,2.82-6.44,2.65-8.74,5.33-17.48,7.62-26.32.77-2.97,1.43-6,1.62-9.13-4.14.65-5.4-.25-6.72-4.92-1.31,1.08-2.57,1.81-4.2,1.77Zm3.41,42.82c4.04-5.37,7.23-11.27,10.37-17.19,4.2-7.92,6.48-16.48,8.43-25.16.15-.68.32-1.3-.19-1.89-.83-.97-.98-2.29-1.71-3.45-1.5.69-3.05.91-4.65.84-.5-.02-1.14-.03-1.1.67.13,2.1-1.23,3.81-1.48,5.79-.77,6.17-2.14,12.2-4.03,18.11-2.56,8.02-4.21,16.32-7.8,24.45,1.17-.7,1.62-1.49,2.14-2.18Zm-24.17,26.23c.02.92.62,1.3,1.3,1.67,1.44.78,3.02.98,4.62,1.04,3.4.13,4.33-.42,5.38-3.61.84-2.54,1.51-5.15,2.11-7.76.28-1.24.72-2.51.6-4-4.1.49-7.88.18-11.44-2.26-1.58,4.98-2.67,9.84-2.57,14.93Zm18.11-5.12c.48-2.31.22-4.66-.13-6.98-.08-.49-.02-1.27-.93-1.17-.74.08-.87.62-.98,1.23-.59,3.28-1.32,6.54-2.23,9.75-.27.93-.8,1.82-.73,3.02,2.88-1.08,4.44-3.11,5-5.86Z"/><path class="cls-1" d="m66.49,10.49c.02,1.56-.57,2.96-1.25,4.31-.49.97-1.06,1.91-1.65,2.82-.76,1.17-.79,2.29-.15,3.55,1.01,1.96,1.64,4.04,1.59,6.28-.04,1.95-.78,3.26-1.93,3.44-1.12.18-2.5-.82-3.23-2.4-.57-1.24-.95-2.5-.44-3.88.21-.57.24-1.22-.45-1.5-.69-.27-1.1.29-1.42.77-.28.41-.43.9-.64,1.36-1.2,2.54-2.86,4.74-5.06,6.49-2.02,1.6-3.69.91-4.09-1.64-.35-2.24.73-3.9,2.28-5.3.74-.67,1.65-1.14,2.44-1.77,1.1-.88,1.13-1.55-.02-2.4-.95-.7-1.88-1.42-2.62-2.33-.47-.58-.96-1.2-1.24-1.88-.87-2.07.35-3.72,2.57-3.6,1.73.1,2.9,1.18,4.05,2.31,2.51,2.45,2.84,2.36,3.93-1.05.38-1.19.83-2.37,1.34-3.52.3-.68.72-1.33,1.2-1.9.93-1.11,2.35-1.56,3.36-1.11,1.29.58,1.42,1.75,1.42,2.97Z"/><path class="cls-1" d="m35.65,46c.09,1.36-.09,2.69-.55,3.97-.4,1.12-.93,2.2-2.35,2.31-1.26.1-2.47-.75-3.07-2.18-.77-1.83-.48-3.62.32-5.36,1.41-3.08,1.42-3.06-1.89-4.03-1.04-.31-2.09-.61-3.1-1.02-.69-.28-1.37-.66-1.95-1.12-1.15-.92-1.65-2.24-1.21-3.05.63-1.16,1.77-1.16,2.87-1.08,2.31.17,4.52.71,6.02,2.65,1.61,2.1,4.61,1.62,5.78-.76.48-.97.89-2.01,1.1-3.07.24-1.2.61-1.91,1.97-1.39.83.31,2.02-.35,2.53.66.56,1.12.78,2.39.37,3.67-1.1,3.49-1.03,3.78,2.27,5.75.84.5.93,1.09.76,1.87-.31,1.39-1.41,2.31-2.86,2.38-1.66.08-3.15-.4-4.43-1.46-.26-.21-.48-.47-.71-.71-.41-.42-.8-.95-1.48-.58-.65.35-.51.98-.45,1.56.03.33.05.67.07,1Z"/><path class="cls-1" d="m35.05,14c-1.07,2.22-2.83,3.62-5.12,4.38-2.05.69-3,2.55-4.17,4.08-.87,1.13-.52,2.58.5,3.69.34.37.73.69,1.14.98.74.53,1.65.87,1.18,2.12-.49,1.31-1.5,2.29-2.65,2.37-.99.07-1.53-.45-1.9-1.3-.76-1.73-.98-3.54-.84-5.41.12-1.56-.1-2.86-1.96-3.21-.65-.12-.94-.56-.96-1.26-.02-.66-.09-1.35-.31-1.98-.77-2.25-2.59-2.98-4.77-1.99-.34.15-.58.6-1.06.39.35-1.93.87-2.42,2.7-2.38,1.36.03,2.63.47,3.81,1.15.62.36,1.3.58,1.79-.09.42-.57-.02-1.1-.34-1.59-.77-1.19-1.58-2.37-2.28-3.6-.72-1.27-1.01-2.67-.74-4.13.34-1.88,1.64-2.37,3.04-1.08,1.93,1.79,2.81,4.12,3.05,6.7.04.42,0,.84.01,1.26.01.77-.64,1.8.44,2.21,1.07.41,1.28-.8,1.84-1.34.42-.41.81-.86,1.28-1.2,1.7-1.22,2.86-1.2,4.73.07.55.37,1.22.57,1.62,1.15Z"/><path class="cls-1" d="m18.35,20.48c-.02,2.82-1.47,4.41-4.24,4.85-1.22.19-1.45.57-.89,1.63.39.74.93,1.4,1.3,2.15.73,1.49.91,3.07.3,4.63-.69,1.78-2.25,2-3.54.59-.77-.85-1.01-1.91-1.13-3-.07-.59-.03-1.24-.73-1.45-.81-.25-1.2.35-1.59.91-.78,1.11-1.69,2.1-2.93,2.69-1.82.86-2.9.14-2.92-1.9-.03-2.3,1.38-4.31,3.63-5.18,1.74-.67,1.8-.84.76-2.47-.59-.92-1.28-1.78-1.44-2.9-.14-1.03-.07-2.03.88-2.71.93-.67,1.77-.16,2.58.26,1.06.55,1.8,1.47,2.56,2.37,1.13,1.34,1.67,1.31,2.77,0,.6-.7,1.1-1.49,1.75-2.13,1.36-1.34,2.33-1.01,2.75.89.07.33.11.66.13.79Z"/><path class="cls-1" d="m67.02,24.59c1.6-.2,2.09.88,2.43,2.03.52,1.82.46,3.64-.11,5.45-.63,2.01-.38,2.33,1.75,2.07,1.52-.18,3-.18,4.49.22.74.2,1.22.64,1.28,1.36.05.72-.65.89-1.17,1.13-1.48.69-3.07.76-4.67.86-1.73.11-1.75.18-1.68,1.98.05,1.17.08,2.35.09,3.52,0,.68-.11,1.34-.42,1.95-.76,1.52-2.12,1.67-3.15.32-.68-.89-.97-1.95-1.13-3.03-.38-2.55-1.73-4.26-4.17-5.16-1.23-.45-1.5-1.18-.97-2.29.59-1.23,1.65-1.85,2.94-2.13,3.31-.72,4.45-2.12,4.48-5.53,0-.91,0-1.82,0-2.76Z"/><path class="cls-1" d="m40.77,30c-.29-.04-1.12-.13-1.95-.25-1.95-.28-2.23-.09-2.79,1.88-.3,1.05-.57,2.1-.94,3.13-.32.88-.8,1.81-1.92,1.63-1.13-.18-1.2-1.27-1.34-2.17-.2-1.27.14-2.5.34-3.74q.45-2.77-2.02-3.98c-.83-.41-1.65-.84-2.29-1.52-.42-.44-.69-.93-.4-1.58.26-.59.67-.93,1.32-.99,1.12-.12,2.15.15,3.18.57,2.98,1.22,3.17,1.08,3.2-2.24,0-1.34.02-2.69.51-3.97.15-.41.37-.79.84-.82.47-.03.75.33.95.71.74,1.39.88,2.89.62,4.4-.2,1.15-.6,2.26-.92,3.39-.37,1.32.1,1.95,1.43,1.78.99-.12,1.97-.45,2.96-.54.91-.08,1.85-.05,2.75.08.71.1,1.69.21,1.7,1.16.01.97-.12,2-1.23,2.56-1.11.55-2.26.56-3.98.52Z"/><path class="cls-1" d="m54.59,31.77c1.08,1.08.84,2.11.76,3.08-.06.66-.31,1.3-.46,1.96-.44,2.02-.09,2.45,1.93,2.41.67-.01,1.34-.08,2.01-.13.78-.05,1.5.14,2.15.58.5.33.98.71.85,1.4-.11.59-.65.76-1.11.9-1.06.33-2.16.22-3.25.22-2.42,0-2.53.08-2.58,2.54-.04,2.06-.45,3.85-2.64,4.67-1.47.55-2.41.21-3.09-1.22-.72-1.52-.6-3.06-.05-4.64.82-2.37.61-2.62-1.91-3.12-.89-.18-1.86-.15-2.64-.74-.49-.37-.85-.83-.76-1.49.09-.68.57-1,1.19-1.13.49-.11.99-.18,1.49-.24.5-.05,1.15.02,1.41-.4,1.61-2.57,5.24-1.9,6.7-4.65Z"/><path class="cls-1" d="m40.33,20.81c-.3-1.99-.57-3.76-1.2-5.48-.51-1.4-1.35-2.25-2.55-2.92-1.09-.62-2.25-1.15-3.14-2.07-1.12-1.17-.83-2.17.75-2.52,1.1-.24,2.18-.1,3.17.47.51.29.98.66,1.51.9,1.09.49,1.82-.02,1.74-1.24-.06-.83-.29-1.65-.36-2.49-.06-.75-.1-1.51.2-2.24.23-.55.53-1.11,1.17-1.19.68-.09,1.11.41,1.36.94.85,1.73,1.85,3.47.49,5.4-.33.47-.46.95-.05,1.36.42.42.94.7,1.59.41,1.16-.52,2.36-.88,3.65-.77.51.04,1.06.15,1.18.73.1.46-.32.67-.7.91-3.15,2-3.63,4.44-1.58,7.61.37.57,1.45,1.2.64,1.88-.93.78-1.4-.41-1.88-.99-.69-.84-1.2-1.83-1.9-2.66-.98-1.16-1.77-.99-2.41.43-.5,1.11-.56,2.44-1.71,3.54Z"/><path class="cls-1" d="m22.08,101.85c-.52,2.18-1.02,4.37-1.57,6.54-.1.39-.27.81-.53,1.11-2.42,2.78-4.88,5.53-8.08,7.45-.5.3-1.05.53-1.6.71-1.04.35-1.94.2-2.66-.76-.96-1.26-2.04-2.44-2.64-4.16,3.12-1.37,6.2-2.84,8.97-4.87,2.71-1.99,5.03-4.47,7.59-6.65.17.21.35.42.52.62Z"/><path class="cls-1" d="m24.84,95.59c4.94,3.16,10.03,2.82,15.32,1.37.14,1.53-.34,2.69-.69,3.86-.21.71-.72,1.09-1.43,1.26-2.96.72-5.94,1.18-8.95.4-4.04-1.05-4.78-2.2-4.25-6.89Z"/><path class="cls-1" d="m16.38,99.52c-1.59,0-3.19-.05-4.78.02-1.1.04-1.43-.4-1.48-1.47-.21-4.51.71-5.35,5.07-4.4,1.73.38,3.39.93,4.89,1.91.78.51,1.5,1.08,1.96,1.91.31.57.92,1.14.48,1.82-.38.59-1.08.19-1.62.17-1.51-.04-3.02-.13-4.52-.19,0,.08,0,.16,0,.23Z"/><path class="cls-1" d="m15.88,27.25c1.6-.76,2.89-1.8,3.68-3.34.19-.36.5-.4.84-.36.5.05.73.38.75.84.03.59,0,1.17,0,1.76.01,2.14.58,4.14,1.58,6.08-.74.55-1.52,1.03-2.17,1.65-.53.51-.82,1.28-1.79.69-.84-.51-1.9-.72-1.7-2.12.25-1.8-.41-3.46-1.2-5.21Z"/><path class="cls-1" d="m22.42,94.81c-2.21-1.67-4.59-2.7-7.18-3.1-1.24-.19-1.53-.75-1.24-1.85.08-.32.07-.66.13-.99.26-1.59.38-1.66,1.94-1.25,2.07.54,3.91,1.34,4.76,3.57.26.67.86,1.22,1.34,1.8.39.47.7.94.26,1.81Z"/><path class="cls-1" d="m39.86,23.68c1.88-.95,2.96-2.37,3.59-4.62,1.62,1.77,2.65,4.07,5.36,3.83-.76,1.53-1.51,2.08-3.19,1.25-1.73-.86-3.77-.44-5.75-.46Z"/><path class="cls-1" d="m57.64,28.42c.64,1.19,1.15,2.33,2.15,3.27-.72.81-1.41,1.58-2.27,2.54-.21-1.1-.14-2.13-.7-2.91-.85-1.18-.29-1.98.82-2.9Z"/><path class="cls-1" d="m44.23,32.52c-.18-.95.63-1.03,1.22-1.18.51-.13,1.93,1.92,1.82,2.61-.15.98-.92,1.04-1.69,1.04-.85,0-1.35-.91-1.35-2.47Z"/><path class="cls-1" d="m33.01,21.15c-.81-.12-1.62-.21-2.24-.9.65-.55,1.4-.83,2.2-1.03.38.62.36,1.24.04,1.92Z"/><path class="cls-1" d="m29.96,31.36c.3.62.1,1.19.03,1.74-.04.35-.29.62-.68.52-.31-.08-.64-.21-.86-.42-.32-.3-.09-.59.17-.81.43-.36.72-.91,1.34-1.03Z"/><path class="cls-2" d="m59.5,19.7c0,1.11-.71,1.5-1.59,1.59-.84.09-1.42-.33-1.52-1.23-.1-.93.5-1.68,1.37-1.67.89.02,1.6.35,1.74,1.31Z"/><path class="cls-2" d="m38.7,39.88c-.16.92-.69,1.51-1.65,1.59-.82.07-1.61-.78-1.54-1.62.1-1.03.77-1.44,1.73-1.39.87.04,1.39.49,1.45,1.42Z"/><path class="cls-2" d="m24.7,16.98c.68.11,1.05.56,1.01,1.33-.06.98-.83,1.68-1.77,1.64-.65-.03-1.11-.32-1.17-1-.08-.86.99-1.98,1.93-1.97Z"/><path class="cls-2" d="m10.5,23.01c.92.18,1.2.82,1.13,1.65-.07.84-.52,1.46-1.4,1.46-.91,0-1.35-.59-1.29-1.48.07-.95.57-1.53,1.56-1.63Z"/><path class="cls-2" d="m67.49,35.97c.02,1.06-.89,1.85-2.19,1.85-1.03,0-1.46-.63-1.5-1.57-.05-1.09.97-2.12,2-2.08.9.03,1.68.86,1.69,1.8Z"/><path class="cls-2" d="m35.16,25.96c.67.07,1.08.41,1.06,1.11-.03.78-.5,1.27-1.25,1.21-.65-.05-.97-.57-.91-1.23.06-.66.43-1.03,1.1-1.09Z"/><path class="cls-2" d="m49.96,38.41c.08-.72.4-1.35,1.3-1.44.89-.09,1.63.67,1.7,1.74.05.74-.17,1.31-1.06,1.33-.97.02-1.89-.71-1.95-1.64Z"/><path class="cls-2" d="m42.03,14.34c-.89.03-1.74-.72-1.64-1.51.11-.9.64-1.54,1.6-1.56.97-.02,1.57.58,1.59,1.51.02.97-.69,1.41-1.56,1.55Z"/></g></svg>