<?xml version="1.0" encoding="UTF-8"?><svg id="_レイヤー_2" xmlns="http://www.w3.org/2000/svg" viewBox="0 0 77.95 114.86"><defs><style>.cls-1{fill:#ffb400;}.cls-2{fill:#3c3c3c;}</style></defs><g id="_レイヤー_1-2"><path class="cls-2" d="m77.94,101.01c.07,1.01-.31,1.73-1.13,2.26-1.54,1.01-3.07,2.02-4.85,2.63-7.09,2.42-14.16,4.92-21.4,6.86-2.98.8-6.04,1.35-9.08,1.92-1.95.37-3.92.05-5.88-.13-4.94-.44-9.73-1.69-14.55-2.77-2.85-.63-5.68-1.31-8.52-1.98-3.85-.92-7.4-2.57-10.85-4.47-.95-.52-1.45-1.4-1.58-2.46-.4-3.19.31-6.12,1.93-8.89,2.57-4.4,6.67-6.67,11.35-8.06,1.18-.35,2.45-.43,3.7-.55,1.79-.18,3.5-.69,5.21-1.18,2.66-.75,4.33-2.57,4.98-5.15.75-3.01,1.14-6.09.9-9.21-.25-3.39-1.94-5.87-5.03-7.19-3.25-1.39-5.13-3.91-6.58-6.94-1.48-3.1-2.39-6.35-2.89-9.72-.11-.8-.46-1.06-1.2-1.25-3.4-.88-6.91-4.74-6.29-9.23.33-2.4,2.78-5.03,5.23-5.47.66-.12.91-.27.9-.96-.09-6.93,2.42-13.18,5.24-19.31.73-1.6,1.91-3.02,3.4-4.09,3.8-2.71,8.03-4.36,12.65-5.02.53-.07,1.07-.11,1.59-.22,3.9-.84,7.68-.43,11.38,1.03,2.42.97,4.85,1.86,6.93,3.58,3.38,2.78,5.56,6.33,7.14,10.3,1.61,4.04,2.19,8.27,2.16,12.59,0,.99.14,1.43,1.31,1.55,2.04.22,3.92,2.54,4.41,5.09.78,4.04-1.46,7.86-5.42,9.06-.95.29-1.49.63-1.58,1.72-.08,1.12-.41,2.22-.66,3.45,2.97.72,5.07,2.25,5.71,5.18.63,2.94-.13,5.56-2.42,7.62-2.05,1.86-5.86,2.14-8.18.68-.74-.47-1.09-1.22-1.64-1.92-1.58,1.52-3.51,2.3-5.43,3.12-1.28.54-2.4,1.47-2.53,2.97-.25,2.96-.46,5.95.43,8.87.89,2.89,2.92,4.92,5.44,6.36,1.08.62,2.52.65,3.82.84,1.47.21,2.96.34,4.45.42,3.04.17,5.92,1.01,8.42,2.65,5.54,3.61,8.58,8.79,9.02,15.43Zm-2.91,1.14c.8-.43.99-1.01.88-1.9-.51-4.09-2.06-7.59-5.02-10.58-2.88-2.92-6.32-4.33-10.28-4.76-2.25-.24-4.5-.39-6.73-.85-1.99-.41-4.02-1.29-6.2-.16.05.18.07.37.16.5,3.31,4.95,6.61,9.91,9.97,14.82.65.95.98,1.83.75,2.98-.32,1.63-.51,3.29-.72,4.95-.05.4-.25.81.04,1.25.27-.04.57-.06.84-.15,4.18-1.38,8.34-2.79,12.53-4.16,1.38-.45,2.54-1.28,3.8-1.95Zm-13.35-60.11c3.87-.49,6.69-5.46,3.98-9.2-1.03-1.41-1.63-1.78-3.3-1.28-.99.29-1.86.16-2.78-.16-3.46-1.25-5.71-3.83-7.43-6.89-1.8-3.19-4.12-5.83-7.28-7.68-1.25-.73-2.69-1.07-4.11-.71-2.82.74-5.63,1.67-8.09,3.24-3.16,2.01-6.02,4.44-8.44,7.37-1.72,2.07-3.74,3.86-6.27,4.92-1.75.75-3.62.63-5.46.4-.94-.12-1.83-.07-2.48.66-1.88,2.16-2.79,3.68-1.11,6.77,1.04,1.92,2.67,3.28,4.85,3.56,1.27.16,1.54.84,1.74,1.81.05.23.03.48.07.71.57,3.61,1.55,7.1,3.25,10.35,1.22,2.32,2.94,4.12,5.48,5.13,3.03,1.2,4.74,3.64,5.54,6.74.51,1.98.33,4.03.31,6.05,0,.76.23,1.04,1.01,1.03,1.78-.04,3.57-.01,5.36-.01v-.16c.48,0,.95.01,1.43,0,1.84-.06,3.69.07,5.53-.27.76-.13.9-.38.82-1.17-.26-2.31-.19-4.65.13-6.95.31-2.25,1.6-3.85,3.7-4.63,4.95-1.84,8.36-5.12,9.94-10.2.85-2.74,1.51-5.51,1.77-8.37.06-.66.25-.99.95-.94.29.02.6-.05.89-.09Zm2.31,16.32c1.27-1.98,1.07-4.49-.46-6.07-.67-.69-1.46-1.21-2.44-1.35-.56-.08-.88.17-1.04.72-.11.37-.12.61.28.87,2.14,1.34,3.16,3.4,3.66,5.84Zm-2.08,1.94c.06-.41.12-.82.16-1.07-.01-1.66-1.04-3.78-2.16-4.67-.24-.19-.47-.37-.78-.17-.46.28-.74,1.4-.4,1.83.93,1.19,1.42,2.57,1.77,4.01.07.31-.02.78.51.75.4-.04.83-.15.9-.67Zm-.99-31.97c.01-1.25.04-1.29-.57-1.75-2.63-1.97-4.49-4.58-6.25-7.27-1.45-2.22-3.27-4.06-5.45-5.57-.66-.46-1.4-.67-2.16-.78-.66-.09-1.09.19-1.33.89-.3.84.3,1.04.78,1.34,3.51,2.1,6.13,5.02,8.04,8.63.95,1.81,2.39,3.25,3.95,4.56.6.51,1.34.76,2.04,1.07.5.22.81.1.89-.46.04-.29.05-.59.06-.67Zm-.17-4.1c-.47-2.78-.73-5.29-1.7-7.65-.12-.28-.3-.49-.57-.65-2.94-1.69-5.63-3.74-8.33-5.78-.62-.47-1.34-.75-2.08-.99-1.16-.38-1.25-.34-1.66.81-.1.27-.12.57-.18.88,3.52.66,5.98,2.83,8.06,5.49,1.46,1.87,2.8,3.83,4.23,5.73.55.75,1.13,1.49,2.23,2.16Zm-2.13,36.96c-.16-1.49-.47-2.65-1.4-3.57-.9.83-1.08,1.21-.9,1.95.27,1.09,1.12,1.39,2.31,1.61Zm-2.01,41.02c.12-.74-.05-1.35-.49-2-3.41-5.02-6.81-10.05-10.12-15.14-.6-.91-1.22-1.17-2.17-1.07-2.6.29-5.21.57-7.8.86-1.47.17-2.94.49-4.4-.03-.33-.12-.57,0-.78.23-.34.41-.72.8-1.01,1.25-2.36,3.8-4.68,7.61-7.29,11.24-.31.43-.54.87-.49,1.47.29,3.38.57,6.77.81,10.15.05.76.26,1.21,1.09,1.33.94.14,1.86.38,2.79.6,4.3,1,8.65,1.66,13.77,1.79,1.06-.22,2.8-.56,4.55-.93,3.03-.64,6.07-1.19,9.02-2.17.91-.3,1.53-.63,1.63-1.75.19-1.95.57-3.88.89-5.82Zm.59-89.5c-1.38-2.86-3.3-4.96-5.64-6.74-2.25-1.71-2.36-1.7-3.8.99,3.65,1.03,6.07,3.92,9.44,5.75Zm-8.71,68.76c-1.31-1.57-2.66-3.01-3.32-4.9-.2-.57-.63-.4-1.04-.32-.81.15-1.57.59-2.43.46-2.44-.39-4.86.01-7.3.05-.78.01-1.19.4-1.4,1.11-.46,1.52-.3,3.07-.31,4.62,0,.43.24.67.66.66.42,0,.83-.04,1.25-.09,3.32-.34,6.64-.61,9.94-1.04,1.28-.16,2.62.09,3.95-.54Zm-1.54-77.07c.07-.14.1-.31.16-.54-1.37-.65-2.71-1.22-4.19-1.53-3.6-.77-7.11-.16-10.61.57-1.62.34-3.29.57-4.8,1.32-2.29,1.12-4.7,2.13-6.46,4.04-2.01,2.18-2.94,4.94-3.96,7.74.91.1,1.37-.43,1.83-.83,1.16-1.02,2.35-2.03,3.36-3.2,2.72-3.16,6.05-5.3,10.05-6.48,1.98-.58,3.92-.84,5.98-.6,1.73.2,3.37.69,5.06,1.03.8.16,1.57,1.04,2.28.56.62-.43.9-1.37,1.31-2.08Zm-2.34,4.43c.03-.51-.6-.66-1.05-.8-2.33-.7-4.7-1.22-7.65-1.37-3.6.7-7.5,1.84-10.52,4.93-.75.77-1.42,1.62-2.23,2.31-1.69,1.46-3.04,3.45-5.3,4.12-1.51.44-2.27,1.33-2.48,2.81-.04.29-.17.57-.22.86-.19,1.09-.64,2.16-.4,3.3,1.4.21,2.48-.57,3.58-1.23,1.97-1.18,3.44-2.91,4.9-4.64,3.3-3.91,7.39-6.67,12.25-8.29,1.37-.46,2.78-.76,4.21-.46,1.22.26,2.51.11,3.69.56.22.08.57.14.66-.07.25-.66.53-1.34.56-2.04Zm-1.38,4.68c.16-.48-.14-.68-.52-.73-2-.26-4.01-.89-6.01-.28-2.92.88-5.62,2.25-8.06,4.13-2.29,1.76-4.04,4.03-6,6.11-1.91,2.03-4.16,3.57-6.89,4.27-1.39.37-1.4.34-1.45,1.66-.07,1.62.15,1.81,1.72,1.49.82-.16,1.63-.37,2.33-.85,1.58-1.08,3.1-2.25,4.33-3.72,1.95-2.35,4.16-4.41,6.62-6.22,3.96-2.91,8.25-4.94,13.22-5.24.48-.03.6-.27.72-.61Zm-12.14,63.95c.12-.51-.25-.57-.64-.54-.54.06-.84.31-.93.88-.12.75-.31,1.5-.49,2.25-.16.63-.87,1.21-.62,1.78.28.63,1.21.56,1.81.89.05.03.11.04.45.16.21-1.9,0-3.69.43-5.41Zm-2.31,6.79c-1.64-.39-1.63-.38-2.75.4-.39.27-.79.55-1.23.71-2.36.84-4.71,1.65-7.23,1.89-1.18.11-2.39.19-3.51.53-3.99,1.22-7.61,2.96-9.98,6.69-1.37,2.14-2.03,4.39-2.16,6.87-.07,1.33.44,2.2,1.66,2.86,5.4,2.89,11.2,4.44,17.28,5.39,0-.84.05-1.61,0-2.37-.2-2.61-.39-5.23-.7-7.83-.13-1.09.04-1.99.72-2.83.37-.47.69-.97,1.03-1.45,2.38-3.49,4.63-7.06,6.89-10.85Z"/><path class="cls-1" d="m63.54,52.3c1.53,1.58,1.72,4.09.46,6.07-.49-2.44-1.51-4.51-3.66-5.84-.4-.25-.4-.49-.28-.87.16-.54.48-.8,1.04-.72.98.14,1.77.66,2.44,1.35Z"/><path class="cls-1" d="m62.08,59.24c-.04.25-.1.66-.16,1.07-.07.52-.5.63-.9.67-.54.04-.44-.44-.51-.75-.34-1.45-.84-2.83-1.77-4.01-.34-.43-.06-1.55.4-1.83.31-.19.54-.01.78.17,1.13.89,2.15,3.01,2.16,4.67Z"/><path class="cls-1" d="m60.36,26.59c.61.46.58.49.57,1.75,0,.08-.02.38-.06.67-.08.55-.39.68-.89.46-.7-.31-1.44-.57-2.04-1.07-1.56-1.31-2.99-2.75-3.95-4.56-1.91-3.61-4.53-6.53-8.04-8.63-.48-.3-1.08-.5-.78-1.34.24-.7.67-.98,1.33-.89.77.1,1.5.32,2.16.78,2.18,1.51,4,3.35,5.45,5.57,1.76,2.69,3.63,5.3,6.25,7.27Z"/><path class="cls-1" d="m59.05,16.58c.97,2.36,1.23,4.88,1.7,7.65-1.1-.67-1.68-1.41-2.23-2.16-1.42-1.9-2.77-3.86-4.23-5.73-2.08-2.66-4.54-4.83-8.06-5.49.06-.31.07-.61.18-.88.42-1.16.5-1.19,1.66-.81.74.24,1.46.52,2.08.99,2.69,2.04,5.39,4.09,8.33,5.78.28.16.46.37.57.65Z"/><path class="cls-1" d="m57.22,57.63c.93.92,1.24,2.07,1.4,3.57-1.19-.22-2.04-.52-2.31-1.61-.18-.75,0-1.13.9-1.95Z"/><path class="cls-1" d="m51.55,5.97c2.33,1.78,4.26,3.88,5.64,6.74-3.36-1.83-5.79-4.72-9.44-5.75,1.44-2.69,1.55-2.7,3.8-.99Z"/><path class="cls-2" d="m47.35,97.6c1.05.07,1.72.75,1.64,1.68-.09,1.11-.99,2-1.95,1.9-.98-.1-1.66-.84-1.61-1.76.07-1.22.78-1.9,1.92-1.82Z"/><path class="cls-2" d="m46.51,105.96c.95-.01,1.86.88,1.84,1.78-.02.84-1,1.69-1.95,1.7-.87,0-1.6-.83-1.57-1.78.03-.93.79-1.69,1.68-1.7Z"/><path class="cls-1" d="m47.11,3.87c-.07.22-.09.4-.16.54-.42.72-.69,1.66-1.31,2.08-.7.48-1.48-.4-2.28-.56-1.69-.34-3.33-.83-5.06-1.03-2.05-.24-4,.02-5.98.6-4,1.18-7.33,3.31-10.05,6.48-1.01,1.17-2.19,2.18-3.36,3.2-.46.4-.92.93-1.83.83,1.02-2.8,1.95-5.57,3.96-7.74,1.76-1.91,4.17-2.92,6.46-4.04,1.51-.75,3.19-.98,4.8-1.32,3.5-.72,7.01-1.34,10.61-.57,1.48.31,2.81.88,4.19,1.53Z"/><path class="cls-2" d="m44.27,30.04c.98.04,1.68.77,1.66,1.74-.02,1.01-.74,1.74-1.67,1.69-.95-.05-1.81-.81-1.84-1.64-.03-.95.88-1.83,1.86-1.79Z"/><path class="cls-1" d="m43.55,8.04c.45.13,1.08.28,1.05.8-.03.69-.31,1.38-.56,2.04-.08.21-.43.15-.66.07-1.19-.45-2.47-.3-3.69-.56-1.42-.31-2.83,0-4.21.46-4.86,1.62-8.94,4.38-12.25,8.29-1.46,1.73-2.93,3.46-4.9,4.64-1.1.66-2.18,1.44-3.58,1.23-.25-1.14.2-2.21.4-3.3.05-.29.18-.57.22-.86.22-1.48.97-2.37,2.48-2.81,2.26-.66,3.6-2.66,5.3-4.12.81-.69,1.48-1.54,2.23-2.31,3.02-3.09,6.92-4.23,10.52-4.93,2.95.15,5.32.67,7.65,1.37Z"/><path class="cls-2" d="m43.44,49.47c0,.62-.25,1.16-.61,1.64-1.34,1.78-3.16,2.66-5.41,2.8-2.23-.2-4.21-1.04-5.77-2.75-.48-.54-.79-1.18-.95-1.89-.13-.6.07-1.09.63-1.31.63-.25,1.1.1,1.24.68.41,1.68,1.72,2.33,3.13,2.89,2.3.9,4.55.1,5.8-2.06.12-.21.18-.45.32-.63.25-.31.59-.4.96-.3.47.12.66.47.66.93Z"/><path class="cls-1" d="m42.7,12.78c.38.05.68.25.52.73-.12.34-.25.58-.72.61-4.97.31-9.26,2.33-13.22,5.24-2.46,1.81-4.66,3.87-6.62,6.22-1.23,1.47-2.75,2.64-4.33,3.72-.71.48-1.51.69-2.33.85-1.57.32-1.78.13-1.72-1.49.06-1.31.07-1.29,1.45-1.66,2.73-.71,4.98-2.25,6.89-4.27,1.95-2.08,3.71-4.35,6-6.11,2.45-1.87,5.14-3.25,8.06-4.13,2.01-.61,4.01.01,6.01.28Z"/><path class="cls-2" d="m39.99,40.39c.23.65-.16,1.03-.69,1.25-1.09.46-2.22.46-3.32.07-.54-.2-.89-.66-.84-1.25.17-2.26-.04-4.53.27-6.78.02-.18.04-.36.1-.53.15-.45.48-.7.95-.64.45.05.8.34.84.8.05.59,0,1.19,0,1.78,0,1.55,0,3.1,0,4.79.53.25,1.04.02,1.55-.09.53-.1.96.08,1.15.6Z"/><path class="cls-2" d="m29.96,30.08c.98.13,1.55.89,1.42,1.89-.14,1.14-1.02,1.85-2.07,1.68-1.02-.18-1.63-.94-1.5-1.85.16-1.03,1.19-1.85,2.16-1.72Z"/><path class="cls-2" d="m29.11,97.83c1.31.04,2.11.7,2.07,1.68-.03.94-.8,1.7-1.69,1.69-1.1,0-2.18-1.01-2.1-1.98.07-.86.78-1.42,1.72-1.4Z"/><path class="cls-2" d="m29.27,106.25c.95-.04,1.71.6,1.7,1.42-.01.85-.88,1.77-1.69,1.78-.81,0-1.57-.75-1.59-1.6,0-.86.68-1.56,1.57-1.6Z"/></g></svg>