<svg id="_レイヤー_2" xmlns="http://www.w3.org/2000/svg" viewBox="0 0 130 46.07"><defs><style>.cls-1,.cls-2{fill:#fff000;stroke-width:0}.cls-2{fill:#e50012}</style></defs><g id="_レイヤー_1-2"><path class="cls-1" d="M64.8 8.96L53.43.56 3.8 19.07v7.14l61-17.25zm.01 0L76.16.56l49.64 18.51v7.14L64.81 8.96z"/><path class="cls-2" d="M126.3 25.78v-7.05L76.09 0 64.81 8.34 53.51 0 3.31 18.73v7.15L0 26.82v19.24h130V26.81l-3.7-1.04zM76.24 1.12l49.06 18.3v6.08L66.2 8.84l-.29-.08 10.33-7.64zM4.3 19.42l49.05-18.3 10.34 7.64L4.3 25.56v-6.14z"/><path class="cls-2" d="M86.26 9.62l-3.61-1.05c-.52 1.07-1.18 1.82-2.01 2.26-.9.45-2.23.66-4.02.61.06-.26.06-.55.01-.85-.1-.33-.23-.61-.4-.82.35.04.74.09 1.17.15.67.02 1.27-.08 1.8-.29.67-.33 1.18-.86 1.54-1.62L76.9 6.89l.58-1.37 9.38 2.78-.6 1.32zm-.9-2.42l-6.1-1.83.58-1.35 6.11 1.86-.59 1.32zm11.35 5.15c-1.34.8-2.73 1.38-4.15 1.74-1.33.34-2.73.51-4.21.51-.1-.48-.17-.99-.23-1.52 1.6.06 3.1-.11 4.46-.55.92-.28 2.05-.81 3.41-1.58-.02.19.11.49.38.9.08.11.18.27.33.5zm-4.17-2.24c-.55.3-1.02.57-1.43.82-.13-.25-.41-.66-.85-1.22-.42-.56-.7-.88-.83-.98.69-.42 1.13-.69 1.3-.78.14.1.46.45.97 1.06.49.58.76.95.84 1.11zm9.37 4.97c-.37.41-.85.81-1.43 1.2-.66.45-1.28.77-1.86.97-.34-.56-.76-1-1.25-1.32a6.91 6.91 0 002.03-.88c.52-.33.92-.63 1.18-.92.13.1.58.42 1.32.95zm5.59-.73c-.07.21-.22.37-.47.48l.24.09-.35 1.08-2.91-1-1.24 4.02-1.58-.37 1.26-4.2-3.64-1.27.38-1.35 3.64 1.38.34-1.14 1.55.64-.34 1.09 1.17.45c-.16-.26-.19-.5-.12-.74a.69.69 0 01.51-.48c.27-.09.54-.07.82.06.27.11.49.3.65.56.14.22.17.46.08.7zm-.86 4.03c-.48.04-.91.17-1.3.41-.28-.32-.53-.79-.76-1.43-.21-.59-.34-1.11-.39-1.59.27-.03.73-.05 1.37-.06 0 .2.11.61.33 1.23.24.63.49 1.11.75 1.44zm.26-4.24c.04-.1.02-.2-.04-.29-.09-.12-.18-.2-.26-.23a.339.339 0 00-.31 0c-.11.02-.18.08-.22.19-.03.09 0 .18.07.27.04.1.12.17.23.22.09.04.21.04.33 0 .1-.02.17-.07.19-.17zm11.57 8.43c-.53.06-1.14.18-1.82.36-.06-.21-.25-.61-.59-1.21-.38-.63-.76-1.16-1.14-1.6-1.7.51-3.49.76-5.36.73-.08-.49-.32-.95-.74-1.4 1.63.07 3.11-.04 4.44-.33 1.15-.26 2.13-.65 2.96-1.16l-4.37-1.29.53-1.11 5.6 1.68.76 1.09s-.13.07-.27.15c-.55.33-1.25.7-2.1 1.11.4.36.84.9 1.32 1.62.36.54.62.99.77 1.37z"/><path class="cls-1" d="M4.7 29.56l17.5-4.49v4.28l-7.1 1.37v11.67H9.45V31.81l-4.76.92v-3.17zm20.41-5.09l15.6-3.89v4.66l-10.46 2.05v3.05l9.61-1.51v4.41l-9.61 1.01v3.79l10.81-.61v4.96H25.12V24.47zm18.57-4.62l5.12-1.19L56.35 31V16.89l6.66-1.55v27.04h-6.66l-7.51-13.03v13.03h-5.15V19.85zm23.4-4.12l12.18 2.53c2.35.49 4.05 1.46 5.15 2.91 1.08 1.42 1.6 3.23 1.6 5.46 0 2.28-.59 4.01-1.77 5.19-1.21 1.2-3.1 1.71-5.73 1.51l-3.8-.29v9.25h-7.63V15.73zm7.64 12.25l1.73.2c1.32.16 2.24 0 2.75-.42.51-.43.77-1.03.77-1.8s-.22-1.42-.66-2.01c-.45-.6-1.3-1-2.59-1.22l-2-.33v5.58zm12.37 3.87c0-3.4 1.07-5.83 3.13-7.23 1.94-1.34 4.5-1.55 7.53-.75 2.86.75 4.89 2.03 6.26 3.84 1.3 1.73 1.94 3.85 1.94 6.41 0 1.86-.28 3.36-.84 4.52-.57 1.19-1.4 2.12-2.53 2.8-1.18.7-2.7 1.06-4.62 1.08-2.06.02-3.86-.31-5.36-1-1.56-.72-2.87-1.88-3.91-3.5-1.07-1.66-1.61-3.73-1.61-6.16zm6.74.89c0 1.93.37 3.34 1.11 4.22.72.87 1.67 1.33 2.85 1.39 1.16.06 2.04-.27 2.65-.98.59-.7.89-2.01.89-3.92 0-1.61-.31-2.84-.93-3.7-.64-.88-1.51-1.44-2.66-1.67-1.14-.23-2.07 0-2.79.68-.74.7-1.11 2.02-1.11 3.97zm13.48 4.24l6.65.24c.13.72.39 1.27.79 1.65.63.62 1.51.95 2.62 1 .81.03 1.42-.08 1.83-.34.41-.25.62-.57.62-.93s-.19-.67-.59-.98c-.4-.31-1.34-.66-2.88-1.05-2.69-.7-4.75-1.53-6.05-2.46-1.35-.96-2.06-2.08-2.06-3.33 0-.82.36-1.53 1.07-2.12.69-.57 1.71-.92 3.02-1.02 1.27-.1 2.93.08 4.92.54 2.28.52 3.92 1.21 4.99 2.06 1.03.83 1.63 1.89 1.82 3.22l-4.65-.53c-.13-.63-.41-1.12-.85-1.48-.44-.36-1.07-.62-1.88-.77-.68-.13-1.21-.11-1.57.03-.36.16-.55.39-.55.71 0 .23.15.46.46.69.29.24.96.52 2 .84 2.42.77 4.05 1.39 5 1.91.9.5 1.56 1.04 1.95 1.64.39.59.58 1.21.58 1.89 0 .79-.26 1.51-.78 2.16-.54.66-1.3 1.17-2.31 1.52-1.05.36-2.42.54-4.17.54-3.31 0-5.82-.5-7.3-1.52-1.54-1.08-2.44-2.44-2.67-4.1z"/><path class="cls-2" d="M9 19.16c.13.22.3.53.36.75l-.39.42c-.04-.16-.14-.38-.24-.59l-.06 4.38-.54.16.04-4c-.03.47-.11.93-.27 1.29-.36-.18-.37-.18-.38-.18.16-.37.24-.98.26-1.51l.4-.05v-1.34l.68-.18c0 .06-.04.11-.13.16v.96l.25-.25zm1.89.45l1.23-.4v.6l-3.03.98v-.59l1.19-.39v-.26l-.82.27v-.52l.82-.27v-.26l-1.01.34v-.55l1.03-.34v-.47l.77-.21c0 .07-.05.13-.14.18v.29l1.06-.36v.56l-1.07.36v.26l.84-.28v.54l-.85.28v.26zm.83.59l-.03 2.34c0 .6-.2.76-.96.99-.02-.18-.09-.42-.15-.58.17-.04.38-.1.44-.12.06-.02.08-.05.08-.12v-.23l-1.13.35-.02.9-.55.17.03-2.97 2.29-.73zm-.6.75l-1.14.36v.26l1.13-.36v-.26zm-1.15 1.38l1.14-.34v-.26l-1.14.35v.25zm3.93-4.62v.48l.89-.3v.66l-.69.23.52.03s-.06.09-.13.11c-.08.2-.2.49-.31.72l.5-.16v.66l-.83.26v.49l.73-.23v.66l-.75.23-.02 1.08-.57.17.02-1.07-.74.23v-.65l.75-.23v-.49l-.79.26v-.65l.41-.13c-.03-.21-.1-.48-.18-.69l.4-.26-.72.23v-.65l.92-.3v-.48l-.67.23v-.64l.7-.24v-.55l.71-.19c0 .06-.05.11-.14.16v.39l.69-.24v.66l-.71.24zm.02 2.02l-.13-.03c.09-.26.19-.64.25-.91l-.89.29c.09.22.18.53.2.72l-.26.18.82-.26zm2.91-1.49l.39.02c-.01.07-.03.09-.05.15-.1.76-.26 1.5-.52 2.16.19.18.41.31.66.37-.14.2-.34.55-.44.8-.22-.09-.42-.23-.58-.4-.15.24-.3.47-.46.67-.08-.15-.26-.32-.39-.4.18-.24.35-.5.49-.78a4.51 4.51 0 01-.44-1.24l.49-.29c.06.26.16.5.26.72.1-.32.17-.65.23-.98l-1.01.31-.05 2.78-.59.17.1-5.89 2.25-.78-.03 1.52c-.01.71-.29.85-1.08 1.1-.01-.19-.09-.46-.16-.62.21-.07.46-.15.52-.17.08-.03.1-.05.1-.12v-.79l-1.04.36-.03 1.78 1.25-.4.11-.06zm5.4-1.86s-.04.02-.06.02a.17.17 0 01-.14 0c-1.77 1.12-3.05 2.27-3.06 2.98 0 .51.43.58 1.21.35.54-.17 1.44-.49 2.08-.82l.05.87c-.68.3-1.79.66-2.12.76-1.11.33-1.96.26-1.94-.9 0-.7.55-1.46 1.39-2.28-.19-.42-.24-1.16-.21-2.64l1.02-.25c0 .1-.07.18-.2.25-.01.2-.01.38-.02.56-.01.68 0 1.18.1 1.48a25 25 0 011.67-1.3l.23.92zm6.95-2.51l-1.21.4v.32c-.05 1.53-.54 2.99-2.11 4.29-.14-.14-.37-.34-.56-.45 1.46-1.18 1.82-2.38 1.84-3.57v-.33l-1.62.54-.04 1.62-.78.25.04-1.61-1.06.34.02-.85 1.06-.35.03-1.43.98-.25c0 .07-.08.18-.2.24l-.03 1.19 1.64-.55.04-1.55 1.02-.28c0 .08-.08.17-.2.24L28 13.41l1.21-.41-.02.89zm.94-.08l5.87-1.91-.03.98-5.58 1.77c-.04.09-.14.17-.23.22l-.02-1.06zm11.34-.8c.41-.13 1.31-.48 1.78-.7v1.02c-.45.2-1.33.5-1.74.63l-1.76.52c-1.34.41-1.92 0-1.87-1.25l.17-4.58 1.21-.36c-.01.1-.07.19-.24.26l-.09 2.37c1-.66 2.52-1.76 3.47-2.61l.66.75s-.09.05-.13.07c-.05.02-.09.02-.14.03-.78.63-2.57 1.91-3.9 2.71l-.03 1.08c-.02.66.25.79.96.57l1.66-.5zm1.04-6.18c.31.19.68.57.87.83l-.5.53c-.17-.25-.56-.68-.83-.86l.46-.5zm1.15-.79c.32.2.71.55.9.81l-.51.54c-.18-.25-.59-.64-.85-.84l.46-.51zm7.9-1.35c-.03.08-.09.16-.17.21-.56 1.29-1.06 2.25-1.82 3.42.84.41 2.12 1.15 2.89 1.73l-1.05 1.16c-.67-.59-1.89-1.44-2.6-1.81-.87 1.16-2.03 2.53-3.16 3.51-.16-.17-.51-.44-.75-.57 2.15-1.77 4.01-4.37 4.89-6.43L45.87 7.2l.04-1.01 4.57-1.56.19-.13.87.17z"/></g></svg>