<?xml version="1.0" encoding="UTF-8"?><svg id="_レイヤー_2" xmlns="http://www.w3.org/2000/svg" viewBox="0 0 47.46 40"><defs><style>.cls-1{fill:#ffb400;}</style></defs><g id="_レイヤー_1-2"><path class="cls-1" d="m33.68,26.13V2.97C33.68,1.33,32.35,0,30.71,0h-13.97c-.79,0-1.54.31-2.1.87-.56.56-.87,1.31-.87,2.09v23.17c0,1.63,1.33,2.97,2.97,2.97h13.97c1.63,0,2.97-1.33,2.97-2.97ZM16.75,4.34h13.97v17.42h-13.97V4.34Zm8.05,21.8c-.26.3-.64.48-1.06.48s-.8-.19-1.06-.48c-.22-.25-.35-.57-.35-.93,0-.78.63-1.41,1.41-1.41s1.41.63,1.41,1.41c0,.36-.13.68-.34.93Z"/><path class="cls-1" d="m13.42,35.81c.32.2.72.12.86-.16.31-.59.68-1.63.44-2.58-.23-.93-.95-1.59-1.4-1.98-.21-.18-.55-.15-.76.07-.43.46-1.1,1.32-.96,2.34.14,1.04,1.14,1.92,1.81,2.32Z"/><path class="cls-1" d="m10.33,40c1.31,0,2-.89,2.33-1.45.16-.27-.03-.66-.38-.87-.76-.44-1.99-1.17-3.16-1.29-1.15-.11-2.03.48-2.49.93-.22.21-.12.66.23.99.72.69,2.17,1.69,3.46,1.7Z"/><path class="cls-1" d="m9.36,32.58c.2.23.55.25.75.06.43-.42,1.04-1.2,1.13-2.05.08-.83-.34-1.55-.61-1.96-.13-.19-.43-.23-.66-.09-.48.3-1.27.88-1.43,1.76-.17.89.41,1.82.83,2.29Z"/><path class="cls-1" d="m7.62,33.57c-.47-.53-1.25-1.4-2.18-1.72-.92-.32-1.83,0-2.34.27-.24.13-.29.51-.09.84.4.7,1.27,1.8,2.31,2.09,1.04.29,1.89-.28,2.33-.66.21-.18.19-.55-.02-.8Z"/><path class="cls-1" d="m7.53,23.7c.06-.06.14-.11.19-.18.48-.6.49-1.34.47-1.79-.01-.21-.23-.37-.49-.37-.54.02-1.44.11-1.99.7-.56.6-.56,1.55-.46,2.1.05.26.3.44.56.38.45-.1,1.14-.34,1.63-.77.03-.02.06-.05.08-.08Z"/><path class="cls-1" d="m8.3,25.11c-.52.16-1.39.49-1.77,1.22-.39.74-.12,1.7.12,2.23.12.25.42.36.65.23.5-.27,1.28-.81,1.59-1.54.31-.72.12-1.46-.02-1.9-.07-.2-.33-.31-.58-.24Z"/><path class="cls-1" d="m2.31,29.75c.86.5,1.78.2,2.29-.03.24-.11.33-.44.2-.71-.27-.58-.74-1.53-1.5-2.03-.75-.5-1.67-.42-2.2-.3-.25.06-.4.38-.31.71.18.7.67,1.87,1.53,2.36Z"/><path class="cls-1" d="m3.01,24.74c.26-.04.43-.32.38-.61-.09-.51-.26-1.29-.66-1.91-.03-.04-.06-.09-.09-.13-.05-.07-.09-.15-.15-.22-.59-.65-1.48-.8-2.02-.82-.25,0-.47.26-.47.58,0,.69.16,1.89.84,2.55.68.67,1.62.63,2.17.54Z"/><path class="cls-1" d="m7.94,17.77c-.5-.11-1.36-.24-2,.15-.65.4-.87,1.24-.92,1.75-.03.24.17.46.42.47.53.03,1.41-.03,2.01-.45.59-.41.77-1.07.85-1.47.04-.19-.13-.39-.36-.44Z"/><path class="cls-1" d="m2.76,16.7c-.43-.49-1.03-.77-1.44-.88-.23-.07-.49.12-.57.4-.16.61-.28,1.69.19,2.44.47.75,1.35.93,1.87.99.25.02.47-.18.5-.44.05-.56.09-1.48-.31-2.19-.04-.07-.1-.12-.14-.18-.03-.04-.06-.09-.1-.13Z"/><path class="cls-1" d="m15.93,38.82c.36.13.73-.02.82-.31.09-.3-.11-.62-.45-.74,0,0-.41-.13-1.09-.43-.15-.07-.33-.14-.51-.23-.06-.03-.12-.06-.18-.09-.37-.18-.77-.39-1.21-.64-.04-.02-.08-.05-.12-.07-.23-.14-.46-.28-.71-.44-2.15-1.38-4.66-3.87-6.14-6.98-1.54-3.08-1.96-6.6-1.72-9.16.08-1.01.24-1.87.4-2.55.52-.35,1.19-.73,1.48-1.56.3-.87.18-2.13.04-2.74-.07-.28-.37-.45-.65-.35-.6.2-1.74,1.06-2.11,2.11-.35.98.03,1.75.33,2.32-.17.71-.34,1.62-.44,2.68-.27,2.69.15,6.41,1.76,9.69,1.55,3.3,4.19,5.97,6.46,7.45,1.13.76,2.16,1.26,2.88,1.58.73.32,1.16.46,1.16.46Z"/><path class="cls-1" d="m34.14,31.09c-.45.39-1.17,1.05-1.4,1.98-.23.95.13,1.99.44,2.58.14.28.54.36.86.16.67-.4,1.68-1.28,1.81-2.32.14-1.02-.54-1.87-.96-2.34-.2-.22-.55-.25-.76-.07Z"/><path class="cls-1" d="m37.13,40c1.29,0,2.74-1,3.46-1.7.35-.32.44-.78.23-.99-.45-.45-1.34-1.04-2.49-.93-1.16.12-2.39.85-3.16,1.29-.36.21-.54.61-.38.87.33.56,1.03,1.46,2.33,1.45Z"/><path class="cls-1" d="m37.5,28.53c-.23-.14-.53-.1-.66.09-.28.41-.7,1.13-.62,1.96.08.85.7,1.63,1.13,2.05.2.2.55.18.75-.06.43-.48,1-1.41.83-2.29-.16-.87-.95-1.45-1.43-1.76Z"/><path class="cls-1" d="m42.15,35.03c1.03-.28,1.91-1.39,2.31-2.09.19-.33.14-.71-.09-.84-.51-.27-1.42-.59-2.34-.27-.93.33-1.71,1.19-2.18,1.72-.22.26-.24.62-.02.8.45.38,1.29.95,2.33.66Z"/><path class="cls-1" d="m42.21,24.17c.1-.55.09-1.51-.46-2.1-.55-.59-1.45-.68-1.99-.7-.25,0-.47.16-.49.37-.02.45-.01,1.19.47,1.79.05.07.13.12.19.18.03.03.06.05.08.08.5.43,1.18.67,1.63.77.26.06.51-.12.56-.38Z"/><path class="cls-1" d="m40.15,28.78c.23.13.54.02.65-.23.25-.52.51-1.48.12-2.23-.38-.73-1.25-1.06-1.77-1.22-.25-.07-.51.04-.58.24-.14.44-.33,1.17-.02,1.9.31.73,1.09,1.28,1.59,1.54Z"/><path class="cls-1" d="m46.68,27.39c.09-.33-.06-.66-.31-.71-.53-.13-1.45-.2-2.2.3-.07.05-.13.12-.2.17-.04.04-.09.07-.13.11-.56.52-.94,1.25-1.17,1.74-.13.27-.04.6.2.71.51.23,1.43.53,2.29.03.85-.49,1.35-1.66,1.53-2.36Z"/><path class="cls-1" d="m44.82,22.1s-.06.08-.09.13c-.4.62-.57,1.4-.66,1.91-.05.29.12.57.38.61.54.08,1.49.13,2.17-.54.68-.67.85-1.86.84-2.55,0-.33-.22-.59-.47-.58-.54.01-1.42.17-2.02.82-.06.06-.1.14-.15.22Z"/><path class="cls-1" d="m42.44,19.67c-.05-.51-.27-1.35-.92-1.75-.64-.39-1.5-.26-2-.15-.23.05-.4.26-.36.44.08.4.27,1.06.85,1.47.6.42,1.48.48,2.01.45.25,0,.45-.23.42-.47Z"/><path class="cls-1" d="m44.6,16.82c-.05.06-.1.11-.14.18-.4.71-.36,1.63-.31,2.19.02.26.25.47.5.44.52-.06,1.4-.24,1.87-.99.47-.74.35-1.83.19-2.44-.07-.29-.33-.47-.57-.4-.41.12-1.02.39-1.44.88-.03.04-.07.08-.1.13Z"/><path class="cls-1" d="m31.53,38.82s.43-.14,1.16-.46c.73-.32,1.75-.82,2.88-1.58,2.28-1.48,4.92-4.14,6.47-7.45,1.61-3.28,2.02-6.99,1.76-9.69-.09-1.07-.27-1.97-.44-2.68.3-.57.69-1.34.33-2.32-.38-1.05-1.51-1.91-2.11-2.11-.28-.1-.58.06-.65.35-.15.62-.26,1.87.04,2.74.28.83.95,1.21,1.48,1.56.16.68.32,1.54.4,2.55.23,2.55-.18,6.08-1.72,9.16-1.48,3.11-3.99,5.6-6.14,6.98-.24.16-.47.3-.7.44-.04.02-.08.05-.13.08-.44.26-.84.47-1.21.64-.06.03-.12.06-.18.09-.18.08-.35.16-.51.23-.69.3-1.09.43-1.09.43-.33.12-.54.44-.45.74.09.29.46.44.82.31Z"/></g></svg>