<?xml version="1.0" encoding="UTF-8"?><svg id="_レイヤー_2" xmlns="http://www.w3.org/2000/svg" viewBox="0 0 22 16.7"><defs><style>.cls-1{fill:#f07d00;}</style></defs><g id="_レイヤー_1-2"><path class="cls-1" d="m0,0v16.7h22V0H0Zm1.74,14.96V1.74h18.51v13.21H1.74Z"/><path class="cls-1" d="m13.93,5.37l-4.22,5.35c-.24.3-.72.29-.94-.01l-2-2.71c-.23-.31-.72-.31-.95,0l-3.17,4.29v1.72h16.73v-2.94l-4.5-5.7c-.23-.29-.7-.29-.93,0Z"/><path class="cls-1" d="m8.6,6.13c.9,0,1.63-.73,1.63-1.63s-.73-1.63-1.63-1.63-1.63.73-1.63,1.63.73,1.63,1.63,1.63Z"/></g></svg>