<?xml version="1.0" encoding="UTF-8"?><svg id="_レイヤー_2" xmlns="http://www.w3.org/2000/svg" viewBox="0 0 50 34.68"><defs><style>.cls-1{fill:#fff;font-family:Helvetica-Bold, 'Helvetica Bold';font-size:5.47px;font-weight:700;}.cls-2{letter-spacing:-.03em;}.cls-3{fill:#ffb400;}.cls-4{letter-spacing:0em;}.cls-5{letter-spacing:.03em;}</style></defs><g id="_レイヤー_1-2"><path class="cls-3" d="m21.29,20.85c.21.15.48.17.71.05l2.86-1.5,2.85,1.5c.23.12.5.1.71-.05.21-.15.31-.41.27-.66l-.54-3.18,2.31-2.25c.18-.18.25-.45.17-.69-.08-.24-.29-.42-.54-.46l-3.19-.46-1.43-2.89c-.11-.23-.35-.38-.6-.38s-.49.15-.6.38l-1.43,2.89-3.19.46c-.25.04-.46.22-.54.46-.08.24-.01.51.17.69l2.31,2.25-.54,3.18c-.04.25.06.51.27.66Z"/><rect class="cls-3" x="8.15" y="26.47" width="33.7" height="8.21"/><path class="cls-3" d="m21.46,24.72c-3.69-1.42-6.31-5-6.31-9.19,0-5.44,4.41-9.85,9.85-9.85s9.85,4.41,9.85,9.85c0,4.19-2.62,7.77-6.31,9.19h8.99c1.89-2.57,3.01-5.75,3.01-9.19,0-8.58-6.96-15.53-15.53-15.53s-15.54,6.95-15.54,15.53c0,3.44,1.12,6.62,3.01,9.19h8.99Z"/><polygon class="cls-3" points="1.48 27.95 0 32.06 6.95 32.06 6.95 23.85 0 23.85 1.48 27.95"/><polygon class="cls-3" points="50 23.85 43.05 23.85 43.05 32.06 50 32.06 48.52 27.95 50 23.85"/><text class="cls-1" transform="translate(14.89 32.46)"><tspan x="0" y="0">Q</tspan><tspan class="cls-2" x="3.77" y="0">U</tspan><tspan class="cls-4" x="7.12" y="0">ALI</tspan><tspan class="cls-5" x="14.36" y="0">T</tspan><tspan x="17.23" y="0">Y</tspan></text></g></svg>