<?xml version="1.0" encoding="UTF-8"?><svg id="_レイヤー_2" xmlns="http://www.w3.org/2000/svg" viewBox="0 0 40 34.06"><defs><style>.cls-1{fill:#ffb400;}</style></defs><g id="_レイヤー_1-2"><path class="cls-1" d="m39.65,11.69h-1.19l-3.72-6.44-1.14-1.98,4.44-1.03-.16-1.96-.02-.27h0s0-.01,0-.01l-13.63,3.15-3.11.72V.58h-2.22v3.8l-13.86,3.2-3.37.78h0s-.01,0-.01,0l1.03,2.05,2-.46,1.42-.32-4.54,7.86H.36c-.23.58-.36,1.21-.36,1.85,0,3.37,3.39,6.09,7.57,6.09s7.58-2.73,7.58-6.09c0-.64-.12-1.27-.36-1.85h-1.19l-3.78-6.54-1.12-1.94,8.36-1.93,1.83-.42v22.14h-3.08c-.41,0-.75.34-.75.75v1.38h-5.74v3.11h21.35v-3.11h-5.74v-1.38c0-.42-.34-.75-.75-.75h-3.08V6.16l4.87-1.13,4.91-1.12-4.49,7.78h-1.19c-.23.58-.36,1.21-.36,1.85,0,3.37,3.39,6.09,7.58,6.09s7.57-2.73,7.57-6.09c0-.64-.12-1.27-.35-1.85Zm-10.74,4.91c-.59.17-1.25-.32-1.46-1.08-.21-.76.1-1.52.69-1.68.6-.17,1.25.31,1.47,1.07.21.76-.1,1.51-.7,1.68Zm-1.22-4.92l4.7-8.12h0s.08-.02.08-.02h0s3.15,5.46,3.15,5.46l1.55,2.69h-9.48Zm-15.37,5.82H2.83s4.74-8.22,4.74-8.22h0s3.17,5.49,3.17,5.49l1.57,2.73Zm-8.26,4.91c-.6.17-1.26-.32-1.47-1.07-.21-.76.1-1.52.69-1.68.6-.17,1.26.31,1.47,1.08.21.76-.1,1.51-.69,1.68Z"/></g></svg>