<?xml version="1.0" encoding="UTF-8"?><svg id="_レイヤー_2" xmlns="http://www.w3.org/2000/svg" viewBox="0 0 36.46 30"><defs><style>.cls-1{fill:#ffb400;}</style></defs><g id="_レイヤー_1-2"><path class="cls-1" d="m36.46,7.7c0-1.95-1.58-3.54-3.54-3.54h-3.34c-.91,0-1.77-.44-2.3-1.19l-.97-1.37c-.71-1-1.86-1.6-3.09-1.6h-5.24c-1.23,0-2.38.6-3.09,1.6l-1.81,2.57h-3.25c-.83-.35-1.99-.57-3.26-.57-2.52,0-4.57.85-4.6,1.91-1.22,1.03-1.99,2.57-1.99,4.29v18.05c0,.28.23.51.51.51h14.18c1.77,1.04,3.83,1.64,6.03,1.64s4.26-.6,6.03-1.64h6.3c1.88,0,3.41-1.53,3.41-3.41v-14.95c0-.07,0-.15,0-.22h0v-2.08Zm-3.8,10.35c0-1.01-.13-1.99-.37-2.93,0-.03-.01-.06-.02-.09.1-.01.2-.02.31-.02,1.34,0,2.42,1.08,2.42,2.42s-1.08,2.42-2.42,2.42c-.02,0-.04,0-.06,0,.09-.59.13-1.19.13-1.8Zm-2.7,0c0,5.1-4.15,9.25-9.25,9.25s-9.24-4.15-9.24-9.25,4.15-9.24,9.24-9.24,9.25,4.15,9.25,9.24Zm-25.67,6.69c-.1.17-.24.3-.39.39-.01,0-.03.01-.04.02-.09.05-.19.08-.3.1-.01,0-.03,0-.04,0-.6.08-1.25-.32-1.25-1.08v-8.15c0-.57.46-1.04,1.04-1.04h3.16c.71,0,1.21.71.98,1.38l-3.06,8.16c-.02.06-.05.12-.08.18,0,.01-.01.02-.02.03Zm-1.59-14.41s.05.02.07.03c1.25.88,3.53,1.03,5.88.24,1.34-.45,2.49-1.13,3.31-1.9.21-.19.57-.09.48.14-.48,1.35-1.97,2.66-3.98,3.33-2.45.82-4.86.4-5.85-.89-.01-.02-.03-.04-.04-.05-.13-.18-.23-.38-.31-.59,0,0,0,0,0,0-.06-.18.2-.35.4-.31,0,0,.02,0,.02,0Zm3.14-5.08c-.12.12-.24.24-.36.36-.46.47-.85.95-1.18,1.43-.06.09-.18.12-.28.08-.56-.25-.9-.62-.9-.97,0-.61,1.05-1.29,2.57-1.29h0c.2,0,.3.25.15.39Z"/><path class="cls-1" d="m20.72,11.91c-.49,0-.97.06-1.43.18-.03,0-.07.01-.1.02h0s0,0-.01,0l1.79,5.2c.18.52-.32,1.02-.84.84l-5.05-1.74-.24-.08h0s-.01,0-.01,0c-.16.55-.25,1.13-.25,1.73,0,3.39,2.75,6.14,6.14,6.14s6.14-2.75,6.14-6.14-2.75-6.14-6.14-6.14Z"/></g></svg>