<?xml version="1.0" encoding="UTF-8"?><svg id="_レイヤー_2" xmlns="http://www.w3.org/2000/svg" viewBox="0 0 22 15.08"><defs><style>.cls-1{fill:#f07d00;}</style></defs><g id="_レイヤー_1-2"><path class="cls-1" d="m2.95,14.72c2.68.24,5.37.36,8.05.36,2.67,0,5.34-.12,8.01-.36.01,0,.02,0,.03,0h0s0,0,0,0l-.03-.3h0s.03.3.03.3c1.26-.11,2.29-1.05,2.51-2.3.29-1.63.43-3.25.43-4.88,0-1.62-.14-3.25-.43-4.88-.22-1.25-1.25-2.19-2.51-2.3C16.37.12,13.69,0,11,0c-2.69,0-5.37.12-8.06.36C1.69.47.65,1.41.43,2.66c-.29,1.63-.43,3.25-.43,4.88s.14,3.25.43,4.88c.22,1.25,1.25,2.19,2.51,2.3Zm-1.74-7.18c0-1.55.14-3.1.42-4.67.13-.71.71-1.25,1.43-1.31,2.65-.24,5.3-.36,7.95-.36,2.65,0,5.3.12,7.94.36.72.06,1.31.6,1.43,1.31.28,1.56.41,3.12.42,4.67,0,1.55-.14,3.1-.42,4.67-.13.71-.71,1.25-1.43,1.31-2.65.24-5.3.36-7.95.36-2.65,0-5.3-.12-7.95-.36-.72-.06-1.31-.6-1.43-1.31-.28-1.56-.42-3.12-.42-4.67Z"/><path class="cls-1" d="m9.72,10.29l4.26-2.46c.22-.13.22-.45,0-.58l-4.26-2.46c-.22-.13-.5.03-.5.29v4.92c0,.26.28.42.5.29Z"/></g></svg>