<?xml version="1.0" encoding="UTF-8"?><svg id="_レイヤー_2" xmlns="http://www.w3.org/2000/svg" viewBox="0 0 217.91 265.34"><defs><style>.cls-1{fill:#fff;}.cls-2{fill:#ffdc00;}.cls-3{fill:#ccc;}</style></defs><g id="_レイヤー_1-2"><path d="m136.37,79.91c-.89-.07-1.74-.17-2.59-.21-3.86-.18-5.17-.87-5.93-5.03-.06-.35-.16-.82-.41-1.01-1.45-1.08-1.97-2.47-1.68-4.23.18-1.05-.75-1.43-1.31-2.03-1.27-1.38-1.29-2,0-3.36.52-.54,1.1-1.08,1.76-1.42,4.15-2.15,8.41-3.9,13.26-3.52,2.83.23,5.7-.04,8.46.82,1.31.41,1.9-.56,2.62-1.27,1.33-1.32,2.38-2.9,4.36-3.51,2.05-.63,2.5-.52,2.72,1.62.06.63.27.95.67,1.39,1.56,1.73,1.4,3.02-.34,4.55-1.07.94-2.35,1.18-3.7,1.2-.66,0-1.32-.14-1.98-.18-.45-.02-.98-.14-1.17.47-.12.38,0,.75.24,1.06.39.53.85,1.02,1.18,1.58,2.43,4.11.77,9.16-3.62,11.16-1.92.88-3.98,1.26-6.05,1.5-2.16.24-4.35.28-6.48.41Zm-4.53-5.15c-.6.03-1.56-.34-1.66.56-.1.92.17,1.92,1.39,2.14.74.13,1.49.28,2.24.38,2.46.32,4.93.09,7.39-.07,2.36-.16,4.73-.46,6.92-1.47,3.8-1.74,4.7-5.75,1.92-9.19-4.33,3.97-12.48,7.35-18.19,7.65Zm4.67-6.34c.23.71.65,1.36.95,2.05.4.91,1.02.88,1.84.59,2.01-.71,2.09-.8,1.27-2.77-.29-.7-.6-1.39-.92-2.07-.21-.44-.51-.79-1.1-.7-2.02.01-2.69.92-2.04,2.9Zm14.75-7.2c3.31.85,3.95.88,5.01.25,1.07-.63,1.24-1.38.2-1.99-.93-.54-.98-1.5-1.57-2.26-1.8.84-2.81,2.29-3.65,3.99Zm-6.33,3.91c-.61-1.53-1.68-.76-2.63-.54-1.35.32-.86,1.25-.57,2.01.36.97.76,1.95,1.62,2.61,3.11-1.38,2.77-1.12,1.58-4.08Zm-10.33,2.64c-.34-.99-1.05-.88-1.84-.62-.8.27-1.02.75-.7,1.53.32.79.59,1.6.94,2.37.78,1.76.79,1.76,3,.91-.5-1.5-.93-2.85-1.39-4.19Zm-4.29,1.37c-.32-.89-.85-.8-1.54-.43-1.19.65-1.49,2.04-.53,3.02.82.83,1.79,1.41,3.37.95-.46-1.24-.89-2.39-1.3-3.54Zm4.38-7.74c-.41.09-.65.31-.64.75.04,1.18,1.5,2.36,2.66,2.08.62-.14,1.21-.43,1.8-.66-.96-3.09-1.5-2.7-3.83-2.18Zm-1.52,3.55c-.84-2.65-1.8-3.21-3.82-1.51q1.48,2.72,3.82,1.51Zm15.46-1.58c-.4-.53-1.43-.36-1.77.13-.74,1.07.33,1.77.84,3.1.85-1.27,1.81-2.06.93-3.24Zm-8.28-2.07c.04,1.16.3,1.92,1.64,1.54,1.05-.29,2.14-.47,3.46-1.39-1.93-.42-3.48-.38-5.1-.15Zm-12.7,3.65c-.7-.58-1.22-.14-1.64.39-.64.8.16,1.19.61,1.52.84.61,1.56.16,2.41-.66-.55-.5-.95-.89-1.38-1.25Z"/><path d="m100.06,71.01c-2.22-.36-4.37-.97-6.07-2.67-.52-.52-.92-1.07-1.7-1.4-3.29-1.37-4.06-4-2.22-7.07.94-1.56,2.18-2.9,3.58-4,2.9-2.29,6.01-4.4,9.61-5.35,4.08-1.08,8.24-.94,12.3.39,1.17.38,2.3.87,3.43,1.35,2.13.91,2.68,2.55,1.53,4.55-.14.25-.31.48-.48.7-1.31,1.67-2.49,3.23-2.58,5.65-.09,2.58-2.3,4.18-4.64,4.84-3.81,1.09-7.63,2.22-11.57,2.83-.37.06-.75.1-1.19.17Zm.86-1.98c3.86-.49,7.54-1.8,11.3-2.76,1.3-.33,2.38-1.2,3.07-2.4,1.09-1.91.53-3.07-1.63-3.54-.65-.14-1.28-.35-1.93-.46-3.27-.53-6.46-.41-9.31,1.51-2.41,1.62-4.73,3.39-7.23,5.19,1.5,2.04,3.44,2.76,5.73,2.47Zm14.6-10.72c-2.33-2.43-5.11-4.18-8-5.69-1.73-.9-3.61-.74-5.58.9,4.51,2.34,8.59,4.8,13.58,4.79Zm-9.94-.8c-1.11-.63-2.11-1.33-3.21-1.81-3.31-1.46-3.85-1.29-6.17,1.36,5.45,2.19,5.83,2.21,9.38.45Zm12.11-.59c1.55-2.25,1.54-2.5-.46-3.34-1.88-.8-3.78-1.63-6.07-1.27,2.01,1.79,4.5,2.86,6.52,4.62Zm-18.21,3.37c-1.04-.69-2.21-1.08-3.38-1.45-1.96-.61-2.12-.52-3.48,1.58,4.34,1.58,5.57,1.56,6.86-.14Zm-7.24,1.99c-.74-.07-.99.43-.93,1.09.11,1.16.76,1.73,1.91,1.54,1.04-.18,1.98-.62,2.8-1.61-1.35-.69-2.56-.91-3.78-1.02Z"/><path d="m198.31,76.06c-1.13,1.81.11,3.14,1.48,4.62,1.18,1.28,1.09,2.98.39,4.58-.22.5-.8.95-.1,1.54,2.24,1.89,1.67,4.25.52,6.24-1.09,1.89-1.75,3.88-2.22,5.91-1.98,8.56-5.8,16.31-10.09,23.87-.08.15-.19.28-.29.42-.5.67-.86,1.65-1.84,1.57-1.12-.09-1.37-1.17-1.65-2.04-1.58-4.95-2.89-9.96-3.5-15.13-.57-4.81-1.45-9.59-1.54-14.45,0-.17.02-.36-.04-.51-1.39-3.36-.99-6.31,1.97-8.68.51-.41.29-.92.29-1.4,0-1.73.64-3.17,2.02-4.21.74-.56,1.03-1.11,1-2.11-.05-2.08,1.04-3.71,2.59-5.05,1.15-.99,2.44-1.84,2.76-3.53.15-.77.94-1.26,1.55-.73,2.63,2.29,6.03,3.99,6.62,7.99.04.25.04.51.08,1.1Zm-9.8-3.58c-1.39,1.26-2.4,2.69-1.68,4.71.31.86.11,1.47-.76,1.87-1.96.9-2.86,2.32-2.19,4.51.22.72.01,1.25-.68,1.72-3.49,2.34-3.5,5.24-.07,7.56,4.02,2.73,8.52,2.62,13.04,2.05,1.49-.19,2.53-1.35,3.22-2.7,1.49-2.88.36-4.7-2.84-4.59-1.96.07-3.91.1-5.82-.48-.93-.28-2.47-.17-2.07-1.56.4-1.41,1.58-.27,2.34-.02,2.1.7,4.18.83,6.25.05,1.42-.53,1.95-1.89,1.46-3.35-.47-1.42-1.35-1.97-2.92-1.61-1.95.45-3.69-.3-5.48-.76-.55-.14-.84-.63-.62-1.19.17-.45.65-.53,1.07-.45.66.13,1.32.32,1.97.52,2.64.78,3.52-.78,3.71-2.82.14-1.56-.33-3.01-1.69-4.07-1-.78-1.9-1.69-3.16-2.83-.61,1.64-1.96,2.42-3.08,3.44Zm.38,33.42c.48.62.95.5,1.53.2,1.32-.67,2.65-1.3,3.98-1.94q-2.44-4.66-6.76-2.55c-.45.22-.89.44-1.65.81,1.08,1.29,2.02,2.37,2.89,3.49Zm-1.12-5.93c.9-.43,1.91-.68,2.67-1.4-2.14-2.36-4.17-2.49-8-.44q2.05,3.4,5.33,1.84Zm-2.32,9.62c-.32.12-.64.23-.8.57,3.09,4.87,2.5,4.05,6.79,1.8q-2.04-3.85-5.99-2.37Zm-.17-5.81c-.55-.78-1.13-.76-1.94-.39-.86.39-1.05.93-.9,1.8.68,4.06-.16,3.85,3.92,2.68.47-.13.9-.38,1.49-.64-.61-1.6-1.8-2.36-2.57-3.45Zm2.36,16.25c1.07-1.6,1-1.77-.17-3.27-.61-.79-1.19-.76-1.98-.41-.76.34-.92.78-.64,1.59.42,1.24.55,2.59,1.45,3.64.76-.3.97-1,1.34-1.55Zm5.71-20.65c-.27,1.22,1.19,2.06,2.24,2.85.69-1.29,1.07-2.64,1.21-4.48-1.37.85-3.2.48-3.46,1.63Zm-.62,10.81c.48-1.48,1.42-2.49,1.4-3.94-1.38.16-2.42.64-3.66,1.43.56,1.02,1.26,1.74,2.26,2.5Zm-11.2-13.6c.59.34,1.4-.15,1.93-1.02-.67-.46-1.3-.9-2.18-1.5-.11,1.09-.57,2.05.25,2.52Zm2.36,17.42c.34,1.62,1.13.87,2,.44-.71-1.01-1.25-1.95-2.26-2.67-.29.98.13,1.58.26,2.23Zm4.97.69c-.35.11-.62.37-.53.72.12.5.52.88.99,1.05.32.11.61-.18.74-.51.2-.53.71-.92.64-1.84-.75.24-1.3.4-1.84.58Zm-7.03-13.3c.04.51.34.7.82.57.21-.06.51-.1.41-.45-.13-.5-.46-.81-.96-.93-.37.18-.29.52-.27.82Z"/><path d="m151.8,29.13c-1.77,0-3.52-.19-5.27-.49-1.28-.22-2.46-.68-3.57-1.36-2.33-1.42-3.19-3.17-2.76-5.86.84-5.25,2.25-10.32,4.57-15.13,1.37-2.84,3.59-4.95,6.4-5.88,3.4-1.11,6.68.02,9.26,2.56,1.78,1.75,3.04,3.93,4.36,6.03,2.18,3.48,3.64,7.31,5.2,11.08.93,2.25.15,4.54-1.84,5.93-.99.7-2.11,1.21-3.27,1.49-4.29,1.04-8.64,1.69-13.08,1.6Zm13.18-3.58c3.13-.9,3.94-2.5,2.96-5.6-.19-.61-.41-1.21-.66-1.8-1.77-4.31-4.06-8.34-6.79-12.12-.51-.71-1.07-1.43-1.74-1.98-2.01-1.67-4.43-2.66-6.89-1.76-2.4.88-4.28,2.7-5.44,5.17-2.13,4.53-3.42,9.3-4.23,14.21-.21,1.24-.11,2.43.95,3.29,1.65,1.33,3.53,1.97,5.61,1.8-.2-4.99-1.31-9.71-.48-14.54.21-1.23.62-1.77,1.82-2.09,2.18-.59,4.26-.31,6.4.12,2.86.57,2.73.52,2.92,3.45.26,4.21.74,8.41,1.14,12.73,1.62-.31,3.06-.47,4.43-.87Z"/><path d="m184.63,47.58c-1.36,0-2.72.05-4.08-.13-2.74-.37-5.87-2.88-5.72-6.63.14-3.29.46-6.51,1.28-9.71.9-3.51,2.77-6.46,5.13-9.12,2.67-3.01,7.76-4.26,11.2-2.95,1.25.48,2.25,1.23,3.01,2.29,1.74,2.39,3.54,4.75,5.14,7.24,2.06,3.22,2.43,6.93,2.45,10.62,0,2.49-1.27,4.31-3.72,5.37-5.27,2.29-7.36,2.52-14.69,3.02Zm13.89-4.63c1.95-.68,2.86-2.18,2.74-4.07-.19-3.03-.44-6.14-2.12-8.79-1.67-2.63-3.35-5.28-5.38-7.67-1.1-1.3-2.54-2-4.21-1.96-2.48.05-4.79.91-6.54,2.63-2.24,2.21-3.84,4.89-4.81,7.94-1.06,3.34-.89,6.81-1.26,10.22-.21,1.95,1.11,3.07,2.73,3.82,1.2.56,2.46.57,3.68.41.42-.49.25-.99.25-1.45.02-3.69-.01-7.38.05-11.07.03-1.72.38-2.08,2.03-2.45,1.09-.24,2.21-.41,3.31-.59,3.63-.62,4.18-.16,4.61,3.45.43,3.59.3,7.2.63,11.16,1.6-.6,2.92-1.14,4.27-1.6Z"/><path d="m191.83,145.61c2.98-1.48,3.33-1.4,5.66,1.02,1.83,1.91,3,4.26,4.37,6.47.59.96.59,2.09.46,3.21-.12.94-.47,1.86-.25,2.97,1.13.13,2.27.21,3.43.05,1.37-.19,2.74-.16,4.11.05,3.87.6,6.24,3.01,7.71,6.41,1.02,2.36.64,4.71-.59,6.93-1.93,3.47-4.83,5.89-8.56,7.02-4.73,1.44-9.59,2.42-14.57,2.65-3.37.15-6.74.22-10.11.02-5.09-.3-10.1-1.1-15.04-2.38-1.55-.4-2.96-1.07-4.29-1.96-4.01-2.67-4.67-7.77-1.48-11.44,1.58-1.81,3.51-3.1,5.86-3.64,1.8-.42,3.58-1.04,5.47-.94.86.05,1.09-.35,1.01-1.1,0-.07,0-.14,0-.21.11-4.88-.42-3.59,3.65-6.22,1.67-1.08,3.34-2.19,5.08-3.15,1.29-.72,1.91-1.61,1.7-3.12-.2-1.43.35-2.69,1.21-3.83,1.23-1.64,2.96-1.74,4.31-.18.35.4.58.91.86,1.36Zm.24,35.06c5.06-.1,9.97-1.15,14.82-2.43,3.52-.93,6.26-3.04,8.15-6.22.96-1.62,1.34-3.35.77-5.14-1.15-3.66-5.09-6.25-8.95-5.86-1.37.14-2.73.31-4.11.22-.79-.05-1.12.27-1.13,1.06,0,1.17-.08,2.34-.12,3.51-.04,1.01-.47,1.55-1.56,1.79-2.76.63-5.54.98-8.35,1.21-4.68.38-9.34.01-13.99-.42-1.35-.13-1.83-.56-2-1.87-.05-.41,0-.83-.05-1.24-.13-1.35-.27-1.58-1.68-1.42-2.52.29-5.04.67-7.32,1.91-1.1.6-2.01,1.45-2.77,2.44-2.12,2.79-1.46,6.47,1.46,8.4,1.16.76,2.38,1.34,3.74,1.69,6.36,1.61,12.8,2.57,19.38,2.38,1.24,0,2.48.02,3.72,0Zm5.61-24.96c-6.58.95-13.1,2.38-19.76,2.74-.74.04-1.13.22-1.14,1.05-.02,1.24.06,1.41,1.35,1.48,6.47.36,12.9-.14,19.3-1.07,2.7-.39,2.68-.51,2.94-3.18.03-.34.06-.68.11-1.36-1.06.13-1.93.22-2.8.34Zm2.22-2.25c-1.34-2.25-2.43-4.4-4.22-6.06-1.2-1.11-1.96-1.07-3.11.07-.53.53-.34,1.15-.39,1.74-.11,1.49-.64,2.68-2.19,3.15-1,.31-2.02.48-3.03.08-.45-.18-.85-.47-1.34-.15-2.06,1.34-4.11,2.67-6.17,4.01,6.84-.7,13.62-1.56,20.45-2.83Zm-22.47,10.81c0,2.21,0,2.22,1.89,2.41,6.1.62,12.18.64,18.24-.44,2.2-.39,2.21-.33,2.22-2.51,0-.2-.05-.39-.12-.88-7.42,2.02-14.86,1.3-22.23,1.43Z"/><path d="m65.02,20.07c.93-.6.89-1.38.99-2.09.22-1.62.53-3.21,1.21-4.7.28-.62.6-1.21,1.08-1.71.63-.66,1.41-.79,2.24-.55.85.25,1.08.96,1.13,1.75.13,2.26-.15,4.47-.84,6.62-.22.7-.66,1.36-.28,2.24.96-.13,1.2-.95,1.45-1.64.27-.76.37-1.58.51-2.38.22-1.27.45-2.54.91-3.75.35-.91.76-1.78,1.95-1.77,1.1,0,2.1.87,2.41,2.12.33,1.33.42,2.69.25,4.04-.32,2.7-.83,5.34-1.94,7.86-.63,1.44-1.4,2.77-2.38,4-1.18,1.48-2.59,2.28-4.55,2.17-1.69-.09-1.77-.02-2,1.7-.87,6.59-2.49,13.03-3.8,19.54-.52,2.58-.53,5.25-1.08,7.84-.54,2.53-1.63,4.88-2.37,7.33-.18.59-.58,1.06-.99,1.52-.72.81-1.6.96-2.59.73-1.01-.24-1.38-.99-1.54-1.93-.26-1.5-.13-2.98.23-4.44,1.66-6.7,3.28-13.41,4.53-20.21.56-3.05,1.1-6.13,1.82-9.15.27-1.12.45-2.26.4-3.42-.04-.73-.25-1.31-.91-1.7-1.94-1.14-2.51-3.05-2.44-5.05.12-3.86.52-7.71,1.83-11.39.29-.82.64-1.65,1.09-2.4.69-1.17,1.51-1.56,2.49-1.34.93.21,1.69,1.06,1.74,2.25.07,1.68.19,3.38-.33,5.05-.27.87-.67,1.78-.21,2.89Zm-2.4-7.47c-1.87,4.24-2.42,8.73-2.33,13.31.02,1.03.44,2.03,1.42,2.57,1.52.84,1.92,2.15,1.83,3.77-.06.95-.11,1.88-.3,2.82-.82,3.91-1.63,7.82-2.36,11.75-.88,4.73-1.82,9.44-3.12,14.08-.65,2.33-1.4,4.69-1.22,7.17.03.38-.09.88.38,1.06.59.21.82-.32,1.09-.68.16-.21.28-.47.36-.73.71-2.47,1.88-4.8,2.27-7.37.6-3.95.94-7.93,1.92-11.82,1.33-5.26,2.17-10.61,3.03-15.97.36-2.23.39-2.38,2.69-2.13,2.09.23,3.52-.52,4.62-2.22,2.59-4.02,3.6-8.43,3.24-13.17-.03-.41-.13-.79-.73-1.05-.53.85-.73,1.82-.92,2.8-.23,1.2-.43,2.4-.73,3.58-.33,1.29-1.04,2.35-2.26,2.99-1.22.64-2.09.34-2.63-.89-.5-1.14-.27-2.24.14-3.36.72-1.96,1-4,.92-6.19-.65.12-.8.52-.96.87-.53,1.18-.9,2.4-1.05,3.7-.14,1.13-.21,2.31-.91,3.3-.63.89-1.67,1.37-2.43,1.1-1-.36-1.48-1.11-1.52-2.18-.04-1.03.16-2.01.42-3,.44-1.62.63-3.27.1-4.9-.64.01-.79.41-.95.77Z"/><path d="m33.84,62.48c-.09-1.77.19-3.1.39-4.44,1.44-9.43,2.73-18.88,4.46-28.27.17-.9.04-1.45-.71-2.07-1.7-1.42-2.49-3.29-2.32-5.57.32-4.31,1.6-8.22,4.53-11.49,1.23-1.37,2.67-2.26,4.56-2.33,3.1-.12,5.17,1.22,6.2,4.19,1.33,3.81,1.56,7.7.35,11.57-.78,2.48-2.48,4.15-5.03,4.87-2.09.59-2.15.57-2.3,2.65-.42,5.69-1.76,11.23-2.68,16.84-.44,2.67-.87,5.33-1.1,8.04-.19,2.28-.55,4.57-1.16,6.79-.13.45-.27.92-.52,1.32-.53.83-.89,1.93-2.2,1.78-1.02-.12-2.27-1.33-2.46-2.45-.11-.59-.02-1.21-.02-1.42Zm4-2.26c.49-3.55.8-7.14,1.41-10.67,1.13-6.47,2.58-12.89,3.08-19.45.1-1.26.68-2.02,1.81-2.42.64-.23,1.29-.39,1.94-.59,1.84-.56,3.02-1.85,3.54-3.62.99-3.41.86-6.83-.29-10.19-.83-2.41-2.07-3.19-4.57-3.12-1.42.04-2.4.77-3.29,1.76-2.52,2.79-3.59,6.16-4.01,9.8-.26,2.24.53,4,2.45,5.16.87.53.98,1.2.79,2.07-.26,1.19-.54,2.38-.73,3.58-1.36,8.7-2.7,17.39-4.03,26.09-.19,1.27-.28,2.56-.39,3.84-.06.77-.02,1.51.89,1.89,1.04-1.19,1.19-2.69,1.39-4.14Z"/><path d="m10.51,54.63c.32-7.58.97-15.13,1.97-22.66.7-5.24,1.11-10.51,1.76-15.75.31-2.48.83-4.94,1.32-7.4.21-1.06.58-2.09,1.11-3.04,1.25-2.22,3.51-2.26,4.8-.08.66,1.12,1,2.36,1.25,3.63,1.6,8.07,2.26,16.23,2.62,24.43.07,1.57.05,3.12-.56,4.6-.64,1.55-1.26,1.97-2.91,1.99-.88,0-1.76.02-2.64.04-1.89.03-1.94.03-2.03,2.02-.23,5.28-.83,10.53-1.65,15.75-.14.88-.36,1.72-.8,2.5-.5.88-1.11,1.58-2.25,1.33-1.11-.24-1.88-.95-1.95-2.06-.11-1.75-.03-3.52-.03-5.28Zm1.69,4.29c0,.4-.05.93.43,1.02.63.12.75-.48.84-.92.29-1.39.6-2.78.76-4.19.52-4.57,1.13-9.14,1.26-13.75.06-2.17.32-2.41,2.5-2.51,1.22-.06,2.44-.14,3.65-.08.94.05,1.32-.38,1.59-1.19.4-1.19.41-2.4.33-3.62-.28-4.26-.54-8.52-.91-12.77-.36-4.05-1.08-8.05-1.89-12.03-.23-1.11-.42-2.72-1.57-2.82-1.37-.12-1.42,1.58-1.71,2.61-.81,2.94-1.29,5.95-1.65,8.98-.65,5.58-1.25,11.16-1.9,16.74-.81,6.99-1.45,14-1.75,21.04,0,1.15,0,2.3,0,3.45Z"/><path d="m54.48,122.31c3.46,2.17,4.81,6.13,3.11,9.86-1.34,2.95-3.46,5.15-6.63,6.22-1.68.57-3.31,1.33-4.98,1.93-2.12.75-4.39.73-6.59,1.05-7.16,1.06-14.35.89-21.54.44-1.61-.1-3.23-.2-4.84-.35-3.14-.29-6.1-1.24-9.03-2.31-1.33-.49-2.25-1.41-2.88-2.65-1.2-2.35-1.37-4.85-.75-7.33.62-2.49,2.6-3.95,4.85-4.71,3.42-1.17,6.81-2.44,10.28-3.49,1.35-.4,1.39-.39,1.29-1.77-.23-3.5-.5-7-.52-10.58-1.6-.13-3.01-.61-4.38-1.21-.52-.22-.89-.43-.68-1.1.25-.84-.05-1.66-.22-2.46-.2-.94-.34-1.87-.37-2.81-.18-5.35-.42-10.7-.48-16.05-.03-3.34,1.79-4.61,4.71-4.9,1.21-.12,2.46,0,3.69-.02,1.13-.01,1.91.54,2.39,1.52.54,1.1.91,2.23,1.04,3.48.55,5.12.38,10.24-.17,15.35-.2,1.84-.82,3.58-1.33,5.35-.32,1.09-1.14,1.77-2.05,2.33-.34.22-.65.36-.65.84-.01,3.74.31,7.44.65,11.26,4.08-.96,8.07-1.23,12.08-1.33.73-.02,1.14-.15,1.1-1.02-.08-1.45-.1-2.9-.08-4.35.01-.64-.27-.89-.84-1-.38-.08-.75-.2-1.11-.35-.83-.35-1.31-.9-1.42-1.87-.63-6.05-1.21-12.1-.77-18.19.12-1.61.09-3.24,0-4.85-.07-1.4.51-2.4,1.69-2.99,2.07-1.04,4.2-1.85,6.51-.54,1.16.66,1.75,1.77,2,2.91,1.01,4.59,1.14,9.27,1.15,13.97,0,3.45-.98,6.58-2.41,9.64-.53,1.14-1.42,1.86-2.59,2.19-.68.2-.84.57-.8,1.21.08,1.45.14,2.89.15,4.34,0,.65.27.89.91.87,1.22-.06,2.44.09,3.67.04,3.7-.15,7.32.39,10.93,1.24,2.07.49,4.08,1.03,5.92,2.17Zm1.42,9.98c1.01-1.7.94-3.53.61-5.36-.17-.94-.66-1.8-1.45-2.39-1.34-1.01-2.74-1.93-4.38-2.37-3.45-.93-6.95-1.62-10.52-1.83-2.08-.13-4.17.31-6.26-.03-.75-.12-.8.34-.77.91.05.86.09,1.71.13,2.56.05,1.04.1,2.08.17,3.12.06.91-.09,1.86.17,2.76,1.26.04,2.27-.48,3.34-.77.52-.14,1.03-.31,1.27.32.24.64-.24.88-.75,1.08-2.23.85-4.54,1.14-6.9.91-.72-.07-1.42-.28-2.02-.75-.38-.31-.64-.68-.31-1.14.27-.38.66-.37,1.04-.13.48.31.98.51,1.56.54,1.05.05,1.18-.01,1.14-1.06-.08-2.35-.2-4.68-.33-7.02-.03-.42.06-.89-.35-1.33-3.57.15-7.19.27-10.76.98-2.05.4-2.05.38-1.82,2.37.02.15.13.28.22.45.75-.09,1.47-.15,2.18-.27,2.65-.46,5.33-.43,8.01-.43.55,0,1.11.07,1.14.69.03.74-.58.84-1.17.84-.39,0-.78,0-1.17,0-2.23-.03-4.46.02-6.67.37-3.17.51-2.42-.07-2.51,3,0,.1.08.2.15.33.82.18,1.62-.03,2.43-.22.5-.12,1.08-.16,1.2.51.13.67-.45.81-.93.95-.27.08-.55.1-.82.17-1.84.42-3.67-.1-5.51,0-.45.02-.75-.24-.75-.69,0-.36.26-.61.62-.68.27-.06.55-.06.83-.08q1.24-.09,1.26-1.35c0-.33.09-.67-.2-1.03-1.28.41-2.6.8-3.96,1.08-1.75.34-3.2,1.24-4.36,2.61-.74.89-.96,1.73-.27,2.54,1.14,1.34,2.23,2.79,4.22,3.06,3.32.46,6.64.82,9.98.91,2.12.06,4.24-.03,6.36.22.82.1,1.68.12,2.51.02,3.15-.38,6.34-.5,9.45-1.26,3.1-.75,6.1-1.76,8.64-3.82.59-.47,1.04-.98,1.19-1.74.43-2.1-.25-3.5-2.59-4.12-2.75-.73-5.58-1.11-8.44-1.05-1.35.02-2.68-.08-4.01-.29-.42-.06-.71-.25-.71-.66,0-.03,0-.06,0-.09.04-.46.37-.65.82-.64.22,0,.45,0,.67,0,1.61.08,3.23.15,4.85.23,2.46.12,4.89.45,7.27,1.08,1.77.47,3.24,1.47,3.59,3.35.38,2.06.05,3.99-1.98,5.28-1.56.98-3.02,2.11-4.8,2.69-5.56,1.86-11.29,2.58-17.13,2.44-4.35-.1-8.69-.3-13.03-.66-3.15-.26-5.86-1.15-7.86-3.76-1.17-1.52-1.21-3.09-.01-4.55,1.56-1.89,3.55-3,5.94-3.43.71-.13,1.43-.28,2.1-.54,2.09-.83,1.75-.38,1.63-2.6,0-.1-.1-.2-.16-.31-.95.06-1.84.4-2.72.72-2.58.91-5.12,1.91-7.76,2.63-1.4.38-2.49,1.2-3.55,2.13-.65.57-1.12,1.29-1.21,2.14-.13,1.16-.31,2.35-.08,3.5.36,1.76.76,3.61,2.68,4.35,2.23.87,4.47,1.75,6.87,2.05,4.55.57,9.1.93,13.68.98,3.69.04,7.37-.03,11.04-.33,3.05-.25,6.08-.8,9.1-1.33,1.93-.34,3.6-1.47,5.47-2.04,2.5-.77,4.16-2.51,5.44-4.69Zm-21.06-22.54c1.26-2.55,2.35-5.17,2.34-8.1v-3.01h-.09c0-1.45.06-2.9-.02-4.34-.06-1.12-.23-1.21-1.34-1.16-.28,0-.56.04-.83.1-1.63.34-3.28.56-4.96.53-1.17-.02-1.17.03-1.2,1.21-.14,4.91.27,9.79.79,14.66.04.4.1.74.47,1.01,1.49,1.08,4.06.68,4.85-.91Zm2-18.16c-.09-1.45-.38-2.78-.76-4.11-2.34.89-4.62,1.54-7.27.24,0,1.26,0,2.32,0,3.37-.01,1.19,0,1.11,1.21,1.17,2.3.11,4.48-.61,6.82-.68Zm-1.42-5.72c.1-.59-.47-.82-.92-1.04-.5-.25-1.05-.47-1.61-.34-1.28.31-2.65.43-3.75,1.56,1.75,1.38,3.48.98,5.21.49.42-.12.98-.22,1.07-.68Zm-14.61,2.73c.03-1.34-.34-2.63-.45-4.01-2.79,1.26-5.72,1.26-8.67,1.4,0,.94.03,1.87,0,2.81-.02.65.32.69.84.68,2.5-.06,5.01-.1,7.51-.11.6,0,.77-.22.77-.77Zm-1.52,15.87c1.36-4.15,1.53-8.41,1.45-12.72-.01-.75-.3-.96-.98-.94-1.06.02-2.12,0-3.18,0v.1c-1.23,0-2.46-.06-3.68.01-1.17.07-1.13.14-1.21,1.29-.12,1.79.41,3.55.34,5.33-.12,2.57.11,5.11.64,7.63.16.75.45,1.19,1.17,1.44.59.2,1.18.34,1.79.38,2.15.17,2.98-.47,3.67-2.53Zm-.35-20.91c.38-.22.87-.47.78-.96-.08-.5-.43-1.01-.96-1.03-1.98-.08-3.97-.4-5.86.57-.78.4-.73.94-.59,1.66.16.82.73.66,1.64.68,1.11-.16,2.59-.36,4.06-.59.32-.06.65-.16.93-.32Z"/><path class="cls-2" d="m37.19,101.65c.01,2.93-1.08,5.55-2.34,8.1-.8,1.6-3.37,1.99-4.85.91-.37-.27-.43-.61-.47-1.01-.52-4.87-.93-9.75-.79-14.66.03-1.18.03-1.24,1.2-1.21,1.68.03,3.33-.2,4.96-.53.27-.06.55-.09.83-.1,1.11-.05,1.28.04,1.34,1.16.08,1.44.02,2.89.02,4.34h.09v3.01Zm-2.35.55c0-.39-.22-.6-.6-.66-.4,0-.65.22-.69.57-.06.45.2.75.68.73.38-.01.61-.26.61-.64Zm-2.37-3.46c.01-.47-.24-.73-.67-.75-.36-.02-.6.2-.66.57s.1.64.48.71c.42.08.74-.08.84-.53Zm-.89,7.11c.31-.13.64-.31.58-.78-.05-.37-.3-.57-.68-.56-.36,0-.62.2-.65.58-.03.45.24.68.75.76Z"/><path d="m34.24,101.54c.38.06.61.27.6.66,0,.38-.24.63-.61.64-.47.01-.73-.28-.68-.73.04-.36.29-.58.69-.57Z"/><path d="m31.79,97.98c.43.03.68.29.67.75-.1.45-.43.61-.84.53-.38-.07-.54-.34-.48-.71s.3-.59.66-.57Z"/><path d="m32.15,105.06c.06.47-.27.65-.58.78-.5-.08-.77-.31-.75-.76.03-.38.29-.57.65-.58.38-.01.63.19.68.56Z"/><path class="cls-2" d="m20.74,91.75c.08,4.31-.09,8.57-1.45,12.72-.68,2.07-1.52,2.71-3.67,2.53-.61-.05-1.2-.18-1.79-.38-.72-.24-1.01-.68-1.17-1.44-.52-2.52-.75-5.06-.64-7.63.08-1.79-.45-3.54-.34-5.33.08-1.15.03-1.22,1.21-1.29,1.22-.08,2.45-.01,3.68-.01v-.1c1.05,0,2.12.01,3.18,0,.68-.01.96.19.98.94Zm-2.37,7.71c.09-.45-.17-.7-.61-.82-.41.02-.68.22-.69.68-.01.39.21.6.58.63.35.02.66-.13.73-.5Zm-3.01,3.32c.38-.06.53-.36.54-.58-.05-.54-.29-.73-.68-.72-.38,0-.62.24-.61.63.01.45.27.74.74.67Zm-.8-6.28c.47.02.67-.24.73-.73-.11-.36-.33-.65-.79-.59-.37.06-.55.33-.53.69.01.36.2.61.59.62Z"/><path d="m17.75,98.65c.44.12.71.37.61.82-.07.37-.38.52-.73.5-.37-.03-.59-.24-.58-.63.01-.46.28-.66.69-.68Z"/><path d="m15.9,102.2c-.01.22-.16.52-.54.58-.47.07-.73-.22-.74-.67-.01-.38.22-.62.61-.63.38-.01.63.17.68.72Z"/><path d="m15.28,95.78c-.06.48-.26.75-.73.73-.4-.01-.58-.27-.59-.62-.02-.36.16-.64.53-.69.46-.06.68.22.79.59Z"/><path d="m66.12,213.1c-.04-1.39-.32-2.27-1.59-2.87-3.38-1.61-5.06-4.8-4.76-8.64.28-3.58,2.42-6.26,5.96-7.43,1.92-.64,1.92-.64,1.92-2.62,0-1.13.03-2.26.04-3.38.01-.74.13-1.45.37-2.15.77-2.15,2.81-2.74,4.6-1.3.91.73,1.44,1.71,1.81,2.8.87,2.54,1.17,5.17,1.15,7.83,0,1.06.16,1.75,1.3,2.31,2.66,1.3,3.59,4.22,2.48,7.16-.37.98-.85,1.96-1.47,2.81-1.21,1.66-.6,3.44-.53,5.19.01.36.31.58.66.63.53.07,1.06.16,1.58.15,5.64-.06,11.26.58,16.9.61.46,0,1.01-.1,1.37.11,1.89,1.1,3.14-.08,4.32-1.2,1.49-1.4,2.25-3.2,2.55-5.25.39-2.63.62-5.26.55-7.92-.1-4.16-1.88-7.3-5.75-8.94-3.48-1.48-5.54-4.18-7.12-7.41-1.73-3.54-2.78-7.3-3.34-11.19-.11-.8-.48-1.08-1.24-1.26-3.76-.9-7.8-5.27-7.07-10.2.32-2.12,1.6-3.79,3.2-5.11.74-.62.99-.91.47-1.85-3-5.43-2.4-10.98-.31-16.52,2.51-6.65,6.78-11.78,13.19-15.02,3.6-1.82,7.1-3.85,11.17-4.83-.91-3.01-.7-5.87.61-8.59,1.09-2.28,2.85-3.99,5.07-5.17,3.96-2.1,9.99-1.19,13.38,1.96,3.46,3.21,3.93,7.97,1.36,13.83.26.58.89.47,1.35.62,9.54,3.1,15.24,9.47,16.68,19.49.54,3.76.71,7.52-.04,11.28-.21,1.05-.64,2.01-1.02,3.09,2.27,1.25,3.62,3.23,4.2,5.72,1.07,4.55-2.32,9.36-6.22,10.16-.98.2-1.35.64-1.52,1.64-.46,2.74-1.05,5.46-1.95,8.11-1.95,5.75-5.87,9.64-11.42,11.94-2.73,1.13-3.52,2.24-3.66,5.2-.13,2.79-.02,5.56.39,8.33.6,4,2.84,6.42,6.85,7.23,3.05.62,6.14.94,9.25,1.26,4.35.45,8.27,2.01,11.62,5.06,4.71,4.29,6.85,9.62,7.22,15.83.3,5.03.69,10.06.49,15.11-.01.26,0,.53,0,.8.04,1.51.04,1.53,1.51,1.54,4.45.01,8.89,0,13.34,0,.46,0,.93-.01,1.39.02.7.04,1.39.2,1.41,1.06.02.98-.7,1.16-1.5,1.16-.53,0-1.06,0-1.59,0-19.11,0-38.22,0-57.33-.01-1.23,0-2.39-.11-2.91,1.38-.18.51-.74.74-1.21.99-4.64,2.42-9.06,5.23-13.74,7.59-2.24,1.13-4.38,1.28-6.7,1.04-.26-.03-.52-.18-.77-.16-3.31.36-6.62-.16-9.91-.05-2.92.09-5.82.12-8.74.01-4.77-.18-9.55-.15-14.33-.09-5.71.07-11.41.15-17.11-.04-1.59-.05-3.18.03-4.77.03-1.67,0-2.02-.28-2.53-1.88-.21-.65-.33-1.34-.1-1.96.64-1.72.38-3.5.39-5.25.05-7.89-.06-15.79.05-23.68.07-5.04.43-10.07.68-15.1.03-.59.14-1.19.32-1.75.29-.89.86-1.32,1.9-1.41,3.84-.32,7.68-.32,11.53-.37,5.17-.06,10.33-.3,15.63-.46Z"/><path class="cls-3" d="m65.24,215.5c8.88-.06,17.76.22,26.63.8,1.19.08,2.39.09,3.58.03.98-.05,1.46.26,1.46,1.31,0,2.05.27,4.13.04,6.16-.53,4.76-.54,9.53-.7,14.29-.2,6.23-.66,12.45-.62,18.68.01,1.6-.06,1.74-1.72,1.63-3.91-.26-7.82.12-11.72-.21-2.11-.18-4.24-.02-6.36-.04-8.81-.11-17.63-.59-26.44-.29-3.39.12-6.75-.28-10.12-.5-.93-.06-1.07-.49-1.06-1.26.02-1.59-.02-3.18-.02-4.77,0-6.3-.05-12.6.05-18.9.07-4.57.26-9.14.56-13.71.21-3.2-.11-2.69,2.98-2.81,5.96-.23,11.93-.3,17.89-.42,1.85-.04,3.71,0,5.57,0Z"/><path class="cls-1" d="m122,140c2.26,3.8,4.6,7.18,7.29,10.3,2.19,2.54,4.71,4.65,7.98,5.72,1.8.59,3.59.77,5.48.46,3.06-.51,4.98,1.09,5.39,4.21.47,3.53-2.31,7.15-5.84,7.5-1.65.17-1.59.25-1.81,1.75-.51,3.48-1.17,6.94-2.5,10.21-1.9,4.66-5.32,7.84-10.02,9.59-2.85,1.06-4.41,3.01-4.69,6.02-.4,4.4-.26,8.74,1.23,12.96.19.54.27.99-.3,1.38-5.23,3.53-10.76,5.04-16.38,1.77-1.48-.86-1.45-.87-1.1-2.64.79-4.13,1.25-8.29.37-12.44-.74-3.48-2.74-6.17-6.12-7.52-2.89-1.16-4.84-3.21-6.2-5.88-1.86-3.63-2.97-7.5-3.56-11.53-.06-.39-.11-.79-.21-1.17-.21-.81-.59-1.21-1.57-1.4-3.18-.58-5.33-2.52-6.29-5.64-.67-2.19.46-5.06,2.37-6.27.47-.3,1-.52,1.5-.29,1.96.93,3.77.14,5.58-.45,1.07-.35,2.11-.8,3.12-1.28,5.8-2.75,11.58-5.57,17.21-8.66,3.26-1.79,6.29-3.93,9.05-6.69Z"/><path class="cls-2" d="m117.15,251.76c.09-.77.25-1.54.26-2.31.03-1.66-.3-2-1.94-2.01-2.98-.03-5.97-.02-8.95,0-2.32.01-4.64,0-6.95-.3-1.55-.21-1.57-.21-1.51-1.66.22-6.16.33-12.32.76-18.47.2-2.85.26-5.68.29-8.53,0-.66-.12-1.38.77-1.59.89-.21,1.61-.91,2.73-.08,4.58,3.42,9.75,4.72,15.37,3.4,3.84-.9,7.39-2.58,10.44-5.11,1.07-.89,1.91-1.14,3.32-.72,3.05.9,6.23,1.17,9.41,1.42,4.82.37,8.84,2.26,12.19,5.87,3.45,3.72,4.83,8.03,5.08,12.97.23,4.57.59,9.12.51,13.7q-.06,3.66-3.6,3.66c-12,0-24,0-35.99-.01-.71,0-1.45.19-2.19-.24Z"/><path class="cls-2" d="m113.32,119.66c4.24.09,8.46.27,12.5,1.83,1.16.45,2.45.55,3.65.9,8.96,2.63,14.38,9.11,15.44,18.41.33,2.9.52,5.8.06,8.72-.72,4.5-2.7,5.75-7.07,4.31-2.73-.89-4.87-2.67-6.69-4.81-2.8-3.28-5.39-6.71-7.34-10.59-.76-1.51-1.24-1.62-2.58-.66-.48.35-.95.73-1.39,1.13-4.05,3.7-8.71,6.43-13.69,8.68-2.53,1.14-4.92,2.58-7.41,3.82-2.72,1.35-5.41,2.79-8.42,3.43-1.9.4-2.97-.17-3.87-1.88-2.52-4.77-2.06-9.59-.26-14.42,2.25-6.06,5.96-10.89,11.83-13.87,1.95-.99,3.89-1.99,5.83-3,2.96-1.54,6.13-2.07,9.43-2.01Z"/><path class="cls-3" d="m114.93,250.69c-.26,2.4-1.14,3.82-3.17,4.88-4.16,2.18-8.12,4.72-12.37,6.75-.87.41-1.68.63-2.64.62-2.25-.03-4.5.07-6.75.12-.66.01-1.33.04-1.99.03-8.08-.13-16.15-.35-24.23-.36-5.5,0-11,.19-16.5.17-2.72,0-5.42-.39-8.14-.24-.59.03-1.41.17-1.39-.91.02-1.26.69-2.31,1.61-2.27,1.19.05,2.38.17,3.56.33,2.18.3,4.37.29,6.55.22,9.21-.31,18.41.13,27.62.35,5.42.13,10.85.05,16.28.24,2.44.09,4.45-.71,6.49-1.9,4.29-2.49,8.68-4.81,13.04-7.18.57-.31,1.21-.51,2.03-.86Z"/><path class="cls-2" d="m128.33,113.8c.07,1.51-.46,3.12-1.4,4.62-.36.57-.68.82-1.44.57-4.4-1.46-8.96-1.68-13.55-1.51-.88.03-1.11-.42-1.34-1.12-1.39-4.33,1.68-9.89,6.1-11.02,1.98-.51,3.98-.52,5.9.12,3.41,1.14,5.93,3.64,5.74,8.36Z"/><path class="cls-1" d="m73.31,196.47c-1.88,0-3.43.51-4.87,1.39-1.16.71-2.06,1.67-2.64,2.9-.7,1.49-.76,3,.42,4.26,1.2,1.29,2.8,1.35,4.43,1.08.6-.1.96-.51.94-1.11-.02-.6-.42-.95-1.03-1-.46-.03-.93.02-1.39-.04-1.5-.2-1.93-1.02-1.23-2.37.75-1.46,2.08-2.23,3.58-2.62,1.61-.42,3.17-.08,4.59.77,1.21.72,1.72,2.14,1.38,3.65-.22.98-.66,1.89-1.25,2.68-1.27,1.71-1.54,3.58-1.22,5.64.25,1.61.19,1.6-1.48,1.57-1.59-.03-3.17,0-4.76-.09-.32-.19-.3-.5-.33-.74-.27-2.12-1.18-3.58-3.32-4.5-2.37-1.02-3.09-3.27-3.08-5.77.02-2.6,1.23-4.39,3.55-5.49.72-.34,1.49-.52,2.27-.68,1.73-.36,2.07-.81,2.09-2.57.01-1.66,0-3.31.03-4.97,0-.46.07-.92.13-1.38.04-.34.2-.68.52-.78.34-.1.62.17.85.41.52.54.77,1.23.99,1.92.8,2.49.92,5.05.83,7.83Z"/><path class="cls-2" d="m127.86,212.78c-4.55,3.33-9.11,5.83-14.75,5.61-2.94-.11-5.56-1.16-8.07-2.54-1.42-.79-1.4-.92-.4-2.19.16-.21.34-.4.61-.7,1.64.96,3.28,1.91,5.12,2.43,2.41.68,4.83.83,7.26.18,2.51-.67,4.9-1.64,7.1-3.03,1.53-.97,1.51-1,3.13.24Z"/><path class="cls-3" d="m111.16,249.77c-4.35,2.5-8.49,5.28-13.24,7.34,0-2.42-.01-4.76,0-7.11,0-.61.45-.74.96-.7,1.12.07,2.25.1,3.36.22,2.95.32,5.9-.17,8.91.26Z"/><path d="m65.41,232.06c2.9,0,4.88,1.98,4.85,4.88-.03,2.62-2.12,4.75-4.63,4.73-2.6-.03-5.04-2.29-5.04-4.66,0-2.85,2.04-4.95,4.83-4.95Z"/><path d="m115.55,181.34c-2.49-.25-4.76-1.18-6.5-3.2-.48-.56-.78-1.23-.95-1.94-.17-.67.05-1.22.67-1.48.68-.3,1.24.08,1.39.71.45,1.87,1.9,2.61,3.46,3.24,2.56,1.02,5.09.13,6.47-2.25.13-.23.2-.5.36-.7.32-.41.76-.51,1.24-.31.41.17.58.53.59.95.01.69-.26,1.3-.67,1.83-1.48,1.98-3.5,2.97-6.05,3.15Z"/><path d="m115.43,165.7c.56.31,1.12.04,1.7-.08.69-.15,1.2.14,1.36.82.14.61-.28,1.01-.79,1.22-1.21.52-2.46.52-3.69.09-.7-.24-1.01-.83-.98-1.57.08-2.32.17-4.64.26-6.95.01-.33.07-.66.16-.98.14-.51.51-.79,1.03-.75.51.04.89.37.96.87.07.59,0,1.19,0,1.79,0,1.84,0,3.68,0,5.55Z"/><path d="m124.3,154.7c1.72,0,2.92.85,3.81,2.18.35.52.43,1.16-.13,1.61-.54.44-1.11.29-1.58-.2-.23-.24-.43-.5-.68-.71-.95-.79-1.89-.74-2.79.13-.14.14-.23.32-.36.47-.45.52-.98.7-1.55.25-.56-.44-.52-1.05-.22-1.61.74-1.43,2-2.02,3.5-2.12Z"/><path d="m106.24,154.99c1.48.02,2.68.62,3.6,1.75.4.49.65,1.05.14,1.6-.55.61-1.12.44-1.73,0-2.05-1.47-2.17-1.47-4.07,0-.6.46-1.19.71-1.74.14-.55-.57-.31-1.24.17-1.78.96-1.09,2.13-1.74,3.62-1.7Z"/><path class="cls-2" d="m68.09,236.88c.02,1.4-1.14,2.63-2.44,2.61-1.42-.03-2.84-1.27-2.85-2.53,0-1.51,1.15-2.8,2.51-2.73,1.72.09,2.75.96,2.77,2.66Z"/><path d="m64.38,177.59c-.27,0-.53-.16-.65-.42l-2.06-4.59c-.16-.36,0-.78.36-.94.36-.16.78,0,.94.36l2.06,4.59c.16.36,0,.78-.36.94-.09.04-.19.06-.29.06Z"/><path d="m60.95,180.33c-.13,0-.27-.04-.39-.11l-4.22-2.74c-.33-.21-.42-.66-.21-.99.21-.33.66-.42.99-.21l4.22,2.74c.33.22.42.66.21.99-.14.21-.37.32-.6.32Z"/><path d="m68.72,176.86c-.06,0-.12,0-.18-.02-.38-.1-.61-.49-.51-.87l1.28-4.86c.1-.38.49-.61.87-.51.38.1.61.49.51.87l-1.28,4.86c-.08.32-.37.53-.69.53Z"/></g></svg>