<?xml version="1.0" encoding="utf-8"?>
<!-- Generator: Adobe Illustrator 27.4.0, SVG Export Plug-In . SVG Version: 6.00 Build 0)  -->
<svg version="1.1" id="_レイヤー_2" xmlns="http://www.w3.org/2000/svg" xmlns:xlink="http://www.w3.org/1999/xlink" x="0px"
	 y="0px" viewBox="0 0 274.8 136.4" style="enable-background:new 0 0 274.8 136.4;" xml:space="preserve">
<style type="text/css">
	.st0{fill:#FFDC00;}
	.st1{fill:#231815;}
	.st2{fill:#FFFFFF;}
	.st3{fill:#CCCCCC;}
	.st4{clip-path:url(#SVGID_00000060712212573398816620000003447614450856573830_);}
</style>
<g id="_レイヤー_1-2">
	<g>
		<path class="st0" d="M1,46.2c0,18.5,15,33.5,33.5,33.5c7.8,0,15-2.7,20.7-7.2l7.7,3.3c0.4,0.2,0.8,0.1,1-0.2
			c0.2-0.2,0.3-0.4,0.3-0.7c0-0.1,0-0.2-0.1-0.4l-3.3-7.7c4.5-5.7,7.2-12.9,7.2-20.7c0-18.5-15-33.5-33.5-33.5S1,27.8,1,46.2z"/>
		<path class="st1" d="M34.5,80.7C15.5,80.7,0,65.2,0,46.2c0-19,15.5-34.5,34.5-34.5c19,0,34.4,15.5,34.4,34.5
			c0,7.6-2.4,14.8-7,20.8l3.1,7.1c0.1,0.3,0.2,0.5,0.2,0.8c0,0.5-0.2,1-0.6,1.4c-0.6,0.6-1.4,0.7-2.1,0.4l-7.1-3.1
			C49.2,78.3,42.1,80.7,34.5,80.7z M34.5,13.8C16.6,13.8,2,28.3,2,46.2c0,17.9,14.6,32.5,32.5,32.5c7.4,0,14.3-2.4,20.1-7l0.5-0.4
			l8.1,3.5l-3.5-8.1l0.4-0.5c4.6-5.8,7-12.7,7-20.1C66.9,28.3,52.3,13.8,34.5,13.8z"/>
	</g>
	<path d="M50,67c0.2,1.1,0.1,1.2-0.9,1.6c-1.2,0.4-2.4,0.9-3.6,1.3c-0.9,0.3-1.7,0.7-2.5,1.2c-1.8,1.1-3.8,1.8-6,1.8
		c-0.6,0-1.1,0.2-1.7,0.2c-0.7,0.1-1.3,0.1-2,0c-0.8-0.1-1.3-0.4-1.6-1.2c-0.9-2.6-2.1-5.1-3.2-7.7c-1.5-3.7-3.1-7.3-4.1-11.1
		c-0.8-3-1.9-6-3-9c-0.2-0.6-0.6-1.3-0.9-1.9c-0.6-1.1-1-2.3-1.2-3.6c-0.4-2.3-1.3-4.3-2.2-6.4c-0.2-0.5-0.2-0.7,0-1.1
		c0.7-1.3,1.7-2.4,2.7-3.5c1.2-1.2,2.3-2.5,3.5-3.9c1.1-1.4,2.6-2.4,3.8-3.6c0.7-0.6,1.3-0.5,1.6,0.4c0.4,1.1,0.8,2.1,1,3.2
		c0,0.3,0.1,0.5,0.2,0.8c0.4,1.2,0.4,1.3,1.5,0.6c0.4-0.2,0.9-0.5,1.4-0.6c1-0.4,1.5-0.2,1.9,0.9c0.8,1.8,1.5,3.7,2.6,5.4
		c0.3,0.4,0.5,1,0.6,1.5c2,5.4,3.8,10.9,5.7,16.3c1.6,4.4,3.3,8.9,4.9,13.3C49.2,63.7,49.7,65.3,50,67L50,67z M48.3,67.7
		c0.5-0.2,0.6-0.4,0.5-0.8c-0.2-0.6-0.3-1.2-0.5-1.8c-1.7-5.4-3.7-10.8-5.7-16.3c-2-5.1-3.7-10.5-5.6-15.8c-0.1-0.4-0.2-0.8-0.5-1.2
		c-1.1-1.6-1.9-3.4-2.6-5.2c-0.3-0.7-0.3-0.7-1-0.4c-0.2,0.1-0.4,0.2-0.6,0.3c-1.4,0.5-2.6,1.3-4.1,1.6c-1.1,0.2-2.1,0.5-3,1.1
		c-1.7,0.9-3.5,1.5-5.3,2.3C18.5,32,18.5,32,19,33.3c0.7,2,1.6,3.9,1.8,6c0.1,0.8,0.5,1.6,0.9,2.4c1.7,3.2,2.7,6.7,3.7,10.2
		c0.6,2.1,1.2,4.1,2.2,6.1c0.5,0.9,0.8,1.9,1,2.9c0.2,1,0.5,2,1,2.8c1.3,2.3,2.2,4.7,3.1,7.2c0.4,1.1,0.5,1.2,1.7,1.1
		c0.9-0.1,1.8-0.3,2.7-0.3c1.9,0,3.5-0.7,5.1-1.6c1-0.6,2.1-1,3.3-1.4C46.5,68.3,47.3,68,48.3,67.7L48.3,67.7z M29.2,26.4
		c-0.5-1.7-0.8-3.3-1.6-4.9c-1.4,1.4-2.9,2.5-4,4c-1.1,1.5-2.5,2.8-3.8,4.2C23,28.9,25.8,27,29.2,26.4L29.2,26.4z"/>
	<path class="st2" d="M48.7,66.8c0.2,0.5,0,0.7-0.5,0.8c-0.9,0.3-1.8,0.7-2.7,1c-1.1,0.4-2.2,0.8-3.3,1.4c-1.6,0.9-3.2,1.6-5.1,1.6
		c-0.9,0-1.8,0.3-2.7,0.3c-1.2,0.1-1.3,0-1.7-1.1c-0.9-2.4-1.8-4.9-3.1-7.2c-0.5-0.9-0.8-1.8-1-2.8c-0.2-1-0.6-2-1-2.9
		c-1-1.9-1.6-4-2.2-6.1c-1-3.5-2-6.9-3.7-10.1c-0.4-0.8-0.8-1.5-0.9-2.4c-0.3-2.1-1.1-4.1-1.8-6c-0.5-1.3-0.5-1.2,0.8-1.9
		c1.7-0.9,3.6-1.4,5.3-2.3c0.9-0.5,2-0.8,3-1.1c1.4-0.3,2.7-1.1,4.1-1.6c0.2-0.1,0.4-0.2,0.6-0.3c0.7-0.3,0.7-0.3,1,0.4
		c0.7,1.8,1.5,3.6,2.6,5.2c0.2,0.3,0.3,0.8,0.5,1.2c1.9,5.3,3.6,10.7,5.6,15.8c1.9,5.6,4,10.9,5.7,16.3
		C48.4,65.6,48.5,66.2,48.7,66.8L48.7,66.8z M35.3,40c0.1-0.1,0.1-0.2,0-0.3c0,0-0.1-0.1-0.2-0.1c-0.3,0.1-0.5,0.1-0.8,0.2
		c-1.5,0.5-3,1.1-4.4,1.6c0,0,0,0.1,0,0.2c-1.4,0.5-2.7,1-4.1,1.5c-0.4,0.2-0.8,0.4-1.3,0.6c-0.1,0.1-0.2,0.2-0.1,0.4
		c0.1,0.1,0.2,0.1,0.3,0.1c0.2,0,0.4-0.1,0.5-0.2c3.1-1.1,6.2-2.5,9.3-3.7C34.9,40.2,35.1,40.1,35.3,40L35.3,40z M34.8,36.5
		c0-0.5-0.2-0.9-0.3-1.3c0-0.1-0.1-0.3-0.2-0.4c-0.1-0.3-0.2-0.8-0.5-0.7c-0.5,0.1-0.1,0.6,0,0.9c0.1,0.4,0.3,0.9,0.4,1.3
		c0.1,0.3,0.1,0.7-0.3,0.9c-0.4,0.2-0.6-0.2-0.8-0.5c-0.2-0.5-0.4-1.1-0.6-1.6c-0.1-0.2-0.2-0.3-0.3-0.2c-0.2,0-0.2,0.2-0.2,0.3
		c0.2,0.7,0.4,1.5,0.9,2.1c0.3,0.4,0.8,0.7,1.3,0.5C34.7,37.5,34.8,37.1,34.8,36.5L34.8,36.5z M32.4,33.2c0.3-0.1,0.8-0.2,0.7-0.6
		c-0.2-0.5-0.6,0-0.8,0c-0.1,0-0.2,0.1-0.3,0.1c-0.1,0-0.1,0,0,0c-0.2,0.1-0.4,0.1-0.6,0.2c-2,1-4.1,1.9-6.1,2.9
		c-0.8,0.4-1.7,0.7-2.5,1.1c-0.2,0.1-0.3,0.2-0.2,0.4c0.1,0.2,0.3,0.2,0.5,0.1c1.1-0.6,2.4-1,3.5-1.6C28.4,34.9,30.4,34.2,32.4,33.2
		L32.4,33.2z M31.3,38.1c0.4,0.2,0.6-0.1,0.5-0.4c-0.2-0.8-0.5-1.5-0.8-2.3c0-0.1-0.1-0.2-0.3-0.1c-0.2,0-0.2,0.2-0.2,0.3
		c0,0.4,0.4,0.8,0.3,1.4c-0.5-0.3-0.8-0.5-1.1-0.7c-0.2-0.1-0.4-0.1-0.5,0c-0.1,0.1-0.1,0.3-0.1,0.4c0.3,0.8,0.5,1.5,0.8,2.3
		c0.1,0.2,0.2,0.3,0.4,0.2c0.2,0,0.2-0.2,0.2-0.4c-0.1-0.5-0.2-1-0.4-1.5C30.5,37.6,30.9,37.9,31.3,38.1z M28.4,40.1
		c0.4-0.2,1.1-0.3,0.8-0.9c-0.2-0.4-0.6,0.2-0.9,0.3c-0.2,0.1-0.4,0.2-0.5,0c-0.1-0.2-0.2-0.4-0.1-0.6c0.1-0.2,0.4-0.3,0.6-0.4
		c0.1-0.1,0.4-0.2,0.2-0.4c-0.1-0.2-0.3-0.1-0.5-0.1c-0.2,0-0.5,0.5-0.8,0c-0.2-0.4,0.3-0.5,0.5-0.6c0.1-0.1,0.2-0.1,0.3-0.2
		c0.1-0.1,0.1-0.2,0.1-0.3c-0.1-0.2-0.2-0.2-0.4-0.1c-0.5,0.2-1,0.3-1.2,0.8c-0.2,0.4,0.2,0.7,0.2,1.1c0,0.1,0,0.1,0.1,0.2
		c0,0,0,0,0,0c0.1,0.3,0.2,0.6,0.3,0.9C27.5,40.4,27.7,40.5,28.4,40.1L28.4,40.1z M26.4,41c0.1-0.1,0.1-0.2,0.1-0.3
		c0-0.5-0.3-1-0.5-1.5c-0.2-0.4-0.2-1.1-0.8-1.1c-0.6,0-0.4,0.7-0.7,1c-0.3,0-0.5-0.3-0.7-0.3c-0.4-0.1-0.5,0-0.5,0.3
		c0,1.2,0.4,2.2,1.1,3.1c0.1-0.9-0.4-1.6-0.6-2.4c0.4-0.1,0.6,0.5,1,0.2c0.3-0.2,0.1-0.7,0.6-0.8c0.2,0.6,0.4,1.2,0.6,1.7
		C26.1,41,26.2,41.1,26.4,41L26.4,41z"/>
	<path d="M35.3,39.7c0.1,0.1,0.1,0.2,0,0.3c-0.2,0.1-0.4,0.2-0.6,0.3c-3.1,1.2-6.2,2.5-9.3,3.7c-0.2,0.1-0.4,0.1-0.5,0.2
		c-0.1,0-0.2,0-0.3-0.1c-0.1-0.2,0-0.3,0.1-0.4c0.4-0.2,0.8-0.4,1.3-0.6c1.4-0.5,2.7-1,4.1-1.5c0,0,0-0.1,0-0.2
		c1.5-0.5,2.9-1.1,4.4-1.6c0.2-0.1,0.5-0.2,0.8-0.2C35.2,39.6,35.3,39.6,35.3,39.7L35.3,39.7z"/>
	<path d="M34.5,35.2c0.2,0.4,0.4,0.9,0.3,1.3c0,0.5-0.2,1-0.7,1.2c-0.5,0.2-1,0-1.3-0.5c-0.5-0.6-0.7-1.4-0.9-2.1
		c0-0.2,0-0.3,0.2-0.3c0.2,0,0.3,0.1,0.3,0.2c0.2,0.5,0.4,1.1,0.6,1.6c0.1,0.3,0.3,0.7,0.8,0.5c0.4-0.2,0.4-0.5,0.3-0.9
		c-0.1-0.4-0.3-0.9-0.4-1.3c-0.1-0.3-0.5-0.7,0-0.9c0.4-0.1,0.4,0.4,0.5,0.7C34.4,34.9,34.4,35.1,34.5,35.2L34.5,35.2z"/>
	<path d="M33.1,32.7c0.1,0.4-0.4,0.4-0.7,0.6c-2,1-4,1.7-5.9,2.8c-1.1,0.7-2.4,1-3.5,1.6c-0.2,0.1-0.4,0.1-0.5-0.1s0.1-0.3,0.2-0.4
		c0.8-0.5,1.7-0.7,2.5-1.1c2-1,4.1-1.9,6.1-2.9c0.2-0.1,0.4-0.2,0.6-0.2c0.1-0.1,0.1-0.1,0,0c0.1,0,0.2-0.1,0.3-0.1
		C32.6,32.7,33,32.2,33.1,32.7L33.1,32.7z"/>
	<path d="M31.8,37.7c0.1,0.3-0.2,0.5-0.5,0.4c-0.4-0.2-0.8-0.5-1.2-0.8c0.1,0.6,0.3,1.1,0.4,1.5c0,0.2,0,0.3-0.2,0.4
		c-0.2,0-0.3,0-0.4-0.2c-0.3-0.8-0.5-1.5-0.8-2.3c0-0.2-0.1-0.3,0.1-0.4c0.2-0.2,0.4-0.1,0.5,0c0.4,0.2,0.7,0.4,1.1,0.7
		c0.1-0.6-0.2-1-0.3-1.4c0-0.2,0-0.3,0.2-0.3c0.1,0,0.2,0,0.3,0.1C31.3,36.2,31.6,36.9,31.8,37.7z"/>
	<path d="M29.2,39.3c0.3,0.5-0.5,0.7-0.8,0.9c-0.7,0.4-0.9,0.3-1.2-0.4c-0.1-0.3-0.2-0.6-0.3-0.9c0,0,0,0,0,0c0-0.1-0.1-0.1-0.1-0.2
		c0-0.4-0.5-0.7-0.2-1.1c0.3-0.4,0.8-0.6,1.2-0.8c0.1-0.1,0.3-0.1,0.4,0.1c0,0.1,0,0.2-0.1,0.3c-0.1,0.1-0.2,0.1-0.3,0.2
		c-0.2,0.2-0.7,0.3-0.5,0.6c0.2,0.5,0.5,0,0.8,0c0.2,0,0.4-0.2,0.5,0.1c0.1,0.2-0.1,0.3-0.2,0.4c-0.2,0.1-0.4,0.2-0.6,0.4
		c-0.2,0.2,0,0.4,0.1,0.6c0.1,0.2,0.3,0.1,0.5,0C28.6,39.5,29,38.9,29.2,39.3L29.2,39.3z"/>
	<path class="st0" d="M27.6,21.6c0.7,1.5,1.1,3.1,1.6,4.9c-3.4,0.6-6.2,2.5-9.4,3.4c1.3-1.4,2.6-2.7,3.8-4.2
		C24.7,24.1,26.2,23,27.6,21.6L27.6,21.6z"/>
	<path d="M26.5,40.7c0,0.1,0,0.2-0.1,0.3c-0.2,0.1-0.3,0-0.4-0.2c-0.2-0.6-0.4-1.1-0.6-1.7c-0.4,0.2-0.3,0.6-0.6,0.8
		c-0.4,0.3-0.6-0.3-1-0.2c0.1,0.8,0.6,1.5,0.6,2.4c-0.7-0.9-1.2-1.9-1.1-3.1c0-0.3,0.2-0.5,0.5-0.3c0.2,0.1,0.4,0.4,0.7,0.3
		c0.3-0.3,0.1-1,0.7-1c0.6,0,0.6,0.7,0.8,1.1C26.3,39.7,26.5,40.2,26.5,40.7L26.5,40.7z"/>
	<path d="M254.2,119.6c0.5,0.2,1.1,0.1,1.6,0.1c5.6,0,11.2,0,16.8,0c0.5,0,1,0,1.5,0.1c0.4,0.1,0.7,0.4,0.7,0.8
		c0,0.5-0.3,0.9-0.8,0.9c-0.5,0.1-1,0.1-1.5,0.1c-6.4,0-12.9,0-19.3,0c-16.3,0-32.6,0-49,0c-1.1,0-2.2-0.2-2.7,1.2
		c-0.2,0.5-0.7,0.5-1.2,0.5c-8,0-15.9,0.3-23.9,0.2c-1.7,0-3.4,0.1-5.1,0.1c-0.8,0-1.4,0.2-2.1,0.4c-1.8,0.8-3.8,1.2-5.8,1.2
		c-3.9,0.1-7.9,0.5-11.9,0.1c-0.9-0.1-1.7-0.1-2,1.1c-0.2,0.7-0.9,1-1.6,1.1c-0.4,0.1-0.9,0.1-1.4,0.1c-5.2,0-10.4,0.7-15.6,0.9
		c-3.7,0.1-7.3,0.4-11,0.4c-5,0-9.9,0.5-14.9,0.4c-0.7,0-1,0.3-1.2,0.9c-0.6,1.5-1.2,2.9-1.8,4.4c-0.1,0.3-0.2,0.6-0.3,1
		c-0.2,0.6-0.6,1.2-1.4,0.9c-0.7-0.3-0.6-0.9-0.4-1.6c0.7-2.1,1.6-4.1,2.6-6.1c0.3-0.7,0.4-1.2,0-1.8c-1.3-1.9-2.2-4.1-3-6.2
		c-1.6-4.2-3.1-8.3-4.7-12.5c-0.3-0.8-0.6-1.6-0.7-2.4c-0.2-1.1,0-1.6,0.6-1.7c0.9-0.1,1.1,0.6,1.3,1.3c0.2,0.5,0.2,1.1,0.4,1.6
		c1.9,5,3.8,10,5.7,15c0.6,1.5,1.5,2.9,2.3,4.3c0.5,0.8,1.1,1.1,2.1,1.1c6.2-0.2,12.4-0.3,18.6-0.6c7.2-0.3,14.4-0.8,21.6-1.1
		c0.8,0,1.2-0.2,1.5-1c0.8-2.6,1-5.2,0.9-7.9c-0.1-1.6-0.3-1.7-1.9-1.7c-7.3-0.3-14.7-0.4-22-0.3c-0.1,0-0.1,0-0.2,0
		c-2.1,0-2.6-0.3-3-2.4c-0.4-2.4-0.8-4.8-1.4-7.1c-0.7-3.4-1.8-6.6-3.1-9.8c-1.4-3.4-2.8-6.9-4.6-10.2c-3-5.4-7.3-9.5-12.7-12.6
		c-1.4-0.8-2.9-1.5-4.4-2.2c-1.4-0.7-2.9-0.8-4.4-1c-0.6-0.1-1,0.2-1.4,0.5c-1.1,0.8-2.1,1.8-2.9,2.8C81.1,80.1,76,88.2,72.1,97
		c-3.6,8.1-5.9,16.6-7.4,25.2c-0.5,2.9-1,5.9-1.5,8.8c-0.1,0.4-0.1,0.8-0.2,1.2c-0.1,0.7-0.4,1.2-1.2,1.1c-0.7-0.1-0.8-0.8-0.7-1.4
		c0.3-1.8,0.5-3.6,0.8-5.3c1.2-7.3,2.7-14.6,5-21.7c3.8-11.5,9.7-21.9,17.3-31.4c1.8-2.2,3.6-4.5,6.2-5.9c0.5-0.3,0.7-0.7,0.9-1.2
		c0.6-1.6,1.4-3.1,2.2-4.6c-0.4-0.4-0.9-0.5-1.3-0.7c-2.5-1-4.8-2.3-6.8-4c-1.9-1.5-3.1-3.4-3.8-5.7c-2.9-9.8-1.1-18.5,6-26
		c0.7-0.7,1.5-1.4,2.3-2.1c-0.5-0.4-0.8-0.7-1.1-1c-4.7-4.2-4.8-11.5-0.2-15.8c2.8-2.6,7.2-3.1,10.4-1.2c3,1.8,4.2,4.6,3.9,8.1
		c-0.1,0.9-0.3,1.9-0.6,2.9c1-0.2,1.9-0.4,2.9-0.5c6.8-0.8,13.2,0.9,19.2,4c2,1,4,2.1,6,3.2c2.3,1.3,4.4,2.9,6,5.1
		c1.1,1.5,1.8,3.1,1.9,5c0.2,2.5-0.7,4.7-2.7,6.3c-0.5,0.4-0.8,0.8-0.9,1.5c-0.2,4.1-1,8-2.3,11.9c-0.3,0.8-0.3,1.4,0.3,2.1
		c1.8,2.4,0.5,5.4-2.4,5.9c-1.1,0.2-1.7,0.7-2.2,1.5c-1.8,2.7-3.9,5.1-6.8,6.7c-3.4,1.9-6.9,2.3-10.5,0.4c-0.6-0.3-1-0.4-1.4,0.2
		c-1,1.5-2,3-3.1,4.5c1.6,1.3,3,2.7,4.3,4.2c3.1,3.3,5,7.3,6.8,11.4c1.8,4,3.4,8.1,4.6,12.3c0,0.2,0.2,0.3,0.3,0.5
		c6.5-2.6,13.3-4.2,19.8-6.8c0.7-0.3,1.4-0.7,2.1-1.1c3.1-2.1,6.1-4.5,9.6-6c2.6-1.1,5.4-1.6,8.3-1.1c1.2,0.2,2.3,0.7,3.3,1.3
		c1.3,0.8,1.9,2,1.6,3.1c-0.4,1.3-1.3,2.2-2.8,2.4c-1.5,0.2-3,0.3-4.5,0.7c-0.8,0.2-1.2,0.4-1.3,1.4c-0.2,1.8-1.5,3-2.9,4
		c-1.7,1.2-3.4,2.4-5.3,3.2c-2.3,1-4.3,2.4-6.3,3.9c-1.9,1.4-3.9,2.7-5.7,4.2c-0.2,0.2-0.6,0.3-0.7,0.8c0.6,0,1.1,0.1,1.6,0.1
		c3,0.1,6,0,9,0.3c2.4,0.3,4.6-0.2,6.8-0.6c4.3-0.7,8.3-0.1,12,2.3c0.9,0.6,2.2,0.6,2.9,1.4c1.3,1.4,2.9,1.2,4.5,1.2
		c6.8-0.1,13.6-0.1,20.3-0.2c0.9,0,2,0.6,2.8-0.1c0.6-0.6,0.8-1.6,1.2-2.4C204.3,104,208.7,92.8,214,82c0.2-0.4,0.3-0.7,0.5-1.1
		c0.3-0.7,0.8-1,1.6-0.8c1.1,0.2,2.1,0.3,3.2,0.4c2,0.3,2.4,0.8,1.4,2.7c-2.9,6-5.8,12-8.5,18.1c-2.5,5.6-5.2,11.1-7.9,16.6
		c-0.3,0.5-0.5,1.1-0.8,1.9c0.7,0,1.2,0,1.7,0c10.1,0,20.1,0,30.2,0c0.2,0,0.4,0,0.7,0c0.8,0.1,1.1-0.1,1-1c-0.3-3-0.8-5.9-1.3-8.9
		c-0.1-0.5-0.2-1-0.2-1.5c-0.2-1.1-0.1-2.3-1.5-2.9c-0.6-0.2-0.9-0.9-0.9-1.7c0.1-1.1,0-2.2,0.2-3.2c0.2-1.2,0.4-1.3,1.6-1.3
		c2.9,0,5.9,0,8.8-0.1c1.3,0,1.3,0,1.4-1.3c0-0.6,0.1-1.2-0.1-1.9c-1,0.2-1.9,0.7-2.8,1c-2.8,0.8-6.9-1.5-8.2-4.2
		c-0.5-1-0.1-1.9,1.1-2.5c2.9-1.5,5.9-1.4,8.8,0.1c0.2,0.1,0.5,0.3,0.7,0.4c0.2,0.1,0.4,0.4,0.9,0.3v-3.5c-0.6,0.1-1.3,0.3-1.9,0.4
		c-2.1,0.4-3.9-0.1-5.6-1.2c-0.8-0.5-1.3-1.2-1.7-2.1c-0.6-1.4-0.3-2.6,1.1-3.2c2.4-1.1,4.7-0.8,6.9,0.5c0.2,0.1,0.5,0.3,0.7,0.5
		c0.2,0.1,0.3,0.3,0.7,0.3c0.3-0.7,0.1-1.3-0.5-1.8c-3.3-2.6-3.3-8.3,0.4-12.1c0.9-0.9,1.6-0.8,2.5,0.1c1.8,1.9,2.9,4,2.9,6.7
		c0.1,2.3-0.8,4.1-2.6,5.4c-0.6,0.5-1,0.9-0.6,1.6c0.3,0.1,0.5-0.2,0.8-0.3c2.2-1.6,4.5-1.6,6.9-0.6c1.1,0.4,1.4,1.1,1.1,2.3
		c-0.9,3-4,4.9-7.1,4.3c-0.6-0.1-1.1-0.3-1.8-0.5c-0.2,1-0.1,1.9-0.1,2.8c0.1,0,0.3,0.1,0.4,0c3-2.3,6.2-1.8,9.5-0.8
		c0.4,0.1,0.8,0.4,1.1,0.7c1,0.8,1.1,1.6,0.3,2.7c-1.5,2.1-3.5,3.3-6.1,3.4c-1.8,0.1-3.6-0.2-5.4-0.9v3.3c1.1,0,2.3,0,3.4,0
		c1.9,0,3.8,0,5.8,0.1c1.4,0.1,1.8,0.5,1.8,1.9c0,1.2-0.1,2.4-0.2,3.6c0,0.2,0,0.4-0.1,0.5c-1.1,1.2-1.1,2.8-1.5,4.2
		c-0.8,3.1-1.4,6.2-2.1,9.2C254.1,118.9,254,119.2,254.2,119.6L254.2,119.6z M99.6,56.6c-1,1.4-1.7,3.1-2.9,4.3
		c-1.8,1.9-2.6,4.2-3.6,6.6c4.5,0.9,8.2,3.1,11.9,5.5c1.1-1.6,2.1-3.1,3.2-4.6c1.2-1.6,1.6-1.7,3.3-0.8c1.9,1.1,3.8,1.3,5.9,0.9
		c2.6-0.5,4.7-1.9,6.4-3.8c-0.4-0.6-1-0.7-1.4-1c-1.1-0.7-1.9-1.6-2.5-2.7c-0.2-0.4-0.3-0.9,0.1-1.2c0.5-0.4,1-0.2,1.3,0.2
		c0.5,0.6,0.9,1.3,1.5,1.8c1.7,1.4,2.5,1.4,3.6-0.4c0.9-1.5,2-2.4,3.8-2.6c1.6-0.2,2.1-2,0.8-3c-1-0.8-1-1.5-0.6-2.6
		c1.2-3.4,2-6.8,2.4-10.4c0.1-0.7,0.3-1.4,0-2.2c-0.3,0.1-0.6,0.1-0.9,0.2c-6.7,2.2-13.5,3.4-20.4,4.5c-1,0.2-1.7-0.1-2.4-0.9
		c-0.9-1.2-1.9-1.3-3.3-0.7c-1.2,0.5-2,1.4-2.7,2.5c-1.9,2.9-1,5.6,2.3,6.9c0.5,0.2,1,0.3,1.4,0.6c0.4,0.2,0.5,0.6,0.3,1
		c-0.1,0.4-0.4,0.6-0.8,0.6c-0.3,0-0.7-0.1-1-0.2c-1.3-0.3-2.4-1-3.5-1.8C101,54.4,100.3,55.5,99.6,56.6L99.6,56.6z M129.2,112.7
		c1.1,0,2.1-0.1,3.2,0c1.3,0.1,2.4-0.3,3.4-1.2c3.1-2.7,6.4-5,9.8-7.2c0.7-0.5,0.9-0.9,0.7-1.7c-0.3-1.6-0.9-3.1-1.8-4.5
		c-0.5-0.8-1-0.9-1.9-0.6c-2.6,1-5.1,2-7.8,2.8c-2.1,0.6-4.2,1.3-6.3,1.9c-1.8,0.5-3.5,1.3-5.2,2c-0.5,0.2-0.6,0.4-0.5,0.9
		c0.5,2.3,0.9,4.5,1.3,6.8c0.1,0.7,0.5,0.9,1.2,0.8C126.6,112.7,127.9,112.8,129.2,112.7L129.2,112.7L129.2,112.7z M237.1,106.6
		c0.5,4.2,1.6,8.3,1.7,12.5c0,0.5,0.3,0.5,0.7,0.5c3.8,0,7.7,0,11.5,0c0.7,0,1-0.3,1.1-0.9c0.4-1.7,0.8-3.4,1.2-5.1
		c0.6-2.5,1.1-5,1.7-7.6h-17.9C237.2,106.3,237.1,106.4,237.1,106.6L237.1,106.6z M152.1,123.4c3.8,0.3,7.5-0.2,11.3-0.2
		c2,0,3.9-0.4,5.7-1.3c1.4-0.7,1.6-1.8,0.7-3c-0.3-0.5-0.8-0.9-1.3-1c-1.4-0.4-2.5-1.2-3.7-2c-0.6-0.3-1.2-0.6-1.9-0.8
		c-3.8-1.4-7.5-0.7-11.3,0c-0.5,0.1-0.6,0.4-0.5,0.8c0.4,2.4,0,4.8-0.2,7.3C151.3,123.5,151.7,123.4,152.1,123.4z M150.6,101.6
		c1.6-0.9,3.2-1.9,4.6-3.2c0.7-0.7,2-1.6,1.2-2.6c-0.7-0.9-1.9,0.1-2.7,0.5c-0.9,0.4-1.6,1-2.5,1.4c-0.5,0.3-1.1,0.4-1.4-0.2
		c-0.3-0.6,0.1-1,0.5-1.2c1.3-0.8,2.6-1.6,4-2.2c0.6-0.3,1.3-0.5,2-0.3c0.9,0.3,1.7,0.1,2.5-0.2c1.4-0.4,2.8-0.7,4.3-0.8
		c0.3,0,0.7-0.1,1-0.1c0.6-0.1,1.1-0.4,1.2-1c0.2-0.7-0.3-1-0.8-1.3c-1.3-0.8-2.6-1.2-4.2-1.2c-2.1,0-4.1,0.5-6.1,1.3
		c-2.4,1-4.2,2.7-6.4,4c-0.9,0.5-1.8,1-2.5,1.8c1.5,1.8,2.4,4,2.8,6.4C149.1,102.3,149.9,102,150.6,101.6L150.6,101.6z M255.1,104.1
		c0.8,0.1,1-0.3,1-1c0-0.2,0-0.4,0-0.7c0-1.4,0-1.4-1.3-1.4c-4.7,0-9.3,0.1-14-0.1c-1.5-0.1-3,0.1-4.6,0.1c-0.3,0-0.8-0.1-0.9,0.2
		c-0.4,0.7-0.3,1.6-0.2,2.3c0.1,0.7,0.8,0.4,1.3,0.4c3,0,6.1-0.2,9.2,0.1C248.7,104.1,251.9,103.9,255.1,104.1L255.1,104.1z"/>
	<path d="M163.7,82.3c-0.7-0.1-1.1-0.5-0.9-1.1c0.4-0.9,0.8-1.8,1.3-2.7c0.2-0.3,0.5-0.4,0.9-0.3c0.3,0.2,0.6,0.4,0.5,0.8
		c-0.2,1.1-0.7,2.1-1.4,3C164.1,82.2,163.9,82.2,163.7,82.3L163.7,82.3z"/>
	<path d="M160,79.8c0,0.1,0,0.6-0.1,1c-0.1,0.6-0.4,1-1,0.9c-0.6,0-0.8-0.5-0.8-1.1c0.1-0.7,0.1-1.3,0.1-2c0.1-0.6,0.3-1.2,1-1.1
		c0.6,0.1,0.7,0.6,0.7,1.2C160.1,79,160,79.2,160,79.8L160,79.8z"/>
	<path d="M155.2,81.4c0,0.6-0.2,1-0.6,1.1c-0.4,0.1-0.8-0.1-1-0.4c-0.3-0.8-0.6-1.7-0.8-2.6c-0.1-0.4,0.2-0.7,0.7-0.8
		c0.4-0.1,0.7,0.1,0.9,0.4C154.9,79.8,155.1,80.7,155.2,81.4L155.2,81.4z"/>
	<path class="st0" d="M82.3,42.8c-0.3-5.6,2-10.5,5.7-14.9c2.1-2.5,4.4-4.7,7.4-6c0.5-0.2,0.9-0.4,1.3-0.7c2.7-2,5.8-3,9.2-3.5
		c2.5-0.4,4.8,0,7.2,0.3c4.1,0.6,7.8,2,11.3,4.2c1.5,0.9,3.2,1.6,4.8,2.5c2.1,1.2,4.1,2.6,5.5,4.6c1.3,1.8,2,3.7,1.4,5.9
		c-0.4,1.5-1.4,2.7-2.9,3.2c-7,2.4-14.2,3.9-21.6,5c-0.6,0.1-1,0.1-1.4-0.5c-1.1-1.5-3.3-1.8-5.2-0.9c-3.4,1.6-6,5.9-4.6,9.2
		c0.2,0.4,0.1,0.7-0.2,1.1c-1.6,2.1-2.9,4.3-4.3,6.5C95,60,95,60.1,93.4,59.5c-2.4-0.8-4.6-2.1-6.6-3.7c-1.8-1.4-2.9-3.1-3.5-5.3
		C82.6,48.1,82.2,45.6,82.3,42.8L82.3,42.8z"/>
	<path class="st3" d="M172.2,121.5c0.1-1.5,0.8-2.2,2.1-2.2c6.7-0.1,13.3-0.1,20-0.1c1,0,2,0,3,0.1c0.9,0.1,1.5-0.2,1.9-1.1
		c3.2-7.1,7-13.9,10-21.1c1.9-4.7,4.2-9.2,6.4-13.8c0.6-1.3,0.6-1.3,2-1.1c0.4,0,0.8,0.1,1.1,0.1c0.3,0.5-0.1,0.9-0.3,1.3
		c-3.2,6.5-6.2,13.1-9.2,19.8c-2.4,5.4-5.1,10.8-7.9,16.1c-0.7,1.3-1.4,1.8-2.9,1.9C189.7,121.5,181,121.5,172.2,121.5L172.2,121.5z
		"/>
	<path class="st0" d="M100.9,12.5c0,1-0.2,2-0.6,3c-0.4,1-1,1.8-2,2.4c-2,1.2-4.1,2.4-6.2,3.5c-0.5,0.3-0.9,0.3-1.4,0
		c-2.8-1.7-4.3-6.3-3.6-8.9c0.9-3.4,3.3-5.9,6.6-6.3C97.8,5.6,101,8.5,100.9,12.5z"/>
	<path class="st0" d="M246.4,70.6c1.8,1.7,2.5,3.7,2.3,6.1c-0.1,0.6-0.3,1.1-0.6,1.6c-0.4,0.7-0.9,1.6-1.7,1.5
		c-0.7-0.1-1.2-0.9-1.6-1.6C243.7,75.2,244.6,72.8,246.4,70.6L246.4,70.6z"/>
	<path class="st0" d="M257,92.1c-2.2,2.9-6,3.6-9.2,1.7C248.8,90.9,253.2,90.1,257,92.1z"/>
	<path class="st0" d="M244.6,93.6c-3.2,2.5-6.9,1.6-8.8-1.5C238.7,90.4,241.9,90.9,244.6,93.6z"/>
	<path class="st0" d="M245,85.6c-1.8,0.9-3.6,1-5.3,0.3c-0.7-0.3-1.4-0.8-1.8-1.5c-0.3-0.5-0.3-0.9,0.4-1.2c1.5-0.6,2.9-0.4,4.3,0.2
		C243.5,83.9,244.3,84.6,245,85.6L245,85.6z"/>
	<path class="st0" d="M248,85.8c1.5-2.6,3.8-3.3,6.3-2.1C253.3,86.5,250.8,87.3,248,85.8z"/>
	<path d="M125.8,52.9c-0.9,0-1.5-0.6-1.5-1.5c0-0.9,0.8-1.7,1.8-1.7c0.8,0,1.5,0.8,1.5,1.5C127.6,52.1,126.7,52.9,125.8,52.9
		L125.8,52.9z"/>
	<path class="st0" d="M204.3,1c-18.5,0-33.4,15-33.4,33.5c0,7.8,2.7,15,7.2,20.7l-3.3,7.7c-0.1,0.4-0.1,0.8,0.2,1
		c0.2,0.2,0.4,0.3,0.7,0.3c0.1,0,0.2,0,0.4-0.1l7.7-3.3c5.7,4.5,12.9,7.2,20.7,7.2c18.5,0,33.4-15,33.4-33.5S222.7,1,204.3,1z"/>
	<g>
		<defs>
			<path id="SVGID_1_" d="M204.3,1c-18.5,0-33.4,15-33.4,33.5c0,7.8,2.7,15,7.2,20.7l-3.3,7.7c-0.1,0.4-0.1,0.8,0.2,1
				c0.2,0.2,0.4,0.3,0.7,0.3c0.1,0,0.2,0,0.4-0.1l7.7-3.3c5.7,4.5,12.9,7.2,20.7,7.2c18.5,0,33.4-15,33.4-33.5S222.7,1,204.3,1z"/>
		</defs>
		<clipPath id="SVGID_00000106849891292023989930000000770589090904111286_">
			<use xlink:href="#SVGID_1_"  style="overflow:visible;"/>
		</clipPath>
		<g style="clip-path:url(#SVGID_00000106849891292023989930000000770589090904111286_);">
			<path d="M217,28.1c1,0.3,1.7,0.8,2.3,1.6c0.8,1,1,2.2,0.9,3.5c0,0.4-0.2,0.7-0.4,1.1c-0.7,1-1.6,1.8-2.9,2.1
				c-0.5,0.1-0.8,0.3-0.9,0.9c-0.2,1.8-0.7,3.5-1.4,5.1c-1.1,2.4-2.7,4.1-5.4,4.7c-0.3,0.1-0.4,0.2-0.5,0.5c0,0.1-0.1,0.2-0.1,0.3
				c-0.3,1.8-0.3,3.7-0.1,5.6c0,0.2,0.1,0.4,0.1,0.6c0.2,0.6,0.2,0.6,0.8,0.5c0.8-0.2,1.4,0.3,1.9,0.9c0.2,0.3,0.5,0.4,0.8,0.5
				c1.5,0.2,3,0.5,4.5,0.9c2.1,0.5,3.6,1.7,4.8,3.4c1.3,1.7,1.8,3.7,1.8,5.9c0,0.5,0,1,0,1.5c0,0.6-0.3,1-0.8,1.2
				c-3.5,1.5-7,2.8-10.8,3.4c-1.1,0.2-2.1,0.4-3.2,0.7c-1.2,0.3-2.5,0.4-3.8,0.5c-0.5,0-1-0.2-1.5-0.4c-3-1.1-6.2-1.8-9.2-3.1
				c-2.2-0.9-4.5-1.6-6.6-2.8c0,0-0.1,0-0.1,0c-0.9-0.2-1.1-0.8-1.1-1.7c0-3.2,1.7-5.3,4.3-6.8c1.6-0.9,3.3-1.2,5.1-1.7
				c0.2-0.1,0.4-0.1,0.6-0.2c0.1,0,0.2-0.1,0.2-0.2c0.3-1.3,1.4-1.7,2.5-2c0.4-0.1,0.6-0.3,0.7-0.7c0.4-2,0.3-3.9,0-5.9
				c-0.1-0.7-0.1-0.7-0.9-0.8c-1.6-0.2-3.1-0.7-4.1-2.2c-0.3-0.5-0.6-1.1-0.7-1.7c-0.5-2.3-0.9-4.5-1-6.8c0-0.5-0.3-0.5-0.6-0.7
				c-1.3-0.6-2.3-1.5-2.8-2.9c-0.5-1.7,0.6-4.6,2.4-5.2c0.4-0.1,0.5-0.3,0.5-0.7c0-0.5,0.2-1,0.6-1.3c0.3-0.2,0.4-0.5,0.4-0.8
				c0-1.1,0.2-2.3,0.5-3.4c0.2-1,0.2-2,0.3-3c0.3-2.3,0.6-4.6,1-6.9c0-0.1,0-0.1,0-0.2c0.1-1.6,1.2-2.4,2.6-3
				c1.6-0.7,3.3-1.1,5.1-1.1c2.6,0.1,5.3-0.1,7.9,0c1.4,0.1,2.6,0.6,3.4,1.7c0.4,0.5,0.5,1.2,0.6,1.9c0.3,1.6,0.6,3.3,0.8,4.9
				c0.2,2.6,0.6,5.1,1,7.6c0,0.1,0,0.3,0.1,0.4c0.6,0.8,0.5,1.7,0.6,2.6C217.5,27.1,217.3,27.5,217,28.1L217,28.1z M197.6,26.3
				c-0.9,0-1,0-0.9,0.9c0,0.2,0,0.4,0.1,0.6c0,0.5,0,1.1-0.2,1.6c-0.3,0.8-1,1-1.6,0.4c-0.3-0.3-0.6-0.6-0.9-1
				c-0.4-0.6-0.7-0.6-1.4-0.4c-1.8,0.4-2.9,3.3-1.8,5c0.1,0.1,0.1,0.2,0.2,0.3c0.7,0.7,1.4,1.3,2.4,1.5c0.4,0.1,0.4,0.2,0.4,0.6
				c0.1,2.4,0.5,4.8,1,7.2c0.3,1.3,1,2.3,2.3,2.9c0.7,0.3,1.4,0.5,2.2,0.4c0.5,0,0.7,0.2,0.9,0.6c0.1,0.2,0.2,0.5,0.2,0.7
				c0.3,1.7,0.4,3.4,0.2,5.1c-0.1,0.7-0.2,0.6,0.6,0.9c0.6,0.2,1.3,0.3,1.9,0.5c0.5,0.2,0.9,0.2,1.4,0c0.7-0.2,1.4-0.3,2.1-0.5
				c0.8-0.2,0.8-0.2,0.8-1c0-1.6-0.1-3.3,0.2-4.9c0.2-0.9,0.5-1.6,1.6-1.6c0.2,0,0.3-0.1,0.5-0.1c1.9-0.6,3.1-2,3.9-3.8
				c0.8-1.9,1.3-3.8,1.5-5.9c0-0.5,0.2-0.5,0.6-0.6c0.4,0,0.9-0.2,1.3-0.3c1.1-0.3,2.2-1.5,2.2-2.5c0.1-1.3-0.4-2.4-1.3-3.2
				c-0.6-0.5-1.3-0.9-2.2-0.3c-0.3,0.2-0.6,0.3-1,0.5c-1.2,0.6-2,0.1-2.1-1.2c0-0.6,0-1.2-0.1-1.8c-0.2-1.2,0.1-1.1-1.2-1
				c-3.5,0.5-7,0.9-10.5,0.7C199.9,26.3,198.7,26.3,197.6,26.3L197.6,26.3z M213.9,70.5c2-0.4,3.8-1.2,5.7-1.8
				c0.8-0.3,1.5-0.7,2.3-1c0.3-0.1,0.4-0.3,0.4-0.6c0.1-2.3-0.1-4.6-1.6-6.6c-0.9-1.3-2.1-2.3-3.6-2.8c-1.4-0.4-2.8-0.9-4.2-1
				c-0.5,0-1-0.3-1.5-0.2s-0.8,0.6-1.2,0.9c-0.4,0.3-0.9,0.5-1.2,0.9c1.3,1.8,2.7,3.6,4.1,5.3c0.3,0.4,0.4,0.8,0.4,1.3
				c-0.1,0.8-0.2,1.7-0.3,2.5c-0.1,1.1-0.1,2.1-0.1,3.2C213.6,70.6,213.7,70.6,213.9,70.5L213.9,70.5z M196.1,66.3
				c0-0.6,0.2-1.1,0.6-1.5c1.2-1.3,2.2-2.7,3.5-4c0.2-0.2,0.4-0.4,0.6-0.7c-1.1-0.9-2.1-1.7-3.1-2.6c-0.3-0.2-0.5-0.3-0.9-0.2
				c-0.8,0.3-1.7,0.5-2.5,0.7c-1.7,0.5-3.4,1-4.7,2.2c-1.4,1.2-2.2,2.6-2.3,4.5c-0.1,0.8,0.1,1.3,0.9,1.6c0.2,0.1,0.4,0.2,0.6,0.3
				c1.7,0.9,3.5,1.3,5.2,2.2c0.6,0.3,1.3,0.5,2,0.7C196,68.4,196.1,67.3,196.1,66.3L196.1,66.3z M206.9,72c1.7-0.4,3.5-0.8,5.2-1.1
				c0.3-0.1,0.3-0.2,0.3-0.4c0-1.9,0.2-3.8,0.4-5.7c0-0.2,0-0.5-0.2-0.7c-1.3-1.7-2.7-3.3-3.9-5c-0.2-0.3-0.4-0.3-0.8-0.1
				c-0.5,0.3-0.9,0.8-1.4,1.1c-1,0.7-1.2,1.7-1.1,2.8c0.2,1.5,0.4,3,0.6,4.5c0.2,1.5,0.2,3.1,0.2,4.6
				C206.4,72.1,206.7,72.1,206.9,72L206.9,72z M213.7,22c-2.6,0.5-5.3,0.8-8,0.9c-3.2,0.2-6.4,0.1-9.6,0c-0.5,0-1.1-0.4-1.5,0.1
				c-0.3,0.4-0.1,1.1-0.2,1.6c0,0.3,0.1,0.4,0.4,0.4c0.8,0.1,1.6,0.3,2.4,0.3c3.5,0.1,7,0.3,10.4-0.2c2.4-0.3,4.8-0.5,7.1-1.4
				c1-0.4,1-0.4,0.9-1.4c-0.1-0.3,0-0.6-0.2-0.9C214.8,21.6,214.3,21.9,213.7,22L213.7,22z M212.5,8.7c-0.8-0.5-1.8-0.5-2.7-0.5
				c-2.3,0-4.6,0.1-6.9,0c-1.6,0-3.2,0.4-4.7,1c-0.5,0.2-0.9,0.4-1.2,0.9c0.6,0.3,1.1,0.4,1.7,0.4c3.9,0.2,7.9,0.3,11.8-0.2
				c1-0.1,2-0.3,2.9-0.7C213.2,9.1,212.9,8.9,212.5,8.7L212.5,8.7z M202.3,21.7c0,0.3,0.1,0.5,0.4,0.5c0.7,0,1.3,0,2,0
				s0.7,0,0.7-0.7c0-0.4,0-0.8,0-1.2c0-1.8,0-3.5,0.1-5.3c0.1-0.9,0-1.9,0.1-2.8c0-0.3-0.1-0.4-0.4-0.4c-0.4,0-0.9,0-1.3,0
				c-1,0-1,0-1.1,1c-0.1,2-0.4,4-0.5,6.1C202.3,19.7,202.3,20.7,202.3,21.7L202.3,21.7z M196.1,11.8c-0.3,1.3-0.4,2.7-0.6,4.1
				c-0.3,1.8-0.5,3.7-0.6,5.6c0,0.4,0.1,0.5,0.4,0.5c0.5,0,1.1,0.1,1.6,0.1c0.6,0,0.6,0,0.7-0.6c0.3-2.4,0.5-4.8,0.8-7.1
				c0.1-0.9,0.2-1.9,0.4-2.9c-0.9,0-1.6-0.2-2.4-0.5C196.2,11.2,196.2,11.5,196.1,11.8L196.1,11.8z M201,22.1c0.3,0,0.5-0.1,0.4-0.4
				c0-0.1,0-0.3,0-0.4c0.1-2.4,0.1-4.8,0.4-7.2c0.1-0.8,0.1-1.6,0.2-2.6c-0.5,0-1,0-1.5,0c-0.7,0-0.7,0-0.9,0.7
				c-0.2,1.1-0.3,2.2-0.4,3.3c-0.3,2.1-0.5,4.3-0.7,6.6C199.4,22.1,200.2,22.1,201,22.1L201,22.1z M197.2,65.6
				c-0.1,0.1-0.2,0.3-0.2,0.4c-0.1,1.1-0.1,2.3-0.1,3.4c0,0.3,0.1,0.5,0.4,0.5c0.7,0.2,1.4,0.4,2.1,0.7c0.6,0.2,0.6,0.2,0.7-0.4
				c0.4-2.4,0.9-4.9,1.6-7.2c0.1-0.2,0.1-0.3,0-0.5c-0.3-0.3-0.3-0.8-0.5-1.3C199.6,62.5,198.5,64.1,197.2,65.6L197.2,65.6z
				 M209.1,12.3c0.3,2.5,0.6,5.1,0.7,7.6c0,0.5-0.3,1.3,0.1,1.6c0.4,0.3,1.1,0,1.7-0.1c0.5,0,0.6-0.2,0.6-0.7c0-1.4-0.2-2.8-0.4-4.1
				c-0.2-1.6-0.5-3.2-0.9-4.8c-0.1-0.6-0.1-0.6-0.8-0.6c-0.4,0-0.8,0.1-1.3,0.1C209,11.7,209.1,12,209.1,12.3L209.1,12.3z
				 M208.2,21.8c0.6-0.1,0.6-0.1,0.7-0.8c0.1-3-0.4-5.9-0.7-8.8c-0.1-0.8-0.1-0.8-0.9-0.8c-0.4,0-0.6,0.1-0.6,0.5
				c0,0.3-0.1,0.7-0.1,1c-0.1,1.5-0.1,3-0.1,4.5c-0.1,1.5,0.1,3-0.1,4.5C207,22,207.6,21.9,208.2,21.8L208.2,21.8z M213.5,21.1
				c0.4-0.1,0.7-0.2,1-0.3c0.7-0.2,0.7-0.2,0.6-0.9c-0.1-0.5-0.1-1.1-0.2-1.7c-0.2-2.2-0.4-4.4-0.8-6.5c-0.1-0.4-0.1-0.8-0.4-1.2
				c-0.5,0.1-1,0.4-1.6,0.4c-0.4,0-0.4,0.2-0.3,0.6c0.2,1.1,0.5,2.2,0.7,3.4c0.4,2.1,0.6,4.2,0.6,6.4
				C213.3,21.1,213.4,21.1,213.5,21.1L213.5,21.1z M205.6,57.2c0.2-0.1,0.4-0.2,0.5-0.4c0.5-0.6,1.1-1.2,1.7-1.6
				c0.3-0.2,0.4-0.4,0.2-0.8c-0.2-0.3-0.3-0.6-0.7-0.4c-0.2,0.1-0.5,0.1-0.8,0.2c-1,0.2-1.9,0.4-2.9,0.8c-0.2,0.1-0.4,0.2-0.4,0.5
				c0,0.7-0.1,1.4,0,2.2C204,57.7,204.8,57.5,205.6,57.2L205.6,57.2z M201.2,54.2c-0.8-0.2-0.7-0.2-0.9,0.5
				c-0.1,0.4,0.1,0.7,0.4,0.8c0.6,0.4,1,1,1.2,1.6c0.1,0.1,0.1,0.3,0.3,0.3c0.2-1-0.1-2,0.3-3C202,54.3,201.6,54.3,201.2,54.2
				L201.2,54.2z M204,59.4c0.8,0.1,1-0.1,1.2-1c-0.8,0.1-1.6,0.3-2.3,0.7C203.4,59.2,203.7,59.3,204,59.4L204,59.4z M207,40.8
				c0.3-0.2,0.5-0.4,0.8-0.7c0.2-0.2,0.3-0.4,0.1-0.7c-0.2-0.2-0.4-0.2-0.7,0c-0.1,0-0.1,0.1-0.2,0.2c-0.8,0.8-1.8,1-2.9,1
				c-1.1-0.1-2.1-0.2-2.8-1.2c-0.2-0.2-0.4-0.3-0.6-0.1s-0.2,0.5-0.1,0.7c0.3,0.4,0.6,0.8,1.1,1c0.8,0.3,1.6,0.5,2.5,0.6
				C205.2,41.6,206.2,41.4,207,40.8L207,40.8z M202.7,33.5c0,0.2,0.1,0.4,0.4,0.5c0.2,0,0.4-0.1,0.5-0.3c0.1-0.3,0.1-0.5,0.3-0.8
				c0.4-0.6,1-0.5,1.3,0c0.1,0.2,0.1,0.5,0.2,0.7c0,0.2,0.2,0.3,0.4,0.3c0.3,0,0.4-0.2,0.4-0.4c0.1-0.8-0.6-2.1-1.6-2
				C203.5,31.6,202.6,32.5,202.7,33.5L202.7,33.5z M201.2,28.7c-0.4,0-0.8,0.4-0.8,0.8c0,0.4,0.3,0.7,0.7,0.8c0.4,0,0.8-0.3,0.8-0.8
				C201.9,29,201.6,28.7,201.2,28.7L201.2,28.7z M209,29.4c0-0.4-0.3-0.7-0.7-0.7c-0.5,0-0.8,0.4-0.8,0.9c0,0.4,0.4,0.7,0.8,0.7
				C208.7,30.2,209,29.9,209,29.4L209,29.4z M211.2,64.7c-0.5,0-0.9,0.5-1,1.1c0,0.4,0.2,0.7,0.6,0.7c0.5,0,1-0.5,1-1.1
				C211.8,65,211.5,64.7,211.2,64.7z M211.5,69.4c0-0.4-0.4-0.7-0.8-0.7c-0.4,0-0.8,0.4-0.7,0.8c0,0.4,0.3,0.7,0.7,0.6
				C211.1,70.2,211.5,69.8,211.5,69.4L211.5,69.4z M198.8,68.1c-0.5,0-0.8,0.3-0.8,0.7c0,0.4,0.2,0.7,0.6,0.8c0.4,0,0.9-0.4,0.9-0.8
				C199.5,68.4,199.2,68.1,198.8,68.1L198.8,68.1z M198.2,66.1c0,0.3,0.4,0.6,0.7,0.6c0.4,0,0.7-0.4,0.7-0.8c0-0.4-0.3-0.7-0.7-0.7
				C198.6,65.2,198.2,65.7,198.2,66.1L198.2,66.1z"/>
		</g>
	</g>
	<path class="st1" d="M204.3,68.9c-7.6,0-14.8-2.4-20.8-7l-7.1,3.1c-0.3,0.1-0.5,0.2-0.8,0.2c-0.5,0-1-0.2-1.4-0.6
		c-0.6-0.6-0.7-1.4-0.4-2.1l3.1-7.1c-4.6-6-7-13.2-7-20.8c0-19,15.5-34.5,34.5-34.5c19,0,34.5,15.5,34.5,34.5
		C238.7,53.4,223.3,68.9,204.3,68.9z M183.7,59.6l0.5,0.4c5.8,4.6,12.7,7,20.1,7c17.9,0,32.5-14.6,32.5-32.4S222.2,2,204.3,2
		c-17.9,0-32.5,14.6-32.5,32.5c0,7.4,2.4,14.3,7,20.1l0.4,0.5l-3.5,8.1L183.7,59.6z"/>
</g>
</svg>
