<?xml version="1.0" encoding="UTF-8"?><svg id="_レイヤー_2" xmlns="http://www.w3.org/2000/svg" viewBox="0 0 40 62.05"><g id="_レイヤー_1-2"><path d="m35.24,55.36c0,.35-.02.69,0,1.04.03.59-.26.97-.76,1.19-3.22,1.39-6.5,2.58-9.96,3.23-1.2.22-2.38.53-3.57.81-1.11.27-2.25.35-3.39.43-.54.04-1.05-.18-1.54-.35-2.87-1.02-5.85-1.74-8.66-2.91-2.12-.89-4.34-1.55-6.36-2.7C.03,55.94,0,55.26,0,54.45c0-2.99,1.56-4.98,4.02-6.39,1.46-.84,3.11-1.19,4.72-1.63,1.07-.29,2.12-.67,3.1-1.2.35-.19.55-.43.67-.83.63-2.14.56-4.3.27-6.47-.09-.7-.14-.69-.84-.78-.74-.1-1.45-.26-2.14-.57-1.34-.61-2.1-1.67-2.43-3.06-.51-2.14-.87-4.31-.97-6.52-.02-.39-.17-.52-.51-.66-1.32-.56-2.32-1.42-2.73-2.89-.42-1.47.6-3.96,1.87-4.59.5-.25.48-.28.31-.88-.13-.46-.2-.93-.21-1.41-.06-1.73.09-3.45.26-5.16.18-1.79.86-3.35,2.42-4.47,1.14-.82,2.29-1.53,3.7-1.72.24-.03.49-.11.71-.06,1.11.27,2.15-.19,3.2-.36,1.55-.26,3.1-.39,4.67-.3.19.01.37.04.56.04,2.46-.07,4.6.84,6.61,2.16.18.12.35.25.49.41,1.91,2.25,3.12,4.82,3.18,7.8.02,1.34-.27,2.68-.96,3.88-.16.29-.19.44.16.6,1.29.59,2.53,2.3,2.26,4.46-.04.29-.14.57-.29.82-.65,1.08-1.51,1.93-2.8,2.17-.63.12-.89.39-.96,1.06-.17,1.51-.59,2.96-1.16,4.37-.97,2.4-2.55,4.14-5.18,4.7-.34.07-.49.23-.57.55-.16.65-.19,1.31-.22,1.97-.05,1.06-.08,2.12.02,3.18.03.35.11.68.22,1.01.16.46.43.77.95.97,1.23.46,2.49.68,3.77.9,1.87.33,3.77.63,5.37,1.82,1.98,1.47,3.26,3.36,3.6,5.86.1.71.14,1.42.13,2.14ZM13.29,12c-1.58,2.35-3.41,4.47-5.6,6.27-.14.12-.32.23-.3.44.04.49-.25.55-.64.56-.82,0-1.51.34-1.99.99-.41.56-.69,1.2-.79,1.89-.11.76,0,1.51.51,2.11.61.71,1.31,1.32,2.28,1.5.34.06.46.24.47.6.04.93.14,1.85.22,2.77.11,1.41.5,2.76.77,4.14.23,1.18.89,2.07,2.05,2.56.67.29,1.36.48,2.08.44.6-.04.9.26,1.08.73.21.52.3,1.07.34,1.63.09,1.56.25,3.13-.11,4.68-.04.16-.04.32.14.41,1.04.48,1.96,1.16,2.95,1.71.19.1.33.06.5-.06.89-.62,1.83-1.17,2.79-1.67.3-.16.38-.32.34-.68-.18-1.59-.15-3.18.02-4.76.04-.42.13-.84.25-1.25.16-.52.47-.89,1.08-.89.21,0,.41-.07.62-.13,1.95-.61,3.14-2.01,3.91-3.81.74-1.74,1.19-3.57,1.34-5.46.03-.37.14-.51.52-.51.48,0,.95-.15,1.39-.33.97-.4,1.77-1.06,1.98-2.13.34-1.73-.85-3.58-2.53-3.84-.18-.03-.36-.08-.55-.09-.27-.02-.37-.16-.36-.41,0-.16-.02-.32,0-.48.05-.4-.12-.64-.47-.82-.84-.45-1.65-.96-2.51-1.38-2.25-1.09-4.38-2.37-6.39-3.86-.1-.08-.19-.28-.41-.11.07.19.13.39.2.58.08.22.18.45.24.67.15.56-.08.82-.65.73-.1-.02-.21-.04-.31-.08-1.07-.47-2.15-.91-3.04-1.7-.41-.37-.85-.71-1.27-1.05-.06.04-.12.05-.15.09Zm14.78,35.15c-.36,2.48-.34,4.97-.08,7.46.1,1.03.39,2.03.6,3.04.21,1.03.38,1.1,1.35.76.42-.15.85-.3,1.28-.43.95-.28,1.83-.71,2.71-1.14.24-.12.45-.24.46-.57.07-2.09-.03-4.13-1.26-5.96-1.21-1.8-2.77-3.04-4.97-3.38-.03.09-.07.16-.08.23Zm-21.3.74c-1.46.44-2.84,1.03-3.96,2.1-1.31,1.26-2.01,2.77-1.95,4.61.01.34.11.5.42.65,1.07.52,2.14,1.06,3.25,1.48,1.53.58,1.65.52,2.02-1.08.02-.08.02-.16.04-.24.28-1.11.34-2.26.41-3.39.09-1.37.03-2.74-.01-4.09-.13-.03-.18-.07-.23-.05Zm15.23-.43c-1.02.62-1.98,1.33-3.06,1.84-.6.29-.71.44-.56,1.1.29,1.24.51,2.49.67,3.75.05.38.12.76.19,1.18,1.33-1.21,3.38-6.14,3.45-8.23-.28.02-.47.22-.69.36Zm-6.81,6.5c.23-1.08.35-2.19.67-3.26.19-.64-.09-.97-.79-.93-.29.02-.51-.13-.72-.29-.57-.43-1.12-.89-1.57-1.45-.26-.32-.54-.63-.98-.96.22,3.01,1.72,5.37,3.13,7.97.12-.49.19-.79.26-1.08Zm7.07-8.45c-.59-.16-1.18-.3-1.41-1-.06-.19-.25-.15-.4-.06-.8.47-1.6.94-2.4,1.4-.32.19-.37.42-.16.72.32.46.64.91.95,1.37.17.26.32.27.58.1.98-.63,1.97-1.24,2.95-1.86.15-.1.32-.19.42-.46-.19-.08-.35-.17-.53-.22Zm-8.04,2.76c.13.13.29.23.43.35.18.16.34.13.45-.08.39-.69.78-1.39,1.16-2.08.07-.12.06-.26-.08-.34-.9-.53-1.76-1.14-2.75-1.6-.29.64-.39,1.37-1.32,1.53.76.8,1.43,1.51,2.11,2.21Zm3.73-27.16c.01-.29-.06-.56-.39-.58-.32-.02-.45.23-.46.53-.01.4-.03.79-.03,1.19,0,.23-.04.37-.31.46-1.12.4-1.61,1.59-1.27,2.76.22.76,1.46,1.4,2.36,1.22.2-.04.34-.18.35-.38.01-.24-.14-.39-.38-.43-.21-.03-.42-.03-.63-.08-.72-.18-.95-.48-.9-1.17.05-.77.26-1.01,1.04-1.1.39-.04.58-.21.59-.6,0-.32,0-.64,0-.91.02-.34.03-.63.05-.92Zm3.77-.72c-.01-.39-.32-.69-.71-.7-.43,0-.79.37-.78.82.02.39.31.64.75.63.44,0,.74-.32.73-.75Zm-8.26.16c.01.37.37.7.74.68.4-.02.71-.39.7-.82-.01-.42-.31-.72-.69-.72-.4,0-.77.42-.75.86Z"/><path d="m39.55,1.84c.78,1.34.55,4.22-.65,5.25-1.18,1.02-1.79,2.18-1.85,3.69-.03.61-.25,1.13-.98,1-.65-.12-.65-.7-.56-1.19.27-1.47.6-2.92,1.88-3.91.79-.61,1.18-1.37,1.18-2.4.01-2.14-.76-2.88-2.9-2.61-.11.01-.21.07-.32.07-.46,0-.92-.06-1-.62-.08-.53.28-.79.73-.95,1.48-.52,3.68.31,4.48,1.68Z"/><path d="m36.67,14.84c.34.59-.05,1.73-.72,2.14-.62.38-1.33.2-1.67-.42-.39-.72-.08-1.74.65-2.11.61-.31,1.45-.13,1.74.39Z"/><path d="m17.59,33.06c-.42,0-.73-.1-1.01-.25-.51-.27-.94-.62-.94-1.26,0-.7.19-1.29.86-1.67.83-.47,1.63-.39,2.42.04.53.28.87,1.27.7,1.9-.19.68-.9,1.24-1.66,1.28-.16,0-.32-.03-.38-.03Zm1.25-1.39c.28-.49.12-.99-.38-1.24-.6-.3-1.16-.21-1.7.16-.59.42-.54,1.25.09,1.6.22.12.47.15.7.19.63.07.93-.1,1.28-.71Z"/></g></svg>