<?xml version="1.0" encoding="UTF-8"?><svg id="_レイヤー_2" xmlns="http://www.w3.org/2000/svg" viewBox="0 0 160.24 64"><defs><style>.cls-1{fill:#ffb400;}</style></defs><g id="_レイヤー_1-2"><path class="cls-1" d="m146.02,27.92v-1.95h-23.05v1.95c0,10.31-1.86,20.39-5.23,28.37-.14.34-.21.69-.21,1.05v3.95c0,1.49,1.22,2.71,2.71,2.71h28.53c1.49,0,2.71-1.22,2.71-2.71v-4.49l-.16-.37c-3.41-8.01-5.29-18.14-5.29-28.51Zm1.55,32.18h-26.15v-2.51c3.35-8.03,5.21-17.57,5.43-27.72h15.29c.21,10.15,2.08,19.69,5.43,27.72v2.51Z"/><path class="cls-1" d="m132.32,21.65c.23-3.93,3.51-7.05,7.49-7.05h1.49v-1.49c0-3.99,3.09-7.26,7.05-7.49v-2.96s0,0,0,0v-.02c-4.93.21-9.07,3.86-9.88,8.71l-.05.36-.34.06c-4.92.82-8.53,4.94-8.74,9.89v1.2h0v.02h2.98v-1.23Z"/><path class="cls-1" d="m158.2.17c-.04-.05-.08-.11-.13-.16h0s0,0,0,0h0s0,0-.01-.01l-2.06,2.16c.77.88,1.21,1.95,1.26,3.13.06,1.37-.44,2.67-1.4,3.68-1,1.04-2.39,1.64-3.84,1.64h-1.33v1.47c0,2.96-2.41,5.37-5.37,5.37h-3.29c-2.41,0-4.41,1.85-4.64,4.21v1.2h0v.02h3.02v-.91c0-.85.86-1.55,1.62-1.55h3.31c3.93,0,7.36-2.8,8.16-6.66l.08-.3.29-.06c3.7-.79,6.38-4.1,6.38-7.89,0-1.99-.73-3.88-2.04-5.35Z"/><polygon class="cls-1" points="141.36 32.02 127.69 32.02 127.65 32.02 127.65 32.02 127.63 32.02 127.63 33 141.36 33 141.36 32.02"/><path class="cls-1" d="m58.1,4.01c.25-.02.5-.03.76-.03.24,0,.48,0,.72.03.25.02.45-.21.39-.46l-.77-3.25c-.09-.39-.64-.39-.73,0l-.75,3.26c-.06.25.14.48.39.46Z"/><path class="cls-1" d="m50.77,7.37c.13.21.44.24.6.05.32-.38.67-.73,1.05-1.05.19-.16.16-.47-.05-.6l-2.84-1.76c-.34-.21-.73.18-.52.52l1.77,2.84Z"/><path class="cls-1" d="m66.31,7.39c.16.19.47.16.6-.05l1.76-2.84c.21-.34-.18-.73-.52-.52l-2.84,1.77c-.21.13-.24.44-.05.6.38.32.73.67,1.05,1.05Z"/><path class="cls-1" d="m66.34,20.23c-.32.38-.67.73-1.05,1.05-.19.16-.16.47.05.6l2.85,1.76c.34.21.73-.18.52-.52l-1.77-2.84c-.13-.21-.43-.24-.6-.05Z"/><path class="cls-1" d="m68.71,13.83c0,.24,0,.48-.03.72-.02.25.21.45.46.39l3.25-.77c.39-.09.39-.64,0-.73l-3.26-.75c-.25-.06-.48.14-.46.39.02.25.03.5.03.76Z"/><path class="cls-1" d="m51.37,20.19c-.16-.19-.47-.16-.6.05l-1.77,2.84c-.21.34.18.73.52.52l2.84-1.76c.21-.13.24-.44.05-.6-.37-.32-.73-.68-1.05-1.05Z"/><path class="cls-1" d="m59.57,23.61c-.24.02-.48.02-.72.02-.26,0-.51,0-.76-.03-.25-.02-.45.21-.39.46l.75,3.26c.09.39.64.39.73,0l.77-3.25c.06-.25-.14-.48-.39-.46Z"/><path class="cls-1" d="m49.01,13.79c0-.24,0-.48.03-.72.02-.25-.21-.45-.46-.39l-3.25.77c-.39.09-.39.64,0,.73l3.26.75c.25.06.48-.14.46-.39-.02-.25-.03-.5-.03-.76Z"/><path class="cls-1" d="m58.86,6.45c-4.07,0-7.36,3.3-7.36,7.36s3.3,7.36,7.36,7.36,7.36-3.3,7.36-7.36-3.3-7.36-7.36-7.36Z"/><polygon class="cls-1" points="86.32 57.92 86.32 57.9 82.31 57.9 82.31 63.96 82.31 63.98 82.31 63.98 82.31 64 86.32 64 86.32 57.93 86.32 57.92 86.32 57.92"/><path class="cls-1" d="m103.51,26.04h-38.41c-.39,0-.7.31-.7.7v28.73c0,.39.31.7.7.7h38.41c.4,0,.72-.31.72-.7v-28.73c0-.39-.31-.7-.72-.7Zm-31.56,10.51h-3.9v-6.09h3.9v6.09Zm0,7.61h-3.9v-6.08h3.9v6.08Zm0,7.61h-3.9v-6.08h3.9v6.08Zm.9-15.21v-6.09h3.9v6.09h-3.9Zm0,7.61v-6.08h3.9v6.08h-3.9Zm0,7.61v-6.08h3.9v6.08h-3.9Zm7.12-15.21v-6.09h3.88v6.09h-3.88Zm0,7.61v-6.08h3.88v6.08h-3.88Zm0,7.61v-6.08h3.88v6.08h-3.88Zm4.8-15.21v-6.09h3.9v6.09h-3.9Zm0,7.61v-6.08h3.9v6.08h-3.9Zm0,7.61v-6.08h3.9v6.08h-3.9Zm7.11-15.21v-6.09h3.88v6.09h-3.88Zm0,7.61v-6.08h3.88v6.08h-3.88Zm0,7.61v-6.08h3.88v6.08h-3.88Zm8.7-15.21h-3.9v-6.09h3.9v6.09Zm-3.9,7.61v-6.08h3.9v6.08h-3.9Zm0,7.61v-6.08h3.9v6.08h-3.9Z"/><path class="cls-1" d="m27.18,34.27l-1.72,2.17-1.38.84-2.23,25.38c-.05.72.52,1.34,1.24,1.33l6.94-.04c.72,0,1.28-.63,1.2-1.35l-2.76-27.54-1.3-.8Z"/><path class="cls-1" d="m22.52,24.48c.97-.97,2.3-1.57,3.79-1.58.67,0,1.31.12,1.9.34.06.02.12.04.18.07h0s.01,0,.02,0l1.5-21.35c.04-.42-.08-.85-.33-1.18-.41-.59-1.08-.87-1.78-.75-.71.12-1.24.59-1.45,1.27l-5.63,18.51c-.07.22-.05.46.04.68l1.76,4Z"/><path class="cls-1" d="m23.56,34.31l.08-.11.46-.59.13-.16s0,0,0,0v-.02c-.16-.07-.33-.15-.5-.24-.24-.14-.47-.28-.68-.45-1.21-.91-2.02-2.29-2.16-3.87-.01-.14-.02-.29-.02-.43h0s0-.01,0-.02L1.09,37.28c-.38.17-.7.48-.9.85-.31.64-.24,1.37.2,1.93.43.56,1.09.81,1.8.68l15.9-3.14c.11-.02.22-.07.32-.13l4.48-2.75.67-.41Z"/><path class="cls-1" d="m52.68,35.54l-13.8-8.51c-.1-.06-.21-.1-.32-.13l-5.15-1.03-.78-.16-.14.03-.74.12-.2.03s0,0,0,0h-.02c.08.17.14.35.21.52.08.27.15.52.19.79.27,1.49-.08,3.06-1.06,4.31-.09.11-.17.22-.27.32h0s0,.01-.01.02l20.52,6.96c.4.13.84.12,1.24-.01.66-.26,1.11-.84,1.17-1.55.07-.7-.25-1.34-.85-1.72Z"/><path class="cls-1" d="m27.92,25.53c-.47-.27-1.01-.41-1.59-.41-1.04,0-1.95.5-2.56,1.25-.33.43-.56.95-.63,1.53-.03.16-.04.33-.04.5,0,.79.28,1.5.75,2.06.16.18.34.35.52.49.17.12.35.23.54.32.16.09.33.16.51.2.3.1.62.14.95.14.53,0,1.03-.13,1.45-.36.09-.05.18-.09.27-.15.09-.06.18-.12.27-.18.19-.16.36-.33.52-.51.45-.57.71-1.27.71-2.06,0-.41-.08-.8-.22-1.15-.26-.71-.79-1.31-1.44-1.67Zm-2.57,3.23c-.07-.02-.12-.04-.18-.1-.18-.1-.31-.3-.37-.54-.05-.23-.05-.49.04-.75.02-.08.06-.16.1-.24.23-.48.69-.74,1.09-.62.1.03.18.08.26.16h.01c.16.13.26.35.3.59.02.18.01.37-.03.57-.01.02-.01.05-.02.07-.2.62-.73,1.01-1.2.87Z"/></g></svg>